G04 #@! TF.GenerationSoftware,KiCad,Pcbnew,5.1.4-5.1.4*
G04 #@! TF.CreationDate,2019-11-01T16:10:20+01:00*
G04 #@! TF.ProjectId,Strom-Senke,5374726f-6d2d-4536-956e-6b652e6b6963,rev?*
G04 #@! TF.SameCoordinates,Original*
G04 #@! TF.FileFunction,Soldermask,Top*
G04 #@! TF.FilePolarity,Negative*
%FSLAX46Y46*%
G04 Gerber Fmt 4.6, Leading zero omitted, Abs format (unit mm)*
G04 Created by KiCad (PCBNEW 5.1.4-5.1.4) date 2019-11-01 16:10:20*
%MOMM*%
%LPD*%
G04 APERTURE LIST*
%ADD10C,0.100000*%
G04 APERTURE END LIST*
D10*
G36*
X179306560Y-133840166D02*
G01*
X179454153Y-133901301D01*
X179586982Y-133990055D01*
X179699945Y-134103018D01*
X179788699Y-134235847D01*
X179849834Y-134383440D01*
X179881000Y-134540123D01*
X179881000Y-134699877D01*
X179849834Y-134856560D01*
X179788699Y-135004153D01*
X179699945Y-135136982D01*
X179586982Y-135249945D01*
X179454153Y-135338699D01*
X179454152Y-135338700D01*
X179454151Y-135338700D01*
X179306560Y-135399834D01*
X179149878Y-135431000D01*
X178990122Y-135431000D01*
X178833440Y-135399834D01*
X178685849Y-135338700D01*
X178685848Y-135338700D01*
X178685847Y-135338699D01*
X178553018Y-135249945D01*
X178440055Y-135136982D01*
X178351301Y-135004153D01*
X178290166Y-134856560D01*
X178259000Y-134699877D01*
X178259000Y-134540123D01*
X178290166Y-134383440D01*
X178351301Y-134235847D01*
X178440055Y-134103018D01*
X178553018Y-133990055D01*
X178685847Y-133901301D01*
X178833440Y-133840166D01*
X178990122Y-133809000D01*
X179149878Y-133809000D01*
X179306560Y-133840166D01*
X179306560Y-133840166D01*
G37*
G36*
X158635040Y-131567825D02*
G01*
X158880280Y-131642218D01*
X158880282Y-131642219D01*
X158945171Y-131676903D01*
X159106294Y-131763025D01*
X159157899Y-131805376D01*
X159304397Y-131925603D01*
X159424624Y-132072101D01*
X159466975Y-132123706D01*
X159587782Y-132349720D01*
X159662175Y-132594960D01*
X159671010Y-132684659D01*
X159681000Y-132786094D01*
X159681000Y-133913906D01*
X159662175Y-134105039D01*
X159587781Y-134350282D01*
X159466976Y-134576293D01*
X159365552Y-134699878D01*
X159304396Y-134774396D01*
X159106293Y-134936975D01*
X158880279Y-135057782D01*
X158635039Y-135132175D01*
X158380000Y-135157294D01*
X158124960Y-135132175D01*
X157879720Y-135057782D01*
X157779383Y-135004151D01*
X157653707Y-134936976D01*
X157455604Y-134774396D01*
X157293026Y-134576294D01*
X157293025Y-134576293D01*
X157172218Y-134350279D01*
X157097825Y-134105039D01*
X157079000Y-133913904D01*
X157079000Y-132786095D01*
X157097825Y-132594960D01*
X157172218Y-132349720D01*
X157189942Y-132316560D01*
X157293024Y-132123707D01*
X157455604Y-131925604D01*
X157569940Y-131831771D01*
X157653707Y-131763025D01*
X157814830Y-131676903D01*
X157879719Y-131642219D01*
X157879721Y-131642218D01*
X158124961Y-131567825D01*
X158380000Y-131542706D01*
X158635040Y-131567825D01*
X158635040Y-131567825D01*
G37*
G36*
X164085040Y-131567825D02*
G01*
X164330280Y-131642218D01*
X164330282Y-131642219D01*
X164395171Y-131676903D01*
X164556294Y-131763025D01*
X164607899Y-131805376D01*
X164754397Y-131925603D01*
X164874624Y-132072101D01*
X164916975Y-132123706D01*
X165037782Y-132349720D01*
X165112175Y-132594960D01*
X165121010Y-132684659D01*
X165131000Y-132786094D01*
X165131000Y-133913906D01*
X165112175Y-134105039D01*
X165037781Y-134350282D01*
X164916976Y-134576293D01*
X164815552Y-134699878D01*
X164754396Y-134774396D01*
X164556293Y-134936975D01*
X164330279Y-135057782D01*
X164085039Y-135132175D01*
X163830000Y-135157294D01*
X163574960Y-135132175D01*
X163329720Y-135057782D01*
X163229383Y-135004151D01*
X163103707Y-134936976D01*
X162905604Y-134774396D01*
X162743026Y-134576294D01*
X162743025Y-134576293D01*
X162622218Y-134350279D01*
X162547825Y-134105039D01*
X162529000Y-133913904D01*
X162529000Y-132786095D01*
X162547825Y-132594960D01*
X162622218Y-132349720D01*
X162639942Y-132316560D01*
X162743024Y-132123707D01*
X162905604Y-131925604D01*
X163019940Y-131831771D01*
X163103707Y-131763025D01*
X163264830Y-131676903D01*
X163329719Y-131642219D01*
X163329721Y-131642218D01*
X163574961Y-131567825D01*
X163830000Y-131542706D01*
X164085040Y-131567825D01*
X164085040Y-131567825D01*
G37*
G36*
X170581000Y-135151000D02*
G01*
X167979000Y-135151000D01*
X167979000Y-131549000D01*
X170581000Y-131549000D01*
X170581000Y-135151000D01*
X170581000Y-135151000D01*
G37*
G36*
X197016823Y-131241313D02*
G01*
X197177242Y-131289976D01*
X197244361Y-131325852D01*
X197325078Y-131368996D01*
X197454659Y-131475341D01*
X197561004Y-131604922D01*
X197561005Y-131604924D01*
X197640024Y-131752758D01*
X197640025Y-131752761D01*
X197649083Y-131782620D01*
X197688687Y-131913177D01*
X197705117Y-132080000D01*
X197688687Y-132246823D01*
X197640024Y-132407242D01*
X197599477Y-132483100D01*
X197561004Y-132555078D01*
X197454659Y-132684659D01*
X197325078Y-132791004D01*
X197325076Y-132791005D01*
X197177242Y-132870024D01*
X197016823Y-132918687D01*
X196891804Y-132931000D01*
X196808196Y-132931000D01*
X196683177Y-132918687D01*
X196522758Y-132870024D01*
X196374924Y-132791005D01*
X196374922Y-132791004D01*
X196245341Y-132684659D01*
X196138996Y-132555078D01*
X196100523Y-132483100D01*
X196059976Y-132407242D01*
X196011313Y-132246823D01*
X195994883Y-132080000D01*
X196011313Y-131913177D01*
X196050917Y-131782620D01*
X196059975Y-131752761D01*
X196059976Y-131752758D01*
X196138995Y-131604924D01*
X196138996Y-131604922D01*
X196245341Y-131475341D01*
X196374922Y-131368996D01*
X196455639Y-131325852D01*
X196522758Y-131289976D01*
X196683177Y-131241313D01*
X196808196Y-131229000D01*
X196891804Y-131229000D01*
X197016823Y-131241313D01*
X197016823Y-131241313D01*
G37*
G36*
X186938228Y-131261703D02*
G01*
X187093100Y-131325853D01*
X187232481Y-131418985D01*
X187351015Y-131537519D01*
X187444147Y-131676900D01*
X187508297Y-131831772D01*
X187541000Y-131996184D01*
X187541000Y-132163816D01*
X187508297Y-132328228D01*
X187444147Y-132483100D01*
X187351015Y-132622481D01*
X187232481Y-132741015D01*
X187093100Y-132834147D01*
X186938228Y-132898297D01*
X186773816Y-132931000D01*
X186606184Y-132931000D01*
X186441772Y-132898297D01*
X186286900Y-132834147D01*
X186147519Y-132741015D01*
X186028985Y-132622481D01*
X185935853Y-132483100D01*
X185871703Y-132328228D01*
X185839000Y-132163816D01*
X185839000Y-131996184D01*
X185871703Y-131831772D01*
X185935853Y-131676900D01*
X186028985Y-131537519D01*
X186147519Y-131418985D01*
X186286900Y-131325853D01*
X186441772Y-131261703D01*
X186606184Y-131229000D01*
X186773816Y-131229000D01*
X186938228Y-131261703D01*
X186938228Y-131261703D01*
G37*
G36*
X179255326Y-131289975D02*
G01*
X179306560Y-131300166D01*
X179454153Y-131361301D01*
X179586982Y-131450055D01*
X179699945Y-131563018D01*
X179727945Y-131604922D01*
X179788700Y-131695849D01*
X179849834Y-131843440D01*
X179881000Y-132000122D01*
X179881000Y-132159878D01*
X179863705Y-132246825D01*
X179849834Y-132316560D01*
X179788699Y-132464153D01*
X179699945Y-132596982D01*
X179586982Y-132709945D01*
X179454153Y-132798699D01*
X179454152Y-132798700D01*
X179454151Y-132798700D01*
X179306560Y-132859834D01*
X179149878Y-132891000D01*
X178990122Y-132891000D01*
X178833440Y-132859834D01*
X178685849Y-132798700D01*
X178685848Y-132798700D01*
X178685847Y-132798699D01*
X178553018Y-132709945D01*
X178440055Y-132596982D01*
X178351301Y-132464153D01*
X178290166Y-132316560D01*
X178276295Y-132246825D01*
X178259000Y-132159878D01*
X178259000Y-132000122D01*
X178290166Y-131843440D01*
X178351300Y-131695849D01*
X178412056Y-131604922D01*
X178440055Y-131563018D01*
X178553018Y-131450055D01*
X178685847Y-131361301D01*
X178833440Y-131300166D01*
X178884674Y-131289975D01*
X178990122Y-131269000D01*
X179149878Y-131269000D01*
X179255326Y-131289975D01*
X179255326Y-131289975D01*
G37*
G36*
X179881000Y-130351000D02*
G01*
X178259000Y-130351000D01*
X178259000Y-128729000D01*
X179881000Y-128729000D01*
X179881000Y-130351000D01*
X179881000Y-130351000D01*
G37*
G36*
X210451000Y-120281000D02*
G01*
X208649000Y-120281000D01*
X208649000Y-118479000D01*
X210451000Y-118479000D01*
X210451000Y-120281000D01*
X210451000Y-120281000D01*
G37*
G36*
X194555239Y-116877101D02*
G01*
X194791053Y-116948634D01*
X195008381Y-117064799D01*
X195198871Y-117221129D01*
X195355201Y-117411619D01*
X195471366Y-117628947D01*
X195542899Y-117864761D01*
X195567053Y-118110000D01*
X195542899Y-118355239D01*
X195471366Y-118591053D01*
X195355201Y-118808381D01*
X195198871Y-118998871D01*
X195008381Y-119155201D01*
X194791053Y-119271366D01*
X194555239Y-119342899D01*
X194371457Y-119361000D01*
X194248543Y-119361000D01*
X194064761Y-119342899D01*
X193828947Y-119271366D01*
X193611619Y-119155201D01*
X193421129Y-118998871D01*
X193264799Y-118808381D01*
X193148634Y-118591053D01*
X193077101Y-118355239D01*
X193052947Y-118110000D01*
X193077101Y-117864761D01*
X193148634Y-117628947D01*
X193264799Y-117411619D01*
X193421129Y-117221129D01*
X193611619Y-117064799D01*
X193828947Y-116948634D01*
X194064761Y-116877101D01*
X194248543Y-116859000D01*
X194371457Y-116859000D01*
X194555239Y-116877101D01*
X194555239Y-116877101D01*
G37*
G36*
X138794903Y-116907075D02*
G01*
X138895236Y-116948634D01*
X139022571Y-117001378D01*
X139227466Y-117138285D01*
X139401715Y-117312534D01*
X139538622Y-117517429D01*
X139632925Y-117745097D01*
X139681000Y-117986787D01*
X139681000Y-118233213D01*
X139632925Y-118474903D01*
X139538622Y-118702571D01*
X139401715Y-118907466D01*
X139227466Y-119081715D01*
X139022571Y-119218622D01*
X139022570Y-119218623D01*
X139022569Y-119218623D01*
X138794903Y-119312925D01*
X138553214Y-119361000D01*
X138306786Y-119361000D01*
X138065097Y-119312925D01*
X137837431Y-119218623D01*
X137837430Y-119218623D01*
X137837429Y-119218622D01*
X137632534Y-119081715D01*
X137458285Y-118907466D01*
X137321378Y-118702571D01*
X137227075Y-118474903D01*
X137179000Y-118233213D01*
X137179000Y-117986787D01*
X137227075Y-117745097D01*
X137321378Y-117517429D01*
X137458285Y-117312534D01*
X137632534Y-117138285D01*
X137837429Y-117001378D01*
X137964765Y-116948634D01*
X138065097Y-116907075D01*
X138306786Y-116859000D01*
X138553214Y-116859000D01*
X138794903Y-116907075D01*
X138794903Y-116907075D01*
G37*
G36*
X209660442Y-115945518D02*
G01*
X209726627Y-115952037D01*
X209896466Y-116003557D01*
X210052991Y-116087222D01*
X210088729Y-116116552D01*
X210190186Y-116199814D01*
X210273448Y-116301271D01*
X210302778Y-116337009D01*
X210386443Y-116493534D01*
X210437963Y-116663373D01*
X210455359Y-116840000D01*
X210437963Y-117016627D01*
X210386443Y-117186466D01*
X210302778Y-117342991D01*
X210273448Y-117378729D01*
X210190186Y-117480186D01*
X210088729Y-117563448D01*
X210052991Y-117592778D01*
X209896466Y-117676443D01*
X209726627Y-117727963D01*
X209660442Y-117734482D01*
X209594260Y-117741000D01*
X209505740Y-117741000D01*
X209439558Y-117734482D01*
X209373373Y-117727963D01*
X209203534Y-117676443D01*
X209047009Y-117592778D01*
X209011271Y-117563448D01*
X208909814Y-117480186D01*
X208826552Y-117378729D01*
X208797222Y-117342991D01*
X208713557Y-117186466D01*
X208662037Y-117016627D01*
X208644641Y-116840000D01*
X208662037Y-116663373D01*
X208713557Y-116493534D01*
X208797222Y-116337009D01*
X208826552Y-116301271D01*
X208909814Y-116199814D01*
X209011271Y-116116552D01*
X209047009Y-116087222D01*
X209203534Y-116003557D01*
X209373373Y-115952037D01*
X209439558Y-115945518D01*
X209505740Y-115939000D01*
X209594260Y-115939000D01*
X209660442Y-115945518D01*
X209660442Y-115945518D01*
G37*
G36*
X120760443Y-114675519D02*
G01*
X120826627Y-114682037D01*
X120996466Y-114733557D01*
X121152991Y-114817222D01*
X121188729Y-114846552D01*
X121290186Y-114929814D01*
X121373448Y-115031271D01*
X121402778Y-115067009D01*
X121486443Y-115223534D01*
X121537963Y-115393373D01*
X121555359Y-115570000D01*
X121537963Y-115746627D01*
X121486443Y-115916466D01*
X121402778Y-116072991D01*
X121373448Y-116108729D01*
X121290186Y-116210186D01*
X121188729Y-116293448D01*
X121152991Y-116322778D01*
X120996466Y-116406443D01*
X120826627Y-116457963D01*
X120760442Y-116464482D01*
X120694260Y-116471000D01*
X120605740Y-116471000D01*
X120539558Y-116464482D01*
X120473373Y-116457963D01*
X120303534Y-116406443D01*
X120147009Y-116322778D01*
X120111271Y-116293448D01*
X120009814Y-116210186D01*
X119926552Y-116108729D01*
X119897222Y-116072991D01*
X119813557Y-115916466D01*
X119762037Y-115746627D01*
X119744641Y-115570000D01*
X119762037Y-115393373D01*
X119813557Y-115223534D01*
X119897222Y-115067009D01*
X119926552Y-115031271D01*
X120009814Y-114929814D01*
X120111271Y-114846552D01*
X120147009Y-114817222D01*
X120303534Y-114733557D01*
X120473373Y-114682037D01*
X120539557Y-114675519D01*
X120605740Y-114669000D01*
X120694260Y-114669000D01*
X120760443Y-114675519D01*
X120760443Y-114675519D01*
G37*
G36*
X121551000Y-113931000D02*
G01*
X119749000Y-113931000D01*
X119749000Y-112129000D01*
X121551000Y-112129000D01*
X121551000Y-113931000D01*
X121551000Y-113931000D01*
G37*
G36*
X193288228Y-107131703D02*
G01*
X193443100Y-107195853D01*
X193582481Y-107288985D01*
X193701015Y-107407519D01*
X193794147Y-107546900D01*
X193858297Y-107701772D01*
X193891000Y-107866184D01*
X193891000Y-108033816D01*
X193858297Y-108198228D01*
X193794147Y-108353100D01*
X193701015Y-108492481D01*
X193582481Y-108611015D01*
X193443100Y-108704147D01*
X193288228Y-108768297D01*
X193123816Y-108801000D01*
X192956184Y-108801000D01*
X192791772Y-108768297D01*
X192636900Y-108704147D01*
X192497519Y-108611015D01*
X192378985Y-108492481D01*
X192285853Y-108353100D01*
X192221703Y-108198228D01*
X192189000Y-108033816D01*
X192189000Y-107866184D01*
X192221703Y-107701772D01*
X192285853Y-107546900D01*
X192378985Y-107407519D01*
X192497519Y-107288985D01*
X192636900Y-107195853D01*
X192791772Y-107131703D01*
X192956184Y-107099000D01*
X193123816Y-107099000D01*
X193288228Y-107131703D01*
X193288228Y-107131703D01*
G37*
G36*
X183046823Y-107111313D02*
G01*
X183207242Y-107159976D01*
X183339906Y-107230886D01*
X183355078Y-107238996D01*
X183484659Y-107345341D01*
X183591004Y-107474922D01*
X183591005Y-107474924D01*
X183670024Y-107622758D01*
X183718687Y-107783177D01*
X183735117Y-107950000D01*
X183718687Y-108116823D01*
X183670024Y-108277242D01*
X183629477Y-108353100D01*
X183591004Y-108425078D01*
X183484659Y-108554659D01*
X183355078Y-108661004D01*
X183355076Y-108661005D01*
X183207242Y-108740024D01*
X183046823Y-108788687D01*
X182921804Y-108801000D01*
X182838196Y-108801000D01*
X182713177Y-108788687D01*
X182552758Y-108740024D01*
X182404924Y-108661005D01*
X182404922Y-108661004D01*
X182275341Y-108554659D01*
X182168996Y-108425078D01*
X182130523Y-108353100D01*
X182089976Y-108277242D01*
X182041313Y-108116823D01*
X182024883Y-107950000D01*
X182041313Y-107783177D01*
X182089976Y-107622758D01*
X182168995Y-107474924D01*
X182168996Y-107474922D01*
X182275341Y-107345341D01*
X182404922Y-107238996D01*
X182420094Y-107230886D01*
X182552758Y-107159976D01*
X182713177Y-107111313D01*
X182838196Y-107099000D01*
X182921804Y-107099000D01*
X183046823Y-107111313D01*
X183046823Y-107111313D01*
G37*
G36*
X157646823Y-105841313D02*
G01*
X157807242Y-105889976D01*
X157939906Y-105960886D01*
X157955078Y-105968996D01*
X158084659Y-106075341D01*
X158191004Y-106204922D01*
X158191005Y-106204924D01*
X158270024Y-106352758D01*
X158318687Y-106513177D01*
X158335117Y-106680000D01*
X158318687Y-106846823D01*
X158270024Y-107007242D01*
X158229477Y-107083100D01*
X158191004Y-107155078D01*
X158084659Y-107284659D01*
X157955078Y-107391004D01*
X157955076Y-107391005D01*
X157807242Y-107470024D01*
X157646823Y-107518687D01*
X157521804Y-107531000D01*
X157438196Y-107531000D01*
X157313177Y-107518687D01*
X157152758Y-107470024D01*
X157004924Y-107391005D01*
X157004922Y-107391004D01*
X156875341Y-107284659D01*
X156768996Y-107155078D01*
X156730523Y-107083100D01*
X156689976Y-107007242D01*
X156641313Y-106846823D01*
X156624883Y-106680000D01*
X156641313Y-106513177D01*
X156689976Y-106352758D01*
X156768995Y-106204924D01*
X156768996Y-106204922D01*
X156875341Y-106075341D01*
X157004922Y-105968996D01*
X157020094Y-105960886D01*
X157152758Y-105889976D01*
X157313177Y-105841313D01*
X157438196Y-105829000D01*
X157521804Y-105829000D01*
X157646823Y-105841313D01*
X157646823Y-105841313D01*
G37*
G36*
X151378228Y-105861703D02*
G01*
X151533100Y-105925853D01*
X151672481Y-106018985D01*
X151791015Y-106137519D01*
X151884147Y-106276900D01*
X151948297Y-106431772D01*
X151981000Y-106596184D01*
X151981000Y-106763816D01*
X151948297Y-106928228D01*
X151884147Y-107083100D01*
X151791015Y-107222481D01*
X151672481Y-107341015D01*
X151533100Y-107434147D01*
X151378228Y-107498297D01*
X151213816Y-107531000D01*
X151046184Y-107531000D01*
X150881772Y-107498297D01*
X150726900Y-107434147D01*
X150587519Y-107341015D01*
X150468985Y-107222481D01*
X150375853Y-107083100D01*
X150311703Y-106928228D01*
X150279000Y-106763816D01*
X150279000Y-106596184D01*
X150311703Y-106431772D01*
X150375853Y-106276900D01*
X150468985Y-106137519D01*
X150587519Y-106018985D01*
X150726900Y-105925853D01*
X150881772Y-105861703D01*
X151046184Y-105829000D01*
X151213816Y-105829000D01*
X151378228Y-105861703D01*
X151378228Y-105861703D01*
G37*
G36*
X175508228Y-104591703D02*
G01*
X175663100Y-104655853D01*
X175802481Y-104748985D01*
X175921015Y-104867519D01*
X176014147Y-105006900D01*
X176078297Y-105161772D01*
X176111000Y-105326184D01*
X176111000Y-105493816D01*
X176078297Y-105658228D01*
X176014147Y-105813100D01*
X175921015Y-105952481D01*
X175802481Y-106071015D01*
X175663100Y-106164147D01*
X175508228Y-106228297D01*
X175343816Y-106261000D01*
X175176184Y-106261000D01*
X175011772Y-106228297D01*
X174856900Y-106164147D01*
X174717519Y-106071015D01*
X174598985Y-105952481D01*
X174505853Y-105813100D01*
X174441703Y-105658228D01*
X174409000Y-105493816D01*
X174409000Y-105326184D01*
X174441703Y-105161772D01*
X174505853Y-105006900D01*
X174598985Y-104867519D01*
X174717519Y-104748985D01*
X174856900Y-104655853D01*
X175011772Y-104591703D01*
X175176184Y-104559000D01*
X175343816Y-104559000D01*
X175508228Y-104591703D01*
X175508228Y-104591703D01*
G37*
G36*
X211068228Y-104591703D02*
G01*
X211223100Y-104655853D01*
X211362481Y-104748985D01*
X211481015Y-104867519D01*
X211574147Y-105006900D01*
X211638297Y-105161772D01*
X211671000Y-105326184D01*
X211671000Y-105493816D01*
X211638297Y-105658228D01*
X211574147Y-105813100D01*
X211481015Y-105952481D01*
X211362481Y-106071015D01*
X211223100Y-106164147D01*
X211068228Y-106228297D01*
X210903816Y-106261000D01*
X210736184Y-106261000D01*
X210571772Y-106228297D01*
X210416900Y-106164147D01*
X210277519Y-106071015D01*
X210158985Y-105952481D01*
X210065853Y-105813100D01*
X210001703Y-105658228D01*
X209969000Y-105493816D01*
X209969000Y-105326184D01*
X210001703Y-105161772D01*
X210065853Y-105006900D01*
X210158985Y-104867519D01*
X210277519Y-104748985D01*
X210416900Y-104655853D01*
X210571772Y-104591703D01*
X210736184Y-104559000D01*
X210903816Y-104559000D01*
X211068228Y-104591703D01*
X211068228Y-104591703D01*
G37*
G36*
X204636823Y-104571313D02*
G01*
X204797242Y-104619976D01*
X204864361Y-104655852D01*
X204945078Y-104698996D01*
X205074659Y-104805341D01*
X205181004Y-104934922D01*
X205181005Y-104934924D01*
X205260024Y-105082758D01*
X205308687Y-105243177D01*
X205325117Y-105410000D01*
X205308687Y-105576823D01*
X205260024Y-105737242D01*
X205219477Y-105813100D01*
X205181004Y-105885078D01*
X205074659Y-106014659D01*
X204945078Y-106121004D01*
X204945076Y-106121005D01*
X204797242Y-106200024D01*
X204636823Y-106248687D01*
X204511804Y-106261000D01*
X204428196Y-106261000D01*
X204303177Y-106248687D01*
X204142758Y-106200024D01*
X203994924Y-106121005D01*
X203994922Y-106121004D01*
X203865341Y-106014659D01*
X203758996Y-105885078D01*
X203720523Y-105813100D01*
X203679976Y-105737242D01*
X203631313Y-105576823D01*
X203614883Y-105410000D01*
X203631313Y-105243177D01*
X203679976Y-105082758D01*
X203758995Y-104934924D01*
X203758996Y-104934922D01*
X203865341Y-104805341D01*
X203994922Y-104698996D01*
X204075639Y-104655852D01*
X204142758Y-104619976D01*
X204303177Y-104571313D01*
X204428196Y-104559000D01*
X204511804Y-104559000D01*
X204636823Y-104571313D01*
X204636823Y-104571313D01*
G37*
G36*
X171431000Y-106261000D02*
G01*
X168929000Y-106261000D01*
X168929000Y-104559000D01*
X171431000Y-104559000D01*
X171431000Y-106261000D01*
X171431000Y-106261000D01*
G37*
G36*
X163126823Y-104571313D02*
G01*
X163287242Y-104619976D01*
X163354361Y-104655852D01*
X163435078Y-104698996D01*
X163564659Y-104805341D01*
X163671004Y-104934922D01*
X163671005Y-104934924D01*
X163750024Y-105082758D01*
X163798687Y-105243177D01*
X163815117Y-105410000D01*
X163798687Y-105576823D01*
X163750024Y-105737242D01*
X163709477Y-105813100D01*
X163671004Y-105885078D01*
X163564659Y-106014659D01*
X163435078Y-106121004D01*
X163435076Y-106121005D01*
X163287242Y-106200024D01*
X163126823Y-106248687D01*
X163001804Y-106261000D01*
X162118196Y-106261000D01*
X161993177Y-106248687D01*
X161832758Y-106200024D01*
X161684924Y-106121005D01*
X161684922Y-106121004D01*
X161555341Y-106014659D01*
X161448996Y-105885078D01*
X161410523Y-105813100D01*
X161369976Y-105737242D01*
X161321313Y-105576823D01*
X161304883Y-105410000D01*
X161321313Y-105243177D01*
X161369976Y-105082758D01*
X161448995Y-104934924D01*
X161448996Y-104934922D01*
X161555341Y-104805341D01*
X161684922Y-104698996D01*
X161765639Y-104655852D01*
X161832758Y-104619976D01*
X161993177Y-104571313D01*
X162118196Y-104559000D01*
X163001804Y-104559000D01*
X163126823Y-104571313D01*
X163126823Y-104571313D01*
G37*
G36*
X175508228Y-102091703D02*
G01*
X175663100Y-102155853D01*
X175802481Y-102248985D01*
X175921015Y-102367519D01*
X176014147Y-102506900D01*
X176078297Y-102661772D01*
X176111000Y-102826184D01*
X176111000Y-102993816D01*
X176078297Y-103158228D01*
X176014147Y-103313100D01*
X175921015Y-103452481D01*
X175802481Y-103571015D01*
X175663100Y-103664147D01*
X175508228Y-103728297D01*
X175343816Y-103761000D01*
X175176184Y-103761000D01*
X175011772Y-103728297D01*
X174856900Y-103664147D01*
X174717519Y-103571015D01*
X174598985Y-103452481D01*
X174505853Y-103313100D01*
X174441703Y-103158228D01*
X174409000Y-102993816D01*
X174409000Y-102826184D01*
X174441703Y-102661772D01*
X174505853Y-102506900D01*
X174598985Y-102367519D01*
X174717519Y-102248985D01*
X174856900Y-102155853D01*
X175011772Y-102091703D01*
X175176184Y-102059000D01*
X175343816Y-102059000D01*
X175508228Y-102091703D01*
X175508228Y-102091703D01*
G37*
G36*
X163126823Y-102031313D02*
G01*
X163287242Y-102079976D01*
X163419906Y-102150886D01*
X163435078Y-102158996D01*
X163564659Y-102265341D01*
X163671004Y-102394922D01*
X163671005Y-102394924D01*
X163750024Y-102542758D01*
X163798687Y-102703177D01*
X163815117Y-102870000D01*
X163798687Y-103036823D01*
X163750024Y-103197242D01*
X163679114Y-103329906D01*
X163671004Y-103345078D01*
X163564659Y-103474659D01*
X163435078Y-103581004D01*
X163435076Y-103581005D01*
X163287242Y-103660024D01*
X163287239Y-103660025D01*
X163273647Y-103664148D01*
X163126823Y-103708687D01*
X163001804Y-103721000D01*
X162118196Y-103721000D01*
X161993177Y-103708687D01*
X161846353Y-103664148D01*
X161832761Y-103660025D01*
X161832758Y-103660024D01*
X161684924Y-103581005D01*
X161684922Y-103581004D01*
X161555341Y-103474659D01*
X161448996Y-103345078D01*
X161440886Y-103329906D01*
X161369976Y-103197242D01*
X161321313Y-103036823D01*
X161304883Y-102870000D01*
X161321313Y-102703177D01*
X161369976Y-102542758D01*
X161448995Y-102394924D01*
X161448996Y-102394922D01*
X161555341Y-102265341D01*
X161684922Y-102158996D01*
X161700094Y-102150886D01*
X161832758Y-102079976D01*
X161993177Y-102031313D01*
X162118196Y-102019000D01*
X163001804Y-102019000D01*
X163126823Y-102031313D01*
X163126823Y-102031313D01*
G37*
G36*
X170746823Y-102031313D02*
G01*
X170907242Y-102079976D01*
X171039906Y-102150886D01*
X171055078Y-102158996D01*
X171184659Y-102265341D01*
X171291004Y-102394922D01*
X171291005Y-102394924D01*
X171370024Y-102542758D01*
X171418687Y-102703177D01*
X171435117Y-102870000D01*
X171418687Y-103036823D01*
X171370024Y-103197242D01*
X171299114Y-103329906D01*
X171291004Y-103345078D01*
X171184659Y-103474659D01*
X171055078Y-103581004D01*
X171055076Y-103581005D01*
X170907242Y-103660024D01*
X170907239Y-103660025D01*
X170893647Y-103664148D01*
X170746823Y-103708687D01*
X170621804Y-103721000D01*
X169738196Y-103721000D01*
X169613177Y-103708687D01*
X169466353Y-103664148D01*
X169452761Y-103660025D01*
X169452758Y-103660024D01*
X169304924Y-103581005D01*
X169304922Y-103581004D01*
X169175341Y-103474659D01*
X169068996Y-103345078D01*
X169060886Y-103329906D01*
X168989976Y-103197242D01*
X168941313Y-103036823D01*
X168924883Y-102870000D01*
X168941313Y-102703177D01*
X168989976Y-102542758D01*
X169068995Y-102394924D01*
X169068996Y-102394922D01*
X169175341Y-102265341D01*
X169304922Y-102158996D01*
X169320094Y-102150886D01*
X169452758Y-102079976D01*
X169613177Y-102031313D01*
X169738196Y-102019000D01*
X170621804Y-102019000D01*
X170746823Y-102031313D01*
X170746823Y-102031313D01*
G37*
G36*
X193206823Y-100761313D02*
G01*
X193337380Y-100800917D01*
X193353651Y-100805853D01*
X193367242Y-100809976D01*
X193499906Y-100880886D01*
X193515078Y-100888996D01*
X193644659Y-100995341D01*
X193751004Y-101124922D01*
X193751005Y-101124924D01*
X193830024Y-101272758D01*
X193878687Y-101433177D01*
X193895117Y-101600000D01*
X193878687Y-101766823D01*
X193830024Y-101927242D01*
X193789477Y-102003100D01*
X193751004Y-102075078D01*
X193644659Y-102204659D01*
X193515078Y-102311004D01*
X193515076Y-102311005D01*
X193367242Y-102390024D01*
X193206823Y-102438687D01*
X193081804Y-102451000D01*
X192998196Y-102451000D01*
X192873177Y-102438687D01*
X192712758Y-102390024D01*
X192564924Y-102311005D01*
X192564922Y-102311004D01*
X192435341Y-102204659D01*
X192328996Y-102075078D01*
X192290523Y-102003100D01*
X192249976Y-101927242D01*
X192201313Y-101766823D01*
X192184883Y-101600000D01*
X192201313Y-101433177D01*
X192249976Y-101272758D01*
X192328995Y-101124924D01*
X192328996Y-101124922D01*
X192435341Y-100995341D01*
X192564922Y-100888996D01*
X192580094Y-100880886D01*
X192712758Y-100809976D01*
X192726350Y-100805853D01*
X192742620Y-100800917D01*
X192873177Y-100761313D01*
X192998196Y-100749000D01*
X193081804Y-100749000D01*
X193206823Y-100761313D01*
X193206823Y-100761313D01*
G37*
G36*
X183128228Y-100781703D02*
G01*
X183283100Y-100845853D01*
X183422481Y-100938985D01*
X183541015Y-101057519D01*
X183634147Y-101196900D01*
X183698297Y-101351772D01*
X183731000Y-101516184D01*
X183731000Y-101683816D01*
X183698297Y-101848228D01*
X183634147Y-102003100D01*
X183541015Y-102142481D01*
X183422481Y-102261015D01*
X183283100Y-102354147D01*
X183128228Y-102418297D01*
X182963816Y-102451000D01*
X182796184Y-102451000D01*
X182631772Y-102418297D01*
X182476900Y-102354147D01*
X182337519Y-102261015D01*
X182218985Y-102142481D01*
X182125853Y-102003100D01*
X182061703Y-101848228D01*
X182029000Y-101683816D01*
X182029000Y-101516184D01*
X182061703Y-101351772D01*
X182125853Y-101196900D01*
X182218985Y-101057519D01*
X182337519Y-100938985D01*
X182476900Y-100845853D01*
X182631772Y-100781703D01*
X182796184Y-100749000D01*
X182963816Y-100749000D01*
X183128228Y-100781703D01*
X183128228Y-100781703D01*
G37*
G36*
X198368228Y-100741703D02*
G01*
X198523100Y-100805853D01*
X198662481Y-100898985D01*
X198781015Y-101017519D01*
X198874147Y-101156900D01*
X198938297Y-101311772D01*
X198971000Y-101476184D01*
X198971000Y-101643816D01*
X198938297Y-101808228D01*
X198874147Y-101963100D01*
X198781015Y-102102481D01*
X198662481Y-102221015D01*
X198523100Y-102314147D01*
X198368228Y-102378297D01*
X198203816Y-102411000D01*
X198036184Y-102411000D01*
X197871772Y-102378297D01*
X197716900Y-102314147D01*
X197577519Y-102221015D01*
X197458985Y-102102481D01*
X197365853Y-101963100D01*
X197301703Y-101808228D01*
X197269000Y-101643816D01*
X197269000Y-101476184D01*
X197301703Y-101311772D01*
X197365853Y-101156900D01*
X197458985Y-101017519D01*
X197577519Y-100898985D01*
X197716900Y-100805853D01*
X197871772Y-100741703D01*
X198036184Y-100709000D01*
X198203816Y-100709000D01*
X198368228Y-100741703D01*
X198368228Y-100741703D01*
G37*
G36*
X175508228Y-99511703D02*
G01*
X175663100Y-99575853D01*
X175802481Y-99668985D01*
X175921015Y-99787519D01*
X176014147Y-99926900D01*
X176078297Y-100081772D01*
X176111000Y-100246184D01*
X176111000Y-100413816D01*
X176078297Y-100578228D01*
X176014147Y-100733100D01*
X175921015Y-100872481D01*
X175802481Y-100991015D01*
X175663100Y-101084147D01*
X175508228Y-101148297D01*
X175343816Y-101181000D01*
X175176184Y-101181000D01*
X175011772Y-101148297D01*
X174856900Y-101084147D01*
X174717519Y-100991015D01*
X174598985Y-100872481D01*
X174505853Y-100733100D01*
X174441703Y-100578228D01*
X174409000Y-100413816D01*
X174409000Y-100246184D01*
X174441703Y-100081772D01*
X174505853Y-99926900D01*
X174598985Y-99787519D01*
X174717519Y-99668985D01*
X174856900Y-99575853D01*
X175011772Y-99511703D01*
X175176184Y-99479000D01*
X175343816Y-99479000D01*
X175508228Y-99511703D01*
X175508228Y-99511703D01*
G37*
G36*
X163126823Y-99491313D02*
G01*
X163287242Y-99539976D01*
X163419906Y-99610886D01*
X163435078Y-99618996D01*
X163564659Y-99725341D01*
X163671004Y-99854922D01*
X163671005Y-99854924D01*
X163750024Y-100002758D01*
X163798687Y-100163177D01*
X163815117Y-100330000D01*
X163798687Y-100496823D01*
X163750024Y-100657242D01*
X163700978Y-100749000D01*
X163671004Y-100805078D01*
X163564659Y-100934659D01*
X163435078Y-101041004D01*
X163435076Y-101041005D01*
X163287242Y-101120024D01*
X163126823Y-101168687D01*
X163001804Y-101181000D01*
X162118196Y-101181000D01*
X161993177Y-101168687D01*
X161832758Y-101120024D01*
X161684924Y-101041005D01*
X161684922Y-101041004D01*
X161555341Y-100934659D01*
X161448996Y-100805078D01*
X161419022Y-100749000D01*
X161369976Y-100657242D01*
X161321313Y-100496823D01*
X161304883Y-100330000D01*
X161321313Y-100163177D01*
X161369976Y-100002758D01*
X161448995Y-99854924D01*
X161448996Y-99854922D01*
X161555341Y-99725341D01*
X161684922Y-99618996D01*
X161700094Y-99610886D01*
X161832758Y-99539976D01*
X161993177Y-99491313D01*
X162118196Y-99479000D01*
X163001804Y-99479000D01*
X163126823Y-99491313D01*
X163126823Y-99491313D01*
G37*
G36*
X170746823Y-99491313D02*
G01*
X170907242Y-99539976D01*
X171039906Y-99610886D01*
X171055078Y-99618996D01*
X171184659Y-99725341D01*
X171291004Y-99854922D01*
X171291005Y-99854924D01*
X171370024Y-100002758D01*
X171418687Y-100163177D01*
X171435117Y-100330000D01*
X171418687Y-100496823D01*
X171370024Y-100657242D01*
X171320978Y-100749000D01*
X171291004Y-100805078D01*
X171184659Y-100934659D01*
X171055078Y-101041004D01*
X171055076Y-101041005D01*
X170907242Y-101120024D01*
X170746823Y-101168687D01*
X170621804Y-101181000D01*
X169738196Y-101181000D01*
X169613177Y-101168687D01*
X169452758Y-101120024D01*
X169304924Y-101041005D01*
X169304922Y-101041004D01*
X169175341Y-100934659D01*
X169068996Y-100805078D01*
X169039022Y-100749000D01*
X168989976Y-100657242D01*
X168941313Y-100496823D01*
X168924883Y-100330000D01*
X168941313Y-100163177D01*
X168989976Y-100002758D01*
X169068995Y-99854924D01*
X169068996Y-99854922D01*
X169175341Y-99725341D01*
X169304922Y-99618996D01*
X169320094Y-99610886D01*
X169452758Y-99539976D01*
X169613177Y-99491313D01*
X169738196Y-99479000D01*
X170621804Y-99479000D01*
X170746823Y-99491313D01*
X170746823Y-99491313D01*
G37*
G36*
X120760443Y-98165519D02*
G01*
X120826627Y-98172037D01*
X120996466Y-98223557D01*
X121152991Y-98307222D01*
X121188729Y-98336552D01*
X121290186Y-98419814D01*
X121370369Y-98517519D01*
X121402778Y-98557009D01*
X121486443Y-98713534D01*
X121537963Y-98883373D01*
X121555359Y-99060000D01*
X121537963Y-99236627D01*
X121486443Y-99406466D01*
X121402778Y-99562991D01*
X121392223Y-99575852D01*
X121290186Y-99700186D01*
X121188729Y-99783448D01*
X121152991Y-99812778D01*
X120996466Y-99896443D01*
X120826627Y-99947963D01*
X120760443Y-99954481D01*
X120694260Y-99961000D01*
X120605740Y-99961000D01*
X120539557Y-99954481D01*
X120473373Y-99947963D01*
X120303534Y-99896443D01*
X120147009Y-99812778D01*
X120111271Y-99783448D01*
X120009814Y-99700186D01*
X119907777Y-99575852D01*
X119897222Y-99562991D01*
X119813557Y-99406466D01*
X119762037Y-99236627D01*
X119744641Y-99060000D01*
X119762037Y-98883373D01*
X119813557Y-98713534D01*
X119897222Y-98557009D01*
X119929631Y-98517519D01*
X120009814Y-98419814D01*
X120111271Y-98336552D01*
X120147009Y-98307222D01*
X120303534Y-98223557D01*
X120473373Y-98172037D01*
X120539557Y-98165519D01*
X120605740Y-98159000D01*
X120694260Y-98159000D01*
X120760443Y-98165519D01*
X120760443Y-98165519D01*
G37*
G36*
X198368228Y-98241703D02*
G01*
X198523100Y-98305853D01*
X198662481Y-98398985D01*
X198781015Y-98517519D01*
X198874147Y-98656900D01*
X198938297Y-98811772D01*
X198971000Y-98976184D01*
X198971000Y-99143816D01*
X198938297Y-99308228D01*
X198874147Y-99463100D01*
X198781015Y-99602481D01*
X198662481Y-99721015D01*
X198523100Y-99814147D01*
X198368228Y-99878297D01*
X198203816Y-99911000D01*
X198036184Y-99911000D01*
X197871772Y-99878297D01*
X197716900Y-99814147D01*
X197577519Y-99721015D01*
X197458985Y-99602481D01*
X197365853Y-99463100D01*
X197301703Y-99308228D01*
X197269000Y-99143816D01*
X197269000Y-98976184D01*
X197301703Y-98811772D01*
X197365853Y-98656900D01*
X197458985Y-98517519D01*
X197577519Y-98398985D01*
X197716900Y-98305853D01*
X197871772Y-98241703D01*
X198036184Y-98209000D01*
X198203816Y-98209000D01*
X198368228Y-98241703D01*
X198368228Y-98241703D01*
G37*
G36*
X175508228Y-97011703D02*
G01*
X175663100Y-97075853D01*
X175802481Y-97168985D01*
X175921015Y-97287519D01*
X176014147Y-97426900D01*
X176078297Y-97581772D01*
X176111000Y-97746184D01*
X176111000Y-97913816D01*
X176078297Y-98078228D01*
X176014147Y-98233100D01*
X175921015Y-98372481D01*
X175802481Y-98491015D01*
X175663100Y-98584147D01*
X175508228Y-98648297D01*
X175343816Y-98681000D01*
X175176184Y-98681000D01*
X175011772Y-98648297D01*
X174856900Y-98584147D01*
X174717519Y-98491015D01*
X174598985Y-98372481D01*
X174505853Y-98233100D01*
X174441703Y-98078228D01*
X174409000Y-97913816D01*
X174409000Y-97746184D01*
X174441703Y-97581772D01*
X174505853Y-97426900D01*
X174598985Y-97287519D01*
X174717519Y-97168985D01*
X174856900Y-97075853D01*
X175011772Y-97011703D01*
X175176184Y-96979000D01*
X175343816Y-96979000D01*
X175508228Y-97011703D01*
X175508228Y-97011703D01*
G37*
G36*
X163126823Y-96951313D02*
G01*
X163287242Y-96999976D01*
X163419906Y-97070886D01*
X163435078Y-97078996D01*
X163564659Y-97185341D01*
X163671004Y-97314922D01*
X163671005Y-97314924D01*
X163750024Y-97462758D01*
X163798687Y-97623177D01*
X163815117Y-97790000D01*
X163798687Y-97956823D01*
X163750024Y-98117242D01*
X163683498Y-98241703D01*
X163671004Y-98265078D01*
X163564659Y-98394659D01*
X163435078Y-98501004D01*
X163435076Y-98501005D01*
X163287242Y-98580024D01*
X163287239Y-98580025D01*
X163273647Y-98584148D01*
X163126823Y-98628687D01*
X163001804Y-98641000D01*
X162118196Y-98641000D01*
X161993177Y-98628687D01*
X161846353Y-98584148D01*
X161832761Y-98580025D01*
X161832758Y-98580024D01*
X161684924Y-98501005D01*
X161684922Y-98501004D01*
X161555341Y-98394659D01*
X161448996Y-98265078D01*
X161436502Y-98241703D01*
X161369976Y-98117242D01*
X161321313Y-97956823D01*
X161304883Y-97790000D01*
X161321313Y-97623177D01*
X161369976Y-97462758D01*
X161448995Y-97314924D01*
X161448996Y-97314922D01*
X161555341Y-97185341D01*
X161684922Y-97078996D01*
X161700094Y-97070886D01*
X161832758Y-96999976D01*
X161993177Y-96951313D01*
X162118196Y-96939000D01*
X163001804Y-96939000D01*
X163126823Y-96951313D01*
X163126823Y-96951313D01*
G37*
G36*
X170746823Y-96951313D02*
G01*
X170907242Y-96999976D01*
X171039906Y-97070886D01*
X171055078Y-97078996D01*
X171184659Y-97185341D01*
X171291004Y-97314922D01*
X171291005Y-97314924D01*
X171370024Y-97462758D01*
X171418687Y-97623177D01*
X171435117Y-97790000D01*
X171418687Y-97956823D01*
X171370024Y-98117242D01*
X171303498Y-98241703D01*
X171291004Y-98265078D01*
X171184659Y-98394659D01*
X171055078Y-98501004D01*
X171055076Y-98501005D01*
X170907242Y-98580024D01*
X170907239Y-98580025D01*
X170893647Y-98584148D01*
X170746823Y-98628687D01*
X170621804Y-98641000D01*
X169738196Y-98641000D01*
X169613177Y-98628687D01*
X169466353Y-98584148D01*
X169452761Y-98580025D01*
X169452758Y-98580024D01*
X169304924Y-98501005D01*
X169304922Y-98501004D01*
X169175341Y-98394659D01*
X169068996Y-98265078D01*
X169056502Y-98241703D01*
X168989976Y-98117242D01*
X168941313Y-97956823D01*
X168924883Y-97790000D01*
X168941313Y-97623177D01*
X168989976Y-97462758D01*
X169068995Y-97314924D01*
X169068996Y-97314922D01*
X169175341Y-97185341D01*
X169304922Y-97078996D01*
X169320094Y-97070886D01*
X169452758Y-96999976D01*
X169613177Y-96951313D01*
X169738196Y-96939000D01*
X170621804Y-96939000D01*
X170746823Y-96951313D01*
X170746823Y-96951313D01*
G37*
G36*
X121551000Y-97421000D02*
G01*
X119749000Y-97421000D01*
X119749000Y-95619000D01*
X121551000Y-95619000D01*
X121551000Y-97421000D01*
X121551000Y-97421000D01*
G37*
G36*
X157728228Y-95701703D02*
G01*
X157883100Y-95765853D01*
X158022481Y-95858985D01*
X158141015Y-95977519D01*
X158234147Y-96116900D01*
X158298297Y-96271772D01*
X158331000Y-96436184D01*
X158331000Y-96603816D01*
X158298297Y-96768228D01*
X158234147Y-96923100D01*
X158141015Y-97062481D01*
X158022481Y-97181015D01*
X157883100Y-97274147D01*
X157728228Y-97338297D01*
X157563816Y-97371000D01*
X157396184Y-97371000D01*
X157231772Y-97338297D01*
X157076900Y-97274147D01*
X156937519Y-97181015D01*
X156818985Y-97062481D01*
X156725853Y-96923100D01*
X156661703Y-96768228D01*
X156629000Y-96603816D01*
X156629000Y-96436184D01*
X156661703Y-96271772D01*
X156725853Y-96116900D01*
X156818985Y-95977519D01*
X156937519Y-95858985D01*
X157076900Y-95765853D01*
X157231772Y-95701703D01*
X157396184Y-95669000D01*
X157563816Y-95669000D01*
X157728228Y-95701703D01*
X157728228Y-95701703D01*
G37*
G36*
X151296823Y-95681313D02*
G01*
X151457242Y-95729976D01*
X151589906Y-95800886D01*
X151605078Y-95808996D01*
X151734659Y-95915341D01*
X151841004Y-96044922D01*
X151841005Y-96044924D01*
X151920024Y-96192758D01*
X151968687Y-96353177D01*
X151985117Y-96520000D01*
X151968687Y-96686823D01*
X151920024Y-96847242D01*
X151879477Y-96923100D01*
X151841004Y-96995078D01*
X151734659Y-97124659D01*
X151605078Y-97231004D01*
X151605076Y-97231005D01*
X151457242Y-97310024D01*
X151296823Y-97358687D01*
X151171804Y-97371000D01*
X151088196Y-97371000D01*
X150963177Y-97358687D01*
X150802758Y-97310024D01*
X150654924Y-97231005D01*
X150654922Y-97231004D01*
X150525341Y-97124659D01*
X150418996Y-96995078D01*
X150380523Y-96923100D01*
X150339976Y-96847242D01*
X150291313Y-96686823D01*
X150274883Y-96520000D01*
X150291313Y-96353177D01*
X150339976Y-96192758D01*
X150418995Y-96044924D01*
X150418996Y-96044922D01*
X150525341Y-95915341D01*
X150654922Y-95808996D01*
X150670094Y-95800886D01*
X150802758Y-95729976D01*
X150963177Y-95681313D01*
X151088196Y-95669000D01*
X151171804Y-95669000D01*
X151296823Y-95681313D01*
X151296823Y-95681313D01*
G37*
G36*
X193288228Y-94431703D02*
G01*
X193443100Y-94495853D01*
X193582481Y-94588985D01*
X193701015Y-94707519D01*
X193794147Y-94846900D01*
X193858297Y-95001772D01*
X193891000Y-95166184D01*
X193891000Y-95333816D01*
X193858297Y-95498228D01*
X193794147Y-95653100D01*
X193701015Y-95792481D01*
X193582481Y-95911015D01*
X193443100Y-96004147D01*
X193288228Y-96068297D01*
X193123816Y-96101000D01*
X192956184Y-96101000D01*
X192791772Y-96068297D01*
X192636900Y-96004147D01*
X192497519Y-95911015D01*
X192378985Y-95792481D01*
X192285853Y-95653100D01*
X192221703Y-95498228D01*
X192189000Y-95333816D01*
X192189000Y-95166184D01*
X192221703Y-95001772D01*
X192285853Y-94846900D01*
X192378985Y-94707519D01*
X192497519Y-94588985D01*
X192636900Y-94495853D01*
X192791772Y-94431703D01*
X192956184Y-94399000D01*
X193123816Y-94399000D01*
X193288228Y-94431703D01*
X193288228Y-94431703D01*
G37*
G36*
X183046823Y-94411313D02*
G01*
X183207242Y-94459976D01*
X183274361Y-94495852D01*
X183355078Y-94538996D01*
X183484659Y-94645341D01*
X183591004Y-94774922D01*
X183591005Y-94774924D01*
X183670024Y-94922758D01*
X183718687Y-95083177D01*
X183735117Y-95250000D01*
X183718687Y-95416823D01*
X183670024Y-95577242D01*
X183629477Y-95653100D01*
X183591004Y-95725078D01*
X183484659Y-95854659D01*
X183355078Y-95961004D01*
X183355076Y-95961005D01*
X183207242Y-96040024D01*
X183046823Y-96088687D01*
X182921804Y-96101000D01*
X182838196Y-96101000D01*
X182713177Y-96088687D01*
X182552758Y-96040024D01*
X182404924Y-95961005D01*
X182404922Y-95961004D01*
X182275341Y-95854659D01*
X182168996Y-95725078D01*
X182130523Y-95653100D01*
X182089976Y-95577242D01*
X182041313Y-95416823D01*
X182024883Y-95250000D01*
X182041313Y-95083177D01*
X182089976Y-94922758D01*
X182168995Y-94774924D01*
X182168996Y-94774922D01*
X182275341Y-94645341D01*
X182404922Y-94538996D01*
X182485639Y-94495852D01*
X182552758Y-94459976D01*
X182713177Y-94411313D01*
X182838196Y-94399000D01*
X182921804Y-94399000D01*
X183046823Y-94411313D01*
X183046823Y-94411313D01*
G37*
G36*
X204718228Y-94431703D02*
G01*
X204873100Y-94495853D01*
X205012481Y-94588985D01*
X205131015Y-94707519D01*
X205224147Y-94846900D01*
X205288297Y-95001772D01*
X205321000Y-95166184D01*
X205321000Y-95333816D01*
X205288297Y-95498228D01*
X205224147Y-95653100D01*
X205131015Y-95792481D01*
X205012481Y-95911015D01*
X204873100Y-96004147D01*
X204718228Y-96068297D01*
X204553816Y-96101000D01*
X204386184Y-96101000D01*
X204221772Y-96068297D01*
X204066900Y-96004147D01*
X203927519Y-95911015D01*
X203808985Y-95792481D01*
X203715853Y-95653100D01*
X203651703Y-95498228D01*
X203619000Y-95333816D01*
X203619000Y-95166184D01*
X203651703Y-95001772D01*
X203715853Y-94846900D01*
X203808985Y-94707519D01*
X203927519Y-94588985D01*
X204066900Y-94495853D01*
X204221772Y-94431703D01*
X204386184Y-94399000D01*
X204553816Y-94399000D01*
X204718228Y-94431703D01*
X204718228Y-94431703D01*
G37*
G36*
X210986823Y-94411313D02*
G01*
X211147242Y-94459976D01*
X211214361Y-94495852D01*
X211295078Y-94538996D01*
X211424659Y-94645341D01*
X211531004Y-94774922D01*
X211531005Y-94774924D01*
X211610024Y-94922758D01*
X211658687Y-95083177D01*
X211675117Y-95250000D01*
X211658687Y-95416823D01*
X211610024Y-95577242D01*
X211569477Y-95653100D01*
X211531004Y-95725078D01*
X211424659Y-95854659D01*
X211295078Y-95961004D01*
X211295076Y-95961005D01*
X211147242Y-96040024D01*
X210986823Y-96088687D01*
X210861804Y-96101000D01*
X210778196Y-96101000D01*
X210653177Y-96088687D01*
X210492758Y-96040024D01*
X210344924Y-95961005D01*
X210344922Y-95961004D01*
X210215341Y-95854659D01*
X210108996Y-95725078D01*
X210070523Y-95653100D01*
X210029976Y-95577242D01*
X209981313Y-95416823D01*
X209964883Y-95250000D01*
X209981313Y-95083177D01*
X210029976Y-94922758D01*
X210108995Y-94774924D01*
X210108996Y-94774922D01*
X210215341Y-94645341D01*
X210344922Y-94538996D01*
X210425639Y-94495852D01*
X210492758Y-94459976D01*
X210653177Y-94411313D01*
X210778196Y-94399000D01*
X210861804Y-94399000D01*
X210986823Y-94411313D01*
X210986823Y-94411313D01*
G37*
G36*
X162341000Y-91221000D02*
G01*
X160239000Y-91221000D01*
X160239000Y-89119000D01*
X162341000Y-89119000D01*
X162341000Y-91221000D01*
X162341000Y-91221000D01*
G37*
G36*
X211721000Y-89801000D02*
G01*
X209919000Y-89801000D01*
X209919000Y-87999000D01*
X211721000Y-87999000D01*
X211721000Y-89801000D01*
X211721000Y-89801000D01*
G37*
G36*
X171698228Y-88081703D02*
G01*
X171853100Y-88145853D01*
X171992481Y-88238985D01*
X172111015Y-88357519D01*
X172204147Y-88496900D01*
X172268297Y-88651772D01*
X172301000Y-88816184D01*
X172301000Y-88983816D01*
X172268297Y-89148228D01*
X172204147Y-89303100D01*
X172111015Y-89442481D01*
X171992481Y-89561015D01*
X171853100Y-89654147D01*
X171698228Y-89718297D01*
X171533816Y-89751000D01*
X171366184Y-89751000D01*
X171201772Y-89718297D01*
X171046900Y-89654147D01*
X170907519Y-89561015D01*
X170788985Y-89442481D01*
X170695853Y-89303100D01*
X170631703Y-89148228D01*
X170599000Y-88983816D01*
X170599000Y-88816184D01*
X170631703Y-88651772D01*
X170695853Y-88496900D01*
X170788985Y-88357519D01*
X170907519Y-88238985D01*
X171046900Y-88145853D01*
X171201772Y-88081703D01*
X171366184Y-88049000D01*
X171533816Y-88049000D01*
X171698228Y-88081703D01*
X171698228Y-88081703D01*
G37*
G36*
X210930442Y-85465518D02*
G01*
X210996627Y-85472037D01*
X211166466Y-85523557D01*
X211322991Y-85607222D01*
X211358729Y-85636552D01*
X211460186Y-85719814D01*
X211543448Y-85821271D01*
X211572778Y-85857009D01*
X211572779Y-85857011D01*
X211647554Y-85996903D01*
X211656443Y-86013534D01*
X211707963Y-86183373D01*
X211725359Y-86360000D01*
X211707963Y-86536627D01*
X211656443Y-86706466D01*
X211572778Y-86862991D01*
X211543448Y-86898729D01*
X211460186Y-87000186D01*
X211358729Y-87083448D01*
X211322991Y-87112778D01*
X211166466Y-87196443D01*
X210996627Y-87247963D01*
X210930442Y-87254482D01*
X210864260Y-87261000D01*
X210775740Y-87261000D01*
X210709558Y-87254482D01*
X210643373Y-87247963D01*
X210473534Y-87196443D01*
X210317009Y-87112778D01*
X210281271Y-87083448D01*
X210179814Y-87000186D01*
X210096552Y-86898729D01*
X210067222Y-86862991D01*
X209983557Y-86706466D01*
X209932037Y-86536627D01*
X209914641Y-86360000D01*
X209932037Y-86183373D01*
X209983557Y-86013534D01*
X209992447Y-85996903D01*
X210067221Y-85857011D01*
X210067222Y-85857009D01*
X210096552Y-85821271D01*
X210179814Y-85719814D01*
X210281271Y-85636552D01*
X210317009Y-85607222D01*
X210473534Y-85523557D01*
X210643373Y-85472037D01*
X210709558Y-85465518D01*
X210775740Y-85459000D01*
X210864260Y-85459000D01*
X210930442Y-85465518D01*
X210930442Y-85465518D01*
G37*
G36*
X171698228Y-85581703D02*
G01*
X171853100Y-85645853D01*
X171992481Y-85738985D01*
X172111015Y-85857519D01*
X172204147Y-85996900D01*
X172268297Y-86151772D01*
X172301000Y-86316184D01*
X172301000Y-86483816D01*
X172268297Y-86648228D01*
X172204147Y-86803100D01*
X172111015Y-86942481D01*
X171992481Y-87061015D01*
X171853100Y-87154147D01*
X171698228Y-87218297D01*
X171533816Y-87251000D01*
X171366184Y-87251000D01*
X171201772Y-87218297D01*
X171046900Y-87154147D01*
X170907519Y-87061015D01*
X170788985Y-86942481D01*
X170695853Y-86803100D01*
X170631703Y-86648228D01*
X170599000Y-86483816D01*
X170599000Y-86316184D01*
X170631703Y-86151772D01*
X170695853Y-85996900D01*
X170788985Y-85857519D01*
X170907519Y-85738985D01*
X171046900Y-85645853D01*
X171201772Y-85581703D01*
X171366184Y-85549000D01*
X171533816Y-85549000D01*
X171698228Y-85581703D01*
X171698228Y-85581703D01*
G37*
G36*
X161596564Y-84159389D02*
G01*
X161787833Y-84238615D01*
X161787835Y-84238616D01*
X161959973Y-84353635D01*
X162106365Y-84500027D01*
X162221385Y-84672167D01*
X162300611Y-84863436D01*
X162341000Y-85066484D01*
X162341000Y-85273516D01*
X162300611Y-85476564D01*
X162270607Y-85549000D01*
X162221384Y-85667835D01*
X162106365Y-85839973D01*
X161959973Y-85986365D01*
X161787835Y-86101384D01*
X161787834Y-86101385D01*
X161787833Y-86101385D01*
X161596564Y-86180611D01*
X161393516Y-86221000D01*
X161186484Y-86221000D01*
X160983436Y-86180611D01*
X160792167Y-86101385D01*
X160792166Y-86101385D01*
X160792165Y-86101384D01*
X160620027Y-85986365D01*
X160473635Y-85839973D01*
X160358616Y-85667835D01*
X160309393Y-85549000D01*
X160279389Y-85476564D01*
X160239000Y-85273516D01*
X160239000Y-85066484D01*
X160279389Y-84863436D01*
X160358615Y-84672167D01*
X160473635Y-84500027D01*
X160620027Y-84353635D01*
X160792165Y-84238616D01*
X160792167Y-84238615D01*
X160983436Y-84159389D01*
X161186484Y-84119000D01*
X161393516Y-84119000D01*
X161596564Y-84159389D01*
X161596564Y-84159389D01*
G37*
G36*
X120760442Y-80385518D02*
G01*
X120826627Y-80392037D01*
X120996466Y-80443557D01*
X121152991Y-80527222D01*
X121188729Y-80556552D01*
X121290186Y-80639814D01*
X121370369Y-80737519D01*
X121402778Y-80777009D01*
X121486443Y-80933534D01*
X121537963Y-81103373D01*
X121555359Y-81280000D01*
X121537963Y-81456627D01*
X121486443Y-81626466D01*
X121402778Y-81782991D01*
X121373448Y-81818729D01*
X121290186Y-81920186D01*
X121188729Y-82003448D01*
X121152991Y-82032778D01*
X120996466Y-82116443D01*
X120826627Y-82167963D01*
X120760443Y-82174481D01*
X120694260Y-82181000D01*
X120605740Y-82181000D01*
X120539557Y-82174481D01*
X120473373Y-82167963D01*
X120303534Y-82116443D01*
X120147009Y-82032778D01*
X120111271Y-82003448D01*
X120009814Y-81920186D01*
X119926552Y-81818729D01*
X119897222Y-81782991D01*
X119813557Y-81626466D01*
X119762037Y-81456627D01*
X119744641Y-81280000D01*
X119762037Y-81103373D01*
X119813557Y-80933534D01*
X119897222Y-80777009D01*
X119929631Y-80737519D01*
X120009814Y-80639814D01*
X120111271Y-80556552D01*
X120147009Y-80527222D01*
X120303534Y-80443557D01*
X120473373Y-80392037D01*
X120539558Y-80385518D01*
X120605740Y-80379000D01*
X120694260Y-80379000D01*
X120760442Y-80385518D01*
X120760442Y-80385518D01*
G37*
G36*
X152566823Y-80441313D02*
G01*
X152727242Y-80489976D01*
X152794361Y-80525852D01*
X152875078Y-80568996D01*
X153004659Y-80675341D01*
X153111004Y-80804922D01*
X153111005Y-80804924D01*
X153190024Y-80952758D01*
X153238687Y-81113177D01*
X153255117Y-81280000D01*
X153238687Y-81446823D01*
X153190024Y-81607242D01*
X153149477Y-81683100D01*
X153111004Y-81755078D01*
X153004659Y-81884659D01*
X152875078Y-81991004D01*
X152875076Y-81991005D01*
X152727242Y-82070024D01*
X152566823Y-82118687D01*
X152441804Y-82131000D01*
X152358196Y-82131000D01*
X152233177Y-82118687D01*
X152072758Y-82070024D01*
X151924924Y-81991005D01*
X151924922Y-81991004D01*
X151795341Y-81884659D01*
X151688996Y-81755078D01*
X151650523Y-81683100D01*
X151609976Y-81607242D01*
X151561313Y-81446823D01*
X151544883Y-81280000D01*
X151561313Y-81113177D01*
X151609976Y-80952758D01*
X151688995Y-80804924D01*
X151688996Y-80804922D01*
X151795341Y-80675341D01*
X151924922Y-80568996D01*
X152005639Y-80525852D01*
X152072758Y-80489976D01*
X152233177Y-80441313D01*
X152358196Y-80429000D01*
X152441804Y-80429000D01*
X152566823Y-80441313D01*
X152566823Y-80441313D01*
G37*
G36*
X142488228Y-80461703D02*
G01*
X142643100Y-80525853D01*
X142782481Y-80618985D01*
X142901015Y-80737519D01*
X142994147Y-80876900D01*
X143058297Y-81031772D01*
X143091000Y-81196184D01*
X143091000Y-81363816D01*
X143058297Y-81528228D01*
X142994147Y-81683100D01*
X142901015Y-81822481D01*
X142782481Y-81941015D01*
X142643100Y-82034147D01*
X142488228Y-82098297D01*
X142323816Y-82131000D01*
X142156184Y-82131000D01*
X141991772Y-82098297D01*
X141836900Y-82034147D01*
X141697519Y-81941015D01*
X141578985Y-81822481D01*
X141485853Y-81683100D01*
X141421703Y-81528228D01*
X141389000Y-81363816D01*
X141389000Y-81196184D01*
X141421703Y-81031772D01*
X141485853Y-80876900D01*
X141578985Y-80737519D01*
X141697519Y-80618985D01*
X141836900Y-80525853D01*
X141991772Y-80461703D01*
X142156184Y-80429000D01*
X142323816Y-80429000D01*
X142488228Y-80461703D01*
X142488228Y-80461703D01*
G37*
G36*
X121551000Y-79641000D02*
G01*
X119749000Y-79641000D01*
X119749000Y-77839000D01*
X121551000Y-77839000D01*
X121551000Y-79641000D01*
X121551000Y-79641000D01*
G37*
G36*
X181776823Y-77901313D02*
G01*
X181937242Y-77949976D01*
X182004361Y-77985852D01*
X182085078Y-78028996D01*
X182214659Y-78135341D01*
X182321004Y-78264922D01*
X182321005Y-78264924D01*
X182400024Y-78412758D01*
X182448687Y-78573177D01*
X182465117Y-78740000D01*
X182448687Y-78906823D01*
X182400024Y-79067242D01*
X182359477Y-79143100D01*
X182321004Y-79215078D01*
X182214659Y-79344659D01*
X182085078Y-79451004D01*
X182085076Y-79451005D01*
X181937242Y-79530024D01*
X181776823Y-79578687D01*
X181651804Y-79591000D01*
X181568196Y-79591000D01*
X181443177Y-79578687D01*
X181282758Y-79530024D01*
X181134924Y-79451005D01*
X181134922Y-79451004D01*
X181005341Y-79344659D01*
X180898996Y-79215078D01*
X180860523Y-79143100D01*
X180819976Y-79067242D01*
X180771313Y-78906823D01*
X180754883Y-78740000D01*
X180771313Y-78573177D01*
X180819976Y-78412758D01*
X180898995Y-78264924D01*
X180898996Y-78264922D01*
X181005341Y-78135341D01*
X181134922Y-78028996D01*
X181215639Y-77985852D01*
X181282758Y-77949976D01*
X181443177Y-77901313D01*
X181568196Y-77889000D01*
X181651804Y-77889000D01*
X181776823Y-77901313D01*
X181776823Y-77901313D01*
G37*
G36*
X200826823Y-77901313D02*
G01*
X200987242Y-77949976D01*
X201054361Y-77985852D01*
X201135078Y-78028996D01*
X201264659Y-78135341D01*
X201371004Y-78264922D01*
X201371005Y-78264924D01*
X201450024Y-78412758D01*
X201498687Y-78573177D01*
X201515117Y-78740000D01*
X201498687Y-78906823D01*
X201450024Y-79067242D01*
X201409477Y-79143100D01*
X201371004Y-79215078D01*
X201264659Y-79344659D01*
X201135078Y-79451004D01*
X201135076Y-79451005D01*
X200987242Y-79530024D01*
X200826823Y-79578687D01*
X200701804Y-79591000D01*
X200618196Y-79591000D01*
X200493177Y-79578687D01*
X200332758Y-79530024D01*
X200184924Y-79451005D01*
X200184922Y-79451004D01*
X200055341Y-79344659D01*
X199948996Y-79215078D01*
X199910523Y-79143100D01*
X199869976Y-79067242D01*
X199821313Y-78906823D01*
X199804883Y-78740000D01*
X199821313Y-78573177D01*
X199869976Y-78412758D01*
X199948995Y-78264924D01*
X199948996Y-78264922D01*
X200055341Y-78135341D01*
X200184922Y-78028996D01*
X200265639Y-77985852D01*
X200332758Y-77949976D01*
X200493177Y-77901313D01*
X200618196Y-77889000D01*
X200701804Y-77889000D01*
X200826823Y-77901313D01*
X200826823Y-77901313D01*
G37*
G36*
X194558228Y-77921703D02*
G01*
X194713100Y-77985853D01*
X194852481Y-78078985D01*
X194971015Y-78197519D01*
X195064147Y-78336900D01*
X195128297Y-78491772D01*
X195161000Y-78656184D01*
X195161000Y-78823816D01*
X195128297Y-78988228D01*
X195064147Y-79143100D01*
X194971015Y-79282481D01*
X194852481Y-79401015D01*
X194713100Y-79494147D01*
X194558228Y-79558297D01*
X194393816Y-79591000D01*
X194226184Y-79591000D01*
X194061772Y-79558297D01*
X193906900Y-79494147D01*
X193767519Y-79401015D01*
X193648985Y-79282481D01*
X193555853Y-79143100D01*
X193491703Y-78988228D01*
X193459000Y-78823816D01*
X193459000Y-78656184D01*
X193491703Y-78491772D01*
X193555853Y-78336900D01*
X193648985Y-78197519D01*
X193767519Y-78078985D01*
X193906900Y-77985853D01*
X194061772Y-77921703D01*
X194226184Y-77889000D01*
X194393816Y-77889000D01*
X194558228Y-77921703D01*
X194558228Y-77921703D01*
G37*
G36*
X175508228Y-77921703D02*
G01*
X175663100Y-77985853D01*
X175802481Y-78078985D01*
X175921015Y-78197519D01*
X176014147Y-78336900D01*
X176078297Y-78491772D01*
X176111000Y-78656184D01*
X176111000Y-78823816D01*
X176078297Y-78988228D01*
X176014147Y-79143100D01*
X175921015Y-79282481D01*
X175802481Y-79401015D01*
X175663100Y-79494147D01*
X175508228Y-79558297D01*
X175343816Y-79591000D01*
X175176184Y-79591000D01*
X175011772Y-79558297D01*
X174856900Y-79494147D01*
X174717519Y-79401015D01*
X174598985Y-79282481D01*
X174505853Y-79143100D01*
X174441703Y-78988228D01*
X174409000Y-78823816D01*
X174409000Y-78656184D01*
X174441703Y-78491772D01*
X174505853Y-78336900D01*
X174598985Y-78197519D01*
X174717519Y-78078985D01*
X174856900Y-77985853D01*
X175011772Y-77921703D01*
X175176184Y-77889000D01*
X175343816Y-77889000D01*
X175508228Y-77921703D01*
X175508228Y-77921703D01*
G37*
G36*
X163126823Y-76631313D02*
G01*
X163257380Y-76670917D01*
X163273651Y-76675853D01*
X163287242Y-76679976D01*
X163419906Y-76750886D01*
X163435078Y-76758996D01*
X163564659Y-76865341D01*
X163671004Y-76994922D01*
X163671005Y-76994924D01*
X163750024Y-77142758D01*
X163798687Y-77303177D01*
X163815117Y-77470000D01*
X163798687Y-77636823D01*
X163750024Y-77797242D01*
X163700978Y-77889000D01*
X163671004Y-77945078D01*
X163564659Y-78074659D01*
X163435078Y-78181004D01*
X163435076Y-78181005D01*
X163287242Y-78260024D01*
X163126823Y-78308687D01*
X163001804Y-78321000D01*
X162118196Y-78321000D01*
X161993177Y-78308687D01*
X161832758Y-78260024D01*
X161684924Y-78181005D01*
X161684922Y-78181004D01*
X161555341Y-78074659D01*
X161448996Y-77945078D01*
X161419022Y-77889000D01*
X161369976Y-77797242D01*
X161321313Y-77636823D01*
X161304883Y-77470000D01*
X161321313Y-77303177D01*
X161369976Y-77142758D01*
X161448995Y-76994924D01*
X161448996Y-76994922D01*
X161555341Y-76865341D01*
X161684922Y-76758996D01*
X161700094Y-76750886D01*
X161832758Y-76679976D01*
X161846350Y-76675853D01*
X161862620Y-76670917D01*
X161993177Y-76631313D01*
X162118196Y-76619000D01*
X163001804Y-76619000D01*
X163126823Y-76631313D01*
X163126823Y-76631313D01*
G37*
G36*
X170746823Y-76631313D02*
G01*
X170877380Y-76670917D01*
X170893651Y-76675853D01*
X170907242Y-76679976D01*
X171039906Y-76750886D01*
X171055078Y-76758996D01*
X171184659Y-76865341D01*
X171291004Y-76994922D01*
X171291005Y-76994924D01*
X171370024Y-77142758D01*
X171418687Y-77303177D01*
X171435117Y-77470000D01*
X171418687Y-77636823D01*
X171370024Y-77797242D01*
X171320978Y-77889000D01*
X171291004Y-77945078D01*
X171184659Y-78074659D01*
X171055078Y-78181004D01*
X171055076Y-78181005D01*
X170907242Y-78260024D01*
X170746823Y-78308687D01*
X170621804Y-78321000D01*
X169738196Y-78321000D01*
X169613177Y-78308687D01*
X169452758Y-78260024D01*
X169304924Y-78181005D01*
X169304922Y-78181004D01*
X169175341Y-78074659D01*
X169068996Y-77945078D01*
X169039022Y-77889000D01*
X168989976Y-77797242D01*
X168941313Y-77636823D01*
X168924883Y-77470000D01*
X168941313Y-77303177D01*
X168989976Y-77142758D01*
X169068995Y-76994924D01*
X169068996Y-76994922D01*
X169175341Y-76865341D01*
X169304922Y-76758996D01*
X169320094Y-76750886D01*
X169452758Y-76679976D01*
X169466350Y-76675853D01*
X169482620Y-76670917D01*
X169613177Y-76631313D01*
X169738196Y-76619000D01*
X170621804Y-76619000D01*
X170746823Y-76631313D01*
X170746823Y-76631313D01*
G37*
G36*
X157728228Y-76611703D02*
G01*
X157883100Y-76675853D01*
X158022481Y-76768985D01*
X158141015Y-76887519D01*
X158234147Y-77026900D01*
X158298297Y-77181772D01*
X158331000Y-77346184D01*
X158331000Y-77513816D01*
X158298297Y-77678228D01*
X158234147Y-77833100D01*
X158141015Y-77972481D01*
X158022481Y-78091015D01*
X157883100Y-78184147D01*
X157728228Y-78248297D01*
X157563816Y-78281000D01*
X157396184Y-78281000D01*
X157231772Y-78248297D01*
X157076900Y-78184147D01*
X156937519Y-78091015D01*
X156818985Y-77972481D01*
X156725853Y-77833100D01*
X156661703Y-77678228D01*
X156629000Y-77513816D01*
X156629000Y-77346184D01*
X156661703Y-77181772D01*
X156725853Y-77026900D01*
X156818985Y-76887519D01*
X156937519Y-76768985D01*
X157076900Y-76675853D01*
X157231772Y-76611703D01*
X157396184Y-76579000D01*
X157563816Y-76579000D01*
X157728228Y-76611703D01*
X157728228Y-76611703D01*
G37*
G36*
X211721000Y-75831000D02*
G01*
X209919000Y-75831000D01*
X209919000Y-74029000D01*
X211721000Y-74029000D01*
X211721000Y-75831000D01*
X211721000Y-75831000D01*
G37*
G36*
X170746823Y-74091313D02*
G01*
X170907242Y-74139976D01*
X170974361Y-74175852D01*
X171055078Y-74218996D01*
X171184659Y-74325341D01*
X171291004Y-74454922D01*
X171291005Y-74454924D01*
X171370024Y-74602758D01*
X171418687Y-74763177D01*
X171435117Y-74930000D01*
X171418687Y-75096823D01*
X171370024Y-75257242D01*
X171329477Y-75333100D01*
X171291004Y-75405078D01*
X171184659Y-75534659D01*
X171055078Y-75641004D01*
X171055076Y-75641005D01*
X170907242Y-75720024D01*
X170746823Y-75768687D01*
X170621804Y-75781000D01*
X169738196Y-75781000D01*
X169613177Y-75768687D01*
X169452758Y-75720024D01*
X169304924Y-75641005D01*
X169304922Y-75641004D01*
X169175341Y-75534659D01*
X169068996Y-75405078D01*
X169030523Y-75333100D01*
X168989976Y-75257242D01*
X168941313Y-75096823D01*
X168924883Y-74930000D01*
X168941313Y-74763177D01*
X168989976Y-74602758D01*
X169068995Y-74454924D01*
X169068996Y-74454922D01*
X169175341Y-74325341D01*
X169304922Y-74218996D01*
X169385639Y-74175852D01*
X169452758Y-74139976D01*
X169613177Y-74091313D01*
X169738196Y-74079000D01*
X170621804Y-74079000D01*
X170746823Y-74091313D01*
X170746823Y-74091313D01*
G37*
G36*
X188208228Y-74111703D02*
G01*
X188363100Y-74175853D01*
X188502481Y-74268985D01*
X188621015Y-74387519D01*
X188714147Y-74526900D01*
X188778297Y-74681772D01*
X188811000Y-74846184D01*
X188811000Y-75013816D01*
X188778297Y-75178228D01*
X188714147Y-75333100D01*
X188621015Y-75472481D01*
X188502481Y-75591015D01*
X188363100Y-75684147D01*
X188208228Y-75748297D01*
X188043816Y-75781000D01*
X187876184Y-75781000D01*
X187711772Y-75748297D01*
X187556900Y-75684147D01*
X187417519Y-75591015D01*
X187298985Y-75472481D01*
X187205853Y-75333100D01*
X187141703Y-75178228D01*
X187109000Y-75013816D01*
X187109000Y-74846184D01*
X187141703Y-74681772D01*
X187205853Y-74526900D01*
X187298985Y-74387519D01*
X187417519Y-74268985D01*
X187556900Y-74175853D01*
X187711772Y-74111703D01*
X187876184Y-74079000D01*
X188043816Y-74079000D01*
X188208228Y-74111703D01*
X188208228Y-74111703D01*
G37*
G36*
X157728228Y-74111703D02*
G01*
X157883100Y-74175853D01*
X158022481Y-74268985D01*
X158141015Y-74387519D01*
X158234147Y-74526900D01*
X158298297Y-74681772D01*
X158331000Y-74846184D01*
X158331000Y-75013816D01*
X158298297Y-75178228D01*
X158234147Y-75333100D01*
X158141015Y-75472481D01*
X158022481Y-75591015D01*
X157883100Y-75684147D01*
X157728228Y-75748297D01*
X157563816Y-75781000D01*
X157396184Y-75781000D01*
X157231772Y-75748297D01*
X157076900Y-75684147D01*
X156937519Y-75591015D01*
X156818985Y-75472481D01*
X156725853Y-75333100D01*
X156661703Y-75178228D01*
X156629000Y-75013816D01*
X156629000Y-74846184D01*
X156661703Y-74681772D01*
X156725853Y-74526900D01*
X156818985Y-74387519D01*
X156937519Y-74268985D01*
X157076900Y-74175853D01*
X157231772Y-74111703D01*
X157396184Y-74079000D01*
X157563816Y-74079000D01*
X157728228Y-74111703D01*
X157728228Y-74111703D01*
G37*
G36*
X152648228Y-74111703D02*
G01*
X152803100Y-74175853D01*
X152942481Y-74268985D01*
X153061015Y-74387519D01*
X153154147Y-74526900D01*
X153218297Y-74681772D01*
X153251000Y-74846184D01*
X153251000Y-75013816D01*
X153218297Y-75178228D01*
X153154147Y-75333100D01*
X153061015Y-75472481D01*
X152942481Y-75591015D01*
X152803100Y-75684147D01*
X152648228Y-75748297D01*
X152483816Y-75781000D01*
X152316184Y-75781000D01*
X152151772Y-75748297D01*
X151996900Y-75684147D01*
X151857519Y-75591015D01*
X151738985Y-75472481D01*
X151645853Y-75333100D01*
X151581703Y-75178228D01*
X151549000Y-75013816D01*
X151549000Y-74846184D01*
X151581703Y-74681772D01*
X151645853Y-74526900D01*
X151738985Y-74387519D01*
X151857519Y-74268985D01*
X151996900Y-74175853D01*
X152151772Y-74111703D01*
X152316184Y-74079000D01*
X152483816Y-74079000D01*
X152648228Y-74111703D01*
X152648228Y-74111703D01*
G37*
G36*
X163126823Y-74091313D02*
G01*
X163287242Y-74139976D01*
X163354361Y-74175852D01*
X163435078Y-74218996D01*
X163564659Y-74325341D01*
X163671004Y-74454922D01*
X163671005Y-74454924D01*
X163750024Y-74602758D01*
X163798687Y-74763177D01*
X163815117Y-74930000D01*
X163798687Y-75096823D01*
X163750024Y-75257242D01*
X163709477Y-75333100D01*
X163671004Y-75405078D01*
X163564659Y-75534659D01*
X163435078Y-75641004D01*
X163435076Y-75641005D01*
X163287242Y-75720024D01*
X163126823Y-75768687D01*
X163001804Y-75781000D01*
X162118196Y-75781000D01*
X161993177Y-75768687D01*
X161832758Y-75720024D01*
X161684924Y-75641005D01*
X161684922Y-75641004D01*
X161555341Y-75534659D01*
X161448996Y-75405078D01*
X161410523Y-75333100D01*
X161369976Y-75257242D01*
X161321313Y-75096823D01*
X161304883Y-74930000D01*
X161321313Y-74763177D01*
X161369976Y-74602758D01*
X161448995Y-74454924D01*
X161448996Y-74454922D01*
X161555341Y-74325341D01*
X161684922Y-74218996D01*
X161765639Y-74175852D01*
X161832758Y-74139976D01*
X161993177Y-74091313D01*
X162118196Y-74079000D01*
X163001804Y-74079000D01*
X163126823Y-74091313D01*
X163126823Y-74091313D01*
G37*
G36*
X142406823Y-74091313D02*
G01*
X142567242Y-74139976D01*
X142634361Y-74175852D01*
X142715078Y-74218996D01*
X142844659Y-74325341D01*
X142951004Y-74454922D01*
X142951005Y-74454924D01*
X143030024Y-74602758D01*
X143078687Y-74763177D01*
X143095117Y-74930000D01*
X143078687Y-75096823D01*
X143030024Y-75257242D01*
X142989477Y-75333100D01*
X142951004Y-75405078D01*
X142844659Y-75534659D01*
X142715078Y-75641004D01*
X142715076Y-75641005D01*
X142567242Y-75720024D01*
X142406823Y-75768687D01*
X142281804Y-75781000D01*
X142198196Y-75781000D01*
X142073177Y-75768687D01*
X141912758Y-75720024D01*
X141764924Y-75641005D01*
X141764922Y-75641004D01*
X141635341Y-75534659D01*
X141528996Y-75405078D01*
X141490523Y-75333100D01*
X141449976Y-75257242D01*
X141401313Y-75096823D01*
X141384883Y-74930000D01*
X141401313Y-74763177D01*
X141449976Y-74602758D01*
X141528995Y-74454924D01*
X141528996Y-74454922D01*
X141635341Y-74325341D01*
X141764922Y-74218996D01*
X141845639Y-74175852D01*
X141912758Y-74139976D01*
X142073177Y-74091313D01*
X142198196Y-74079000D01*
X142281804Y-74079000D01*
X142406823Y-74091313D01*
X142406823Y-74091313D01*
G37*
G36*
X210930443Y-71495519D02*
G01*
X210996627Y-71502037D01*
X211166466Y-71553557D01*
X211322991Y-71637222D01*
X211358729Y-71666552D01*
X211460186Y-71749814D01*
X211540369Y-71847519D01*
X211572778Y-71887009D01*
X211572779Y-71887011D01*
X211647554Y-72026903D01*
X211656443Y-72043534D01*
X211707963Y-72213373D01*
X211725359Y-72390000D01*
X211707963Y-72566627D01*
X211656443Y-72736466D01*
X211572778Y-72892991D01*
X211543448Y-72928729D01*
X211460186Y-73030186D01*
X211358729Y-73113448D01*
X211322991Y-73142778D01*
X211166466Y-73226443D01*
X210996627Y-73277963D01*
X210930443Y-73284481D01*
X210864260Y-73291000D01*
X210775740Y-73291000D01*
X210709557Y-73284481D01*
X210643373Y-73277963D01*
X210473534Y-73226443D01*
X210317009Y-73142778D01*
X210281271Y-73113448D01*
X210179814Y-73030186D01*
X210096552Y-72928729D01*
X210067222Y-72892991D01*
X209983557Y-72736466D01*
X209932037Y-72566627D01*
X209914641Y-72390000D01*
X209932037Y-72213373D01*
X209983557Y-72043534D01*
X209992447Y-72026903D01*
X210067221Y-71887011D01*
X210067222Y-71887009D01*
X210099631Y-71847519D01*
X210179814Y-71749814D01*
X210281271Y-71666552D01*
X210317009Y-71637222D01*
X210473534Y-71553557D01*
X210643373Y-71502037D01*
X210709557Y-71495519D01*
X210775740Y-71489000D01*
X210864260Y-71489000D01*
X210930443Y-71495519D01*
X210930443Y-71495519D01*
G37*
G36*
X188208228Y-71611703D02*
G01*
X188363100Y-71675853D01*
X188502481Y-71768985D01*
X188621015Y-71887519D01*
X188714147Y-72026900D01*
X188778297Y-72181772D01*
X188811000Y-72346184D01*
X188811000Y-72513816D01*
X188778297Y-72678228D01*
X188714147Y-72833100D01*
X188621015Y-72972481D01*
X188502481Y-73091015D01*
X188363100Y-73184147D01*
X188208228Y-73248297D01*
X188043816Y-73281000D01*
X187876184Y-73281000D01*
X187711772Y-73248297D01*
X187556900Y-73184147D01*
X187417519Y-73091015D01*
X187298985Y-72972481D01*
X187205853Y-72833100D01*
X187141703Y-72678228D01*
X187109000Y-72513816D01*
X187109000Y-72346184D01*
X187141703Y-72181772D01*
X187205853Y-72026900D01*
X187298985Y-71887519D01*
X187417519Y-71768985D01*
X187556900Y-71675853D01*
X187711772Y-71611703D01*
X187876184Y-71579000D01*
X188043816Y-71579000D01*
X188208228Y-71611703D01*
X188208228Y-71611703D01*
G37*
G36*
X163126823Y-71551313D02*
G01*
X163287242Y-71599976D01*
X163354361Y-71635852D01*
X163435078Y-71678996D01*
X163564659Y-71785341D01*
X163671004Y-71914922D01*
X163671005Y-71914924D01*
X163750024Y-72062758D01*
X163798687Y-72223177D01*
X163815117Y-72390000D01*
X163798687Y-72556823D01*
X163750024Y-72717242D01*
X163679114Y-72849906D01*
X163671004Y-72865078D01*
X163564659Y-72994659D01*
X163435078Y-73101004D01*
X163435076Y-73101005D01*
X163287242Y-73180024D01*
X163287239Y-73180025D01*
X163273647Y-73184148D01*
X163126823Y-73228687D01*
X163001804Y-73241000D01*
X162118196Y-73241000D01*
X161993177Y-73228687D01*
X161846353Y-73184148D01*
X161832761Y-73180025D01*
X161832758Y-73180024D01*
X161684924Y-73101005D01*
X161684922Y-73101004D01*
X161555341Y-72994659D01*
X161448996Y-72865078D01*
X161440886Y-72849906D01*
X161369976Y-72717242D01*
X161321313Y-72556823D01*
X161304883Y-72390000D01*
X161321313Y-72223177D01*
X161369976Y-72062758D01*
X161448995Y-71914924D01*
X161448996Y-71914922D01*
X161555341Y-71785341D01*
X161684922Y-71678996D01*
X161765639Y-71635852D01*
X161832758Y-71599976D01*
X161993177Y-71551313D01*
X162118196Y-71539000D01*
X163001804Y-71539000D01*
X163126823Y-71551313D01*
X163126823Y-71551313D01*
G37*
G36*
X170746823Y-71551313D02*
G01*
X170907242Y-71599976D01*
X170974361Y-71635852D01*
X171055078Y-71678996D01*
X171184659Y-71785341D01*
X171291004Y-71914922D01*
X171291005Y-71914924D01*
X171370024Y-72062758D01*
X171418687Y-72223177D01*
X171435117Y-72390000D01*
X171418687Y-72556823D01*
X171370024Y-72717242D01*
X171299114Y-72849906D01*
X171291004Y-72865078D01*
X171184659Y-72994659D01*
X171055078Y-73101004D01*
X171055076Y-73101005D01*
X170907242Y-73180024D01*
X170907239Y-73180025D01*
X170893647Y-73184148D01*
X170746823Y-73228687D01*
X170621804Y-73241000D01*
X169738196Y-73241000D01*
X169613177Y-73228687D01*
X169466353Y-73184148D01*
X169452761Y-73180025D01*
X169452758Y-73180024D01*
X169304924Y-73101005D01*
X169304922Y-73101004D01*
X169175341Y-72994659D01*
X169068996Y-72865078D01*
X169060886Y-72849906D01*
X168989976Y-72717242D01*
X168941313Y-72556823D01*
X168924883Y-72390000D01*
X168941313Y-72223177D01*
X168989976Y-72062758D01*
X169068995Y-71914924D01*
X169068996Y-71914922D01*
X169175341Y-71785341D01*
X169304922Y-71678996D01*
X169385639Y-71635852D01*
X169452758Y-71599976D01*
X169613177Y-71551313D01*
X169738196Y-71539000D01*
X170621804Y-71539000D01*
X170746823Y-71551313D01*
X170746823Y-71551313D01*
G37*
G36*
X157728228Y-71571703D02*
G01*
X157883100Y-71635853D01*
X158022481Y-71728985D01*
X158141015Y-71847519D01*
X158234147Y-71986900D01*
X158298297Y-72141772D01*
X158331000Y-72306184D01*
X158331000Y-72473816D01*
X158298297Y-72638228D01*
X158234147Y-72793100D01*
X158141015Y-72932481D01*
X158022481Y-73051015D01*
X157883100Y-73144147D01*
X157728228Y-73208297D01*
X157563816Y-73241000D01*
X157396184Y-73241000D01*
X157231772Y-73208297D01*
X157076900Y-73144147D01*
X156937519Y-73051015D01*
X156818985Y-72932481D01*
X156725853Y-72793100D01*
X156661703Y-72638228D01*
X156629000Y-72473816D01*
X156629000Y-72306184D01*
X156661703Y-72141772D01*
X156725853Y-71986900D01*
X156818985Y-71847519D01*
X156937519Y-71728985D01*
X157076900Y-71635853D01*
X157231772Y-71571703D01*
X157396184Y-71539000D01*
X157563816Y-71539000D01*
X157728228Y-71571703D01*
X157728228Y-71571703D01*
G37*
G36*
X157728228Y-69071703D02*
G01*
X157883100Y-69135853D01*
X158022481Y-69228985D01*
X158141015Y-69347519D01*
X158234147Y-69486900D01*
X158298297Y-69641772D01*
X158331000Y-69806184D01*
X158331000Y-69973816D01*
X158298297Y-70138228D01*
X158234147Y-70293100D01*
X158141015Y-70432481D01*
X158022481Y-70551015D01*
X157883100Y-70644147D01*
X157728228Y-70708297D01*
X157563816Y-70741000D01*
X157396184Y-70741000D01*
X157231772Y-70708297D01*
X157076900Y-70644147D01*
X156937519Y-70551015D01*
X156818985Y-70432481D01*
X156725853Y-70293100D01*
X156661703Y-70138228D01*
X156629000Y-69973816D01*
X156629000Y-69806184D01*
X156661703Y-69641772D01*
X156725853Y-69486900D01*
X156818985Y-69347519D01*
X156937519Y-69228985D01*
X157076900Y-69135853D01*
X157231772Y-69071703D01*
X157396184Y-69039000D01*
X157563816Y-69039000D01*
X157728228Y-69071703D01*
X157728228Y-69071703D01*
G37*
G36*
X170746823Y-69011313D02*
G01*
X170907242Y-69059976D01*
X171039906Y-69130886D01*
X171055078Y-69138996D01*
X171184659Y-69245341D01*
X171291004Y-69374922D01*
X171291005Y-69374924D01*
X171370024Y-69522758D01*
X171418687Y-69683177D01*
X171435117Y-69850000D01*
X171418687Y-70016823D01*
X171370024Y-70177242D01*
X171299114Y-70309906D01*
X171291004Y-70325078D01*
X171184659Y-70454659D01*
X171055078Y-70561004D01*
X171055076Y-70561005D01*
X170907242Y-70640024D01*
X170907239Y-70640025D01*
X170893647Y-70644148D01*
X170746823Y-70688687D01*
X170621804Y-70701000D01*
X169738196Y-70701000D01*
X169613177Y-70688687D01*
X169466353Y-70644148D01*
X169452761Y-70640025D01*
X169452758Y-70640024D01*
X169304924Y-70561005D01*
X169304922Y-70561004D01*
X169175341Y-70454659D01*
X169068996Y-70325078D01*
X169060886Y-70309906D01*
X168989976Y-70177242D01*
X168941313Y-70016823D01*
X168924883Y-69850000D01*
X168941313Y-69683177D01*
X168989976Y-69522758D01*
X169068995Y-69374924D01*
X169068996Y-69374922D01*
X169175341Y-69245341D01*
X169304922Y-69138996D01*
X169320094Y-69130886D01*
X169452758Y-69059976D01*
X169613177Y-69011313D01*
X169738196Y-68999000D01*
X170621804Y-68999000D01*
X170746823Y-69011313D01*
X170746823Y-69011313D01*
G37*
G36*
X163811000Y-70701000D02*
G01*
X161309000Y-70701000D01*
X161309000Y-68999000D01*
X163811000Y-68999000D01*
X163811000Y-70701000D01*
X163811000Y-70701000D01*
G37*
G36*
X152566823Y-67741313D02*
G01*
X152727242Y-67789976D01*
X152794361Y-67825852D01*
X152875078Y-67868996D01*
X153004659Y-67975341D01*
X153111004Y-68104922D01*
X153111005Y-68104924D01*
X153190024Y-68252758D01*
X153238687Y-68413177D01*
X153255117Y-68580000D01*
X153238687Y-68746823D01*
X153190024Y-68907242D01*
X153149477Y-68983100D01*
X153111004Y-69055078D01*
X153004659Y-69184659D01*
X152875078Y-69291004D01*
X152875076Y-69291005D01*
X152727242Y-69370024D01*
X152566823Y-69418687D01*
X152441804Y-69431000D01*
X152358196Y-69431000D01*
X152233177Y-69418687D01*
X152072758Y-69370024D01*
X151924924Y-69291005D01*
X151924922Y-69291004D01*
X151795341Y-69184659D01*
X151688996Y-69055078D01*
X151650523Y-68983100D01*
X151609976Y-68907242D01*
X151561313Y-68746823D01*
X151544883Y-68580000D01*
X151561313Y-68413177D01*
X151609976Y-68252758D01*
X151688995Y-68104924D01*
X151688996Y-68104922D01*
X151795341Y-67975341D01*
X151924922Y-67868996D01*
X152005639Y-67825852D01*
X152072758Y-67789976D01*
X152233177Y-67741313D01*
X152358196Y-67729000D01*
X152441804Y-67729000D01*
X152566823Y-67741313D01*
X152566823Y-67741313D01*
G37*
G36*
X194476823Y-67741313D02*
G01*
X194637242Y-67789976D01*
X194704361Y-67825852D01*
X194785078Y-67868996D01*
X194914659Y-67975341D01*
X195021004Y-68104922D01*
X195021005Y-68104924D01*
X195100024Y-68252758D01*
X195148687Y-68413177D01*
X195165117Y-68580000D01*
X195148687Y-68746823D01*
X195100024Y-68907242D01*
X195059477Y-68983100D01*
X195021004Y-69055078D01*
X194914659Y-69184659D01*
X194785078Y-69291004D01*
X194785076Y-69291005D01*
X194637242Y-69370024D01*
X194476823Y-69418687D01*
X194351804Y-69431000D01*
X194268196Y-69431000D01*
X194143177Y-69418687D01*
X193982758Y-69370024D01*
X193834924Y-69291005D01*
X193834922Y-69291004D01*
X193705341Y-69184659D01*
X193598996Y-69055078D01*
X193560523Y-68983100D01*
X193519976Y-68907242D01*
X193471313Y-68746823D01*
X193454883Y-68580000D01*
X193471313Y-68413177D01*
X193519976Y-68252758D01*
X193598995Y-68104924D01*
X193598996Y-68104922D01*
X193705341Y-67975341D01*
X193834922Y-67868996D01*
X193915639Y-67825852D01*
X193982758Y-67789976D01*
X194143177Y-67741313D01*
X194268196Y-67729000D01*
X194351804Y-67729000D01*
X194476823Y-67741313D01*
X194476823Y-67741313D01*
G37*
G36*
X200908228Y-67761703D02*
G01*
X201063100Y-67825853D01*
X201202481Y-67918985D01*
X201321015Y-68037519D01*
X201414147Y-68176900D01*
X201478297Y-68331772D01*
X201511000Y-68496184D01*
X201511000Y-68663816D01*
X201478297Y-68828228D01*
X201414147Y-68983100D01*
X201321015Y-69122481D01*
X201202481Y-69241015D01*
X201063100Y-69334147D01*
X200908228Y-69398297D01*
X200743816Y-69431000D01*
X200576184Y-69431000D01*
X200411772Y-69398297D01*
X200256900Y-69334147D01*
X200117519Y-69241015D01*
X199998985Y-69122481D01*
X199905853Y-68983100D01*
X199841703Y-68828228D01*
X199809000Y-68663816D01*
X199809000Y-68496184D01*
X199841703Y-68331772D01*
X199905853Y-68176900D01*
X199998985Y-68037519D01*
X200117519Y-67918985D01*
X200256900Y-67825853D01*
X200411772Y-67761703D01*
X200576184Y-67729000D01*
X200743816Y-67729000D01*
X200908228Y-67761703D01*
X200908228Y-67761703D01*
G37*
G36*
X181858228Y-67761703D02*
G01*
X182013100Y-67825853D01*
X182152481Y-67918985D01*
X182271015Y-68037519D01*
X182364147Y-68176900D01*
X182428297Y-68331772D01*
X182461000Y-68496184D01*
X182461000Y-68663816D01*
X182428297Y-68828228D01*
X182364147Y-68983100D01*
X182271015Y-69122481D01*
X182152481Y-69241015D01*
X182013100Y-69334147D01*
X181858228Y-69398297D01*
X181693816Y-69431000D01*
X181526184Y-69431000D01*
X181361772Y-69398297D01*
X181206900Y-69334147D01*
X181067519Y-69241015D01*
X180948985Y-69122481D01*
X180855853Y-68983100D01*
X180791703Y-68828228D01*
X180759000Y-68663816D01*
X180759000Y-68496184D01*
X180791703Y-68331772D01*
X180855853Y-68176900D01*
X180948985Y-68037519D01*
X181067519Y-67918985D01*
X181206900Y-67825853D01*
X181361772Y-67761703D01*
X181526184Y-67729000D01*
X181693816Y-67729000D01*
X181858228Y-67761703D01*
X181858228Y-67761703D01*
G37*
G36*
X142488228Y-67761703D02*
G01*
X142643100Y-67825853D01*
X142782481Y-67918985D01*
X142901015Y-68037519D01*
X142994147Y-68176900D01*
X143058297Y-68331772D01*
X143091000Y-68496184D01*
X143091000Y-68663816D01*
X143058297Y-68828228D01*
X142994147Y-68983100D01*
X142901015Y-69122481D01*
X142782481Y-69241015D01*
X142643100Y-69334147D01*
X142488228Y-69398297D01*
X142323816Y-69431000D01*
X142156184Y-69431000D01*
X141991772Y-69398297D01*
X141836900Y-69334147D01*
X141697519Y-69241015D01*
X141578985Y-69122481D01*
X141485853Y-68983100D01*
X141421703Y-68828228D01*
X141389000Y-68663816D01*
X141389000Y-68496184D01*
X141421703Y-68331772D01*
X141485853Y-68176900D01*
X141578985Y-68037519D01*
X141697519Y-67918985D01*
X141836900Y-67825853D01*
X141991772Y-67761703D01*
X142156184Y-67729000D01*
X142323816Y-67729000D01*
X142488228Y-67761703D01*
X142488228Y-67761703D01*
G37*
G36*
X175426823Y-67741313D02*
G01*
X175587242Y-67789976D01*
X175654361Y-67825852D01*
X175735078Y-67868996D01*
X175864659Y-67975341D01*
X175971004Y-68104922D01*
X175971005Y-68104924D01*
X176050024Y-68252758D01*
X176098687Y-68413177D01*
X176115117Y-68580000D01*
X176098687Y-68746823D01*
X176050024Y-68907242D01*
X176009477Y-68983100D01*
X175971004Y-69055078D01*
X175864659Y-69184659D01*
X175735078Y-69291004D01*
X175735076Y-69291005D01*
X175587242Y-69370024D01*
X175426823Y-69418687D01*
X175301804Y-69431000D01*
X175218196Y-69431000D01*
X175093177Y-69418687D01*
X174932758Y-69370024D01*
X174784924Y-69291005D01*
X174784922Y-69291004D01*
X174655341Y-69184659D01*
X174548996Y-69055078D01*
X174510523Y-68983100D01*
X174469976Y-68907242D01*
X174421313Y-68746823D01*
X174404883Y-68580000D01*
X174421313Y-68413177D01*
X174469976Y-68252758D01*
X174548995Y-68104924D01*
X174548996Y-68104922D01*
X174655341Y-67975341D01*
X174784922Y-67868996D01*
X174865639Y-67825852D01*
X174932758Y-67789976D01*
X175093177Y-67741313D01*
X175218196Y-67729000D01*
X175301804Y-67729000D01*
X175426823Y-67741313D01*
X175426823Y-67741313D01*
G37*
G36*
X120760442Y-65145518D02*
G01*
X120826627Y-65152037D01*
X120996466Y-65203557D01*
X121152991Y-65287222D01*
X121188729Y-65316552D01*
X121290186Y-65399814D01*
X121373448Y-65501271D01*
X121402778Y-65537009D01*
X121486443Y-65693534D01*
X121537963Y-65863373D01*
X121555359Y-66040000D01*
X121537963Y-66216627D01*
X121486443Y-66386466D01*
X121402778Y-66542991D01*
X121373448Y-66578729D01*
X121290186Y-66680186D01*
X121188729Y-66763448D01*
X121152991Y-66792778D01*
X120996466Y-66876443D01*
X120826627Y-66927963D01*
X120760442Y-66934482D01*
X120694260Y-66941000D01*
X120605740Y-66941000D01*
X120539558Y-66934482D01*
X120473373Y-66927963D01*
X120303534Y-66876443D01*
X120147009Y-66792778D01*
X120111271Y-66763448D01*
X120009814Y-66680186D01*
X119926552Y-66578729D01*
X119897222Y-66542991D01*
X119813557Y-66386466D01*
X119762037Y-66216627D01*
X119744641Y-66040000D01*
X119762037Y-65863373D01*
X119813557Y-65693534D01*
X119897222Y-65537009D01*
X119926552Y-65501271D01*
X120009814Y-65399814D01*
X120111271Y-65316552D01*
X120147009Y-65287222D01*
X120303534Y-65203557D01*
X120473373Y-65152037D01*
X120539558Y-65145518D01*
X120605740Y-65139000D01*
X120694260Y-65139000D01*
X120760442Y-65145518D01*
X120760442Y-65145518D01*
G37*
G36*
X121551000Y-64401000D02*
G01*
X119749000Y-64401000D01*
X119749000Y-62599000D01*
X121551000Y-62599000D01*
X121551000Y-64401000D01*
X121551000Y-64401000D01*
G37*
G36*
X194674903Y-55947075D02*
G01*
X194775236Y-55988634D01*
X194902571Y-56041378D01*
X195107466Y-56178285D01*
X195281715Y-56352534D01*
X195418622Y-56557429D01*
X195512925Y-56785097D01*
X195561000Y-57026787D01*
X195561000Y-57273213D01*
X195512925Y-57514903D01*
X195418622Y-57742571D01*
X195281715Y-57947466D01*
X195107466Y-58121715D01*
X194902571Y-58258622D01*
X194902570Y-58258623D01*
X194902569Y-58258623D01*
X194674903Y-58352925D01*
X194433214Y-58401000D01*
X194186786Y-58401000D01*
X193945097Y-58352925D01*
X193717431Y-58258623D01*
X193717430Y-58258623D01*
X193717429Y-58258622D01*
X193512534Y-58121715D01*
X193338285Y-57947466D01*
X193201378Y-57742571D01*
X193107075Y-57514903D01*
X193059000Y-57273213D01*
X193059000Y-57026787D01*
X193107075Y-56785097D01*
X193201378Y-56557429D01*
X193338285Y-56352534D01*
X193512534Y-56178285D01*
X193717429Y-56041378D01*
X193844765Y-55988634D01*
X193945097Y-55947075D01*
X194186786Y-55899000D01*
X194433214Y-55899000D01*
X194674903Y-55947075D01*
X194674903Y-55947075D01*
G37*
G36*
X138675239Y-55917101D02*
G01*
X138911053Y-55988634D01*
X139128381Y-56104799D01*
X139318871Y-56261129D01*
X139475201Y-56451619D01*
X139591366Y-56668947D01*
X139662899Y-56904761D01*
X139687053Y-57150000D01*
X139662899Y-57395239D01*
X139591366Y-57631053D01*
X139475201Y-57848381D01*
X139318871Y-58038871D01*
X139128381Y-58195201D01*
X138911053Y-58311366D01*
X138675239Y-58382899D01*
X138491457Y-58401000D01*
X138368543Y-58401000D01*
X138184761Y-58382899D01*
X137948947Y-58311366D01*
X137731619Y-58195201D01*
X137541129Y-58038871D01*
X137384799Y-57848381D01*
X137268634Y-57631053D01*
X137197101Y-57395239D01*
X137172947Y-57150000D01*
X137197101Y-56904761D01*
X137268634Y-56668947D01*
X137384799Y-56451619D01*
X137541129Y-56261129D01*
X137731619Y-56104799D01*
X137948947Y-55988634D01*
X138184761Y-55917101D01*
X138368543Y-55899000D01*
X138491457Y-55899000D01*
X138675239Y-55917101D01*
X138675239Y-55917101D01*
G37*
G36*
X209660442Y-53715518D02*
G01*
X209726627Y-53722037D01*
X209896466Y-53773557D01*
X210052991Y-53857222D01*
X210088729Y-53886552D01*
X210190186Y-53969814D01*
X210273448Y-54071271D01*
X210302778Y-54107009D01*
X210386443Y-54263534D01*
X210437963Y-54433373D01*
X210455359Y-54610000D01*
X210437963Y-54786627D01*
X210386443Y-54956466D01*
X210302778Y-55112991D01*
X210273448Y-55148729D01*
X210190186Y-55250186D01*
X210088729Y-55333448D01*
X210052991Y-55362778D01*
X209896466Y-55446443D01*
X209726627Y-55497963D01*
X209660442Y-55504482D01*
X209594260Y-55511000D01*
X209505740Y-55511000D01*
X209439558Y-55504482D01*
X209373373Y-55497963D01*
X209203534Y-55446443D01*
X209047009Y-55362778D01*
X209011271Y-55333448D01*
X208909814Y-55250186D01*
X208826552Y-55148729D01*
X208797222Y-55112991D01*
X208713557Y-54956466D01*
X208662037Y-54786627D01*
X208644641Y-54610000D01*
X208662037Y-54433373D01*
X208713557Y-54263534D01*
X208797222Y-54107009D01*
X208826552Y-54071271D01*
X208909814Y-53969814D01*
X209011271Y-53886552D01*
X209047009Y-53857222D01*
X209203534Y-53773557D01*
X209373373Y-53722037D01*
X209439558Y-53715518D01*
X209505740Y-53709000D01*
X209594260Y-53709000D01*
X209660442Y-53715518D01*
X209660442Y-53715518D01*
G37*
G36*
X121551000Y-54241000D02*
G01*
X119749000Y-54241000D01*
X119749000Y-52439000D01*
X121551000Y-52439000D01*
X121551000Y-54241000D01*
X121551000Y-54241000D01*
G37*
G36*
X210451000Y-52971000D02*
G01*
X208649000Y-52971000D01*
X208649000Y-51169000D01*
X210451000Y-51169000D01*
X210451000Y-52971000D01*
X210451000Y-52971000D01*
G37*
G36*
X120760442Y-49905518D02*
G01*
X120826627Y-49912037D01*
X120996466Y-49963557D01*
X121152991Y-50047222D01*
X121188729Y-50076552D01*
X121290186Y-50159814D01*
X121373448Y-50261271D01*
X121402778Y-50297009D01*
X121486443Y-50453534D01*
X121537963Y-50623373D01*
X121555359Y-50800000D01*
X121537963Y-50976627D01*
X121486443Y-51146466D01*
X121402778Y-51302991D01*
X121373448Y-51338729D01*
X121290186Y-51440186D01*
X121188729Y-51523448D01*
X121152991Y-51552778D01*
X120996466Y-51636443D01*
X120826627Y-51687963D01*
X120760442Y-51694482D01*
X120694260Y-51701000D01*
X120605740Y-51701000D01*
X120539558Y-51694482D01*
X120473373Y-51687963D01*
X120303534Y-51636443D01*
X120147009Y-51552778D01*
X120111271Y-51523448D01*
X120009814Y-51440186D01*
X119926552Y-51338729D01*
X119897222Y-51302991D01*
X119813557Y-51146466D01*
X119762037Y-50976627D01*
X119744641Y-50800000D01*
X119762037Y-50623373D01*
X119813557Y-50453534D01*
X119897222Y-50297009D01*
X119926552Y-50261271D01*
X120009814Y-50159814D01*
X120111271Y-50076552D01*
X120147009Y-50047222D01*
X120303534Y-49963557D01*
X120473373Y-49912037D01*
X120539557Y-49905519D01*
X120605740Y-49899000D01*
X120694260Y-49899000D01*
X120760442Y-49905518D01*
X120760442Y-49905518D01*
G37*
G36*
X150671000Y-49071000D02*
G01*
X149049000Y-49071000D01*
X149049000Y-47449000D01*
X150671000Y-47449000D01*
X150671000Y-49071000D01*
X150671000Y-49071000D01*
G37*
G36*
X142488228Y-44901703D02*
G01*
X142643100Y-44965853D01*
X142782481Y-45058985D01*
X142901015Y-45177519D01*
X142994147Y-45316900D01*
X143058297Y-45471772D01*
X143091000Y-45636184D01*
X143091000Y-45803816D01*
X143058297Y-45968228D01*
X142994147Y-46123100D01*
X142901015Y-46262481D01*
X142782481Y-46381015D01*
X142643100Y-46474147D01*
X142488228Y-46538297D01*
X142323816Y-46571000D01*
X142156184Y-46571000D01*
X141991772Y-46538297D01*
X141836900Y-46474147D01*
X141697519Y-46381015D01*
X141578985Y-46262481D01*
X141485853Y-46123100D01*
X141421703Y-45968228D01*
X141389000Y-45803816D01*
X141389000Y-45636184D01*
X141421703Y-45471772D01*
X141485853Y-45316900D01*
X141578985Y-45177519D01*
X141697519Y-45058985D01*
X141836900Y-44965853D01*
X141991772Y-44901703D01*
X142156184Y-44869000D01*
X142323816Y-44869000D01*
X142488228Y-44901703D01*
X142488228Y-44901703D01*
G37*
G36*
X132246823Y-44881313D02*
G01*
X132407242Y-44929976D01*
X132474361Y-44965852D01*
X132555078Y-45008996D01*
X132684659Y-45115341D01*
X132791004Y-45244922D01*
X132791005Y-45244924D01*
X132870024Y-45392758D01*
X132918687Y-45553177D01*
X132935117Y-45720000D01*
X132918687Y-45886823D01*
X132879083Y-46017380D01*
X132873139Y-46036975D01*
X132870024Y-46047242D01*
X132829477Y-46123100D01*
X132791004Y-46195078D01*
X132684659Y-46324659D01*
X132555078Y-46431004D01*
X132555076Y-46431005D01*
X132407242Y-46510024D01*
X132246823Y-46558687D01*
X132121804Y-46571000D01*
X132038196Y-46571000D01*
X131913177Y-46558687D01*
X131752758Y-46510024D01*
X131604924Y-46431005D01*
X131604922Y-46431004D01*
X131475341Y-46324659D01*
X131368996Y-46195078D01*
X131330523Y-46123100D01*
X131289976Y-46047242D01*
X131286862Y-46036975D01*
X131280917Y-46017380D01*
X131241313Y-45886823D01*
X131224883Y-45720000D01*
X131241313Y-45553177D01*
X131289976Y-45392758D01*
X131368995Y-45244924D01*
X131368996Y-45244922D01*
X131475341Y-45115341D01*
X131604922Y-45008996D01*
X131685639Y-44965852D01*
X131752758Y-44929976D01*
X131913177Y-44881313D01*
X132038196Y-44869000D01*
X132121804Y-44869000D01*
X132246823Y-44881313D01*
X132246823Y-44881313D01*
G37*
G36*
X150045326Y-44929975D02*
G01*
X150096560Y-44940166D01*
X150244153Y-45001301D01*
X150376982Y-45090055D01*
X150489945Y-45203018D01*
X150517945Y-45244922D01*
X150578700Y-45335849D01*
X150639834Y-45483440D01*
X150671000Y-45640122D01*
X150671000Y-45799878D01*
X150653705Y-45886825D01*
X150639834Y-45956560D01*
X150578699Y-46104153D01*
X150489945Y-46236982D01*
X150376982Y-46349945D01*
X150244153Y-46438699D01*
X150244152Y-46438700D01*
X150244151Y-46438700D01*
X150096560Y-46499834D01*
X149939878Y-46531000D01*
X149780122Y-46531000D01*
X149623440Y-46499834D01*
X149475849Y-46438700D01*
X149475848Y-46438700D01*
X149475847Y-46438699D01*
X149343018Y-46349945D01*
X149230055Y-46236982D01*
X149141301Y-46104153D01*
X149080166Y-45956560D01*
X149066295Y-45886825D01*
X149049000Y-45799878D01*
X149049000Y-45640122D01*
X149080166Y-45483440D01*
X149141300Y-45335849D01*
X149202056Y-45244922D01*
X149230055Y-45203018D01*
X149343018Y-45090055D01*
X149475847Y-45001301D01*
X149623440Y-44940166D01*
X149674674Y-44929975D01*
X149780122Y-44909000D01*
X149939878Y-44909000D01*
X150045326Y-44929975D01*
X150045326Y-44929975D01*
G37*
G36*
X164085039Y-42667825D02*
G01*
X164330279Y-42742218D01*
X164556293Y-42863025D01*
X164654279Y-42943440D01*
X164754396Y-43025604D01*
X164916976Y-43223707D01*
X165020058Y-43416560D01*
X165037782Y-43449720D01*
X165112175Y-43694960D01*
X165131000Y-43886095D01*
X165131000Y-45013905D01*
X165112175Y-45205040D01*
X165037782Y-45450280D01*
X164916975Y-45676294D01*
X164881106Y-45720000D01*
X164754397Y-45874397D01*
X164640062Y-45968228D01*
X164556294Y-46036975D01*
X164556292Y-46036976D01*
X164395166Y-46123100D01*
X164330280Y-46157782D01*
X164085040Y-46232175D01*
X163830000Y-46257294D01*
X163574961Y-46232175D01*
X163329721Y-46157782D01*
X163264836Y-46123100D01*
X163103709Y-46036976D01*
X163103707Y-46036975D01*
X163016805Y-45965656D01*
X162905604Y-45874396D01*
X162743024Y-45676293D01*
X162622219Y-45450282D01*
X162581759Y-45316903D01*
X162547825Y-45205040D01*
X162529000Y-45013905D01*
X162529000Y-43886096D01*
X162547825Y-43694961D01*
X162622218Y-43449721D01*
X162743025Y-43223707D01*
X162905604Y-43025604D01*
X163103707Y-42863024D01*
X163329718Y-42742219D01*
X163329720Y-42742218D01*
X163574960Y-42667825D01*
X163830000Y-42642706D01*
X164085039Y-42667825D01*
X164085039Y-42667825D01*
G37*
G36*
X169535039Y-42667825D02*
G01*
X169780279Y-42742218D01*
X170006293Y-42863025D01*
X170104279Y-42943440D01*
X170204396Y-43025604D01*
X170366976Y-43223707D01*
X170470058Y-43416560D01*
X170487782Y-43449720D01*
X170562175Y-43694960D01*
X170581000Y-43886095D01*
X170581000Y-45013905D01*
X170562175Y-45205040D01*
X170487782Y-45450280D01*
X170366975Y-45676294D01*
X170331106Y-45720000D01*
X170204397Y-45874397D01*
X170090062Y-45968228D01*
X170006294Y-46036975D01*
X170006292Y-46036976D01*
X169845166Y-46123100D01*
X169780280Y-46157782D01*
X169535040Y-46232175D01*
X169280000Y-46257294D01*
X169024961Y-46232175D01*
X168779721Y-46157782D01*
X168714836Y-46123100D01*
X168553709Y-46036976D01*
X168553707Y-46036975D01*
X168466805Y-45965656D01*
X168355604Y-45874396D01*
X168193024Y-45676293D01*
X168072219Y-45450282D01*
X168031759Y-45316903D01*
X167997825Y-45205040D01*
X167979000Y-45013905D01*
X167979000Y-43886096D01*
X167997825Y-43694961D01*
X168072218Y-43449721D01*
X168193025Y-43223707D01*
X168355604Y-43025604D01*
X168553707Y-42863024D01*
X168779718Y-42742219D01*
X168779720Y-42742218D01*
X169024960Y-42667825D01*
X169280000Y-42642706D01*
X169535039Y-42667825D01*
X169535039Y-42667825D01*
G37*
G36*
X159681000Y-46251000D02*
G01*
X157079000Y-46251000D01*
X157079000Y-42649000D01*
X159681000Y-42649000D01*
X159681000Y-46251000D01*
X159681000Y-46251000D01*
G37*
G36*
X150096560Y-42400166D02*
G01*
X150244153Y-42461301D01*
X150376982Y-42550055D01*
X150489945Y-42663018D01*
X150578699Y-42795847D01*
X150639834Y-42943440D01*
X150671000Y-43100123D01*
X150671000Y-43259877D01*
X150639834Y-43416560D01*
X150578699Y-43564153D01*
X150489945Y-43696982D01*
X150376982Y-43809945D01*
X150244153Y-43898699D01*
X150244152Y-43898700D01*
X150244151Y-43898700D01*
X150096560Y-43959834D01*
X149939878Y-43991000D01*
X149780122Y-43991000D01*
X149623440Y-43959834D01*
X149475849Y-43898700D01*
X149475848Y-43898700D01*
X149475847Y-43898699D01*
X149343018Y-43809945D01*
X149230055Y-43696982D01*
X149141301Y-43564153D01*
X149080166Y-43416560D01*
X149049000Y-43259877D01*
X149049000Y-43100123D01*
X149080166Y-42943440D01*
X149141301Y-42795847D01*
X149230055Y-42663018D01*
X149343018Y-42550055D01*
X149475847Y-42461301D01*
X149623440Y-42400166D01*
X149780122Y-42369000D01*
X149939878Y-42369000D01*
X150096560Y-42400166D01*
X150096560Y-42400166D01*
G37*
M02*
