M48
; DRILL file {KiCad 5.1.4-5.1.4} date Fr 01 Nov 2019 16:10:26 CET
; FORMAT={3:3/ absolute / metric / suppress leading zeros}
; #@! TF.CreationDate,2019-11-01T16:10:26+01:00
; #@! TF.GenerationSoftware,Kicad,Pcbnew,5.1.4-5.1.4
FMAT,2
METRIC,TZ
T1C0.800
T2C1.000
T3C1.200
T4C1.500
T5C3.500
%
G90
G05
T1
X157480Y-96520
X157480Y-106680
X179070Y-129540
X179070Y-132080
X179070Y-134620
X210820Y-95250
X210820Y-105410
X200660Y-68580
X200660Y-78740
X182880Y-95250
X193040Y-95250
X157480Y-74930
X157480Y-77430
X175260Y-68580
X175260Y-78740
X182880Y-101600
X193040Y-101600
X132080Y-45720
X142240Y-45720
X204470Y-95250
X204470Y-105410
X142240Y-74930
X152400Y-74930
X162560Y-97790
X162560Y-100330
X162560Y-102870
X162560Y-105410
X170180Y-97790
X170180Y-100330
X170180Y-102870
X170180Y-105410
X187960Y-72430
X187960Y-74930
X151130Y-96520
X151130Y-106680
X171450Y-86400
X171450Y-88900
X142240Y-81280
X152400Y-81280
X198120Y-99060
X198120Y-101560
X149860Y-43180
X149860Y-45720
X149860Y-48260
X162560Y-69850
X162560Y-72390
X162560Y-74930
X162560Y-77470
X170180Y-69850
X170180Y-72390
X170180Y-74930
X170180Y-77470
X157480Y-69890
X157480Y-72390
X186690Y-132080
X196850Y-132080
X142240Y-68580
X152400Y-68580
X194310Y-68580
X194310Y-78740
X175260Y-97830
X175260Y-100330
X175260Y-102910
X175260Y-105410
X181610Y-68580
X181610Y-78740
X182880Y-107950
X193040Y-107950
T2
X120650Y-96520
X120650Y-99060
X161290Y-85170
X161290Y-90170
X210820Y-72390
X210820Y-74930
X120650Y-63500
X120650Y-66040
X209550Y-52070
X209550Y-54610
X120650Y-113030
X120650Y-115570
X209550Y-116840
X209550Y-119380
X120650Y-50800
X120650Y-53340
X210820Y-86360
X210820Y-88900
X120650Y-78740
X120650Y-81280
T3
X138430Y-118110
X194310Y-118110
X138430Y-57150
X194310Y-57150
T4
X158380Y-133350
X163830Y-133350
X169280Y-133350
X158380Y-44450
X163830Y-44450
X169280Y-44450
T5
X119380Y-43180
X119380Y-133350
X209550Y-43180
X209550Y-133350
T0
M30
