G04 #@! TF.GenerationSoftware,KiCad,Pcbnew,5.1.4-5.1.4*
G04 #@! TF.CreationDate,2019-11-01T16:10:20+01:00*
G04 #@! TF.ProjectId,Strom-Senke,5374726f-6d2d-4536-956e-6b652e6b6963,rev?*
G04 #@! TF.SameCoordinates,Original*
G04 #@! TF.FileFunction,Copper,L2,Bot*
G04 #@! TF.FilePolarity,Positive*
%FSLAX46Y46*%
G04 Gerber Fmt 4.6, Leading zero omitted, Abs format (unit mm)*
G04 Created by KiCad (PCBNEW 5.1.4-5.1.4) date 2019-11-01 16:10:20*
%MOMM*%
%LPD*%
G04 APERTURE LIST*
%ADD10R,1.700000X1.700000*%
%ADD11O,1.700000X1.700000*%
%ADD12O,2.400000X2.400000*%
%ADD13C,2.400000*%
%ADD14C,2.000000*%
%ADD15R,2.000000X2.000000*%
%ADD16C,1.600000*%
%ADD17C,1.520000*%
%ADD18R,1.520000X1.520000*%
%ADD19O,2.500000X3.500000*%
%ADD20R,2.500000X3.500000*%
%ADD21O,1.600000X1.600000*%
%ADD22O,2.400000X1.600000*%
%ADD23R,2.400000X1.600000*%
%ADD24C,4.000000*%
%ADD25C,1.000000*%
%ADD26C,2.500000*%
%ADD27C,0.254000*%
G04 APERTURE END LIST*
D10*
X209550000Y-119380000D03*
D11*
X209550000Y-116840000D03*
D10*
X209550000Y-52070000D03*
D11*
X209550000Y-54610000D03*
D10*
X120650000Y-53340000D03*
D11*
X120650000Y-50800000D03*
D12*
X194310000Y-118110000D03*
D13*
X138430000Y-118110000D03*
D10*
X210820000Y-88900000D03*
D11*
X210820000Y-86360000D03*
D10*
X210820000Y-74930000D03*
D11*
X210820000Y-72390000D03*
D10*
X120650000Y-113030000D03*
D11*
X120650000Y-115570000D03*
D10*
X120650000Y-78740000D03*
D11*
X120650000Y-81280000D03*
D10*
X120650000Y-96520000D03*
D11*
X120650000Y-99060000D03*
D10*
X120650000Y-63500000D03*
D11*
X120650000Y-66040000D03*
D14*
X161290000Y-85170000D03*
D15*
X161290000Y-90170000D03*
D16*
X171450000Y-86400000D03*
X171450000Y-88900000D03*
X157480000Y-74930000D03*
X157480000Y-77430000D03*
X175260000Y-97830000D03*
X175260000Y-100330000D03*
X157480000Y-69890000D03*
X157480000Y-72390000D03*
X175260000Y-102910000D03*
X175260000Y-105410000D03*
X187960000Y-74930000D03*
X187960000Y-72430000D03*
X198120000Y-101560000D03*
X198120000Y-99060000D03*
D17*
X149860000Y-45720000D03*
X149860000Y-43180000D03*
D18*
X149860000Y-48260000D03*
X179070000Y-129540000D03*
D17*
X179070000Y-134620000D03*
X179070000Y-132080000D03*
D19*
X169280000Y-44450000D03*
X163830000Y-44450000D03*
D20*
X158380000Y-44450000D03*
X169280000Y-133350000D03*
D19*
X163830000Y-133350000D03*
X158380000Y-133350000D03*
D21*
X152400000Y-81280000D03*
D16*
X142240000Y-81280000D03*
X193040000Y-95250000D03*
D21*
X182880000Y-95250000D03*
D16*
X152400000Y-74930000D03*
D21*
X142240000Y-74930000D03*
X193040000Y-101600000D03*
D16*
X182880000Y-101600000D03*
X142240000Y-45720000D03*
D21*
X132080000Y-45720000D03*
X152400000Y-68580000D03*
D16*
X142240000Y-68580000D03*
X186690000Y-132080000D03*
D21*
X196850000Y-132080000D03*
X182880000Y-107950000D03*
D16*
X193040000Y-107950000D03*
D21*
X175260000Y-68580000D03*
D16*
X175260000Y-78740000D03*
D21*
X157480000Y-106680000D03*
D16*
X157480000Y-96520000D03*
X181610000Y-68580000D03*
D21*
X181610000Y-78740000D03*
D16*
X151130000Y-106680000D03*
D21*
X151130000Y-96520000D03*
X200660000Y-78740000D03*
D16*
X200660000Y-68580000D03*
X194310000Y-78740000D03*
D21*
X194310000Y-68580000D03*
X210820000Y-95250000D03*
D16*
X210820000Y-105410000D03*
X204470000Y-95250000D03*
D21*
X204470000Y-105410000D03*
D13*
X194310000Y-57150000D03*
D12*
X138430000Y-57150000D03*
D22*
X170180000Y-69850000D03*
X162560000Y-77470000D03*
X170180000Y-72390000D03*
X162560000Y-74930000D03*
X170180000Y-74930000D03*
X162560000Y-72390000D03*
X170180000Y-77470000D03*
D23*
X162560000Y-69850000D03*
X170180000Y-105410000D03*
D22*
X162560000Y-97790000D03*
X170180000Y-102870000D03*
X162560000Y-100330000D03*
X170180000Y-100330000D03*
X162560000Y-102870000D03*
X170180000Y-97790000D03*
X162560000Y-105410000D03*
D24*
X209550000Y-133350000D03*
X119380000Y-133350000D03*
X119380000Y-43180000D03*
X209550000Y-43180000D03*
D25*
X171450000Y-88900000D02*
X170180000Y-88900000D01*
X170180000Y-88900000D02*
X167640000Y-86360000D01*
X169780000Y-69850000D02*
X170180000Y-69850000D01*
X167640000Y-71990000D02*
X169780000Y-69850000D01*
X167640000Y-86360000D02*
X167640000Y-71990000D01*
X164760000Y-105410000D02*
X166370000Y-103800000D01*
X162560000Y-105410000D02*
X164760000Y-105410000D01*
X166370000Y-93980000D02*
X171450000Y-88900000D01*
X166370000Y-103800000D02*
X166370000Y-93980000D01*
D26*
X163830000Y-44950000D02*
X163830000Y-44450000D01*
X209550000Y-52070000D02*
X206200000Y-52070000D01*
X185420000Y-53340000D02*
X172220000Y-53340000D01*
X198419991Y-59850009D02*
X191930009Y-59850009D01*
X191930009Y-59850009D02*
X185420000Y-53340000D01*
X206200000Y-52070000D02*
X198419991Y-59850009D01*
X172220000Y-53340000D02*
X163830000Y-44950000D01*
X209310001Y-119619999D02*
X197880001Y-119619999D01*
X209550000Y-119380000D02*
X209310001Y-119619999D01*
X197880001Y-119619999D02*
X195580000Y-121920000D01*
X195580000Y-121920000D02*
X166370000Y-121920000D01*
X163830000Y-124460000D02*
X163830000Y-133350000D01*
X166370000Y-121920000D02*
X163830000Y-124460000D01*
X194310000Y-49530000D02*
X194310000Y-55452944D01*
X194310000Y-55452944D02*
X194310000Y-57150000D01*
X189230000Y-44450000D02*
X194310000Y-49530000D01*
X169280000Y-44450000D02*
X189230000Y-44450000D01*
X166361610Y-118110000D02*
X192612944Y-118110000D01*
X158380000Y-126091610D02*
X166361610Y-118110000D01*
X192612944Y-118110000D02*
X194310000Y-118110000D01*
X158380000Y-133350000D02*
X158380000Y-126091610D01*
D27*
G36*
X213233000Y-137033000D02*
G01*
X115697000Y-137033000D01*
X115697000Y-133090475D01*
X116745000Y-133090475D01*
X116745000Y-133609525D01*
X116846261Y-134118601D01*
X117044893Y-134598141D01*
X117333262Y-135029715D01*
X117700285Y-135396738D01*
X118131859Y-135685107D01*
X118611399Y-135883739D01*
X119120475Y-135985000D01*
X119639525Y-135985000D01*
X120148601Y-135883739D01*
X120628141Y-135685107D01*
X121059715Y-135396738D01*
X121426738Y-135029715D01*
X121715107Y-134598141D01*
X121913739Y-134118601D01*
X122015000Y-133609525D01*
X122015000Y-133090475D01*
X121913739Y-132581399D01*
X121715107Y-132101859D01*
X121426738Y-131670285D01*
X121059715Y-131303262D01*
X120628141Y-131014893D01*
X120148601Y-130816261D01*
X119639525Y-130715000D01*
X119120475Y-130715000D01*
X118611399Y-130816261D01*
X118131859Y-131014893D01*
X117700285Y-131303262D01*
X117333262Y-131670285D01*
X117044893Y-132101859D01*
X116846261Y-132581399D01*
X116745000Y-133090475D01*
X115697000Y-133090475D01*
X115697000Y-126091610D01*
X156485881Y-126091610D01*
X156495001Y-126184209D01*
X156495000Y-132757402D01*
X156495000Y-133942596D01*
X156522275Y-134219523D01*
X156630061Y-134574847D01*
X156805097Y-134902317D01*
X157040655Y-135189345D01*
X157327683Y-135424903D01*
X157655152Y-135599939D01*
X158010476Y-135707725D01*
X158380000Y-135744120D01*
X158749523Y-135707725D01*
X159104847Y-135599939D01*
X159432317Y-135424903D01*
X159719345Y-135189345D01*
X159954903Y-134902317D01*
X160129939Y-134574848D01*
X160237725Y-134219524D01*
X160265000Y-133942597D01*
X160265000Y-126872402D01*
X161945000Y-125192402D01*
X161945001Y-132757394D01*
X161945000Y-132757403D01*
X161945000Y-133942596D01*
X161972275Y-134219523D01*
X162080061Y-134574847D01*
X162255097Y-134902317D01*
X162490655Y-135189345D01*
X162777683Y-135424903D01*
X163105152Y-135599939D01*
X163460476Y-135707725D01*
X163830000Y-135744120D01*
X164199523Y-135707725D01*
X164554847Y-135599939D01*
X164882317Y-135424903D01*
X165169345Y-135189345D01*
X165404903Y-134902317D01*
X165579939Y-134574848D01*
X165687725Y-134219524D01*
X165715000Y-133942597D01*
X165715000Y-131600000D01*
X167391928Y-131600000D01*
X167391928Y-135100000D01*
X167404188Y-135224482D01*
X167440498Y-135344180D01*
X167499463Y-135454494D01*
X167578815Y-135551185D01*
X167675506Y-135630537D01*
X167785820Y-135689502D01*
X167905518Y-135725812D01*
X168030000Y-135738072D01*
X170530000Y-135738072D01*
X170654482Y-135725812D01*
X170774180Y-135689502D01*
X170884494Y-135630537D01*
X170981185Y-135551185D01*
X171060537Y-135454494D01*
X171119502Y-135344180D01*
X171155812Y-135224482D01*
X171168072Y-135100000D01*
X171168072Y-131600000D01*
X171155812Y-131475518D01*
X171119502Y-131355820D01*
X171060537Y-131245506D01*
X170981185Y-131148815D01*
X170884494Y-131069463D01*
X170774180Y-131010498D01*
X170654482Y-130974188D01*
X170530000Y-130961928D01*
X168030000Y-130961928D01*
X167905518Y-130974188D01*
X167785820Y-131010498D01*
X167675506Y-131069463D01*
X167578815Y-131148815D01*
X167499463Y-131245506D01*
X167440498Y-131355820D01*
X167404188Y-131475518D01*
X167391928Y-131600000D01*
X165715000Y-131600000D01*
X165715000Y-128780000D01*
X177671928Y-128780000D01*
X177671928Y-130300000D01*
X177684188Y-130424482D01*
X177720498Y-130544180D01*
X177779463Y-130654494D01*
X177858815Y-130751185D01*
X177955506Y-130830537D01*
X178065820Y-130889502D01*
X178185518Y-130925812D01*
X178273467Y-130934474D01*
X178180739Y-130996433D01*
X177986433Y-131190739D01*
X177833767Y-131419220D01*
X177728609Y-131673093D01*
X177675000Y-131942604D01*
X177675000Y-132217396D01*
X177728609Y-132486907D01*
X177833767Y-132740780D01*
X177986433Y-132969261D01*
X178180739Y-133163567D01*
X178409220Y-133316233D01*
X178490740Y-133350000D01*
X178409220Y-133383767D01*
X178180739Y-133536433D01*
X177986433Y-133730739D01*
X177833767Y-133959220D01*
X177728609Y-134213093D01*
X177675000Y-134482604D01*
X177675000Y-134757396D01*
X177728609Y-135026907D01*
X177833767Y-135280780D01*
X177986433Y-135509261D01*
X178180739Y-135703567D01*
X178409220Y-135856233D01*
X178663093Y-135961391D01*
X178932604Y-136015000D01*
X179207396Y-136015000D01*
X179476907Y-135961391D01*
X179730780Y-135856233D01*
X179959261Y-135703567D01*
X180153567Y-135509261D01*
X180306233Y-135280780D01*
X180411391Y-135026907D01*
X180465000Y-134757396D01*
X180465000Y-134482604D01*
X180411391Y-134213093D01*
X180306233Y-133959220D01*
X180153567Y-133730739D01*
X179959261Y-133536433D01*
X179730780Y-133383767D01*
X179649260Y-133350000D01*
X179730780Y-133316233D01*
X179959261Y-133163567D01*
X180153567Y-132969261D01*
X180306233Y-132740780D01*
X180411391Y-132486907D01*
X180465000Y-132217396D01*
X180465000Y-131942604D01*
X180464217Y-131938665D01*
X185255000Y-131938665D01*
X185255000Y-132221335D01*
X185310147Y-132498574D01*
X185418320Y-132759727D01*
X185575363Y-132994759D01*
X185775241Y-133194637D01*
X186010273Y-133351680D01*
X186271426Y-133459853D01*
X186548665Y-133515000D01*
X186831335Y-133515000D01*
X187108574Y-133459853D01*
X187369727Y-133351680D01*
X187604759Y-133194637D01*
X187804637Y-132994759D01*
X187961680Y-132759727D01*
X188069853Y-132498574D01*
X188125000Y-132221335D01*
X188125000Y-132080000D01*
X195408057Y-132080000D01*
X195435764Y-132361309D01*
X195517818Y-132631808D01*
X195651068Y-132881101D01*
X195830392Y-133099608D01*
X196048899Y-133278932D01*
X196298192Y-133412182D01*
X196568691Y-133494236D01*
X196779508Y-133515000D01*
X196920492Y-133515000D01*
X197131309Y-133494236D01*
X197401808Y-133412182D01*
X197651101Y-133278932D01*
X197869608Y-133099608D01*
X197877103Y-133090475D01*
X206915000Y-133090475D01*
X206915000Y-133609525D01*
X207016261Y-134118601D01*
X207214893Y-134598141D01*
X207503262Y-135029715D01*
X207870285Y-135396738D01*
X208301859Y-135685107D01*
X208781399Y-135883739D01*
X209290475Y-135985000D01*
X209809525Y-135985000D01*
X210318601Y-135883739D01*
X210798141Y-135685107D01*
X211229715Y-135396738D01*
X211596738Y-135029715D01*
X211885107Y-134598141D01*
X212083739Y-134118601D01*
X212185000Y-133609525D01*
X212185000Y-133090475D01*
X212083739Y-132581399D01*
X211885107Y-132101859D01*
X211596738Y-131670285D01*
X211229715Y-131303262D01*
X210798141Y-131014893D01*
X210318601Y-130816261D01*
X209809525Y-130715000D01*
X209290475Y-130715000D01*
X208781399Y-130816261D01*
X208301859Y-131014893D01*
X207870285Y-131303262D01*
X207503262Y-131670285D01*
X207214893Y-132101859D01*
X207016261Y-132581399D01*
X206915000Y-133090475D01*
X197877103Y-133090475D01*
X198048932Y-132881101D01*
X198182182Y-132631808D01*
X198264236Y-132361309D01*
X198291943Y-132080000D01*
X198264236Y-131798691D01*
X198182182Y-131528192D01*
X198048932Y-131278899D01*
X197869608Y-131060392D01*
X197651101Y-130881068D01*
X197401808Y-130747818D01*
X197131309Y-130665764D01*
X196920492Y-130645000D01*
X196779508Y-130645000D01*
X196568691Y-130665764D01*
X196298192Y-130747818D01*
X196048899Y-130881068D01*
X195830392Y-131060392D01*
X195651068Y-131278899D01*
X195517818Y-131528192D01*
X195435764Y-131798691D01*
X195408057Y-132080000D01*
X188125000Y-132080000D01*
X188125000Y-131938665D01*
X188069853Y-131661426D01*
X187961680Y-131400273D01*
X187804637Y-131165241D01*
X187604759Y-130965363D01*
X187369727Y-130808320D01*
X187108574Y-130700147D01*
X186831335Y-130645000D01*
X186548665Y-130645000D01*
X186271426Y-130700147D01*
X186010273Y-130808320D01*
X185775241Y-130965363D01*
X185575363Y-131165241D01*
X185418320Y-131400273D01*
X185310147Y-131661426D01*
X185255000Y-131938665D01*
X180464217Y-131938665D01*
X180411391Y-131673093D01*
X180306233Y-131419220D01*
X180153567Y-131190739D01*
X179959261Y-130996433D01*
X179866533Y-130934474D01*
X179954482Y-130925812D01*
X180074180Y-130889502D01*
X180184494Y-130830537D01*
X180281185Y-130751185D01*
X180360537Y-130654494D01*
X180419502Y-130544180D01*
X180455812Y-130424482D01*
X180468072Y-130300000D01*
X180468072Y-128780000D01*
X180455812Y-128655518D01*
X180419502Y-128535820D01*
X180360537Y-128425506D01*
X180281185Y-128328815D01*
X180184494Y-128249463D01*
X180074180Y-128190498D01*
X179954482Y-128154188D01*
X179830000Y-128141928D01*
X178310000Y-128141928D01*
X178185518Y-128154188D01*
X178065820Y-128190498D01*
X177955506Y-128249463D01*
X177858815Y-128328815D01*
X177779463Y-128425506D01*
X177720498Y-128535820D01*
X177684188Y-128655518D01*
X177671928Y-128780000D01*
X165715000Y-128780000D01*
X165715000Y-125240792D01*
X167150792Y-123805000D01*
X195487411Y-123805000D01*
X195580000Y-123814119D01*
X195672589Y-123805000D01*
X195672597Y-123805000D01*
X195949524Y-123777725D01*
X196304848Y-123669939D01*
X196632317Y-123494903D01*
X196919345Y-123259345D01*
X196978374Y-123187418D01*
X198660794Y-121504999D01*
X209217412Y-121504999D01*
X209310001Y-121514118D01*
X209402590Y-121504999D01*
X209402598Y-121504999D01*
X209679525Y-121477724D01*
X210034849Y-121369938D01*
X210362318Y-121194902D01*
X210649346Y-120959344D01*
X210708375Y-120887417D01*
X210948372Y-120647420D01*
X211124902Y-120432316D01*
X211299938Y-120104848D01*
X211407725Y-119749523D01*
X211444119Y-119380000D01*
X211407725Y-119010476D01*
X211299938Y-118655152D01*
X211124902Y-118327683D01*
X210889345Y-118040655D01*
X210646437Y-117841306D01*
X210647588Y-117840269D01*
X210821641Y-117606920D01*
X210946825Y-117344099D01*
X210991476Y-117196890D01*
X210870155Y-116967000D01*
X209677000Y-116967000D01*
X209677000Y-116987000D01*
X209423000Y-116987000D01*
X209423000Y-116967000D01*
X208229845Y-116967000D01*
X208108524Y-117196890D01*
X208153175Y-117344099D01*
X208278359Y-117606920D01*
X208373892Y-117734999D01*
X197972598Y-117734999D01*
X197880001Y-117725879D01*
X197787404Y-117734999D01*
X197510477Y-117762274D01*
X197155153Y-117870060D01*
X197023373Y-117940498D01*
X196827684Y-118045096D01*
X196612580Y-118221627D01*
X196612578Y-118221629D01*
X196540656Y-118280654D01*
X196481631Y-118352576D01*
X196086317Y-118747890D01*
X196167725Y-118479524D01*
X196204120Y-118110000D01*
X196167725Y-117740476D01*
X196059939Y-117385152D01*
X195884903Y-117057683D01*
X195649345Y-116770655D01*
X195362317Y-116535097D01*
X195265057Y-116483110D01*
X208108524Y-116483110D01*
X208229845Y-116713000D01*
X209423000Y-116713000D01*
X209423000Y-115519186D01*
X209677000Y-115519186D01*
X209677000Y-116713000D01*
X210870155Y-116713000D01*
X210991476Y-116483110D01*
X210946825Y-116335901D01*
X210821641Y-116073080D01*
X210647588Y-115839731D01*
X210431355Y-115644822D01*
X210181252Y-115495843D01*
X209906891Y-115398519D01*
X209677000Y-115519186D01*
X209423000Y-115519186D01*
X209193109Y-115398519D01*
X208918748Y-115495843D01*
X208668645Y-115644822D01*
X208452412Y-115839731D01*
X208278359Y-116073080D01*
X208153175Y-116335901D01*
X208108524Y-116483110D01*
X195265057Y-116483110D01*
X195034848Y-116360061D01*
X194679524Y-116252275D01*
X194402597Y-116225000D01*
X166454196Y-116225000D01*
X166361609Y-116215881D01*
X166269022Y-116225000D01*
X166269013Y-116225000D01*
X165992086Y-116252275D01*
X165636762Y-116360061D01*
X165309293Y-116535097D01*
X165309291Y-116535098D01*
X165309292Y-116535098D01*
X165094189Y-116711628D01*
X165094187Y-116711630D01*
X165022265Y-116770655D01*
X164963240Y-116842577D01*
X157112577Y-124693241D01*
X157040656Y-124752265D01*
X156981631Y-124824187D01*
X156981628Y-124824190D01*
X156805098Y-125039293D01*
X156630062Y-125366762D01*
X156522275Y-125722086D01*
X156485881Y-126091610D01*
X115697000Y-126091610D01*
X115697000Y-119387980D01*
X137331626Y-119387980D01*
X137451514Y-119672836D01*
X137775210Y-119833699D01*
X138124069Y-119928322D01*
X138484684Y-119953067D01*
X138843198Y-119906985D01*
X139185833Y-119791846D01*
X139408486Y-119672836D01*
X139528374Y-119387980D01*
X138430000Y-118289605D01*
X137331626Y-119387980D01*
X115697000Y-119387980D01*
X115697000Y-118164684D01*
X136586933Y-118164684D01*
X136633015Y-118523198D01*
X136748154Y-118865833D01*
X136867164Y-119088486D01*
X137152020Y-119208374D01*
X138250395Y-118110000D01*
X138609605Y-118110000D01*
X139707980Y-119208374D01*
X139992836Y-119088486D01*
X140153699Y-118764790D01*
X140248322Y-118415931D01*
X140273067Y-118055316D01*
X140226985Y-117696802D01*
X140111846Y-117354167D01*
X139992836Y-117131514D01*
X139707980Y-117011626D01*
X138609605Y-118110000D01*
X138250395Y-118110000D01*
X137152020Y-117011626D01*
X136867164Y-117131514D01*
X136706301Y-117455210D01*
X136611678Y-117804069D01*
X136586933Y-118164684D01*
X115697000Y-118164684D01*
X115697000Y-115926890D01*
X119208524Y-115926890D01*
X119253175Y-116074099D01*
X119378359Y-116336920D01*
X119552412Y-116570269D01*
X119768645Y-116765178D01*
X120018748Y-116914157D01*
X120293109Y-117011481D01*
X120523000Y-116890814D01*
X120523000Y-115697000D01*
X120777000Y-115697000D01*
X120777000Y-116890814D01*
X121006891Y-117011481D01*
X121281252Y-116914157D01*
X121419141Y-116832020D01*
X137331626Y-116832020D01*
X138430000Y-117930395D01*
X139528374Y-116832020D01*
X139408486Y-116547164D01*
X139084790Y-116386301D01*
X138735931Y-116291678D01*
X138375316Y-116266933D01*
X138016802Y-116313015D01*
X137674167Y-116428154D01*
X137451514Y-116547164D01*
X137331626Y-116832020D01*
X121419141Y-116832020D01*
X121531355Y-116765178D01*
X121747588Y-116570269D01*
X121921641Y-116336920D01*
X122046825Y-116074099D01*
X122091476Y-115926890D01*
X121970155Y-115697000D01*
X120777000Y-115697000D01*
X120523000Y-115697000D01*
X119329845Y-115697000D01*
X119208524Y-115926890D01*
X115697000Y-115926890D01*
X115697000Y-112180000D01*
X119161928Y-112180000D01*
X119161928Y-113880000D01*
X119174188Y-114004482D01*
X119210498Y-114124180D01*
X119269463Y-114234494D01*
X119348815Y-114331185D01*
X119445506Y-114410537D01*
X119555820Y-114469502D01*
X119636466Y-114493966D01*
X119552412Y-114569731D01*
X119378359Y-114803080D01*
X119253175Y-115065901D01*
X119208524Y-115213110D01*
X119329845Y-115443000D01*
X120523000Y-115443000D01*
X120523000Y-115423000D01*
X120777000Y-115423000D01*
X120777000Y-115443000D01*
X121970155Y-115443000D01*
X122091476Y-115213110D01*
X122046825Y-115065901D01*
X121921641Y-114803080D01*
X121747588Y-114569731D01*
X121663534Y-114493966D01*
X121744180Y-114469502D01*
X121854494Y-114410537D01*
X121951185Y-114331185D01*
X122030537Y-114234494D01*
X122089502Y-114124180D01*
X122125812Y-114004482D01*
X122138072Y-113880000D01*
X122138072Y-112180000D01*
X122125812Y-112055518D01*
X122089502Y-111935820D01*
X122030537Y-111825506D01*
X121951185Y-111728815D01*
X121854494Y-111649463D01*
X121744180Y-111590498D01*
X121624482Y-111554188D01*
X121500000Y-111541928D01*
X119800000Y-111541928D01*
X119675518Y-111554188D01*
X119555820Y-111590498D01*
X119445506Y-111649463D01*
X119348815Y-111728815D01*
X119269463Y-111825506D01*
X119210498Y-111935820D01*
X119174188Y-112055518D01*
X119161928Y-112180000D01*
X115697000Y-112180000D01*
X115697000Y-107672702D01*
X150316903Y-107672702D01*
X150388486Y-107916671D01*
X150643996Y-108037571D01*
X150918184Y-108106300D01*
X151200512Y-108120217D01*
X151480130Y-108078787D01*
X151746292Y-107983603D01*
X151871514Y-107916671D01*
X151943097Y-107672702D01*
X151130000Y-106859605D01*
X150316903Y-107672702D01*
X115697000Y-107672702D01*
X115697000Y-106750512D01*
X149689783Y-106750512D01*
X149731213Y-107030130D01*
X149826397Y-107296292D01*
X149893329Y-107421514D01*
X150137298Y-107493097D01*
X150950395Y-106680000D01*
X151309605Y-106680000D01*
X152122702Y-107493097D01*
X152366671Y-107421514D01*
X152487571Y-107166004D01*
X152556300Y-106891816D01*
X152566741Y-106680000D01*
X156038057Y-106680000D01*
X156065764Y-106961309D01*
X156147818Y-107231808D01*
X156281068Y-107481101D01*
X156460392Y-107699608D01*
X156678899Y-107878932D01*
X156928192Y-108012182D01*
X157198691Y-108094236D01*
X157409508Y-108115000D01*
X157550492Y-108115000D01*
X157761309Y-108094236D01*
X158031808Y-108012182D01*
X158148142Y-107950000D01*
X181438057Y-107950000D01*
X181465764Y-108231309D01*
X181547818Y-108501808D01*
X181681068Y-108751101D01*
X181860392Y-108969608D01*
X182078899Y-109148932D01*
X182328192Y-109282182D01*
X182598691Y-109364236D01*
X182809508Y-109385000D01*
X182950492Y-109385000D01*
X183161309Y-109364236D01*
X183431808Y-109282182D01*
X183681101Y-109148932D01*
X183899608Y-108969608D01*
X184078932Y-108751101D01*
X184212182Y-108501808D01*
X184294236Y-108231309D01*
X184321943Y-107950000D01*
X184308023Y-107808665D01*
X191605000Y-107808665D01*
X191605000Y-108091335D01*
X191660147Y-108368574D01*
X191768320Y-108629727D01*
X191925363Y-108864759D01*
X192125241Y-109064637D01*
X192360273Y-109221680D01*
X192621426Y-109329853D01*
X192898665Y-109385000D01*
X193181335Y-109385000D01*
X193458574Y-109329853D01*
X193719727Y-109221680D01*
X193954759Y-109064637D01*
X194154637Y-108864759D01*
X194311680Y-108629727D01*
X194419853Y-108368574D01*
X194475000Y-108091335D01*
X194475000Y-107808665D01*
X194419853Y-107531426D01*
X194311680Y-107270273D01*
X194154637Y-107035241D01*
X193954759Y-106835363D01*
X193719727Y-106678320D01*
X193458574Y-106570147D01*
X193181335Y-106515000D01*
X192898665Y-106515000D01*
X192621426Y-106570147D01*
X192360273Y-106678320D01*
X192125241Y-106835363D01*
X191925363Y-107035241D01*
X191768320Y-107270273D01*
X191660147Y-107531426D01*
X191605000Y-107808665D01*
X184308023Y-107808665D01*
X184294236Y-107668691D01*
X184212182Y-107398192D01*
X184078932Y-107148899D01*
X183899608Y-106930392D01*
X183681101Y-106751068D01*
X183431808Y-106617818D01*
X183161309Y-106535764D01*
X182950492Y-106515000D01*
X182809508Y-106515000D01*
X182598691Y-106535764D01*
X182328192Y-106617818D01*
X182078899Y-106751068D01*
X181860392Y-106930392D01*
X181681068Y-107148899D01*
X181547818Y-107398192D01*
X181465764Y-107668691D01*
X181438057Y-107950000D01*
X158148142Y-107950000D01*
X158281101Y-107878932D01*
X158499608Y-107699608D01*
X158678932Y-107481101D01*
X158812182Y-107231808D01*
X158894236Y-106961309D01*
X158921943Y-106680000D01*
X158894236Y-106398691D01*
X158812182Y-106128192D01*
X158678932Y-105878899D01*
X158499608Y-105660392D01*
X158281101Y-105481068D01*
X158031808Y-105347818D01*
X157761309Y-105265764D01*
X157550492Y-105245000D01*
X157409508Y-105245000D01*
X157198691Y-105265764D01*
X156928192Y-105347818D01*
X156678899Y-105481068D01*
X156460392Y-105660392D01*
X156281068Y-105878899D01*
X156147818Y-106128192D01*
X156065764Y-106398691D01*
X156038057Y-106680000D01*
X152566741Y-106680000D01*
X152570217Y-106609488D01*
X152528787Y-106329870D01*
X152433603Y-106063708D01*
X152366671Y-105938486D01*
X152122702Y-105866903D01*
X151309605Y-106680000D01*
X150950395Y-106680000D01*
X150137298Y-105866903D01*
X149893329Y-105938486D01*
X149772429Y-106193996D01*
X149703700Y-106468184D01*
X149689783Y-106750512D01*
X115697000Y-106750512D01*
X115697000Y-105687298D01*
X150316903Y-105687298D01*
X151130000Y-106500395D01*
X151943097Y-105687298D01*
X151871514Y-105443329D01*
X151616004Y-105322429D01*
X151341816Y-105253700D01*
X151059488Y-105239783D01*
X150779870Y-105281213D01*
X150513708Y-105376397D01*
X150388486Y-105443329D01*
X150316903Y-105687298D01*
X115697000Y-105687298D01*
X115697000Y-99416890D01*
X119208524Y-99416890D01*
X119253175Y-99564099D01*
X119378359Y-99826920D01*
X119552412Y-100060269D01*
X119768645Y-100255178D01*
X120018748Y-100404157D01*
X120293109Y-100501481D01*
X120523000Y-100380814D01*
X120523000Y-99187000D01*
X120777000Y-99187000D01*
X120777000Y-100380814D01*
X121006891Y-100501481D01*
X121281252Y-100404157D01*
X121531355Y-100255178D01*
X121747588Y-100060269D01*
X121921641Y-99826920D01*
X122046825Y-99564099D01*
X122091476Y-99416890D01*
X121970155Y-99187000D01*
X120777000Y-99187000D01*
X120523000Y-99187000D01*
X119329845Y-99187000D01*
X119208524Y-99416890D01*
X115697000Y-99416890D01*
X115697000Y-95670000D01*
X119161928Y-95670000D01*
X119161928Y-97370000D01*
X119174188Y-97494482D01*
X119210498Y-97614180D01*
X119269463Y-97724494D01*
X119348815Y-97821185D01*
X119445506Y-97900537D01*
X119555820Y-97959502D01*
X119636466Y-97983966D01*
X119552412Y-98059731D01*
X119378359Y-98293080D01*
X119253175Y-98555901D01*
X119208524Y-98703110D01*
X119329845Y-98933000D01*
X120523000Y-98933000D01*
X120523000Y-98913000D01*
X120777000Y-98913000D01*
X120777000Y-98933000D01*
X121970155Y-98933000D01*
X122091476Y-98703110D01*
X122046825Y-98555901D01*
X121921641Y-98293080D01*
X121747588Y-98059731D01*
X121663534Y-97983966D01*
X121744180Y-97959502D01*
X121854494Y-97900537D01*
X121951185Y-97821185D01*
X122030537Y-97724494D01*
X122089502Y-97614180D01*
X122125812Y-97494482D01*
X122138072Y-97370000D01*
X122138072Y-96520000D01*
X149688057Y-96520000D01*
X149715764Y-96801309D01*
X149797818Y-97071808D01*
X149931068Y-97321101D01*
X150110392Y-97539608D01*
X150328899Y-97718932D01*
X150578192Y-97852182D01*
X150848691Y-97934236D01*
X151059508Y-97955000D01*
X151200492Y-97955000D01*
X151411309Y-97934236D01*
X151681808Y-97852182D01*
X151931101Y-97718932D01*
X152149608Y-97539608D01*
X152328932Y-97321101D01*
X152462182Y-97071808D01*
X152544236Y-96801309D01*
X152571943Y-96520000D01*
X152558023Y-96378665D01*
X156045000Y-96378665D01*
X156045000Y-96661335D01*
X156100147Y-96938574D01*
X156208320Y-97199727D01*
X156365363Y-97434759D01*
X156565241Y-97634637D01*
X156800273Y-97791680D01*
X157061426Y-97899853D01*
X157338665Y-97955000D01*
X157621335Y-97955000D01*
X157898574Y-97899853D01*
X158159727Y-97791680D01*
X158162241Y-97790000D01*
X160718057Y-97790000D01*
X160745764Y-98071309D01*
X160827818Y-98341808D01*
X160961068Y-98591101D01*
X161140392Y-98809608D01*
X161358899Y-98988932D01*
X161491858Y-99060000D01*
X161358899Y-99131068D01*
X161140392Y-99310392D01*
X160961068Y-99528899D01*
X160827818Y-99778192D01*
X160745764Y-100048691D01*
X160718057Y-100330000D01*
X160745764Y-100611309D01*
X160827818Y-100881808D01*
X160961068Y-101131101D01*
X161140392Y-101349608D01*
X161358899Y-101528932D01*
X161491858Y-101600000D01*
X161358899Y-101671068D01*
X161140392Y-101850392D01*
X160961068Y-102068899D01*
X160827818Y-102318192D01*
X160745764Y-102588691D01*
X160718057Y-102870000D01*
X160745764Y-103151309D01*
X160827818Y-103421808D01*
X160961068Y-103671101D01*
X161140392Y-103889608D01*
X161358899Y-104068932D01*
X161491858Y-104140000D01*
X161358899Y-104211068D01*
X161140392Y-104390392D01*
X160961068Y-104608899D01*
X160827818Y-104858192D01*
X160745764Y-105128691D01*
X160718057Y-105410000D01*
X160745764Y-105691309D01*
X160827818Y-105961808D01*
X160961068Y-106211101D01*
X161140392Y-106429608D01*
X161358899Y-106608932D01*
X161608192Y-106742182D01*
X161878691Y-106824236D01*
X162089508Y-106845000D01*
X163030492Y-106845000D01*
X163241309Y-106824236D01*
X163511808Y-106742182D01*
X163761101Y-106608932D01*
X163839002Y-106545000D01*
X164704249Y-106545000D01*
X164760000Y-106550491D01*
X164815751Y-106545000D01*
X164815752Y-106545000D01*
X164982499Y-106528577D01*
X165196447Y-106463676D01*
X165393623Y-106358284D01*
X165566449Y-106216449D01*
X165601996Y-106173135D01*
X167133140Y-104641991D01*
X167176449Y-104606449D01*
X167318284Y-104433623D01*
X167423676Y-104236447D01*
X167488577Y-104022499D01*
X167505000Y-103855752D01*
X167505000Y-103855751D01*
X167510491Y-103800000D01*
X167505000Y-103744248D01*
X167505000Y-100330000D01*
X168338057Y-100330000D01*
X168365764Y-100611309D01*
X168447818Y-100881808D01*
X168581068Y-101131101D01*
X168760392Y-101349608D01*
X168978899Y-101528932D01*
X169111858Y-101600000D01*
X168978899Y-101671068D01*
X168760392Y-101850392D01*
X168581068Y-102068899D01*
X168447818Y-102318192D01*
X168365764Y-102588691D01*
X168338057Y-102870000D01*
X168365764Y-103151309D01*
X168447818Y-103421808D01*
X168581068Y-103671101D01*
X168760392Y-103889608D01*
X168873482Y-103982419D01*
X168855518Y-103984188D01*
X168735820Y-104020498D01*
X168625506Y-104079463D01*
X168528815Y-104158815D01*
X168449463Y-104255506D01*
X168390498Y-104365820D01*
X168354188Y-104485518D01*
X168341928Y-104610000D01*
X168341928Y-106210000D01*
X168354188Y-106334482D01*
X168390498Y-106454180D01*
X168449463Y-106564494D01*
X168528815Y-106661185D01*
X168625506Y-106740537D01*
X168735820Y-106799502D01*
X168855518Y-106835812D01*
X168980000Y-106848072D01*
X171380000Y-106848072D01*
X171504482Y-106835812D01*
X171624180Y-106799502D01*
X171734494Y-106740537D01*
X171831185Y-106661185D01*
X171910537Y-106564494D01*
X171969502Y-106454180D01*
X172005812Y-106334482D01*
X172018072Y-106210000D01*
X172018072Y-104610000D01*
X172005812Y-104485518D01*
X171969502Y-104365820D01*
X171910537Y-104255506D01*
X171831185Y-104158815D01*
X171734494Y-104079463D01*
X171624180Y-104020498D01*
X171504482Y-103984188D01*
X171486518Y-103982419D01*
X171599608Y-103889608D01*
X171778932Y-103671101D01*
X171912182Y-103421808D01*
X171994236Y-103151309D01*
X172021943Y-102870000D01*
X171994236Y-102588691D01*
X171912182Y-102318192D01*
X171778932Y-102068899D01*
X171599608Y-101850392D01*
X171381101Y-101671068D01*
X171248142Y-101600000D01*
X171381101Y-101528932D01*
X171599608Y-101349608D01*
X171778932Y-101131101D01*
X171912182Y-100881808D01*
X171994236Y-100611309D01*
X172021943Y-100330000D01*
X172008023Y-100188665D01*
X173825000Y-100188665D01*
X173825000Y-100471335D01*
X173880147Y-100748574D01*
X173988320Y-101009727D01*
X174145363Y-101244759D01*
X174345241Y-101444637D01*
X174580273Y-101601680D01*
X174624501Y-101620000D01*
X174580273Y-101638320D01*
X174345241Y-101795363D01*
X174145363Y-101995241D01*
X173988320Y-102230273D01*
X173880147Y-102491426D01*
X173825000Y-102768665D01*
X173825000Y-103051335D01*
X173880147Y-103328574D01*
X173988320Y-103589727D01*
X174145363Y-103824759D01*
X174345241Y-104024637D01*
X174547827Y-104160000D01*
X174345241Y-104295363D01*
X174145363Y-104495241D01*
X173988320Y-104730273D01*
X173880147Y-104991426D01*
X173825000Y-105268665D01*
X173825000Y-105551335D01*
X173880147Y-105828574D01*
X173988320Y-106089727D01*
X174145363Y-106324759D01*
X174345241Y-106524637D01*
X174580273Y-106681680D01*
X174841426Y-106789853D01*
X175118665Y-106845000D01*
X175401335Y-106845000D01*
X175678574Y-106789853D01*
X175939727Y-106681680D01*
X176174759Y-106524637D01*
X176374637Y-106324759D01*
X176531680Y-106089727D01*
X176639853Y-105828574D01*
X176653684Y-105759040D01*
X203078091Y-105759040D01*
X203172930Y-106023881D01*
X203317615Y-106265131D01*
X203506586Y-106473519D01*
X203732580Y-106641037D01*
X203986913Y-106761246D01*
X204120961Y-106801904D01*
X204343000Y-106679915D01*
X204343000Y-105537000D01*
X204597000Y-105537000D01*
X204597000Y-106679915D01*
X204819039Y-106801904D01*
X204953087Y-106761246D01*
X205207420Y-106641037D01*
X205433414Y-106473519D01*
X205622385Y-106265131D01*
X205767070Y-106023881D01*
X205861909Y-105759040D01*
X205740624Y-105537000D01*
X204597000Y-105537000D01*
X204343000Y-105537000D01*
X203199376Y-105537000D01*
X203078091Y-105759040D01*
X176653684Y-105759040D01*
X176695000Y-105551335D01*
X176695000Y-105268665D01*
X176653685Y-105060960D01*
X203078091Y-105060960D01*
X203199376Y-105283000D01*
X204343000Y-105283000D01*
X204343000Y-104140085D01*
X204597000Y-104140085D01*
X204597000Y-105283000D01*
X205740624Y-105283000D01*
X205748454Y-105268665D01*
X209385000Y-105268665D01*
X209385000Y-105551335D01*
X209440147Y-105828574D01*
X209548320Y-106089727D01*
X209705363Y-106324759D01*
X209905241Y-106524637D01*
X210140273Y-106681680D01*
X210401426Y-106789853D01*
X210678665Y-106845000D01*
X210961335Y-106845000D01*
X211238574Y-106789853D01*
X211499727Y-106681680D01*
X211734759Y-106524637D01*
X211934637Y-106324759D01*
X212091680Y-106089727D01*
X212199853Y-105828574D01*
X212255000Y-105551335D01*
X212255000Y-105268665D01*
X212199853Y-104991426D01*
X212091680Y-104730273D01*
X211934637Y-104495241D01*
X211734759Y-104295363D01*
X211499727Y-104138320D01*
X211238574Y-104030147D01*
X210961335Y-103975000D01*
X210678665Y-103975000D01*
X210401426Y-104030147D01*
X210140273Y-104138320D01*
X209905241Y-104295363D01*
X209705363Y-104495241D01*
X209548320Y-104730273D01*
X209440147Y-104991426D01*
X209385000Y-105268665D01*
X205748454Y-105268665D01*
X205861909Y-105060960D01*
X205767070Y-104796119D01*
X205622385Y-104554869D01*
X205433414Y-104346481D01*
X205207420Y-104178963D01*
X204953087Y-104058754D01*
X204819039Y-104018096D01*
X204597000Y-104140085D01*
X204343000Y-104140085D01*
X204120961Y-104018096D01*
X203986913Y-104058754D01*
X203732580Y-104178963D01*
X203506586Y-104346481D01*
X203317615Y-104554869D01*
X203172930Y-104796119D01*
X203078091Y-105060960D01*
X176653685Y-105060960D01*
X176639853Y-104991426D01*
X176531680Y-104730273D01*
X176374637Y-104495241D01*
X176174759Y-104295363D01*
X175972173Y-104160000D01*
X176174759Y-104024637D01*
X176374637Y-103824759D01*
X176531680Y-103589727D01*
X176639853Y-103328574D01*
X176695000Y-103051335D01*
X176695000Y-102768665D01*
X176639853Y-102491426D01*
X176531680Y-102230273D01*
X176374637Y-101995241D01*
X176174759Y-101795363D01*
X175939727Y-101638320D01*
X175895499Y-101620000D01*
X175939727Y-101601680D01*
X176153764Y-101458665D01*
X181445000Y-101458665D01*
X181445000Y-101741335D01*
X181500147Y-102018574D01*
X181608320Y-102279727D01*
X181765363Y-102514759D01*
X181965241Y-102714637D01*
X182200273Y-102871680D01*
X182461426Y-102979853D01*
X182738665Y-103035000D01*
X183021335Y-103035000D01*
X183298574Y-102979853D01*
X183559727Y-102871680D01*
X183794759Y-102714637D01*
X183994637Y-102514759D01*
X184151680Y-102279727D01*
X184259853Y-102018574D01*
X184315000Y-101741335D01*
X184315000Y-101600000D01*
X191598057Y-101600000D01*
X191625764Y-101881309D01*
X191707818Y-102151808D01*
X191841068Y-102401101D01*
X192020392Y-102619608D01*
X192238899Y-102798932D01*
X192488192Y-102932182D01*
X192758691Y-103014236D01*
X192969508Y-103035000D01*
X193110492Y-103035000D01*
X193321309Y-103014236D01*
X193591808Y-102932182D01*
X193841101Y-102798932D01*
X194059608Y-102619608D01*
X194114516Y-102552702D01*
X197306903Y-102552702D01*
X197378486Y-102796671D01*
X197633996Y-102917571D01*
X197908184Y-102986300D01*
X198190512Y-103000217D01*
X198470130Y-102958787D01*
X198736292Y-102863603D01*
X198861514Y-102796671D01*
X198933097Y-102552702D01*
X198120000Y-101739605D01*
X197306903Y-102552702D01*
X194114516Y-102552702D01*
X194238932Y-102401101D01*
X194372182Y-102151808D01*
X194454236Y-101881309D01*
X194478937Y-101630512D01*
X196679783Y-101630512D01*
X196721213Y-101910130D01*
X196816397Y-102176292D01*
X196883329Y-102301514D01*
X197127298Y-102373097D01*
X197940395Y-101560000D01*
X198299605Y-101560000D01*
X199112702Y-102373097D01*
X199356671Y-102301514D01*
X199477571Y-102046004D01*
X199546300Y-101771816D01*
X199560217Y-101489488D01*
X199518787Y-101209870D01*
X199423603Y-100943708D01*
X199356671Y-100818486D01*
X199112702Y-100746903D01*
X198299605Y-101560000D01*
X197940395Y-101560000D01*
X197127298Y-100746903D01*
X196883329Y-100818486D01*
X196762429Y-101073996D01*
X196693700Y-101348184D01*
X196679783Y-101630512D01*
X194478937Y-101630512D01*
X194481943Y-101600000D01*
X194454236Y-101318691D01*
X194372182Y-101048192D01*
X194238932Y-100798899D01*
X194059608Y-100580392D01*
X193841101Y-100401068D01*
X193591808Y-100267818D01*
X193321309Y-100185764D01*
X193110492Y-100165000D01*
X192969508Y-100165000D01*
X192758691Y-100185764D01*
X192488192Y-100267818D01*
X192238899Y-100401068D01*
X192020392Y-100580392D01*
X191841068Y-100798899D01*
X191707818Y-101048192D01*
X191625764Y-101318691D01*
X191598057Y-101600000D01*
X184315000Y-101600000D01*
X184315000Y-101458665D01*
X184259853Y-101181426D01*
X184151680Y-100920273D01*
X183994637Y-100685241D01*
X183794759Y-100485363D01*
X183559727Y-100328320D01*
X183298574Y-100220147D01*
X183021335Y-100165000D01*
X182738665Y-100165000D01*
X182461426Y-100220147D01*
X182200273Y-100328320D01*
X181965241Y-100485363D01*
X181765363Y-100685241D01*
X181608320Y-100920273D01*
X181500147Y-101181426D01*
X181445000Y-101458665D01*
X176153764Y-101458665D01*
X176174759Y-101444637D01*
X176374637Y-101244759D01*
X176531680Y-101009727D01*
X176639853Y-100748574D01*
X176695000Y-100471335D01*
X176695000Y-100188665D01*
X176639853Y-99911426D01*
X176531680Y-99650273D01*
X176374637Y-99415241D01*
X176174759Y-99215363D01*
X175974131Y-99081308D01*
X176001514Y-99066671D01*
X176044940Y-98918665D01*
X196685000Y-98918665D01*
X196685000Y-99201335D01*
X196740147Y-99478574D01*
X196848320Y-99739727D01*
X197005363Y-99974759D01*
X197205241Y-100174637D01*
X197405869Y-100308692D01*
X197378486Y-100323329D01*
X197306903Y-100567298D01*
X198120000Y-101380395D01*
X198933097Y-100567298D01*
X198861514Y-100323329D01*
X198832659Y-100309676D01*
X199034759Y-100174637D01*
X199234637Y-99974759D01*
X199391680Y-99739727D01*
X199499853Y-99478574D01*
X199555000Y-99201335D01*
X199555000Y-98918665D01*
X199499853Y-98641426D01*
X199391680Y-98380273D01*
X199234637Y-98145241D01*
X199034759Y-97945363D01*
X198799727Y-97788320D01*
X198538574Y-97680147D01*
X198261335Y-97625000D01*
X197978665Y-97625000D01*
X197701426Y-97680147D01*
X197440273Y-97788320D01*
X197205241Y-97945363D01*
X197005363Y-98145241D01*
X196848320Y-98380273D01*
X196740147Y-98641426D01*
X196685000Y-98918665D01*
X176044940Y-98918665D01*
X176073097Y-98822702D01*
X175260000Y-98009605D01*
X174446903Y-98822702D01*
X174518486Y-99066671D01*
X174547341Y-99080324D01*
X174345241Y-99215363D01*
X174145363Y-99415241D01*
X173988320Y-99650273D01*
X173880147Y-99911426D01*
X173825000Y-100188665D01*
X172008023Y-100188665D01*
X171994236Y-100048691D01*
X171912182Y-99778192D01*
X171778932Y-99528899D01*
X171599608Y-99310392D01*
X171381101Y-99131068D01*
X171253259Y-99062735D01*
X171482839Y-98912601D01*
X171684500Y-98714895D01*
X171843715Y-98481646D01*
X171954367Y-98221818D01*
X171971904Y-98139039D01*
X171849915Y-97917000D01*
X170307000Y-97917000D01*
X170307000Y-97937000D01*
X170053000Y-97937000D01*
X170053000Y-97917000D01*
X168510085Y-97917000D01*
X168388096Y-98139039D01*
X168405633Y-98221818D01*
X168516285Y-98481646D01*
X168675500Y-98714895D01*
X168877161Y-98912601D01*
X169106741Y-99062735D01*
X168978899Y-99131068D01*
X168760392Y-99310392D01*
X168581068Y-99528899D01*
X168447818Y-99778192D01*
X168365764Y-100048691D01*
X168338057Y-100330000D01*
X167505000Y-100330000D01*
X167505000Y-97900512D01*
X173819783Y-97900512D01*
X173861213Y-98180130D01*
X173956397Y-98446292D01*
X174023329Y-98571514D01*
X174267298Y-98643097D01*
X175080395Y-97830000D01*
X175439605Y-97830000D01*
X176252702Y-98643097D01*
X176496671Y-98571514D01*
X176617571Y-98316004D01*
X176686300Y-98041816D01*
X176700217Y-97759488D01*
X176658787Y-97479870D01*
X176563603Y-97213708D01*
X176496671Y-97088486D01*
X176252702Y-97016903D01*
X175439605Y-97830000D01*
X175080395Y-97830000D01*
X174267298Y-97016903D01*
X174023329Y-97088486D01*
X173902429Y-97343996D01*
X173833700Y-97618184D01*
X173819783Y-97900512D01*
X167505000Y-97900512D01*
X167505000Y-97440961D01*
X168388096Y-97440961D01*
X168510085Y-97663000D01*
X170053000Y-97663000D01*
X170053000Y-96355000D01*
X170307000Y-96355000D01*
X170307000Y-97663000D01*
X171849915Y-97663000D01*
X171971904Y-97440961D01*
X171954367Y-97358182D01*
X171843715Y-97098354D01*
X171684500Y-96865105D01*
X171656137Y-96837298D01*
X174446903Y-96837298D01*
X175260000Y-97650395D01*
X176073097Y-96837298D01*
X176001514Y-96593329D01*
X175746004Y-96472429D01*
X175471816Y-96403700D01*
X175189488Y-96389783D01*
X174909870Y-96431213D01*
X174643708Y-96526397D01*
X174518486Y-96593329D01*
X174446903Y-96837298D01*
X171656137Y-96837298D01*
X171482839Y-96667399D01*
X171246483Y-96512834D01*
X170984514Y-96407350D01*
X170707000Y-96355000D01*
X170307000Y-96355000D01*
X170053000Y-96355000D01*
X169653000Y-96355000D01*
X169375486Y-96407350D01*
X169113517Y-96512834D01*
X168877161Y-96667399D01*
X168675500Y-96865105D01*
X168516285Y-97098354D01*
X168405633Y-97358182D01*
X168388096Y-97440961D01*
X167505000Y-97440961D01*
X167505000Y-95599039D01*
X181488096Y-95599039D01*
X181528754Y-95733087D01*
X181648963Y-95987420D01*
X181816481Y-96213414D01*
X182024869Y-96402385D01*
X182266119Y-96547070D01*
X182530960Y-96641909D01*
X182753000Y-96520624D01*
X182753000Y-95377000D01*
X183007000Y-95377000D01*
X183007000Y-96520624D01*
X183229040Y-96641909D01*
X183493881Y-96547070D01*
X183735131Y-96402385D01*
X183943519Y-96213414D01*
X184111037Y-95987420D01*
X184231246Y-95733087D01*
X184271904Y-95599039D01*
X184149915Y-95377000D01*
X183007000Y-95377000D01*
X182753000Y-95377000D01*
X181610085Y-95377000D01*
X181488096Y-95599039D01*
X167505000Y-95599039D01*
X167505000Y-94900961D01*
X181488096Y-94900961D01*
X181610085Y-95123000D01*
X182753000Y-95123000D01*
X182753000Y-93979376D01*
X183007000Y-93979376D01*
X183007000Y-95123000D01*
X184149915Y-95123000D01*
X184157790Y-95108665D01*
X191605000Y-95108665D01*
X191605000Y-95391335D01*
X191660147Y-95668574D01*
X191768320Y-95929727D01*
X191925363Y-96164759D01*
X192125241Y-96364637D01*
X192360273Y-96521680D01*
X192621426Y-96629853D01*
X192898665Y-96685000D01*
X193181335Y-96685000D01*
X193458574Y-96629853D01*
X193719727Y-96521680D01*
X193954759Y-96364637D01*
X194154637Y-96164759D01*
X194311680Y-95929727D01*
X194419853Y-95668574D01*
X194475000Y-95391335D01*
X194475000Y-95108665D01*
X203035000Y-95108665D01*
X203035000Y-95391335D01*
X203090147Y-95668574D01*
X203198320Y-95929727D01*
X203355363Y-96164759D01*
X203555241Y-96364637D01*
X203790273Y-96521680D01*
X204051426Y-96629853D01*
X204328665Y-96685000D01*
X204611335Y-96685000D01*
X204888574Y-96629853D01*
X205149727Y-96521680D01*
X205384759Y-96364637D01*
X205584637Y-96164759D01*
X205741680Y-95929727D01*
X205849853Y-95668574D01*
X205905000Y-95391335D01*
X205905000Y-95250000D01*
X209378057Y-95250000D01*
X209405764Y-95531309D01*
X209487818Y-95801808D01*
X209621068Y-96051101D01*
X209800392Y-96269608D01*
X210018899Y-96448932D01*
X210268192Y-96582182D01*
X210538691Y-96664236D01*
X210749508Y-96685000D01*
X210890492Y-96685000D01*
X211101309Y-96664236D01*
X211371808Y-96582182D01*
X211621101Y-96448932D01*
X211839608Y-96269608D01*
X212018932Y-96051101D01*
X212152182Y-95801808D01*
X212234236Y-95531309D01*
X212261943Y-95250000D01*
X212234236Y-94968691D01*
X212152182Y-94698192D01*
X212018932Y-94448899D01*
X211839608Y-94230392D01*
X211621101Y-94051068D01*
X211371808Y-93917818D01*
X211101309Y-93835764D01*
X210890492Y-93815000D01*
X210749508Y-93815000D01*
X210538691Y-93835764D01*
X210268192Y-93917818D01*
X210018899Y-94051068D01*
X209800392Y-94230392D01*
X209621068Y-94448899D01*
X209487818Y-94698192D01*
X209405764Y-94968691D01*
X209378057Y-95250000D01*
X205905000Y-95250000D01*
X205905000Y-95108665D01*
X205849853Y-94831426D01*
X205741680Y-94570273D01*
X205584637Y-94335241D01*
X205384759Y-94135363D01*
X205149727Y-93978320D01*
X204888574Y-93870147D01*
X204611335Y-93815000D01*
X204328665Y-93815000D01*
X204051426Y-93870147D01*
X203790273Y-93978320D01*
X203555241Y-94135363D01*
X203355363Y-94335241D01*
X203198320Y-94570273D01*
X203090147Y-94831426D01*
X203035000Y-95108665D01*
X194475000Y-95108665D01*
X194419853Y-94831426D01*
X194311680Y-94570273D01*
X194154637Y-94335241D01*
X193954759Y-94135363D01*
X193719727Y-93978320D01*
X193458574Y-93870147D01*
X193181335Y-93815000D01*
X192898665Y-93815000D01*
X192621426Y-93870147D01*
X192360273Y-93978320D01*
X192125241Y-94135363D01*
X191925363Y-94335241D01*
X191768320Y-94570273D01*
X191660147Y-94831426D01*
X191605000Y-95108665D01*
X184157790Y-95108665D01*
X184271904Y-94900961D01*
X184231246Y-94766913D01*
X184111037Y-94512580D01*
X183943519Y-94286586D01*
X183735131Y-94097615D01*
X183493881Y-93952930D01*
X183229040Y-93858091D01*
X183007000Y-93979376D01*
X182753000Y-93979376D01*
X182530960Y-93858091D01*
X182266119Y-93952930D01*
X182024869Y-94097615D01*
X181816481Y-94286586D01*
X181648963Y-94512580D01*
X181528754Y-94766913D01*
X181488096Y-94900961D01*
X167505000Y-94900961D01*
X167505000Y-94450131D01*
X171627282Y-90327850D01*
X171868574Y-90279853D01*
X172129727Y-90171680D01*
X172364759Y-90014637D01*
X172564637Y-89814759D01*
X172721680Y-89579727D01*
X172829853Y-89318574D01*
X172885000Y-89041335D01*
X172885000Y-88758665D01*
X172829853Y-88481426D01*
X172721680Y-88220273D01*
X172607908Y-88050000D01*
X209331928Y-88050000D01*
X209331928Y-89750000D01*
X209344188Y-89874482D01*
X209380498Y-89994180D01*
X209439463Y-90104494D01*
X209518815Y-90201185D01*
X209615506Y-90280537D01*
X209725820Y-90339502D01*
X209845518Y-90375812D01*
X209970000Y-90388072D01*
X211670000Y-90388072D01*
X211794482Y-90375812D01*
X211914180Y-90339502D01*
X212024494Y-90280537D01*
X212121185Y-90201185D01*
X212200537Y-90104494D01*
X212259502Y-89994180D01*
X212295812Y-89874482D01*
X212308072Y-89750000D01*
X212308072Y-88050000D01*
X212295812Y-87925518D01*
X212259502Y-87805820D01*
X212200537Y-87695506D01*
X212121185Y-87598815D01*
X212024494Y-87519463D01*
X211914180Y-87460498D01*
X211833534Y-87436034D01*
X211917588Y-87360269D01*
X212091641Y-87126920D01*
X212216825Y-86864099D01*
X212261476Y-86716890D01*
X212140155Y-86487000D01*
X210947000Y-86487000D01*
X210947000Y-86507000D01*
X210693000Y-86507000D01*
X210693000Y-86487000D01*
X209499845Y-86487000D01*
X209378524Y-86716890D01*
X209423175Y-86864099D01*
X209548359Y-87126920D01*
X209722412Y-87360269D01*
X209806466Y-87436034D01*
X209725820Y-87460498D01*
X209615506Y-87519463D01*
X209518815Y-87598815D01*
X209439463Y-87695506D01*
X209380498Y-87805820D01*
X209344188Y-87925518D01*
X209331928Y-88050000D01*
X172607908Y-88050000D01*
X172564637Y-87985241D01*
X172364759Y-87785363D01*
X172164131Y-87651308D01*
X172191514Y-87636671D01*
X172263097Y-87392702D01*
X171450000Y-86579605D01*
X170636903Y-87392702D01*
X170708486Y-87636671D01*
X170737341Y-87650324D01*
X170616320Y-87731188D01*
X169355644Y-86470512D01*
X170009783Y-86470512D01*
X170051213Y-86750130D01*
X170146397Y-87016292D01*
X170213329Y-87141514D01*
X170457298Y-87213097D01*
X171270395Y-86400000D01*
X171629605Y-86400000D01*
X172442702Y-87213097D01*
X172686671Y-87141514D01*
X172807571Y-86886004D01*
X172876300Y-86611816D01*
X172890217Y-86329488D01*
X172848787Y-86049870D01*
X172832065Y-86003110D01*
X209378524Y-86003110D01*
X209499845Y-86233000D01*
X210693000Y-86233000D01*
X210693000Y-85039186D01*
X210947000Y-85039186D01*
X210947000Y-86233000D01*
X212140155Y-86233000D01*
X212261476Y-86003110D01*
X212216825Y-85855901D01*
X212091641Y-85593080D01*
X211917588Y-85359731D01*
X211701355Y-85164822D01*
X211451252Y-85015843D01*
X211176891Y-84918519D01*
X210947000Y-85039186D01*
X210693000Y-85039186D01*
X210463109Y-84918519D01*
X210188748Y-85015843D01*
X209938645Y-85164822D01*
X209722412Y-85359731D01*
X209548359Y-85593080D01*
X209423175Y-85855901D01*
X209378524Y-86003110D01*
X172832065Y-86003110D01*
X172753603Y-85783708D01*
X172686671Y-85658486D01*
X172442702Y-85586903D01*
X171629605Y-86400000D01*
X171270395Y-86400000D01*
X170457298Y-85586903D01*
X170213329Y-85658486D01*
X170092429Y-85913996D01*
X170023700Y-86188184D01*
X170009783Y-86470512D01*
X169355644Y-86470512D01*
X168775000Y-85889869D01*
X168775000Y-85407298D01*
X170636903Y-85407298D01*
X171450000Y-86220395D01*
X172263097Y-85407298D01*
X172191514Y-85163329D01*
X171936004Y-85042429D01*
X171661816Y-84973700D01*
X171379488Y-84959783D01*
X171099870Y-85001213D01*
X170833708Y-85096397D01*
X170708486Y-85163329D01*
X170636903Y-85407298D01*
X168775000Y-85407298D01*
X168775000Y-78501596D01*
X168978899Y-78668932D01*
X169228192Y-78802182D01*
X169498691Y-78884236D01*
X169709508Y-78905000D01*
X170650492Y-78905000D01*
X170861309Y-78884236D01*
X171131808Y-78802182D01*
X171381101Y-78668932D01*
X171466721Y-78598665D01*
X173825000Y-78598665D01*
X173825000Y-78881335D01*
X173880147Y-79158574D01*
X173988320Y-79419727D01*
X174145363Y-79654759D01*
X174345241Y-79854637D01*
X174580273Y-80011680D01*
X174841426Y-80119853D01*
X175118665Y-80175000D01*
X175401335Y-80175000D01*
X175678574Y-80119853D01*
X175939727Y-80011680D01*
X176174759Y-79854637D01*
X176374637Y-79654759D01*
X176531680Y-79419727D01*
X176639853Y-79158574D01*
X176695000Y-78881335D01*
X176695000Y-78740000D01*
X180168057Y-78740000D01*
X180195764Y-79021309D01*
X180277818Y-79291808D01*
X180411068Y-79541101D01*
X180590392Y-79759608D01*
X180808899Y-79938932D01*
X181058192Y-80072182D01*
X181328691Y-80154236D01*
X181539508Y-80175000D01*
X181680492Y-80175000D01*
X181891309Y-80154236D01*
X182161808Y-80072182D01*
X182411101Y-79938932D01*
X182629608Y-79759608D01*
X182808932Y-79541101D01*
X182942182Y-79291808D01*
X183024236Y-79021309D01*
X183051943Y-78740000D01*
X183038023Y-78598665D01*
X192875000Y-78598665D01*
X192875000Y-78881335D01*
X192930147Y-79158574D01*
X193038320Y-79419727D01*
X193195363Y-79654759D01*
X193395241Y-79854637D01*
X193630273Y-80011680D01*
X193891426Y-80119853D01*
X194168665Y-80175000D01*
X194451335Y-80175000D01*
X194728574Y-80119853D01*
X194989727Y-80011680D01*
X195224759Y-79854637D01*
X195424637Y-79654759D01*
X195581680Y-79419727D01*
X195689853Y-79158574D01*
X195745000Y-78881335D01*
X195745000Y-78740000D01*
X199218057Y-78740000D01*
X199245764Y-79021309D01*
X199327818Y-79291808D01*
X199461068Y-79541101D01*
X199640392Y-79759608D01*
X199858899Y-79938932D01*
X200108192Y-80072182D01*
X200378691Y-80154236D01*
X200589508Y-80175000D01*
X200730492Y-80175000D01*
X200941309Y-80154236D01*
X201211808Y-80072182D01*
X201461101Y-79938932D01*
X201679608Y-79759608D01*
X201858932Y-79541101D01*
X201992182Y-79291808D01*
X202074236Y-79021309D01*
X202101943Y-78740000D01*
X202074236Y-78458691D01*
X201992182Y-78188192D01*
X201858932Y-77938899D01*
X201679608Y-77720392D01*
X201461101Y-77541068D01*
X201211808Y-77407818D01*
X200941309Y-77325764D01*
X200730492Y-77305000D01*
X200589508Y-77305000D01*
X200378691Y-77325764D01*
X200108192Y-77407818D01*
X199858899Y-77541068D01*
X199640392Y-77720392D01*
X199461068Y-77938899D01*
X199327818Y-78188192D01*
X199245764Y-78458691D01*
X199218057Y-78740000D01*
X195745000Y-78740000D01*
X195745000Y-78598665D01*
X195689853Y-78321426D01*
X195581680Y-78060273D01*
X195424637Y-77825241D01*
X195224759Y-77625363D01*
X194989727Y-77468320D01*
X194728574Y-77360147D01*
X194451335Y-77305000D01*
X194168665Y-77305000D01*
X193891426Y-77360147D01*
X193630273Y-77468320D01*
X193395241Y-77625363D01*
X193195363Y-77825241D01*
X193038320Y-78060273D01*
X192930147Y-78321426D01*
X192875000Y-78598665D01*
X183038023Y-78598665D01*
X183024236Y-78458691D01*
X182942182Y-78188192D01*
X182808932Y-77938899D01*
X182629608Y-77720392D01*
X182411101Y-77541068D01*
X182161808Y-77407818D01*
X181891309Y-77325764D01*
X181680492Y-77305000D01*
X181539508Y-77305000D01*
X181328691Y-77325764D01*
X181058192Y-77407818D01*
X180808899Y-77541068D01*
X180590392Y-77720392D01*
X180411068Y-77938899D01*
X180277818Y-78188192D01*
X180195764Y-78458691D01*
X180168057Y-78740000D01*
X176695000Y-78740000D01*
X176695000Y-78598665D01*
X176639853Y-78321426D01*
X176531680Y-78060273D01*
X176374637Y-77825241D01*
X176174759Y-77625363D01*
X175939727Y-77468320D01*
X175678574Y-77360147D01*
X175401335Y-77305000D01*
X175118665Y-77305000D01*
X174841426Y-77360147D01*
X174580273Y-77468320D01*
X174345241Y-77625363D01*
X174145363Y-77825241D01*
X173988320Y-78060273D01*
X173880147Y-78321426D01*
X173825000Y-78598665D01*
X171466721Y-78598665D01*
X171599608Y-78489608D01*
X171778932Y-78271101D01*
X171912182Y-78021808D01*
X171994236Y-77751309D01*
X172021943Y-77470000D01*
X171994236Y-77188691D01*
X171912182Y-76918192D01*
X171778932Y-76668899D01*
X171599608Y-76450392D01*
X171381101Y-76271068D01*
X171248142Y-76200000D01*
X171381101Y-76128932D01*
X171599608Y-75949608D01*
X171778932Y-75731101D01*
X171912182Y-75481808D01*
X171994236Y-75211309D01*
X172021943Y-74930000D01*
X172008023Y-74788665D01*
X186525000Y-74788665D01*
X186525000Y-75071335D01*
X186580147Y-75348574D01*
X186688320Y-75609727D01*
X186845363Y-75844759D01*
X187045241Y-76044637D01*
X187280273Y-76201680D01*
X187541426Y-76309853D01*
X187818665Y-76365000D01*
X188101335Y-76365000D01*
X188378574Y-76309853D01*
X188639727Y-76201680D01*
X188874759Y-76044637D01*
X189074637Y-75844759D01*
X189231680Y-75609727D01*
X189339853Y-75348574D01*
X189395000Y-75071335D01*
X189395000Y-74788665D01*
X189339853Y-74511426D01*
X189231680Y-74250273D01*
X189117908Y-74080000D01*
X209331928Y-74080000D01*
X209331928Y-75780000D01*
X209344188Y-75904482D01*
X209380498Y-76024180D01*
X209439463Y-76134494D01*
X209518815Y-76231185D01*
X209615506Y-76310537D01*
X209725820Y-76369502D01*
X209845518Y-76405812D01*
X209970000Y-76418072D01*
X211670000Y-76418072D01*
X211794482Y-76405812D01*
X211914180Y-76369502D01*
X212024494Y-76310537D01*
X212121185Y-76231185D01*
X212200537Y-76134494D01*
X212259502Y-76024180D01*
X212295812Y-75904482D01*
X212308072Y-75780000D01*
X212308072Y-74080000D01*
X212295812Y-73955518D01*
X212259502Y-73835820D01*
X212200537Y-73725506D01*
X212121185Y-73628815D01*
X212024494Y-73549463D01*
X211914180Y-73490498D01*
X211833534Y-73466034D01*
X211917588Y-73390269D01*
X212091641Y-73156920D01*
X212216825Y-72894099D01*
X212261476Y-72746890D01*
X212140155Y-72517000D01*
X210947000Y-72517000D01*
X210947000Y-72537000D01*
X210693000Y-72537000D01*
X210693000Y-72517000D01*
X209499845Y-72517000D01*
X209378524Y-72746890D01*
X209423175Y-72894099D01*
X209548359Y-73156920D01*
X209722412Y-73390269D01*
X209806466Y-73466034D01*
X209725820Y-73490498D01*
X209615506Y-73549463D01*
X209518815Y-73628815D01*
X209439463Y-73725506D01*
X209380498Y-73835820D01*
X209344188Y-73955518D01*
X209331928Y-74080000D01*
X189117908Y-74080000D01*
X189074637Y-74015241D01*
X188874759Y-73815363D01*
X188674131Y-73681308D01*
X188701514Y-73666671D01*
X188773097Y-73422702D01*
X187960000Y-72609605D01*
X187146903Y-73422702D01*
X187218486Y-73666671D01*
X187247341Y-73680324D01*
X187045241Y-73815363D01*
X186845363Y-74015241D01*
X186688320Y-74250273D01*
X186580147Y-74511426D01*
X186525000Y-74788665D01*
X172008023Y-74788665D01*
X171994236Y-74648691D01*
X171912182Y-74378192D01*
X171778932Y-74128899D01*
X171599608Y-73910392D01*
X171381101Y-73731068D01*
X171248142Y-73660000D01*
X171381101Y-73588932D01*
X171599608Y-73409608D01*
X171778932Y-73191101D01*
X171912182Y-72941808D01*
X171994236Y-72671309D01*
X172011058Y-72500512D01*
X186519783Y-72500512D01*
X186561213Y-72780130D01*
X186656397Y-73046292D01*
X186723329Y-73171514D01*
X186967298Y-73243097D01*
X187780395Y-72430000D01*
X188139605Y-72430000D01*
X188952702Y-73243097D01*
X189196671Y-73171514D01*
X189317571Y-72916004D01*
X189386300Y-72641816D01*
X189400217Y-72359488D01*
X189358787Y-72079870D01*
X189342065Y-72033110D01*
X209378524Y-72033110D01*
X209499845Y-72263000D01*
X210693000Y-72263000D01*
X210693000Y-71069186D01*
X210947000Y-71069186D01*
X210947000Y-72263000D01*
X212140155Y-72263000D01*
X212261476Y-72033110D01*
X212216825Y-71885901D01*
X212091641Y-71623080D01*
X211917588Y-71389731D01*
X211701355Y-71194822D01*
X211451252Y-71045843D01*
X211176891Y-70948519D01*
X210947000Y-71069186D01*
X210693000Y-71069186D01*
X210463109Y-70948519D01*
X210188748Y-71045843D01*
X209938645Y-71194822D01*
X209722412Y-71389731D01*
X209548359Y-71623080D01*
X209423175Y-71885901D01*
X209378524Y-72033110D01*
X189342065Y-72033110D01*
X189263603Y-71813708D01*
X189196671Y-71688486D01*
X188952702Y-71616903D01*
X188139605Y-72430000D01*
X187780395Y-72430000D01*
X186967298Y-71616903D01*
X186723329Y-71688486D01*
X186602429Y-71943996D01*
X186533700Y-72218184D01*
X186519783Y-72500512D01*
X172011058Y-72500512D01*
X172021943Y-72390000D01*
X171994236Y-72108691D01*
X171912182Y-71838192D01*
X171778932Y-71588899D01*
X171654517Y-71437298D01*
X187146903Y-71437298D01*
X187960000Y-72250395D01*
X188773097Y-71437298D01*
X188701514Y-71193329D01*
X188446004Y-71072429D01*
X188171816Y-71003700D01*
X187889488Y-70989783D01*
X187609870Y-71031213D01*
X187343708Y-71126397D01*
X187218486Y-71193329D01*
X187146903Y-71437298D01*
X171654517Y-71437298D01*
X171599608Y-71370392D01*
X171381101Y-71191068D01*
X171248142Y-71120000D01*
X171381101Y-71048932D01*
X171599608Y-70869608D01*
X171778932Y-70651101D01*
X171912182Y-70401808D01*
X171994236Y-70131309D01*
X172021943Y-69850000D01*
X171994236Y-69568691D01*
X171912182Y-69298192D01*
X171778932Y-69048899D01*
X171599608Y-68830392D01*
X171381101Y-68651068D01*
X171248143Y-68580000D01*
X173818057Y-68580000D01*
X173845764Y-68861309D01*
X173927818Y-69131808D01*
X174061068Y-69381101D01*
X174240392Y-69599608D01*
X174458899Y-69778932D01*
X174708192Y-69912182D01*
X174978691Y-69994236D01*
X175189508Y-70015000D01*
X175330492Y-70015000D01*
X175541309Y-69994236D01*
X175811808Y-69912182D01*
X176061101Y-69778932D01*
X176279608Y-69599608D01*
X176301689Y-69572702D01*
X180796903Y-69572702D01*
X180868486Y-69816671D01*
X181123996Y-69937571D01*
X181398184Y-70006300D01*
X181680512Y-70020217D01*
X181960130Y-69978787D01*
X182226292Y-69883603D01*
X182351514Y-69816671D01*
X182423097Y-69572702D01*
X181610000Y-68759605D01*
X180796903Y-69572702D01*
X176301689Y-69572702D01*
X176458932Y-69381101D01*
X176592182Y-69131808D01*
X176674236Y-68861309D01*
X176694998Y-68650512D01*
X180169783Y-68650512D01*
X180211213Y-68930130D01*
X180306397Y-69196292D01*
X180373329Y-69321514D01*
X180617298Y-69393097D01*
X181430395Y-68580000D01*
X181789605Y-68580000D01*
X182602702Y-69393097D01*
X182846671Y-69321514D01*
X182967571Y-69066004D01*
X183001902Y-68929040D01*
X192918091Y-68929040D01*
X193012930Y-69193881D01*
X193157615Y-69435131D01*
X193346586Y-69643519D01*
X193572580Y-69811037D01*
X193826913Y-69931246D01*
X193960961Y-69971904D01*
X194183000Y-69849915D01*
X194183000Y-68707000D01*
X194437000Y-68707000D01*
X194437000Y-69849915D01*
X194659039Y-69971904D01*
X194793087Y-69931246D01*
X195047420Y-69811037D01*
X195273414Y-69643519D01*
X195462385Y-69435131D01*
X195607070Y-69193881D01*
X195701909Y-68929040D01*
X195580624Y-68707000D01*
X194437000Y-68707000D01*
X194183000Y-68707000D01*
X193039376Y-68707000D01*
X192918091Y-68929040D01*
X183001902Y-68929040D01*
X183036300Y-68791816D01*
X183050217Y-68509488D01*
X183008949Y-68230960D01*
X192918091Y-68230960D01*
X193039376Y-68453000D01*
X194183000Y-68453000D01*
X194183000Y-67310085D01*
X194437000Y-67310085D01*
X194437000Y-68453000D01*
X195580624Y-68453000D01*
X195588454Y-68438665D01*
X199225000Y-68438665D01*
X199225000Y-68721335D01*
X199280147Y-68998574D01*
X199388320Y-69259727D01*
X199545363Y-69494759D01*
X199745241Y-69694637D01*
X199980273Y-69851680D01*
X200241426Y-69959853D01*
X200518665Y-70015000D01*
X200801335Y-70015000D01*
X201078574Y-69959853D01*
X201339727Y-69851680D01*
X201574759Y-69694637D01*
X201774637Y-69494759D01*
X201931680Y-69259727D01*
X202039853Y-68998574D01*
X202095000Y-68721335D01*
X202095000Y-68438665D01*
X202039853Y-68161426D01*
X201931680Y-67900273D01*
X201774637Y-67665241D01*
X201574759Y-67465363D01*
X201339727Y-67308320D01*
X201078574Y-67200147D01*
X200801335Y-67145000D01*
X200518665Y-67145000D01*
X200241426Y-67200147D01*
X199980273Y-67308320D01*
X199745241Y-67465363D01*
X199545363Y-67665241D01*
X199388320Y-67900273D01*
X199280147Y-68161426D01*
X199225000Y-68438665D01*
X195588454Y-68438665D01*
X195701909Y-68230960D01*
X195607070Y-67966119D01*
X195462385Y-67724869D01*
X195273414Y-67516481D01*
X195047420Y-67348963D01*
X194793087Y-67228754D01*
X194659039Y-67188096D01*
X194437000Y-67310085D01*
X194183000Y-67310085D01*
X193960961Y-67188096D01*
X193826913Y-67228754D01*
X193572580Y-67348963D01*
X193346586Y-67516481D01*
X193157615Y-67724869D01*
X193012930Y-67966119D01*
X192918091Y-68230960D01*
X183008949Y-68230960D01*
X183008787Y-68229870D01*
X182913603Y-67963708D01*
X182846671Y-67838486D01*
X182602702Y-67766903D01*
X181789605Y-68580000D01*
X181430395Y-68580000D01*
X180617298Y-67766903D01*
X180373329Y-67838486D01*
X180252429Y-68093996D01*
X180183700Y-68368184D01*
X180169783Y-68650512D01*
X176694998Y-68650512D01*
X176701943Y-68580000D01*
X176674236Y-68298691D01*
X176592182Y-68028192D01*
X176458932Y-67778899D01*
X176301690Y-67587298D01*
X180796903Y-67587298D01*
X181610000Y-68400395D01*
X182423097Y-67587298D01*
X182351514Y-67343329D01*
X182096004Y-67222429D01*
X181821816Y-67153700D01*
X181539488Y-67139783D01*
X181259870Y-67181213D01*
X180993708Y-67276397D01*
X180868486Y-67343329D01*
X180796903Y-67587298D01*
X176301690Y-67587298D01*
X176279608Y-67560392D01*
X176061101Y-67381068D01*
X175811808Y-67247818D01*
X175541309Y-67165764D01*
X175330492Y-67145000D01*
X175189508Y-67145000D01*
X174978691Y-67165764D01*
X174708192Y-67247818D01*
X174458899Y-67381068D01*
X174240392Y-67560392D01*
X174061068Y-67778899D01*
X173927818Y-68028192D01*
X173845764Y-68298691D01*
X173818057Y-68580000D01*
X171248143Y-68580000D01*
X171131808Y-68517818D01*
X170861309Y-68435764D01*
X170650492Y-68415000D01*
X169709508Y-68415000D01*
X169498691Y-68435764D01*
X169228192Y-68517818D01*
X168978899Y-68651068D01*
X168760392Y-68830392D01*
X168581068Y-69048899D01*
X168447818Y-69298192D01*
X168365764Y-69568691D01*
X168355886Y-69668982D01*
X166876860Y-71148009D01*
X166833552Y-71183551D01*
X166691717Y-71356377D01*
X166684226Y-71370392D01*
X166586324Y-71553554D01*
X166521423Y-71767502D01*
X166499509Y-71990000D01*
X166505001Y-72045761D01*
X166505000Y-86304249D01*
X166499509Y-86360000D01*
X166505000Y-86415751D01*
X166521423Y-86582498D01*
X166586324Y-86796446D01*
X166691716Y-86993623D01*
X166833551Y-87166449D01*
X166876865Y-87201996D01*
X169209868Y-89535000D01*
X165606860Y-93138009D01*
X165563552Y-93173551D01*
X165421717Y-93346377D01*
X165365384Y-93451770D01*
X165316324Y-93543554D01*
X165251423Y-93757502D01*
X165229509Y-93980000D01*
X165235001Y-94035761D01*
X165235000Y-103329868D01*
X164289869Y-104275000D01*
X163839002Y-104275000D01*
X163761101Y-104211068D01*
X163628142Y-104140000D01*
X163761101Y-104068932D01*
X163979608Y-103889608D01*
X164158932Y-103671101D01*
X164292182Y-103421808D01*
X164374236Y-103151309D01*
X164401943Y-102870000D01*
X164374236Y-102588691D01*
X164292182Y-102318192D01*
X164158932Y-102068899D01*
X163979608Y-101850392D01*
X163761101Y-101671068D01*
X163628142Y-101600000D01*
X163761101Y-101528932D01*
X163979608Y-101349608D01*
X164158932Y-101131101D01*
X164292182Y-100881808D01*
X164374236Y-100611309D01*
X164401943Y-100330000D01*
X164374236Y-100048691D01*
X164292182Y-99778192D01*
X164158932Y-99528899D01*
X163979608Y-99310392D01*
X163761101Y-99131068D01*
X163628142Y-99060000D01*
X163761101Y-98988932D01*
X163979608Y-98809608D01*
X164158932Y-98591101D01*
X164292182Y-98341808D01*
X164374236Y-98071309D01*
X164401943Y-97790000D01*
X164374236Y-97508691D01*
X164292182Y-97238192D01*
X164158932Y-96988899D01*
X163979608Y-96770392D01*
X163761101Y-96591068D01*
X163511808Y-96457818D01*
X163241309Y-96375764D01*
X163030492Y-96355000D01*
X162089508Y-96355000D01*
X161878691Y-96375764D01*
X161608192Y-96457818D01*
X161358899Y-96591068D01*
X161140392Y-96770392D01*
X160961068Y-96988899D01*
X160827818Y-97238192D01*
X160745764Y-97508691D01*
X160718057Y-97790000D01*
X158162241Y-97790000D01*
X158394759Y-97634637D01*
X158594637Y-97434759D01*
X158751680Y-97199727D01*
X158859853Y-96938574D01*
X158915000Y-96661335D01*
X158915000Y-96378665D01*
X158859853Y-96101426D01*
X158751680Y-95840273D01*
X158594637Y-95605241D01*
X158394759Y-95405363D01*
X158159727Y-95248320D01*
X157898574Y-95140147D01*
X157621335Y-95085000D01*
X157338665Y-95085000D01*
X157061426Y-95140147D01*
X156800273Y-95248320D01*
X156565241Y-95405363D01*
X156365363Y-95605241D01*
X156208320Y-95840273D01*
X156100147Y-96101426D01*
X156045000Y-96378665D01*
X152558023Y-96378665D01*
X152544236Y-96238691D01*
X152462182Y-95968192D01*
X152328932Y-95718899D01*
X152149608Y-95500392D01*
X151931101Y-95321068D01*
X151681808Y-95187818D01*
X151411309Y-95105764D01*
X151200492Y-95085000D01*
X151059508Y-95085000D01*
X150848691Y-95105764D01*
X150578192Y-95187818D01*
X150328899Y-95321068D01*
X150110392Y-95500392D01*
X149931068Y-95718899D01*
X149797818Y-95968192D01*
X149715764Y-96238691D01*
X149688057Y-96520000D01*
X122138072Y-96520000D01*
X122138072Y-95670000D01*
X122125812Y-95545518D01*
X122089502Y-95425820D01*
X122030537Y-95315506D01*
X121951185Y-95218815D01*
X121854494Y-95139463D01*
X121744180Y-95080498D01*
X121624482Y-95044188D01*
X121500000Y-95031928D01*
X119800000Y-95031928D01*
X119675518Y-95044188D01*
X119555820Y-95080498D01*
X119445506Y-95139463D01*
X119348815Y-95218815D01*
X119269463Y-95315506D01*
X119210498Y-95425820D01*
X119174188Y-95545518D01*
X119161928Y-95670000D01*
X115697000Y-95670000D01*
X115697000Y-89170000D01*
X159651928Y-89170000D01*
X159651928Y-91170000D01*
X159664188Y-91294482D01*
X159700498Y-91414180D01*
X159759463Y-91524494D01*
X159838815Y-91621185D01*
X159935506Y-91700537D01*
X160045820Y-91759502D01*
X160165518Y-91795812D01*
X160290000Y-91808072D01*
X162290000Y-91808072D01*
X162414482Y-91795812D01*
X162534180Y-91759502D01*
X162644494Y-91700537D01*
X162741185Y-91621185D01*
X162820537Y-91524494D01*
X162879502Y-91414180D01*
X162915812Y-91294482D01*
X162928072Y-91170000D01*
X162928072Y-89170000D01*
X162915812Y-89045518D01*
X162879502Y-88925820D01*
X162820537Y-88815506D01*
X162741185Y-88718815D01*
X162644494Y-88639463D01*
X162534180Y-88580498D01*
X162414482Y-88544188D01*
X162290000Y-88531928D01*
X160290000Y-88531928D01*
X160165518Y-88544188D01*
X160045820Y-88580498D01*
X159935506Y-88639463D01*
X159838815Y-88718815D01*
X159759463Y-88815506D01*
X159700498Y-88925820D01*
X159664188Y-89045518D01*
X159651928Y-89170000D01*
X115697000Y-89170000D01*
X115697000Y-86305413D01*
X160334192Y-86305413D01*
X160429956Y-86569814D01*
X160719571Y-86710704D01*
X161031108Y-86792384D01*
X161352595Y-86811718D01*
X161671675Y-86767961D01*
X161976088Y-86662795D01*
X162150044Y-86569814D01*
X162245808Y-86305413D01*
X161290000Y-85349605D01*
X160334192Y-86305413D01*
X115697000Y-86305413D01*
X115697000Y-85232595D01*
X159648282Y-85232595D01*
X159692039Y-85551675D01*
X159797205Y-85856088D01*
X159890186Y-86030044D01*
X160154587Y-86125808D01*
X161110395Y-85170000D01*
X161469605Y-85170000D01*
X162425413Y-86125808D01*
X162689814Y-86030044D01*
X162830704Y-85740429D01*
X162912384Y-85428892D01*
X162931718Y-85107405D01*
X162887961Y-84788325D01*
X162782795Y-84483912D01*
X162689814Y-84309956D01*
X162425413Y-84214192D01*
X161469605Y-85170000D01*
X161110395Y-85170000D01*
X160154587Y-84214192D01*
X159890186Y-84309956D01*
X159749296Y-84599571D01*
X159667616Y-84911108D01*
X159648282Y-85232595D01*
X115697000Y-85232595D01*
X115697000Y-84034587D01*
X160334192Y-84034587D01*
X161290000Y-84990395D01*
X162245808Y-84034587D01*
X162150044Y-83770186D01*
X161860429Y-83629296D01*
X161548892Y-83547616D01*
X161227405Y-83528282D01*
X160908325Y-83572039D01*
X160603912Y-83677205D01*
X160429956Y-83770186D01*
X160334192Y-84034587D01*
X115697000Y-84034587D01*
X115697000Y-81636890D01*
X119208524Y-81636890D01*
X119253175Y-81784099D01*
X119378359Y-82046920D01*
X119552412Y-82280269D01*
X119768645Y-82475178D01*
X120018748Y-82624157D01*
X120293109Y-82721481D01*
X120523000Y-82600814D01*
X120523000Y-81407000D01*
X120777000Y-81407000D01*
X120777000Y-82600814D01*
X121006891Y-82721481D01*
X121281252Y-82624157D01*
X121531355Y-82475178D01*
X121747588Y-82280269D01*
X121921641Y-82046920D01*
X122046825Y-81784099D01*
X122091476Y-81636890D01*
X121970155Y-81407000D01*
X120777000Y-81407000D01*
X120523000Y-81407000D01*
X119329845Y-81407000D01*
X119208524Y-81636890D01*
X115697000Y-81636890D01*
X115697000Y-77890000D01*
X119161928Y-77890000D01*
X119161928Y-79590000D01*
X119174188Y-79714482D01*
X119210498Y-79834180D01*
X119269463Y-79944494D01*
X119348815Y-80041185D01*
X119445506Y-80120537D01*
X119555820Y-80179502D01*
X119636466Y-80203966D01*
X119552412Y-80279731D01*
X119378359Y-80513080D01*
X119253175Y-80775901D01*
X119208524Y-80923110D01*
X119329845Y-81153000D01*
X120523000Y-81153000D01*
X120523000Y-81133000D01*
X120777000Y-81133000D01*
X120777000Y-81153000D01*
X121970155Y-81153000D01*
X121977720Y-81138665D01*
X140805000Y-81138665D01*
X140805000Y-81421335D01*
X140860147Y-81698574D01*
X140968320Y-81959727D01*
X141125363Y-82194759D01*
X141325241Y-82394637D01*
X141560273Y-82551680D01*
X141821426Y-82659853D01*
X142098665Y-82715000D01*
X142381335Y-82715000D01*
X142658574Y-82659853D01*
X142919727Y-82551680D01*
X143154759Y-82394637D01*
X143354637Y-82194759D01*
X143511680Y-81959727D01*
X143619853Y-81698574D01*
X143633684Y-81629039D01*
X151008096Y-81629039D01*
X151048754Y-81763087D01*
X151168963Y-82017420D01*
X151336481Y-82243414D01*
X151544869Y-82432385D01*
X151786119Y-82577070D01*
X152050960Y-82671909D01*
X152273000Y-82550624D01*
X152273000Y-81407000D01*
X152527000Y-81407000D01*
X152527000Y-82550624D01*
X152749040Y-82671909D01*
X153013881Y-82577070D01*
X153255131Y-82432385D01*
X153463519Y-82243414D01*
X153631037Y-82017420D01*
X153751246Y-81763087D01*
X153791904Y-81629039D01*
X153669915Y-81407000D01*
X152527000Y-81407000D01*
X152273000Y-81407000D01*
X151130085Y-81407000D01*
X151008096Y-81629039D01*
X143633684Y-81629039D01*
X143675000Y-81421335D01*
X143675000Y-81138665D01*
X143633685Y-80930961D01*
X151008096Y-80930961D01*
X151130085Y-81153000D01*
X152273000Y-81153000D01*
X152273000Y-80009376D01*
X152527000Y-80009376D01*
X152527000Y-81153000D01*
X153669915Y-81153000D01*
X153791904Y-80930961D01*
X153751246Y-80796913D01*
X153631037Y-80542580D01*
X153463519Y-80316586D01*
X153255131Y-80127615D01*
X153013881Y-79982930D01*
X152749040Y-79888091D01*
X152527000Y-80009376D01*
X152273000Y-80009376D01*
X152050960Y-79888091D01*
X151786119Y-79982930D01*
X151544869Y-80127615D01*
X151336481Y-80316586D01*
X151168963Y-80542580D01*
X151048754Y-80796913D01*
X151008096Y-80930961D01*
X143633685Y-80930961D01*
X143619853Y-80861426D01*
X143511680Y-80600273D01*
X143354637Y-80365241D01*
X143154759Y-80165363D01*
X142919727Y-80008320D01*
X142658574Y-79900147D01*
X142381335Y-79845000D01*
X142098665Y-79845000D01*
X141821426Y-79900147D01*
X141560273Y-80008320D01*
X141325241Y-80165363D01*
X141125363Y-80365241D01*
X140968320Y-80600273D01*
X140860147Y-80861426D01*
X140805000Y-81138665D01*
X121977720Y-81138665D01*
X122091476Y-80923110D01*
X122046825Y-80775901D01*
X121921641Y-80513080D01*
X121747588Y-80279731D01*
X121663534Y-80203966D01*
X121744180Y-80179502D01*
X121854494Y-80120537D01*
X121951185Y-80041185D01*
X122030537Y-79944494D01*
X122089502Y-79834180D01*
X122125812Y-79714482D01*
X122138072Y-79590000D01*
X122138072Y-78422702D01*
X156666903Y-78422702D01*
X156738486Y-78666671D01*
X156993996Y-78787571D01*
X157268184Y-78856300D01*
X157550512Y-78870217D01*
X157830130Y-78828787D01*
X158096292Y-78733603D01*
X158221514Y-78666671D01*
X158293097Y-78422702D01*
X157480000Y-77609605D01*
X156666903Y-78422702D01*
X122138072Y-78422702D01*
X122138072Y-77890000D01*
X122125812Y-77765518D01*
X122089502Y-77645820D01*
X122030537Y-77535506D01*
X122001819Y-77500512D01*
X156039783Y-77500512D01*
X156081213Y-77780130D01*
X156176397Y-78046292D01*
X156243329Y-78171514D01*
X156487298Y-78243097D01*
X157300395Y-77430000D01*
X157659605Y-77430000D01*
X158472702Y-78243097D01*
X158716671Y-78171514D01*
X158837571Y-77916004D01*
X158861876Y-77819039D01*
X160768096Y-77819039D01*
X160785633Y-77901818D01*
X160896285Y-78161646D01*
X161055500Y-78394895D01*
X161257161Y-78592601D01*
X161493517Y-78747166D01*
X161755486Y-78852650D01*
X162033000Y-78905000D01*
X162433000Y-78905000D01*
X162433000Y-77597000D01*
X162687000Y-77597000D01*
X162687000Y-78905000D01*
X163087000Y-78905000D01*
X163364514Y-78852650D01*
X163626483Y-78747166D01*
X163862839Y-78592601D01*
X164064500Y-78394895D01*
X164223715Y-78161646D01*
X164334367Y-77901818D01*
X164351904Y-77819039D01*
X164229915Y-77597000D01*
X162687000Y-77597000D01*
X162433000Y-77597000D01*
X160890085Y-77597000D01*
X160768096Y-77819039D01*
X158861876Y-77819039D01*
X158906300Y-77641816D01*
X158920217Y-77359488D01*
X158878787Y-77079870D01*
X158783603Y-76813708D01*
X158716671Y-76688486D01*
X158472702Y-76616903D01*
X157659605Y-77430000D01*
X157300395Y-77430000D01*
X156487298Y-76616903D01*
X156243329Y-76688486D01*
X156122429Y-76943996D01*
X156053700Y-77218184D01*
X156039783Y-77500512D01*
X122001819Y-77500512D01*
X121951185Y-77438815D01*
X121854494Y-77359463D01*
X121744180Y-77300498D01*
X121624482Y-77264188D01*
X121500000Y-77251928D01*
X119800000Y-77251928D01*
X119675518Y-77264188D01*
X119555820Y-77300498D01*
X119445506Y-77359463D01*
X119348815Y-77438815D01*
X119269463Y-77535506D01*
X119210498Y-77645820D01*
X119174188Y-77765518D01*
X119161928Y-77890000D01*
X115697000Y-77890000D01*
X115697000Y-74930000D01*
X140798057Y-74930000D01*
X140825764Y-75211309D01*
X140907818Y-75481808D01*
X141041068Y-75731101D01*
X141220392Y-75949608D01*
X141438899Y-76128932D01*
X141688192Y-76262182D01*
X141958691Y-76344236D01*
X142169508Y-76365000D01*
X142310492Y-76365000D01*
X142521309Y-76344236D01*
X142791808Y-76262182D01*
X143041101Y-76128932D01*
X143259608Y-75949608D01*
X143438932Y-75731101D01*
X143572182Y-75481808D01*
X143654236Y-75211309D01*
X143681943Y-74930000D01*
X143668023Y-74788665D01*
X150965000Y-74788665D01*
X150965000Y-75071335D01*
X151020147Y-75348574D01*
X151128320Y-75609727D01*
X151285363Y-75844759D01*
X151485241Y-76044637D01*
X151720273Y-76201680D01*
X151981426Y-76309853D01*
X152258665Y-76365000D01*
X152541335Y-76365000D01*
X152818574Y-76309853D01*
X153079727Y-76201680D01*
X153314759Y-76044637D01*
X153514637Y-75844759D01*
X153671680Y-75609727D01*
X153779853Y-75348574D01*
X153835000Y-75071335D01*
X153835000Y-74788665D01*
X153779853Y-74511426D01*
X153671680Y-74250273D01*
X153514637Y-74015241D01*
X153314759Y-73815363D01*
X153079727Y-73658320D01*
X152818574Y-73550147D01*
X152541335Y-73495000D01*
X152258665Y-73495000D01*
X151981426Y-73550147D01*
X151720273Y-73658320D01*
X151485241Y-73815363D01*
X151285363Y-74015241D01*
X151128320Y-74250273D01*
X151020147Y-74511426D01*
X150965000Y-74788665D01*
X143668023Y-74788665D01*
X143654236Y-74648691D01*
X143572182Y-74378192D01*
X143438932Y-74128899D01*
X143259608Y-73910392D01*
X143041101Y-73731068D01*
X142791808Y-73597818D01*
X142521309Y-73515764D01*
X142310492Y-73495000D01*
X142169508Y-73495000D01*
X141958691Y-73515764D01*
X141688192Y-73597818D01*
X141438899Y-73731068D01*
X141220392Y-73910392D01*
X141041068Y-74128899D01*
X140907818Y-74378192D01*
X140825764Y-74648691D01*
X140798057Y-74930000D01*
X115697000Y-74930000D01*
X115697000Y-68438665D01*
X140805000Y-68438665D01*
X140805000Y-68721335D01*
X140860147Y-68998574D01*
X140968320Y-69259727D01*
X141125363Y-69494759D01*
X141325241Y-69694637D01*
X141560273Y-69851680D01*
X141821426Y-69959853D01*
X142098665Y-70015000D01*
X142381335Y-70015000D01*
X142658574Y-69959853D01*
X142919727Y-69851680D01*
X143154759Y-69694637D01*
X143354637Y-69494759D01*
X143511680Y-69259727D01*
X143619853Y-68998574D01*
X143675000Y-68721335D01*
X143675000Y-68580000D01*
X150958057Y-68580000D01*
X150985764Y-68861309D01*
X151067818Y-69131808D01*
X151201068Y-69381101D01*
X151380392Y-69599608D01*
X151598899Y-69778932D01*
X151848192Y-69912182D01*
X152118691Y-69994236D01*
X152329508Y-70015000D01*
X152470492Y-70015000D01*
X152681309Y-69994236D01*
X152951808Y-69912182D01*
X153201101Y-69778932D01*
X153237981Y-69748665D01*
X156045000Y-69748665D01*
X156045000Y-70031335D01*
X156100147Y-70308574D01*
X156208320Y-70569727D01*
X156365363Y-70804759D01*
X156565241Y-71004637D01*
X156767827Y-71140000D01*
X156565241Y-71275363D01*
X156365363Y-71475241D01*
X156208320Y-71710273D01*
X156100147Y-71971426D01*
X156045000Y-72248665D01*
X156045000Y-72531335D01*
X156100147Y-72808574D01*
X156208320Y-73069727D01*
X156365363Y-73304759D01*
X156565241Y-73504637D01*
X156797759Y-73660000D01*
X156565241Y-73815363D01*
X156365363Y-74015241D01*
X156208320Y-74250273D01*
X156100147Y-74511426D01*
X156045000Y-74788665D01*
X156045000Y-75071335D01*
X156100147Y-75348574D01*
X156208320Y-75609727D01*
X156365363Y-75844759D01*
X156565241Y-76044637D01*
X156765869Y-76178692D01*
X156738486Y-76193329D01*
X156666903Y-76437298D01*
X157480000Y-77250395D01*
X158293097Y-76437298D01*
X158221514Y-76193329D01*
X158192659Y-76179676D01*
X158394759Y-76044637D01*
X158594637Y-75844759D01*
X158751680Y-75609727D01*
X158859853Y-75348574D01*
X158915000Y-75071335D01*
X158915000Y-74788665D01*
X158859853Y-74511426D01*
X158751680Y-74250273D01*
X158594637Y-74015241D01*
X158394759Y-73815363D01*
X158162241Y-73660000D01*
X158394759Y-73504637D01*
X158594637Y-73304759D01*
X158751680Y-73069727D01*
X158859853Y-72808574D01*
X158915000Y-72531335D01*
X158915000Y-72390000D01*
X160718057Y-72390000D01*
X160745764Y-72671309D01*
X160827818Y-72941808D01*
X160961068Y-73191101D01*
X161140392Y-73409608D01*
X161358899Y-73588932D01*
X161491858Y-73660000D01*
X161358899Y-73731068D01*
X161140392Y-73910392D01*
X160961068Y-74128899D01*
X160827818Y-74378192D01*
X160745764Y-74648691D01*
X160718057Y-74930000D01*
X160745764Y-75211309D01*
X160827818Y-75481808D01*
X160961068Y-75731101D01*
X161140392Y-75949608D01*
X161358899Y-76128932D01*
X161486741Y-76197265D01*
X161257161Y-76347399D01*
X161055500Y-76545105D01*
X160896285Y-76778354D01*
X160785633Y-77038182D01*
X160768096Y-77120961D01*
X160890085Y-77343000D01*
X162433000Y-77343000D01*
X162433000Y-77323000D01*
X162687000Y-77323000D01*
X162687000Y-77343000D01*
X164229915Y-77343000D01*
X164351904Y-77120961D01*
X164334367Y-77038182D01*
X164223715Y-76778354D01*
X164064500Y-76545105D01*
X163862839Y-76347399D01*
X163633259Y-76197265D01*
X163761101Y-76128932D01*
X163979608Y-75949608D01*
X164158932Y-75731101D01*
X164292182Y-75481808D01*
X164374236Y-75211309D01*
X164401943Y-74930000D01*
X164374236Y-74648691D01*
X164292182Y-74378192D01*
X164158932Y-74128899D01*
X163979608Y-73910392D01*
X163761101Y-73731068D01*
X163628142Y-73660000D01*
X163761101Y-73588932D01*
X163979608Y-73409608D01*
X164158932Y-73191101D01*
X164292182Y-72941808D01*
X164374236Y-72671309D01*
X164401943Y-72390000D01*
X164374236Y-72108691D01*
X164292182Y-71838192D01*
X164158932Y-71588899D01*
X163979608Y-71370392D01*
X163866518Y-71277581D01*
X163884482Y-71275812D01*
X164004180Y-71239502D01*
X164114494Y-71180537D01*
X164211185Y-71101185D01*
X164290537Y-71004494D01*
X164349502Y-70894180D01*
X164385812Y-70774482D01*
X164398072Y-70650000D01*
X164398072Y-69050000D01*
X164385812Y-68925518D01*
X164349502Y-68805820D01*
X164290537Y-68695506D01*
X164211185Y-68598815D01*
X164114494Y-68519463D01*
X164004180Y-68460498D01*
X163884482Y-68424188D01*
X163760000Y-68411928D01*
X161360000Y-68411928D01*
X161235518Y-68424188D01*
X161115820Y-68460498D01*
X161005506Y-68519463D01*
X160908815Y-68598815D01*
X160829463Y-68695506D01*
X160770498Y-68805820D01*
X160734188Y-68925518D01*
X160721928Y-69050000D01*
X160721928Y-70650000D01*
X160734188Y-70774482D01*
X160770498Y-70894180D01*
X160829463Y-71004494D01*
X160908815Y-71101185D01*
X161005506Y-71180537D01*
X161115820Y-71239502D01*
X161235518Y-71275812D01*
X161253482Y-71277581D01*
X161140392Y-71370392D01*
X160961068Y-71588899D01*
X160827818Y-71838192D01*
X160745764Y-72108691D01*
X160718057Y-72390000D01*
X158915000Y-72390000D01*
X158915000Y-72248665D01*
X158859853Y-71971426D01*
X158751680Y-71710273D01*
X158594637Y-71475241D01*
X158394759Y-71275363D01*
X158192173Y-71140000D01*
X158394759Y-71004637D01*
X158594637Y-70804759D01*
X158751680Y-70569727D01*
X158859853Y-70308574D01*
X158915000Y-70031335D01*
X158915000Y-69748665D01*
X158859853Y-69471426D01*
X158751680Y-69210273D01*
X158594637Y-68975241D01*
X158394759Y-68775363D01*
X158159727Y-68618320D01*
X157898574Y-68510147D01*
X157621335Y-68455000D01*
X157338665Y-68455000D01*
X157061426Y-68510147D01*
X156800273Y-68618320D01*
X156565241Y-68775363D01*
X156365363Y-68975241D01*
X156208320Y-69210273D01*
X156100147Y-69471426D01*
X156045000Y-69748665D01*
X153237981Y-69748665D01*
X153419608Y-69599608D01*
X153598932Y-69381101D01*
X153732182Y-69131808D01*
X153814236Y-68861309D01*
X153841943Y-68580000D01*
X153814236Y-68298691D01*
X153732182Y-68028192D01*
X153598932Y-67778899D01*
X153419608Y-67560392D01*
X153201101Y-67381068D01*
X152951808Y-67247818D01*
X152681309Y-67165764D01*
X152470492Y-67145000D01*
X152329508Y-67145000D01*
X152118691Y-67165764D01*
X151848192Y-67247818D01*
X151598899Y-67381068D01*
X151380392Y-67560392D01*
X151201068Y-67778899D01*
X151067818Y-68028192D01*
X150985764Y-68298691D01*
X150958057Y-68580000D01*
X143675000Y-68580000D01*
X143675000Y-68438665D01*
X143619853Y-68161426D01*
X143511680Y-67900273D01*
X143354637Y-67665241D01*
X143154759Y-67465363D01*
X142919727Y-67308320D01*
X142658574Y-67200147D01*
X142381335Y-67145000D01*
X142098665Y-67145000D01*
X141821426Y-67200147D01*
X141560273Y-67308320D01*
X141325241Y-67465363D01*
X141125363Y-67665241D01*
X140968320Y-67900273D01*
X140860147Y-68161426D01*
X140805000Y-68438665D01*
X115697000Y-68438665D01*
X115697000Y-66396890D01*
X119208524Y-66396890D01*
X119253175Y-66544099D01*
X119378359Y-66806920D01*
X119552412Y-67040269D01*
X119768645Y-67235178D01*
X120018748Y-67384157D01*
X120293109Y-67481481D01*
X120523000Y-67360814D01*
X120523000Y-66167000D01*
X120777000Y-66167000D01*
X120777000Y-67360814D01*
X121006891Y-67481481D01*
X121281252Y-67384157D01*
X121531355Y-67235178D01*
X121747588Y-67040269D01*
X121921641Y-66806920D01*
X122046825Y-66544099D01*
X122091476Y-66396890D01*
X121970155Y-66167000D01*
X120777000Y-66167000D01*
X120523000Y-66167000D01*
X119329845Y-66167000D01*
X119208524Y-66396890D01*
X115697000Y-66396890D01*
X115697000Y-62650000D01*
X119161928Y-62650000D01*
X119161928Y-64350000D01*
X119174188Y-64474482D01*
X119210498Y-64594180D01*
X119269463Y-64704494D01*
X119348815Y-64801185D01*
X119445506Y-64880537D01*
X119555820Y-64939502D01*
X119636466Y-64963966D01*
X119552412Y-65039731D01*
X119378359Y-65273080D01*
X119253175Y-65535901D01*
X119208524Y-65683110D01*
X119329845Y-65913000D01*
X120523000Y-65913000D01*
X120523000Y-65893000D01*
X120777000Y-65893000D01*
X120777000Y-65913000D01*
X121970155Y-65913000D01*
X122091476Y-65683110D01*
X122046825Y-65535901D01*
X121921641Y-65273080D01*
X121747588Y-65039731D01*
X121663534Y-64963966D01*
X121744180Y-64939502D01*
X121854494Y-64880537D01*
X121951185Y-64801185D01*
X122030537Y-64704494D01*
X122089502Y-64594180D01*
X122125812Y-64474482D01*
X122138072Y-64350000D01*
X122138072Y-62650000D01*
X122125812Y-62525518D01*
X122089502Y-62405820D01*
X122030537Y-62295506D01*
X121951185Y-62198815D01*
X121854494Y-62119463D01*
X121744180Y-62060498D01*
X121624482Y-62024188D01*
X121500000Y-62011928D01*
X119800000Y-62011928D01*
X119675518Y-62024188D01*
X119555820Y-62060498D01*
X119445506Y-62119463D01*
X119348815Y-62198815D01*
X119269463Y-62295506D01*
X119210498Y-62405820D01*
X119174188Y-62525518D01*
X119161928Y-62650000D01*
X115697000Y-62650000D01*
X115697000Y-57561805D01*
X136641805Y-57561805D01*
X136714379Y-57801066D01*
X136874361Y-58123257D01*
X137094125Y-58408046D01*
X137365226Y-58644489D01*
X137677246Y-58823500D01*
X138018194Y-58938199D01*
X138303000Y-58821854D01*
X138303000Y-57277000D01*
X138557000Y-57277000D01*
X138557000Y-58821854D01*
X138841806Y-58938199D01*
X139182754Y-58823500D01*
X139494774Y-58644489D01*
X139765875Y-58408046D01*
X139985639Y-58123257D01*
X140145621Y-57801066D01*
X140218195Y-57561805D01*
X140101432Y-57277000D01*
X138557000Y-57277000D01*
X138303000Y-57277000D01*
X136758568Y-57277000D01*
X136641805Y-57561805D01*
X115697000Y-57561805D01*
X115697000Y-56738195D01*
X136641805Y-56738195D01*
X136758568Y-57023000D01*
X138303000Y-57023000D01*
X138303000Y-55478146D01*
X138557000Y-55478146D01*
X138557000Y-57023000D01*
X140101432Y-57023000D01*
X140218195Y-56738195D01*
X140145621Y-56498934D01*
X139985639Y-56176743D01*
X139765875Y-55891954D01*
X139494774Y-55655511D01*
X139182754Y-55476500D01*
X138841806Y-55361801D01*
X138557000Y-55478146D01*
X138303000Y-55478146D01*
X138018194Y-55361801D01*
X137677246Y-55476500D01*
X137365226Y-55655511D01*
X137094125Y-55891954D01*
X136874361Y-56176743D01*
X136714379Y-56498934D01*
X136641805Y-56738195D01*
X115697000Y-56738195D01*
X115697000Y-52490000D01*
X119161928Y-52490000D01*
X119161928Y-54190000D01*
X119174188Y-54314482D01*
X119210498Y-54434180D01*
X119269463Y-54544494D01*
X119348815Y-54641185D01*
X119445506Y-54720537D01*
X119555820Y-54779502D01*
X119675518Y-54815812D01*
X119800000Y-54828072D01*
X121500000Y-54828072D01*
X121624482Y-54815812D01*
X121744180Y-54779502D01*
X121854494Y-54720537D01*
X121951185Y-54641185D01*
X122030537Y-54544494D01*
X122089502Y-54434180D01*
X122125812Y-54314482D01*
X122138072Y-54190000D01*
X122138072Y-52490000D01*
X122125812Y-52365518D01*
X122089502Y-52245820D01*
X122030537Y-52135506D01*
X121951185Y-52038815D01*
X121854494Y-51959463D01*
X121744180Y-51900498D01*
X121663534Y-51876034D01*
X121747588Y-51800269D01*
X121921641Y-51566920D01*
X122046825Y-51304099D01*
X122091476Y-51156890D01*
X121970155Y-50927000D01*
X120777000Y-50927000D01*
X120777000Y-50947000D01*
X120523000Y-50947000D01*
X120523000Y-50927000D01*
X119329845Y-50927000D01*
X119208524Y-51156890D01*
X119253175Y-51304099D01*
X119378359Y-51566920D01*
X119552412Y-51800269D01*
X119636466Y-51876034D01*
X119555820Y-51900498D01*
X119445506Y-51959463D01*
X119348815Y-52038815D01*
X119269463Y-52135506D01*
X119210498Y-52245820D01*
X119174188Y-52365518D01*
X119161928Y-52490000D01*
X115697000Y-52490000D01*
X115697000Y-50443110D01*
X119208524Y-50443110D01*
X119329845Y-50673000D01*
X120523000Y-50673000D01*
X120523000Y-49479186D01*
X120777000Y-49479186D01*
X120777000Y-50673000D01*
X121970155Y-50673000D01*
X122091476Y-50443110D01*
X122046825Y-50295901D01*
X121921641Y-50033080D01*
X121747588Y-49799731D01*
X121531355Y-49604822D01*
X121281252Y-49455843D01*
X121006891Y-49358519D01*
X120777000Y-49479186D01*
X120523000Y-49479186D01*
X120293109Y-49358519D01*
X120018748Y-49455843D01*
X119768645Y-49604822D01*
X119552412Y-49799731D01*
X119378359Y-50033080D01*
X119253175Y-50295901D01*
X119208524Y-50443110D01*
X115697000Y-50443110D01*
X115697000Y-47500000D01*
X148461928Y-47500000D01*
X148461928Y-49020000D01*
X148474188Y-49144482D01*
X148510498Y-49264180D01*
X148569463Y-49374494D01*
X148648815Y-49471185D01*
X148745506Y-49550537D01*
X148855820Y-49609502D01*
X148975518Y-49645812D01*
X149100000Y-49658072D01*
X150620000Y-49658072D01*
X150744482Y-49645812D01*
X150864180Y-49609502D01*
X150974494Y-49550537D01*
X151071185Y-49471185D01*
X151150537Y-49374494D01*
X151209502Y-49264180D01*
X151245812Y-49144482D01*
X151258072Y-49020000D01*
X151258072Y-47500000D01*
X151245812Y-47375518D01*
X151209502Y-47255820D01*
X151150537Y-47145506D01*
X151071185Y-47048815D01*
X150974494Y-46969463D01*
X150864180Y-46910498D01*
X150744482Y-46874188D01*
X150656533Y-46865526D01*
X150749261Y-46803567D01*
X150943567Y-46609261D01*
X151096233Y-46380780D01*
X151201391Y-46126907D01*
X151255000Y-45857396D01*
X151255000Y-45582604D01*
X151201391Y-45313093D01*
X151096233Y-45059220D01*
X150943567Y-44830739D01*
X150749261Y-44636433D01*
X150520780Y-44483767D01*
X150439260Y-44450000D01*
X150520780Y-44416233D01*
X150749261Y-44263567D01*
X150943567Y-44069261D01*
X151096233Y-43840780D01*
X151201391Y-43586907D01*
X151255000Y-43317396D01*
X151255000Y-43042604D01*
X151201391Y-42773093D01*
X151171115Y-42700000D01*
X156491928Y-42700000D01*
X156491928Y-46200000D01*
X156504188Y-46324482D01*
X156540498Y-46444180D01*
X156599463Y-46554494D01*
X156678815Y-46651185D01*
X156775506Y-46730537D01*
X156885820Y-46789502D01*
X157005518Y-46825812D01*
X157130000Y-46838072D01*
X159630000Y-46838072D01*
X159754482Y-46825812D01*
X159874180Y-46789502D01*
X159984494Y-46730537D01*
X160081185Y-46651185D01*
X160160537Y-46554494D01*
X160219502Y-46444180D01*
X160255812Y-46324482D01*
X160268072Y-46200000D01*
X160268072Y-44950000D01*
X161935881Y-44950000D01*
X161945000Y-45042589D01*
X161945000Y-45042597D01*
X161972275Y-45319524D01*
X162080061Y-45674848D01*
X162141031Y-45788914D01*
X162255097Y-46002317D01*
X162490655Y-46289345D01*
X162562582Y-46348374D01*
X170821630Y-54607423D01*
X170880655Y-54679345D01*
X170952577Y-54738370D01*
X170952579Y-54738372D01*
X171046940Y-54815812D01*
X171167683Y-54914903D01*
X171495152Y-55089939D01*
X171850476Y-55197725D01*
X172220000Y-55234120D01*
X172312597Y-55225000D01*
X184639208Y-55225000D01*
X190531639Y-61117432D01*
X190590664Y-61189354D01*
X190662586Y-61248379D01*
X190662588Y-61248381D01*
X190816058Y-61374330D01*
X190877692Y-61424912D01*
X191205161Y-61599948D01*
X191452698Y-61675037D01*
X191560484Y-61707734D01*
X191595741Y-61711206D01*
X191837412Y-61735009D01*
X191837419Y-61735009D01*
X191930008Y-61744128D01*
X192022597Y-61735009D01*
X198327402Y-61735009D01*
X198419991Y-61744128D01*
X198512580Y-61735009D01*
X198512588Y-61735009D01*
X198789515Y-61707734D01*
X199144839Y-61599948D01*
X199472308Y-61424912D01*
X199759336Y-61189354D01*
X199818365Y-61117427D01*
X205968902Y-54966890D01*
X208108524Y-54966890D01*
X208153175Y-55114099D01*
X208278359Y-55376920D01*
X208452412Y-55610269D01*
X208668645Y-55805178D01*
X208918748Y-55954157D01*
X209193109Y-56051481D01*
X209423000Y-55930814D01*
X209423000Y-54737000D01*
X209677000Y-54737000D01*
X209677000Y-55930814D01*
X209906891Y-56051481D01*
X210181252Y-55954157D01*
X210431355Y-55805178D01*
X210647588Y-55610269D01*
X210821641Y-55376920D01*
X210946825Y-55114099D01*
X210991476Y-54966890D01*
X210870155Y-54737000D01*
X209677000Y-54737000D01*
X209423000Y-54737000D01*
X208229845Y-54737000D01*
X208108524Y-54966890D01*
X205968902Y-54966890D01*
X206980793Y-53955000D01*
X208225050Y-53955000D01*
X208153175Y-54105901D01*
X208108524Y-54253110D01*
X208229845Y-54483000D01*
X209423000Y-54483000D01*
X209423000Y-54463000D01*
X209677000Y-54463000D01*
X209677000Y-54483000D01*
X210870155Y-54483000D01*
X210991476Y-54253110D01*
X210946825Y-54105901D01*
X210821641Y-53843080D01*
X210647588Y-53609731D01*
X210646438Y-53608694D01*
X210889345Y-53409345D01*
X211124903Y-53122317D01*
X211299939Y-52794848D01*
X211407725Y-52439524D01*
X211444120Y-52070000D01*
X211407725Y-51700476D01*
X211299939Y-51345152D01*
X211124903Y-51017683D01*
X210889345Y-50730655D01*
X210602317Y-50495097D01*
X210274848Y-50320061D01*
X209919524Y-50212275D01*
X209642597Y-50185000D01*
X206292586Y-50185000D01*
X206199999Y-50175881D01*
X206107412Y-50185000D01*
X206107403Y-50185000D01*
X205830476Y-50212275D01*
X205475152Y-50320061D01*
X205147683Y-50495097D01*
X205147681Y-50495098D01*
X205147682Y-50495098D01*
X204932579Y-50671628D01*
X204932577Y-50671630D01*
X204860655Y-50730655D01*
X204801630Y-50802577D01*
X197639199Y-57965009D01*
X196011747Y-57965009D01*
X196059939Y-57874848D01*
X196167725Y-57519524D01*
X196195000Y-57242597D01*
X196195000Y-49622589D01*
X196204119Y-49530000D01*
X196195000Y-49437411D01*
X196195000Y-49437403D01*
X196167725Y-49160476D01*
X196162874Y-49144482D01*
X196059939Y-48805153D01*
X196059939Y-48805152D01*
X195884903Y-48477683D01*
X195649345Y-48190655D01*
X195577423Y-48131630D01*
X190628374Y-43182582D01*
X190569345Y-43110655D01*
X190337611Y-42920475D01*
X206915000Y-42920475D01*
X206915000Y-43439525D01*
X207016261Y-43948601D01*
X207214893Y-44428141D01*
X207503262Y-44859715D01*
X207870285Y-45226738D01*
X208301859Y-45515107D01*
X208781399Y-45713739D01*
X209290475Y-45815000D01*
X209809525Y-45815000D01*
X210318601Y-45713739D01*
X210798141Y-45515107D01*
X211229715Y-45226738D01*
X211596738Y-44859715D01*
X211885107Y-44428141D01*
X212083739Y-43948601D01*
X212185000Y-43439525D01*
X212185000Y-42920475D01*
X212083739Y-42411399D01*
X211885107Y-41931859D01*
X211596738Y-41500285D01*
X211229715Y-41133262D01*
X210798141Y-40844893D01*
X210318601Y-40646261D01*
X209809525Y-40545000D01*
X209290475Y-40545000D01*
X208781399Y-40646261D01*
X208301859Y-40844893D01*
X207870285Y-41133262D01*
X207503262Y-41500285D01*
X207214893Y-41931859D01*
X207016261Y-42411399D01*
X206915000Y-42920475D01*
X190337611Y-42920475D01*
X190282317Y-42875097D01*
X189954848Y-42700061D01*
X189599524Y-42592275D01*
X189322597Y-42565000D01*
X189322589Y-42565000D01*
X189230000Y-42555881D01*
X189137411Y-42565000D01*
X170563714Y-42565000D01*
X170332317Y-42375097D01*
X170004847Y-42200061D01*
X169649523Y-42092275D01*
X169280000Y-42055880D01*
X168910476Y-42092275D01*
X168555152Y-42200061D01*
X168227683Y-42375097D01*
X167940655Y-42610655D01*
X167705097Y-42897683D01*
X167530061Y-43225153D01*
X167422275Y-43580477D01*
X167395000Y-43857404D01*
X167395000Y-44357403D01*
X167385880Y-44450000D01*
X167395000Y-44542597D01*
X167395000Y-45042597D01*
X167422275Y-45319524D01*
X167530061Y-45674848D01*
X167705098Y-46002317D01*
X167940656Y-46289345D01*
X168227684Y-46524903D01*
X168555153Y-46699939D01*
X168910477Y-46807725D01*
X169280000Y-46844120D01*
X169649524Y-46807725D01*
X170004848Y-46699939D01*
X170332317Y-46524903D01*
X170563714Y-46335000D01*
X188449208Y-46335000D01*
X192425000Y-50310793D01*
X192425001Y-55360338D01*
X192425000Y-55360348D01*
X192425000Y-57242597D01*
X192452276Y-57519524D01*
X192533684Y-57787891D01*
X186818374Y-52072582D01*
X186759345Y-52000655D01*
X186472317Y-51765097D01*
X186144848Y-51590061D01*
X185789524Y-51482275D01*
X185512597Y-51455000D01*
X185512589Y-51455000D01*
X185420000Y-51445881D01*
X185327411Y-51455000D01*
X173000793Y-51455000D01*
X165715000Y-44169208D01*
X165715000Y-43857403D01*
X165687725Y-43580476D01*
X165579939Y-43225152D01*
X165404903Y-42897683D01*
X165169345Y-42610655D01*
X164882317Y-42375097D01*
X164554847Y-42200061D01*
X164199523Y-42092275D01*
X163830000Y-42055880D01*
X163460476Y-42092275D01*
X163105152Y-42200061D01*
X162777683Y-42375097D01*
X162490655Y-42610655D01*
X162255097Y-42897683D01*
X162080061Y-43225153D01*
X161972275Y-43580477D01*
X161945000Y-43857404D01*
X161945000Y-44857411D01*
X161935881Y-44950000D01*
X160268072Y-44950000D01*
X160268072Y-42700000D01*
X160255812Y-42575518D01*
X160219502Y-42455820D01*
X160160537Y-42345506D01*
X160081185Y-42248815D01*
X159984494Y-42169463D01*
X159874180Y-42110498D01*
X159754482Y-42074188D01*
X159630000Y-42061928D01*
X157130000Y-42061928D01*
X157005518Y-42074188D01*
X156885820Y-42110498D01*
X156775506Y-42169463D01*
X156678815Y-42248815D01*
X156599463Y-42345506D01*
X156540498Y-42455820D01*
X156504188Y-42575518D01*
X156491928Y-42700000D01*
X151171115Y-42700000D01*
X151096233Y-42519220D01*
X150943567Y-42290739D01*
X150749261Y-42096433D01*
X150520780Y-41943767D01*
X150266907Y-41838609D01*
X149997396Y-41785000D01*
X149722604Y-41785000D01*
X149453093Y-41838609D01*
X149199220Y-41943767D01*
X148970739Y-42096433D01*
X148776433Y-42290739D01*
X148623767Y-42519220D01*
X148518609Y-42773093D01*
X148465000Y-43042604D01*
X148465000Y-43317396D01*
X148518609Y-43586907D01*
X148623767Y-43840780D01*
X148776433Y-44069261D01*
X148970739Y-44263567D01*
X149199220Y-44416233D01*
X149280740Y-44450000D01*
X149199220Y-44483767D01*
X148970739Y-44636433D01*
X148776433Y-44830739D01*
X148623767Y-45059220D01*
X148518609Y-45313093D01*
X148465000Y-45582604D01*
X148465000Y-45857396D01*
X148518609Y-46126907D01*
X148623767Y-46380780D01*
X148776433Y-46609261D01*
X148970739Y-46803567D01*
X149063467Y-46865526D01*
X148975518Y-46874188D01*
X148855820Y-46910498D01*
X148745506Y-46969463D01*
X148648815Y-47048815D01*
X148569463Y-47145506D01*
X148510498Y-47255820D01*
X148474188Y-47375518D01*
X148461928Y-47500000D01*
X115697000Y-47500000D01*
X115697000Y-42920475D01*
X116745000Y-42920475D01*
X116745000Y-43439525D01*
X116846261Y-43948601D01*
X117044893Y-44428141D01*
X117333262Y-44859715D01*
X117700285Y-45226738D01*
X118131859Y-45515107D01*
X118611399Y-45713739D01*
X119120475Y-45815000D01*
X119639525Y-45815000D01*
X120117124Y-45720000D01*
X130638057Y-45720000D01*
X130665764Y-46001309D01*
X130747818Y-46271808D01*
X130881068Y-46521101D01*
X131060392Y-46739608D01*
X131278899Y-46918932D01*
X131528192Y-47052182D01*
X131798691Y-47134236D01*
X132009508Y-47155000D01*
X132150492Y-47155000D01*
X132361309Y-47134236D01*
X132631808Y-47052182D01*
X132881101Y-46918932D01*
X133099608Y-46739608D01*
X133278932Y-46521101D01*
X133412182Y-46271808D01*
X133494236Y-46001309D01*
X133521943Y-45720000D01*
X133508023Y-45578665D01*
X140805000Y-45578665D01*
X140805000Y-45861335D01*
X140860147Y-46138574D01*
X140968320Y-46399727D01*
X141125363Y-46634759D01*
X141325241Y-46834637D01*
X141560273Y-46991680D01*
X141821426Y-47099853D01*
X142098665Y-47155000D01*
X142381335Y-47155000D01*
X142658574Y-47099853D01*
X142919727Y-46991680D01*
X143154759Y-46834637D01*
X143354637Y-46634759D01*
X143511680Y-46399727D01*
X143619853Y-46138574D01*
X143675000Y-45861335D01*
X143675000Y-45578665D01*
X143619853Y-45301426D01*
X143511680Y-45040273D01*
X143354637Y-44805241D01*
X143154759Y-44605363D01*
X142919727Y-44448320D01*
X142658574Y-44340147D01*
X142381335Y-44285000D01*
X142098665Y-44285000D01*
X141821426Y-44340147D01*
X141560273Y-44448320D01*
X141325241Y-44605363D01*
X141125363Y-44805241D01*
X140968320Y-45040273D01*
X140860147Y-45301426D01*
X140805000Y-45578665D01*
X133508023Y-45578665D01*
X133494236Y-45438691D01*
X133412182Y-45168192D01*
X133278932Y-44918899D01*
X133099608Y-44700392D01*
X132881101Y-44521068D01*
X132631808Y-44387818D01*
X132361309Y-44305764D01*
X132150492Y-44285000D01*
X132009508Y-44285000D01*
X131798691Y-44305764D01*
X131528192Y-44387818D01*
X131278899Y-44521068D01*
X131060392Y-44700392D01*
X130881068Y-44918899D01*
X130747818Y-45168192D01*
X130665764Y-45438691D01*
X130638057Y-45720000D01*
X120117124Y-45720000D01*
X120148601Y-45713739D01*
X120628141Y-45515107D01*
X121059715Y-45226738D01*
X121426738Y-44859715D01*
X121715107Y-44428141D01*
X121913739Y-43948601D01*
X122015000Y-43439525D01*
X122015000Y-42920475D01*
X121913739Y-42411399D01*
X121715107Y-41931859D01*
X121426738Y-41500285D01*
X121059715Y-41133262D01*
X120628141Y-40844893D01*
X120148601Y-40646261D01*
X119639525Y-40545000D01*
X119120475Y-40545000D01*
X118611399Y-40646261D01*
X118131859Y-40844893D01*
X117700285Y-41133262D01*
X117333262Y-41500285D01*
X117044893Y-41931859D01*
X116846261Y-42411399D01*
X116745000Y-42920475D01*
X115697000Y-42920475D01*
X115697000Y-39497000D01*
X213233000Y-39497000D01*
X213233000Y-137033000D01*
X213233000Y-137033000D01*
G37*
X213233000Y-137033000D02*
X115697000Y-137033000D01*
X115697000Y-133090475D01*
X116745000Y-133090475D01*
X116745000Y-133609525D01*
X116846261Y-134118601D01*
X117044893Y-134598141D01*
X117333262Y-135029715D01*
X117700285Y-135396738D01*
X118131859Y-135685107D01*
X118611399Y-135883739D01*
X119120475Y-135985000D01*
X119639525Y-135985000D01*
X120148601Y-135883739D01*
X120628141Y-135685107D01*
X121059715Y-135396738D01*
X121426738Y-135029715D01*
X121715107Y-134598141D01*
X121913739Y-134118601D01*
X122015000Y-133609525D01*
X122015000Y-133090475D01*
X121913739Y-132581399D01*
X121715107Y-132101859D01*
X121426738Y-131670285D01*
X121059715Y-131303262D01*
X120628141Y-131014893D01*
X120148601Y-130816261D01*
X119639525Y-130715000D01*
X119120475Y-130715000D01*
X118611399Y-130816261D01*
X118131859Y-131014893D01*
X117700285Y-131303262D01*
X117333262Y-131670285D01*
X117044893Y-132101859D01*
X116846261Y-132581399D01*
X116745000Y-133090475D01*
X115697000Y-133090475D01*
X115697000Y-126091610D01*
X156485881Y-126091610D01*
X156495001Y-126184209D01*
X156495000Y-132757402D01*
X156495000Y-133942596D01*
X156522275Y-134219523D01*
X156630061Y-134574847D01*
X156805097Y-134902317D01*
X157040655Y-135189345D01*
X157327683Y-135424903D01*
X157655152Y-135599939D01*
X158010476Y-135707725D01*
X158380000Y-135744120D01*
X158749523Y-135707725D01*
X159104847Y-135599939D01*
X159432317Y-135424903D01*
X159719345Y-135189345D01*
X159954903Y-134902317D01*
X160129939Y-134574848D01*
X160237725Y-134219524D01*
X160265000Y-133942597D01*
X160265000Y-126872402D01*
X161945000Y-125192402D01*
X161945001Y-132757394D01*
X161945000Y-132757403D01*
X161945000Y-133942596D01*
X161972275Y-134219523D01*
X162080061Y-134574847D01*
X162255097Y-134902317D01*
X162490655Y-135189345D01*
X162777683Y-135424903D01*
X163105152Y-135599939D01*
X163460476Y-135707725D01*
X163830000Y-135744120D01*
X164199523Y-135707725D01*
X164554847Y-135599939D01*
X164882317Y-135424903D01*
X165169345Y-135189345D01*
X165404903Y-134902317D01*
X165579939Y-134574848D01*
X165687725Y-134219524D01*
X165715000Y-133942597D01*
X165715000Y-131600000D01*
X167391928Y-131600000D01*
X167391928Y-135100000D01*
X167404188Y-135224482D01*
X167440498Y-135344180D01*
X167499463Y-135454494D01*
X167578815Y-135551185D01*
X167675506Y-135630537D01*
X167785820Y-135689502D01*
X167905518Y-135725812D01*
X168030000Y-135738072D01*
X170530000Y-135738072D01*
X170654482Y-135725812D01*
X170774180Y-135689502D01*
X170884494Y-135630537D01*
X170981185Y-135551185D01*
X171060537Y-135454494D01*
X171119502Y-135344180D01*
X171155812Y-135224482D01*
X171168072Y-135100000D01*
X171168072Y-131600000D01*
X171155812Y-131475518D01*
X171119502Y-131355820D01*
X171060537Y-131245506D01*
X170981185Y-131148815D01*
X170884494Y-131069463D01*
X170774180Y-131010498D01*
X170654482Y-130974188D01*
X170530000Y-130961928D01*
X168030000Y-130961928D01*
X167905518Y-130974188D01*
X167785820Y-131010498D01*
X167675506Y-131069463D01*
X167578815Y-131148815D01*
X167499463Y-131245506D01*
X167440498Y-131355820D01*
X167404188Y-131475518D01*
X167391928Y-131600000D01*
X165715000Y-131600000D01*
X165715000Y-128780000D01*
X177671928Y-128780000D01*
X177671928Y-130300000D01*
X177684188Y-130424482D01*
X177720498Y-130544180D01*
X177779463Y-130654494D01*
X177858815Y-130751185D01*
X177955506Y-130830537D01*
X178065820Y-130889502D01*
X178185518Y-130925812D01*
X178273467Y-130934474D01*
X178180739Y-130996433D01*
X177986433Y-131190739D01*
X177833767Y-131419220D01*
X177728609Y-131673093D01*
X177675000Y-131942604D01*
X177675000Y-132217396D01*
X177728609Y-132486907D01*
X177833767Y-132740780D01*
X177986433Y-132969261D01*
X178180739Y-133163567D01*
X178409220Y-133316233D01*
X178490740Y-133350000D01*
X178409220Y-133383767D01*
X178180739Y-133536433D01*
X177986433Y-133730739D01*
X177833767Y-133959220D01*
X177728609Y-134213093D01*
X177675000Y-134482604D01*
X177675000Y-134757396D01*
X177728609Y-135026907D01*
X177833767Y-135280780D01*
X177986433Y-135509261D01*
X178180739Y-135703567D01*
X178409220Y-135856233D01*
X178663093Y-135961391D01*
X178932604Y-136015000D01*
X179207396Y-136015000D01*
X179476907Y-135961391D01*
X179730780Y-135856233D01*
X179959261Y-135703567D01*
X180153567Y-135509261D01*
X180306233Y-135280780D01*
X180411391Y-135026907D01*
X180465000Y-134757396D01*
X180465000Y-134482604D01*
X180411391Y-134213093D01*
X180306233Y-133959220D01*
X180153567Y-133730739D01*
X179959261Y-133536433D01*
X179730780Y-133383767D01*
X179649260Y-133350000D01*
X179730780Y-133316233D01*
X179959261Y-133163567D01*
X180153567Y-132969261D01*
X180306233Y-132740780D01*
X180411391Y-132486907D01*
X180465000Y-132217396D01*
X180465000Y-131942604D01*
X180464217Y-131938665D01*
X185255000Y-131938665D01*
X185255000Y-132221335D01*
X185310147Y-132498574D01*
X185418320Y-132759727D01*
X185575363Y-132994759D01*
X185775241Y-133194637D01*
X186010273Y-133351680D01*
X186271426Y-133459853D01*
X186548665Y-133515000D01*
X186831335Y-133515000D01*
X187108574Y-133459853D01*
X187369727Y-133351680D01*
X187604759Y-133194637D01*
X187804637Y-132994759D01*
X187961680Y-132759727D01*
X188069853Y-132498574D01*
X188125000Y-132221335D01*
X188125000Y-132080000D01*
X195408057Y-132080000D01*
X195435764Y-132361309D01*
X195517818Y-132631808D01*
X195651068Y-132881101D01*
X195830392Y-133099608D01*
X196048899Y-133278932D01*
X196298192Y-133412182D01*
X196568691Y-133494236D01*
X196779508Y-133515000D01*
X196920492Y-133515000D01*
X197131309Y-133494236D01*
X197401808Y-133412182D01*
X197651101Y-133278932D01*
X197869608Y-133099608D01*
X197877103Y-133090475D01*
X206915000Y-133090475D01*
X206915000Y-133609525D01*
X207016261Y-134118601D01*
X207214893Y-134598141D01*
X207503262Y-135029715D01*
X207870285Y-135396738D01*
X208301859Y-135685107D01*
X208781399Y-135883739D01*
X209290475Y-135985000D01*
X209809525Y-135985000D01*
X210318601Y-135883739D01*
X210798141Y-135685107D01*
X211229715Y-135396738D01*
X211596738Y-135029715D01*
X211885107Y-134598141D01*
X212083739Y-134118601D01*
X212185000Y-133609525D01*
X212185000Y-133090475D01*
X212083739Y-132581399D01*
X211885107Y-132101859D01*
X211596738Y-131670285D01*
X211229715Y-131303262D01*
X210798141Y-131014893D01*
X210318601Y-130816261D01*
X209809525Y-130715000D01*
X209290475Y-130715000D01*
X208781399Y-130816261D01*
X208301859Y-131014893D01*
X207870285Y-131303262D01*
X207503262Y-131670285D01*
X207214893Y-132101859D01*
X207016261Y-132581399D01*
X206915000Y-133090475D01*
X197877103Y-133090475D01*
X198048932Y-132881101D01*
X198182182Y-132631808D01*
X198264236Y-132361309D01*
X198291943Y-132080000D01*
X198264236Y-131798691D01*
X198182182Y-131528192D01*
X198048932Y-131278899D01*
X197869608Y-131060392D01*
X197651101Y-130881068D01*
X197401808Y-130747818D01*
X197131309Y-130665764D01*
X196920492Y-130645000D01*
X196779508Y-130645000D01*
X196568691Y-130665764D01*
X196298192Y-130747818D01*
X196048899Y-130881068D01*
X195830392Y-131060392D01*
X195651068Y-131278899D01*
X195517818Y-131528192D01*
X195435764Y-131798691D01*
X195408057Y-132080000D01*
X188125000Y-132080000D01*
X188125000Y-131938665D01*
X188069853Y-131661426D01*
X187961680Y-131400273D01*
X187804637Y-131165241D01*
X187604759Y-130965363D01*
X187369727Y-130808320D01*
X187108574Y-130700147D01*
X186831335Y-130645000D01*
X186548665Y-130645000D01*
X186271426Y-130700147D01*
X186010273Y-130808320D01*
X185775241Y-130965363D01*
X185575363Y-131165241D01*
X185418320Y-131400273D01*
X185310147Y-131661426D01*
X185255000Y-131938665D01*
X180464217Y-131938665D01*
X180411391Y-131673093D01*
X180306233Y-131419220D01*
X180153567Y-131190739D01*
X179959261Y-130996433D01*
X179866533Y-130934474D01*
X179954482Y-130925812D01*
X180074180Y-130889502D01*
X180184494Y-130830537D01*
X180281185Y-130751185D01*
X180360537Y-130654494D01*
X180419502Y-130544180D01*
X180455812Y-130424482D01*
X180468072Y-130300000D01*
X180468072Y-128780000D01*
X180455812Y-128655518D01*
X180419502Y-128535820D01*
X180360537Y-128425506D01*
X180281185Y-128328815D01*
X180184494Y-128249463D01*
X180074180Y-128190498D01*
X179954482Y-128154188D01*
X179830000Y-128141928D01*
X178310000Y-128141928D01*
X178185518Y-128154188D01*
X178065820Y-128190498D01*
X177955506Y-128249463D01*
X177858815Y-128328815D01*
X177779463Y-128425506D01*
X177720498Y-128535820D01*
X177684188Y-128655518D01*
X177671928Y-128780000D01*
X165715000Y-128780000D01*
X165715000Y-125240792D01*
X167150792Y-123805000D01*
X195487411Y-123805000D01*
X195580000Y-123814119D01*
X195672589Y-123805000D01*
X195672597Y-123805000D01*
X195949524Y-123777725D01*
X196304848Y-123669939D01*
X196632317Y-123494903D01*
X196919345Y-123259345D01*
X196978374Y-123187418D01*
X198660794Y-121504999D01*
X209217412Y-121504999D01*
X209310001Y-121514118D01*
X209402590Y-121504999D01*
X209402598Y-121504999D01*
X209679525Y-121477724D01*
X210034849Y-121369938D01*
X210362318Y-121194902D01*
X210649346Y-120959344D01*
X210708375Y-120887417D01*
X210948372Y-120647420D01*
X211124902Y-120432316D01*
X211299938Y-120104848D01*
X211407725Y-119749523D01*
X211444119Y-119380000D01*
X211407725Y-119010476D01*
X211299938Y-118655152D01*
X211124902Y-118327683D01*
X210889345Y-118040655D01*
X210646437Y-117841306D01*
X210647588Y-117840269D01*
X210821641Y-117606920D01*
X210946825Y-117344099D01*
X210991476Y-117196890D01*
X210870155Y-116967000D01*
X209677000Y-116967000D01*
X209677000Y-116987000D01*
X209423000Y-116987000D01*
X209423000Y-116967000D01*
X208229845Y-116967000D01*
X208108524Y-117196890D01*
X208153175Y-117344099D01*
X208278359Y-117606920D01*
X208373892Y-117734999D01*
X197972598Y-117734999D01*
X197880001Y-117725879D01*
X197787404Y-117734999D01*
X197510477Y-117762274D01*
X197155153Y-117870060D01*
X197023373Y-117940498D01*
X196827684Y-118045096D01*
X196612580Y-118221627D01*
X196612578Y-118221629D01*
X196540656Y-118280654D01*
X196481631Y-118352576D01*
X196086317Y-118747890D01*
X196167725Y-118479524D01*
X196204120Y-118110000D01*
X196167725Y-117740476D01*
X196059939Y-117385152D01*
X195884903Y-117057683D01*
X195649345Y-116770655D01*
X195362317Y-116535097D01*
X195265057Y-116483110D01*
X208108524Y-116483110D01*
X208229845Y-116713000D01*
X209423000Y-116713000D01*
X209423000Y-115519186D01*
X209677000Y-115519186D01*
X209677000Y-116713000D01*
X210870155Y-116713000D01*
X210991476Y-116483110D01*
X210946825Y-116335901D01*
X210821641Y-116073080D01*
X210647588Y-115839731D01*
X210431355Y-115644822D01*
X210181252Y-115495843D01*
X209906891Y-115398519D01*
X209677000Y-115519186D01*
X209423000Y-115519186D01*
X209193109Y-115398519D01*
X208918748Y-115495843D01*
X208668645Y-115644822D01*
X208452412Y-115839731D01*
X208278359Y-116073080D01*
X208153175Y-116335901D01*
X208108524Y-116483110D01*
X195265057Y-116483110D01*
X195034848Y-116360061D01*
X194679524Y-116252275D01*
X194402597Y-116225000D01*
X166454196Y-116225000D01*
X166361609Y-116215881D01*
X166269022Y-116225000D01*
X166269013Y-116225000D01*
X165992086Y-116252275D01*
X165636762Y-116360061D01*
X165309293Y-116535097D01*
X165309291Y-116535098D01*
X165309292Y-116535098D01*
X165094189Y-116711628D01*
X165094187Y-116711630D01*
X165022265Y-116770655D01*
X164963240Y-116842577D01*
X157112577Y-124693241D01*
X157040656Y-124752265D01*
X156981631Y-124824187D01*
X156981628Y-124824190D01*
X156805098Y-125039293D01*
X156630062Y-125366762D01*
X156522275Y-125722086D01*
X156485881Y-126091610D01*
X115697000Y-126091610D01*
X115697000Y-119387980D01*
X137331626Y-119387980D01*
X137451514Y-119672836D01*
X137775210Y-119833699D01*
X138124069Y-119928322D01*
X138484684Y-119953067D01*
X138843198Y-119906985D01*
X139185833Y-119791846D01*
X139408486Y-119672836D01*
X139528374Y-119387980D01*
X138430000Y-118289605D01*
X137331626Y-119387980D01*
X115697000Y-119387980D01*
X115697000Y-118164684D01*
X136586933Y-118164684D01*
X136633015Y-118523198D01*
X136748154Y-118865833D01*
X136867164Y-119088486D01*
X137152020Y-119208374D01*
X138250395Y-118110000D01*
X138609605Y-118110000D01*
X139707980Y-119208374D01*
X139992836Y-119088486D01*
X140153699Y-118764790D01*
X140248322Y-118415931D01*
X140273067Y-118055316D01*
X140226985Y-117696802D01*
X140111846Y-117354167D01*
X139992836Y-117131514D01*
X139707980Y-117011626D01*
X138609605Y-118110000D01*
X138250395Y-118110000D01*
X137152020Y-117011626D01*
X136867164Y-117131514D01*
X136706301Y-117455210D01*
X136611678Y-117804069D01*
X136586933Y-118164684D01*
X115697000Y-118164684D01*
X115697000Y-115926890D01*
X119208524Y-115926890D01*
X119253175Y-116074099D01*
X119378359Y-116336920D01*
X119552412Y-116570269D01*
X119768645Y-116765178D01*
X120018748Y-116914157D01*
X120293109Y-117011481D01*
X120523000Y-116890814D01*
X120523000Y-115697000D01*
X120777000Y-115697000D01*
X120777000Y-116890814D01*
X121006891Y-117011481D01*
X121281252Y-116914157D01*
X121419141Y-116832020D01*
X137331626Y-116832020D01*
X138430000Y-117930395D01*
X139528374Y-116832020D01*
X139408486Y-116547164D01*
X139084790Y-116386301D01*
X138735931Y-116291678D01*
X138375316Y-116266933D01*
X138016802Y-116313015D01*
X137674167Y-116428154D01*
X137451514Y-116547164D01*
X137331626Y-116832020D01*
X121419141Y-116832020D01*
X121531355Y-116765178D01*
X121747588Y-116570269D01*
X121921641Y-116336920D01*
X122046825Y-116074099D01*
X122091476Y-115926890D01*
X121970155Y-115697000D01*
X120777000Y-115697000D01*
X120523000Y-115697000D01*
X119329845Y-115697000D01*
X119208524Y-115926890D01*
X115697000Y-115926890D01*
X115697000Y-112180000D01*
X119161928Y-112180000D01*
X119161928Y-113880000D01*
X119174188Y-114004482D01*
X119210498Y-114124180D01*
X119269463Y-114234494D01*
X119348815Y-114331185D01*
X119445506Y-114410537D01*
X119555820Y-114469502D01*
X119636466Y-114493966D01*
X119552412Y-114569731D01*
X119378359Y-114803080D01*
X119253175Y-115065901D01*
X119208524Y-115213110D01*
X119329845Y-115443000D01*
X120523000Y-115443000D01*
X120523000Y-115423000D01*
X120777000Y-115423000D01*
X120777000Y-115443000D01*
X121970155Y-115443000D01*
X122091476Y-115213110D01*
X122046825Y-115065901D01*
X121921641Y-114803080D01*
X121747588Y-114569731D01*
X121663534Y-114493966D01*
X121744180Y-114469502D01*
X121854494Y-114410537D01*
X121951185Y-114331185D01*
X122030537Y-114234494D01*
X122089502Y-114124180D01*
X122125812Y-114004482D01*
X122138072Y-113880000D01*
X122138072Y-112180000D01*
X122125812Y-112055518D01*
X122089502Y-111935820D01*
X122030537Y-111825506D01*
X121951185Y-111728815D01*
X121854494Y-111649463D01*
X121744180Y-111590498D01*
X121624482Y-111554188D01*
X121500000Y-111541928D01*
X119800000Y-111541928D01*
X119675518Y-111554188D01*
X119555820Y-111590498D01*
X119445506Y-111649463D01*
X119348815Y-111728815D01*
X119269463Y-111825506D01*
X119210498Y-111935820D01*
X119174188Y-112055518D01*
X119161928Y-112180000D01*
X115697000Y-112180000D01*
X115697000Y-107672702D01*
X150316903Y-107672702D01*
X150388486Y-107916671D01*
X150643996Y-108037571D01*
X150918184Y-108106300D01*
X151200512Y-108120217D01*
X151480130Y-108078787D01*
X151746292Y-107983603D01*
X151871514Y-107916671D01*
X151943097Y-107672702D01*
X151130000Y-106859605D01*
X150316903Y-107672702D01*
X115697000Y-107672702D01*
X115697000Y-106750512D01*
X149689783Y-106750512D01*
X149731213Y-107030130D01*
X149826397Y-107296292D01*
X149893329Y-107421514D01*
X150137298Y-107493097D01*
X150950395Y-106680000D01*
X151309605Y-106680000D01*
X152122702Y-107493097D01*
X152366671Y-107421514D01*
X152487571Y-107166004D01*
X152556300Y-106891816D01*
X152566741Y-106680000D01*
X156038057Y-106680000D01*
X156065764Y-106961309D01*
X156147818Y-107231808D01*
X156281068Y-107481101D01*
X156460392Y-107699608D01*
X156678899Y-107878932D01*
X156928192Y-108012182D01*
X157198691Y-108094236D01*
X157409508Y-108115000D01*
X157550492Y-108115000D01*
X157761309Y-108094236D01*
X158031808Y-108012182D01*
X158148142Y-107950000D01*
X181438057Y-107950000D01*
X181465764Y-108231309D01*
X181547818Y-108501808D01*
X181681068Y-108751101D01*
X181860392Y-108969608D01*
X182078899Y-109148932D01*
X182328192Y-109282182D01*
X182598691Y-109364236D01*
X182809508Y-109385000D01*
X182950492Y-109385000D01*
X183161309Y-109364236D01*
X183431808Y-109282182D01*
X183681101Y-109148932D01*
X183899608Y-108969608D01*
X184078932Y-108751101D01*
X184212182Y-108501808D01*
X184294236Y-108231309D01*
X184321943Y-107950000D01*
X184308023Y-107808665D01*
X191605000Y-107808665D01*
X191605000Y-108091335D01*
X191660147Y-108368574D01*
X191768320Y-108629727D01*
X191925363Y-108864759D01*
X192125241Y-109064637D01*
X192360273Y-109221680D01*
X192621426Y-109329853D01*
X192898665Y-109385000D01*
X193181335Y-109385000D01*
X193458574Y-109329853D01*
X193719727Y-109221680D01*
X193954759Y-109064637D01*
X194154637Y-108864759D01*
X194311680Y-108629727D01*
X194419853Y-108368574D01*
X194475000Y-108091335D01*
X194475000Y-107808665D01*
X194419853Y-107531426D01*
X194311680Y-107270273D01*
X194154637Y-107035241D01*
X193954759Y-106835363D01*
X193719727Y-106678320D01*
X193458574Y-106570147D01*
X193181335Y-106515000D01*
X192898665Y-106515000D01*
X192621426Y-106570147D01*
X192360273Y-106678320D01*
X192125241Y-106835363D01*
X191925363Y-107035241D01*
X191768320Y-107270273D01*
X191660147Y-107531426D01*
X191605000Y-107808665D01*
X184308023Y-107808665D01*
X184294236Y-107668691D01*
X184212182Y-107398192D01*
X184078932Y-107148899D01*
X183899608Y-106930392D01*
X183681101Y-106751068D01*
X183431808Y-106617818D01*
X183161309Y-106535764D01*
X182950492Y-106515000D01*
X182809508Y-106515000D01*
X182598691Y-106535764D01*
X182328192Y-106617818D01*
X182078899Y-106751068D01*
X181860392Y-106930392D01*
X181681068Y-107148899D01*
X181547818Y-107398192D01*
X181465764Y-107668691D01*
X181438057Y-107950000D01*
X158148142Y-107950000D01*
X158281101Y-107878932D01*
X158499608Y-107699608D01*
X158678932Y-107481101D01*
X158812182Y-107231808D01*
X158894236Y-106961309D01*
X158921943Y-106680000D01*
X158894236Y-106398691D01*
X158812182Y-106128192D01*
X158678932Y-105878899D01*
X158499608Y-105660392D01*
X158281101Y-105481068D01*
X158031808Y-105347818D01*
X157761309Y-105265764D01*
X157550492Y-105245000D01*
X157409508Y-105245000D01*
X157198691Y-105265764D01*
X156928192Y-105347818D01*
X156678899Y-105481068D01*
X156460392Y-105660392D01*
X156281068Y-105878899D01*
X156147818Y-106128192D01*
X156065764Y-106398691D01*
X156038057Y-106680000D01*
X152566741Y-106680000D01*
X152570217Y-106609488D01*
X152528787Y-106329870D01*
X152433603Y-106063708D01*
X152366671Y-105938486D01*
X152122702Y-105866903D01*
X151309605Y-106680000D01*
X150950395Y-106680000D01*
X150137298Y-105866903D01*
X149893329Y-105938486D01*
X149772429Y-106193996D01*
X149703700Y-106468184D01*
X149689783Y-106750512D01*
X115697000Y-106750512D01*
X115697000Y-105687298D01*
X150316903Y-105687298D01*
X151130000Y-106500395D01*
X151943097Y-105687298D01*
X151871514Y-105443329D01*
X151616004Y-105322429D01*
X151341816Y-105253700D01*
X151059488Y-105239783D01*
X150779870Y-105281213D01*
X150513708Y-105376397D01*
X150388486Y-105443329D01*
X150316903Y-105687298D01*
X115697000Y-105687298D01*
X115697000Y-99416890D01*
X119208524Y-99416890D01*
X119253175Y-99564099D01*
X119378359Y-99826920D01*
X119552412Y-100060269D01*
X119768645Y-100255178D01*
X120018748Y-100404157D01*
X120293109Y-100501481D01*
X120523000Y-100380814D01*
X120523000Y-99187000D01*
X120777000Y-99187000D01*
X120777000Y-100380814D01*
X121006891Y-100501481D01*
X121281252Y-100404157D01*
X121531355Y-100255178D01*
X121747588Y-100060269D01*
X121921641Y-99826920D01*
X122046825Y-99564099D01*
X122091476Y-99416890D01*
X121970155Y-99187000D01*
X120777000Y-99187000D01*
X120523000Y-99187000D01*
X119329845Y-99187000D01*
X119208524Y-99416890D01*
X115697000Y-99416890D01*
X115697000Y-95670000D01*
X119161928Y-95670000D01*
X119161928Y-97370000D01*
X119174188Y-97494482D01*
X119210498Y-97614180D01*
X119269463Y-97724494D01*
X119348815Y-97821185D01*
X119445506Y-97900537D01*
X119555820Y-97959502D01*
X119636466Y-97983966D01*
X119552412Y-98059731D01*
X119378359Y-98293080D01*
X119253175Y-98555901D01*
X119208524Y-98703110D01*
X119329845Y-98933000D01*
X120523000Y-98933000D01*
X120523000Y-98913000D01*
X120777000Y-98913000D01*
X120777000Y-98933000D01*
X121970155Y-98933000D01*
X122091476Y-98703110D01*
X122046825Y-98555901D01*
X121921641Y-98293080D01*
X121747588Y-98059731D01*
X121663534Y-97983966D01*
X121744180Y-97959502D01*
X121854494Y-97900537D01*
X121951185Y-97821185D01*
X122030537Y-97724494D01*
X122089502Y-97614180D01*
X122125812Y-97494482D01*
X122138072Y-97370000D01*
X122138072Y-96520000D01*
X149688057Y-96520000D01*
X149715764Y-96801309D01*
X149797818Y-97071808D01*
X149931068Y-97321101D01*
X150110392Y-97539608D01*
X150328899Y-97718932D01*
X150578192Y-97852182D01*
X150848691Y-97934236D01*
X151059508Y-97955000D01*
X151200492Y-97955000D01*
X151411309Y-97934236D01*
X151681808Y-97852182D01*
X151931101Y-97718932D01*
X152149608Y-97539608D01*
X152328932Y-97321101D01*
X152462182Y-97071808D01*
X152544236Y-96801309D01*
X152571943Y-96520000D01*
X152558023Y-96378665D01*
X156045000Y-96378665D01*
X156045000Y-96661335D01*
X156100147Y-96938574D01*
X156208320Y-97199727D01*
X156365363Y-97434759D01*
X156565241Y-97634637D01*
X156800273Y-97791680D01*
X157061426Y-97899853D01*
X157338665Y-97955000D01*
X157621335Y-97955000D01*
X157898574Y-97899853D01*
X158159727Y-97791680D01*
X158162241Y-97790000D01*
X160718057Y-97790000D01*
X160745764Y-98071309D01*
X160827818Y-98341808D01*
X160961068Y-98591101D01*
X161140392Y-98809608D01*
X161358899Y-98988932D01*
X161491858Y-99060000D01*
X161358899Y-99131068D01*
X161140392Y-99310392D01*
X160961068Y-99528899D01*
X160827818Y-99778192D01*
X160745764Y-100048691D01*
X160718057Y-100330000D01*
X160745764Y-100611309D01*
X160827818Y-100881808D01*
X160961068Y-101131101D01*
X161140392Y-101349608D01*
X161358899Y-101528932D01*
X161491858Y-101600000D01*
X161358899Y-101671068D01*
X161140392Y-101850392D01*
X160961068Y-102068899D01*
X160827818Y-102318192D01*
X160745764Y-102588691D01*
X160718057Y-102870000D01*
X160745764Y-103151309D01*
X160827818Y-103421808D01*
X160961068Y-103671101D01*
X161140392Y-103889608D01*
X161358899Y-104068932D01*
X161491858Y-104140000D01*
X161358899Y-104211068D01*
X161140392Y-104390392D01*
X160961068Y-104608899D01*
X160827818Y-104858192D01*
X160745764Y-105128691D01*
X160718057Y-105410000D01*
X160745764Y-105691309D01*
X160827818Y-105961808D01*
X160961068Y-106211101D01*
X161140392Y-106429608D01*
X161358899Y-106608932D01*
X161608192Y-106742182D01*
X161878691Y-106824236D01*
X162089508Y-106845000D01*
X163030492Y-106845000D01*
X163241309Y-106824236D01*
X163511808Y-106742182D01*
X163761101Y-106608932D01*
X163839002Y-106545000D01*
X164704249Y-106545000D01*
X164760000Y-106550491D01*
X164815751Y-106545000D01*
X164815752Y-106545000D01*
X164982499Y-106528577D01*
X165196447Y-106463676D01*
X165393623Y-106358284D01*
X165566449Y-106216449D01*
X165601996Y-106173135D01*
X167133140Y-104641991D01*
X167176449Y-104606449D01*
X167318284Y-104433623D01*
X167423676Y-104236447D01*
X167488577Y-104022499D01*
X167505000Y-103855752D01*
X167505000Y-103855751D01*
X167510491Y-103800000D01*
X167505000Y-103744248D01*
X167505000Y-100330000D01*
X168338057Y-100330000D01*
X168365764Y-100611309D01*
X168447818Y-100881808D01*
X168581068Y-101131101D01*
X168760392Y-101349608D01*
X168978899Y-101528932D01*
X169111858Y-101600000D01*
X168978899Y-101671068D01*
X168760392Y-101850392D01*
X168581068Y-102068899D01*
X168447818Y-102318192D01*
X168365764Y-102588691D01*
X168338057Y-102870000D01*
X168365764Y-103151309D01*
X168447818Y-103421808D01*
X168581068Y-103671101D01*
X168760392Y-103889608D01*
X168873482Y-103982419D01*
X168855518Y-103984188D01*
X168735820Y-104020498D01*
X168625506Y-104079463D01*
X168528815Y-104158815D01*
X168449463Y-104255506D01*
X168390498Y-104365820D01*
X168354188Y-104485518D01*
X168341928Y-104610000D01*
X168341928Y-106210000D01*
X168354188Y-106334482D01*
X168390498Y-106454180D01*
X168449463Y-106564494D01*
X168528815Y-106661185D01*
X168625506Y-106740537D01*
X168735820Y-106799502D01*
X168855518Y-106835812D01*
X168980000Y-106848072D01*
X171380000Y-106848072D01*
X171504482Y-106835812D01*
X171624180Y-106799502D01*
X171734494Y-106740537D01*
X171831185Y-106661185D01*
X171910537Y-106564494D01*
X171969502Y-106454180D01*
X172005812Y-106334482D01*
X172018072Y-106210000D01*
X172018072Y-104610000D01*
X172005812Y-104485518D01*
X171969502Y-104365820D01*
X171910537Y-104255506D01*
X171831185Y-104158815D01*
X171734494Y-104079463D01*
X171624180Y-104020498D01*
X171504482Y-103984188D01*
X171486518Y-103982419D01*
X171599608Y-103889608D01*
X171778932Y-103671101D01*
X171912182Y-103421808D01*
X171994236Y-103151309D01*
X172021943Y-102870000D01*
X171994236Y-102588691D01*
X171912182Y-102318192D01*
X171778932Y-102068899D01*
X171599608Y-101850392D01*
X171381101Y-101671068D01*
X171248142Y-101600000D01*
X171381101Y-101528932D01*
X171599608Y-101349608D01*
X171778932Y-101131101D01*
X171912182Y-100881808D01*
X171994236Y-100611309D01*
X172021943Y-100330000D01*
X172008023Y-100188665D01*
X173825000Y-100188665D01*
X173825000Y-100471335D01*
X173880147Y-100748574D01*
X173988320Y-101009727D01*
X174145363Y-101244759D01*
X174345241Y-101444637D01*
X174580273Y-101601680D01*
X174624501Y-101620000D01*
X174580273Y-101638320D01*
X174345241Y-101795363D01*
X174145363Y-101995241D01*
X173988320Y-102230273D01*
X173880147Y-102491426D01*
X173825000Y-102768665D01*
X173825000Y-103051335D01*
X173880147Y-103328574D01*
X173988320Y-103589727D01*
X174145363Y-103824759D01*
X174345241Y-104024637D01*
X174547827Y-104160000D01*
X174345241Y-104295363D01*
X174145363Y-104495241D01*
X173988320Y-104730273D01*
X173880147Y-104991426D01*
X173825000Y-105268665D01*
X173825000Y-105551335D01*
X173880147Y-105828574D01*
X173988320Y-106089727D01*
X174145363Y-106324759D01*
X174345241Y-106524637D01*
X174580273Y-106681680D01*
X174841426Y-106789853D01*
X175118665Y-106845000D01*
X175401335Y-106845000D01*
X175678574Y-106789853D01*
X175939727Y-106681680D01*
X176174759Y-106524637D01*
X176374637Y-106324759D01*
X176531680Y-106089727D01*
X176639853Y-105828574D01*
X176653684Y-105759040D01*
X203078091Y-105759040D01*
X203172930Y-106023881D01*
X203317615Y-106265131D01*
X203506586Y-106473519D01*
X203732580Y-106641037D01*
X203986913Y-106761246D01*
X204120961Y-106801904D01*
X204343000Y-106679915D01*
X204343000Y-105537000D01*
X204597000Y-105537000D01*
X204597000Y-106679915D01*
X204819039Y-106801904D01*
X204953087Y-106761246D01*
X205207420Y-106641037D01*
X205433414Y-106473519D01*
X205622385Y-106265131D01*
X205767070Y-106023881D01*
X205861909Y-105759040D01*
X205740624Y-105537000D01*
X204597000Y-105537000D01*
X204343000Y-105537000D01*
X203199376Y-105537000D01*
X203078091Y-105759040D01*
X176653684Y-105759040D01*
X176695000Y-105551335D01*
X176695000Y-105268665D01*
X176653685Y-105060960D01*
X203078091Y-105060960D01*
X203199376Y-105283000D01*
X204343000Y-105283000D01*
X204343000Y-104140085D01*
X204597000Y-104140085D01*
X204597000Y-105283000D01*
X205740624Y-105283000D01*
X205748454Y-105268665D01*
X209385000Y-105268665D01*
X209385000Y-105551335D01*
X209440147Y-105828574D01*
X209548320Y-106089727D01*
X209705363Y-106324759D01*
X209905241Y-106524637D01*
X210140273Y-106681680D01*
X210401426Y-106789853D01*
X210678665Y-106845000D01*
X210961335Y-106845000D01*
X211238574Y-106789853D01*
X211499727Y-106681680D01*
X211734759Y-106524637D01*
X211934637Y-106324759D01*
X212091680Y-106089727D01*
X212199853Y-105828574D01*
X212255000Y-105551335D01*
X212255000Y-105268665D01*
X212199853Y-104991426D01*
X212091680Y-104730273D01*
X211934637Y-104495241D01*
X211734759Y-104295363D01*
X211499727Y-104138320D01*
X211238574Y-104030147D01*
X210961335Y-103975000D01*
X210678665Y-103975000D01*
X210401426Y-104030147D01*
X210140273Y-104138320D01*
X209905241Y-104295363D01*
X209705363Y-104495241D01*
X209548320Y-104730273D01*
X209440147Y-104991426D01*
X209385000Y-105268665D01*
X205748454Y-105268665D01*
X205861909Y-105060960D01*
X205767070Y-104796119D01*
X205622385Y-104554869D01*
X205433414Y-104346481D01*
X205207420Y-104178963D01*
X204953087Y-104058754D01*
X204819039Y-104018096D01*
X204597000Y-104140085D01*
X204343000Y-104140085D01*
X204120961Y-104018096D01*
X203986913Y-104058754D01*
X203732580Y-104178963D01*
X203506586Y-104346481D01*
X203317615Y-104554869D01*
X203172930Y-104796119D01*
X203078091Y-105060960D01*
X176653685Y-105060960D01*
X176639853Y-104991426D01*
X176531680Y-104730273D01*
X176374637Y-104495241D01*
X176174759Y-104295363D01*
X175972173Y-104160000D01*
X176174759Y-104024637D01*
X176374637Y-103824759D01*
X176531680Y-103589727D01*
X176639853Y-103328574D01*
X176695000Y-103051335D01*
X176695000Y-102768665D01*
X176639853Y-102491426D01*
X176531680Y-102230273D01*
X176374637Y-101995241D01*
X176174759Y-101795363D01*
X175939727Y-101638320D01*
X175895499Y-101620000D01*
X175939727Y-101601680D01*
X176153764Y-101458665D01*
X181445000Y-101458665D01*
X181445000Y-101741335D01*
X181500147Y-102018574D01*
X181608320Y-102279727D01*
X181765363Y-102514759D01*
X181965241Y-102714637D01*
X182200273Y-102871680D01*
X182461426Y-102979853D01*
X182738665Y-103035000D01*
X183021335Y-103035000D01*
X183298574Y-102979853D01*
X183559727Y-102871680D01*
X183794759Y-102714637D01*
X183994637Y-102514759D01*
X184151680Y-102279727D01*
X184259853Y-102018574D01*
X184315000Y-101741335D01*
X184315000Y-101600000D01*
X191598057Y-101600000D01*
X191625764Y-101881309D01*
X191707818Y-102151808D01*
X191841068Y-102401101D01*
X192020392Y-102619608D01*
X192238899Y-102798932D01*
X192488192Y-102932182D01*
X192758691Y-103014236D01*
X192969508Y-103035000D01*
X193110492Y-103035000D01*
X193321309Y-103014236D01*
X193591808Y-102932182D01*
X193841101Y-102798932D01*
X194059608Y-102619608D01*
X194114516Y-102552702D01*
X197306903Y-102552702D01*
X197378486Y-102796671D01*
X197633996Y-102917571D01*
X197908184Y-102986300D01*
X198190512Y-103000217D01*
X198470130Y-102958787D01*
X198736292Y-102863603D01*
X198861514Y-102796671D01*
X198933097Y-102552702D01*
X198120000Y-101739605D01*
X197306903Y-102552702D01*
X194114516Y-102552702D01*
X194238932Y-102401101D01*
X194372182Y-102151808D01*
X194454236Y-101881309D01*
X194478937Y-101630512D01*
X196679783Y-101630512D01*
X196721213Y-101910130D01*
X196816397Y-102176292D01*
X196883329Y-102301514D01*
X197127298Y-102373097D01*
X197940395Y-101560000D01*
X198299605Y-101560000D01*
X199112702Y-102373097D01*
X199356671Y-102301514D01*
X199477571Y-102046004D01*
X199546300Y-101771816D01*
X199560217Y-101489488D01*
X199518787Y-101209870D01*
X199423603Y-100943708D01*
X199356671Y-100818486D01*
X199112702Y-100746903D01*
X198299605Y-101560000D01*
X197940395Y-101560000D01*
X197127298Y-100746903D01*
X196883329Y-100818486D01*
X196762429Y-101073996D01*
X196693700Y-101348184D01*
X196679783Y-101630512D01*
X194478937Y-101630512D01*
X194481943Y-101600000D01*
X194454236Y-101318691D01*
X194372182Y-101048192D01*
X194238932Y-100798899D01*
X194059608Y-100580392D01*
X193841101Y-100401068D01*
X193591808Y-100267818D01*
X193321309Y-100185764D01*
X193110492Y-100165000D01*
X192969508Y-100165000D01*
X192758691Y-100185764D01*
X192488192Y-100267818D01*
X192238899Y-100401068D01*
X192020392Y-100580392D01*
X191841068Y-100798899D01*
X191707818Y-101048192D01*
X191625764Y-101318691D01*
X191598057Y-101600000D01*
X184315000Y-101600000D01*
X184315000Y-101458665D01*
X184259853Y-101181426D01*
X184151680Y-100920273D01*
X183994637Y-100685241D01*
X183794759Y-100485363D01*
X183559727Y-100328320D01*
X183298574Y-100220147D01*
X183021335Y-100165000D01*
X182738665Y-100165000D01*
X182461426Y-100220147D01*
X182200273Y-100328320D01*
X181965241Y-100485363D01*
X181765363Y-100685241D01*
X181608320Y-100920273D01*
X181500147Y-101181426D01*
X181445000Y-101458665D01*
X176153764Y-101458665D01*
X176174759Y-101444637D01*
X176374637Y-101244759D01*
X176531680Y-101009727D01*
X176639853Y-100748574D01*
X176695000Y-100471335D01*
X176695000Y-100188665D01*
X176639853Y-99911426D01*
X176531680Y-99650273D01*
X176374637Y-99415241D01*
X176174759Y-99215363D01*
X175974131Y-99081308D01*
X176001514Y-99066671D01*
X176044940Y-98918665D01*
X196685000Y-98918665D01*
X196685000Y-99201335D01*
X196740147Y-99478574D01*
X196848320Y-99739727D01*
X197005363Y-99974759D01*
X197205241Y-100174637D01*
X197405869Y-100308692D01*
X197378486Y-100323329D01*
X197306903Y-100567298D01*
X198120000Y-101380395D01*
X198933097Y-100567298D01*
X198861514Y-100323329D01*
X198832659Y-100309676D01*
X199034759Y-100174637D01*
X199234637Y-99974759D01*
X199391680Y-99739727D01*
X199499853Y-99478574D01*
X199555000Y-99201335D01*
X199555000Y-98918665D01*
X199499853Y-98641426D01*
X199391680Y-98380273D01*
X199234637Y-98145241D01*
X199034759Y-97945363D01*
X198799727Y-97788320D01*
X198538574Y-97680147D01*
X198261335Y-97625000D01*
X197978665Y-97625000D01*
X197701426Y-97680147D01*
X197440273Y-97788320D01*
X197205241Y-97945363D01*
X197005363Y-98145241D01*
X196848320Y-98380273D01*
X196740147Y-98641426D01*
X196685000Y-98918665D01*
X176044940Y-98918665D01*
X176073097Y-98822702D01*
X175260000Y-98009605D01*
X174446903Y-98822702D01*
X174518486Y-99066671D01*
X174547341Y-99080324D01*
X174345241Y-99215363D01*
X174145363Y-99415241D01*
X173988320Y-99650273D01*
X173880147Y-99911426D01*
X173825000Y-100188665D01*
X172008023Y-100188665D01*
X171994236Y-100048691D01*
X171912182Y-99778192D01*
X171778932Y-99528899D01*
X171599608Y-99310392D01*
X171381101Y-99131068D01*
X171253259Y-99062735D01*
X171482839Y-98912601D01*
X171684500Y-98714895D01*
X171843715Y-98481646D01*
X171954367Y-98221818D01*
X171971904Y-98139039D01*
X171849915Y-97917000D01*
X170307000Y-97917000D01*
X170307000Y-97937000D01*
X170053000Y-97937000D01*
X170053000Y-97917000D01*
X168510085Y-97917000D01*
X168388096Y-98139039D01*
X168405633Y-98221818D01*
X168516285Y-98481646D01*
X168675500Y-98714895D01*
X168877161Y-98912601D01*
X169106741Y-99062735D01*
X168978899Y-99131068D01*
X168760392Y-99310392D01*
X168581068Y-99528899D01*
X168447818Y-99778192D01*
X168365764Y-100048691D01*
X168338057Y-100330000D01*
X167505000Y-100330000D01*
X167505000Y-97900512D01*
X173819783Y-97900512D01*
X173861213Y-98180130D01*
X173956397Y-98446292D01*
X174023329Y-98571514D01*
X174267298Y-98643097D01*
X175080395Y-97830000D01*
X175439605Y-97830000D01*
X176252702Y-98643097D01*
X176496671Y-98571514D01*
X176617571Y-98316004D01*
X176686300Y-98041816D01*
X176700217Y-97759488D01*
X176658787Y-97479870D01*
X176563603Y-97213708D01*
X176496671Y-97088486D01*
X176252702Y-97016903D01*
X175439605Y-97830000D01*
X175080395Y-97830000D01*
X174267298Y-97016903D01*
X174023329Y-97088486D01*
X173902429Y-97343996D01*
X173833700Y-97618184D01*
X173819783Y-97900512D01*
X167505000Y-97900512D01*
X167505000Y-97440961D01*
X168388096Y-97440961D01*
X168510085Y-97663000D01*
X170053000Y-97663000D01*
X170053000Y-96355000D01*
X170307000Y-96355000D01*
X170307000Y-97663000D01*
X171849915Y-97663000D01*
X171971904Y-97440961D01*
X171954367Y-97358182D01*
X171843715Y-97098354D01*
X171684500Y-96865105D01*
X171656137Y-96837298D01*
X174446903Y-96837298D01*
X175260000Y-97650395D01*
X176073097Y-96837298D01*
X176001514Y-96593329D01*
X175746004Y-96472429D01*
X175471816Y-96403700D01*
X175189488Y-96389783D01*
X174909870Y-96431213D01*
X174643708Y-96526397D01*
X174518486Y-96593329D01*
X174446903Y-96837298D01*
X171656137Y-96837298D01*
X171482839Y-96667399D01*
X171246483Y-96512834D01*
X170984514Y-96407350D01*
X170707000Y-96355000D01*
X170307000Y-96355000D01*
X170053000Y-96355000D01*
X169653000Y-96355000D01*
X169375486Y-96407350D01*
X169113517Y-96512834D01*
X168877161Y-96667399D01*
X168675500Y-96865105D01*
X168516285Y-97098354D01*
X168405633Y-97358182D01*
X168388096Y-97440961D01*
X167505000Y-97440961D01*
X167505000Y-95599039D01*
X181488096Y-95599039D01*
X181528754Y-95733087D01*
X181648963Y-95987420D01*
X181816481Y-96213414D01*
X182024869Y-96402385D01*
X182266119Y-96547070D01*
X182530960Y-96641909D01*
X182753000Y-96520624D01*
X182753000Y-95377000D01*
X183007000Y-95377000D01*
X183007000Y-96520624D01*
X183229040Y-96641909D01*
X183493881Y-96547070D01*
X183735131Y-96402385D01*
X183943519Y-96213414D01*
X184111037Y-95987420D01*
X184231246Y-95733087D01*
X184271904Y-95599039D01*
X184149915Y-95377000D01*
X183007000Y-95377000D01*
X182753000Y-95377000D01*
X181610085Y-95377000D01*
X181488096Y-95599039D01*
X167505000Y-95599039D01*
X167505000Y-94900961D01*
X181488096Y-94900961D01*
X181610085Y-95123000D01*
X182753000Y-95123000D01*
X182753000Y-93979376D01*
X183007000Y-93979376D01*
X183007000Y-95123000D01*
X184149915Y-95123000D01*
X184157790Y-95108665D01*
X191605000Y-95108665D01*
X191605000Y-95391335D01*
X191660147Y-95668574D01*
X191768320Y-95929727D01*
X191925363Y-96164759D01*
X192125241Y-96364637D01*
X192360273Y-96521680D01*
X192621426Y-96629853D01*
X192898665Y-96685000D01*
X193181335Y-96685000D01*
X193458574Y-96629853D01*
X193719727Y-96521680D01*
X193954759Y-96364637D01*
X194154637Y-96164759D01*
X194311680Y-95929727D01*
X194419853Y-95668574D01*
X194475000Y-95391335D01*
X194475000Y-95108665D01*
X203035000Y-95108665D01*
X203035000Y-95391335D01*
X203090147Y-95668574D01*
X203198320Y-95929727D01*
X203355363Y-96164759D01*
X203555241Y-96364637D01*
X203790273Y-96521680D01*
X204051426Y-96629853D01*
X204328665Y-96685000D01*
X204611335Y-96685000D01*
X204888574Y-96629853D01*
X205149727Y-96521680D01*
X205384759Y-96364637D01*
X205584637Y-96164759D01*
X205741680Y-95929727D01*
X205849853Y-95668574D01*
X205905000Y-95391335D01*
X205905000Y-95250000D01*
X209378057Y-95250000D01*
X209405764Y-95531309D01*
X209487818Y-95801808D01*
X209621068Y-96051101D01*
X209800392Y-96269608D01*
X210018899Y-96448932D01*
X210268192Y-96582182D01*
X210538691Y-96664236D01*
X210749508Y-96685000D01*
X210890492Y-96685000D01*
X211101309Y-96664236D01*
X211371808Y-96582182D01*
X211621101Y-96448932D01*
X211839608Y-96269608D01*
X212018932Y-96051101D01*
X212152182Y-95801808D01*
X212234236Y-95531309D01*
X212261943Y-95250000D01*
X212234236Y-94968691D01*
X212152182Y-94698192D01*
X212018932Y-94448899D01*
X211839608Y-94230392D01*
X211621101Y-94051068D01*
X211371808Y-93917818D01*
X211101309Y-93835764D01*
X210890492Y-93815000D01*
X210749508Y-93815000D01*
X210538691Y-93835764D01*
X210268192Y-93917818D01*
X210018899Y-94051068D01*
X209800392Y-94230392D01*
X209621068Y-94448899D01*
X209487818Y-94698192D01*
X209405764Y-94968691D01*
X209378057Y-95250000D01*
X205905000Y-95250000D01*
X205905000Y-95108665D01*
X205849853Y-94831426D01*
X205741680Y-94570273D01*
X205584637Y-94335241D01*
X205384759Y-94135363D01*
X205149727Y-93978320D01*
X204888574Y-93870147D01*
X204611335Y-93815000D01*
X204328665Y-93815000D01*
X204051426Y-93870147D01*
X203790273Y-93978320D01*
X203555241Y-94135363D01*
X203355363Y-94335241D01*
X203198320Y-94570273D01*
X203090147Y-94831426D01*
X203035000Y-95108665D01*
X194475000Y-95108665D01*
X194419853Y-94831426D01*
X194311680Y-94570273D01*
X194154637Y-94335241D01*
X193954759Y-94135363D01*
X193719727Y-93978320D01*
X193458574Y-93870147D01*
X193181335Y-93815000D01*
X192898665Y-93815000D01*
X192621426Y-93870147D01*
X192360273Y-93978320D01*
X192125241Y-94135363D01*
X191925363Y-94335241D01*
X191768320Y-94570273D01*
X191660147Y-94831426D01*
X191605000Y-95108665D01*
X184157790Y-95108665D01*
X184271904Y-94900961D01*
X184231246Y-94766913D01*
X184111037Y-94512580D01*
X183943519Y-94286586D01*
X183735131Y-94097615D01*
X183493881Y-93952930D01*
X183229040Y-93858091D01*
X183007000Y-93979376D01*
X182753000Y-93979376D01*
X182530960Y-93858091D01*
X182266119Y-93952930D01*
X182024869Y-94097615D01*
X181816481Y-94286586D01*
X181648963Y-94512580D01*
X181528754Y-94766913D01*
X181488096Y-94900961D01*
X167505000Y-94900961D01*
X167505000Y-94450131D01*
X171627282Y-90327850D01*
X171868574Y-90279853D01*
X172129727Y-90171680D01*
X172364759Y-90014637D01*
X172564637Y-89814759D01*
X172721680Y-89579727D01*
X172829853Y-89318574D01*
X172885000Y-89041335D01*
X172885000Y-88758665D01*
X172829853Y-88481426D01*
X172721680Y-88220273D01*
X172607908Y-88050000D01*
X209331928Y-88050000D01*
X209331928Y-89750000D01*
X209344188Y-89874482D01*
X209380498Y-89994180D01*
X209439463Y-90104494D01*
X209518815Y-90201185D01*
X209615506Y-90280537D01*
X209725820Y-90339502D01*
X209845518Y-90375812D01*
X209970000Y-90388072D01*
X211670000Y-90388072D01*
X211794482Y-90375812D01*
X211914180Y-90339502D01*
X212024494Y-90280537D01*
X212121185Y-90201185D01*
X212200537Y-90104494D01*
X212259502Y-89994180D01*
X212295812Y-89874482D01*
X212308072Y-89750000D01*
X212308072Y-88050000D01*
X212295812Y-87925518D01*
X212259502Y-87805820D01*
X212200537Y-87695506D01*
X212121185Y-87598815D01*
X212024494Y-87519463D01*
X211914180Y-87460498D01*
X211833534Y-87436034D01*
X211917588Y-87360269D01*
X212091641Y-87126920D01*
X212216825Y-86864099D01*
X212261476Y-86716890D01*
X212140155Y-86487000D01*
X210947000Y-86487000D01*
X210947000Y-86507000D01*
X210693000Y-86507000D01*
X210693000Y-86487000D01*
X209499845Y-86487000D01*
X209378524Y-86716890D01*
X209423175Y-86864099D01*
X209548359Y-87126920D01*
X209722412Y-87360269D01*
X209806466Y-87436034D01*
X209725820Y-87460498D01*
X209615506Y-87519463D01*
X209518815Y-87598815D01*
X209439463Y-87695506D01*
X209380498Y-87805820D01*
X209344188Y-87925518D01*
X209331928Y-88050000D01*
X172607908Y-88050000D01*
X172564637Y-87985241D01*
X172364759Y-87785363D01*
X172164131Y-87651308D01*
X172191514Y-87636671D01*
X172263097Y-87392702D01*
X171450000Y-86579605D01*
X170636903Y-87392702D01*
X170708486Y-87636671D01*
X170737341Y-87650324D01*
X170616320Y-87731188D01*
X169355644Y-86470512D01*
X170009783Y-86470512D01*
X170051213Y-86750130D01*
X170146397Y-87016292D01*
X170213329Y-87141514D01*
X170457298Y-87213097D01*
X171270395Y-86400000D01*
X171629605Y-86400000D01*
X172442702Y-87213097D01*
X172686671Y-87141514D01*
X172807571Y-86886004D01*
X172876300Y-86611816D01*
X172890217Y-86329488D01*
X172848787Y-86049870D01*
X172832065Y-86003110D01*
X209378524Y-86003110D01*
X209499845Y-86233000D01*
X210693000Y-86233000D01*
X210693000Y-85039186D01*
X210947000Y-85039186D01*
X210947000Y-86233000D01*
X212140155Y-86233000D01*
X212261476Y-86003110D01*
X212216825Y-85855901D01*
X212091641Y-85593080D01*
X211917588Y-85359731D01*
X211701355Y-85164822D01*
X211451252Y-85015843D01*
X211176891Y-84918519D01*
X210947000Y-85039186D01*
X210693000Y-85039186D01*
X210463109Y-84918519D01*
X210188748Y-85015843D01*
X209938645Y-85164822D01*
X209722412Y-85359731D01*
X209548359Y-85593080D01*
X209423175Y-85855901D01*
X209378524Y-86003110D01*
X172832065Y-86003110D01*
X172753603Y-85783708D01*
X172686671Y-85658486D01*
X172442702Y-85586903D01*
X171629605Y-86400000D01*
X171270395Y-86400000D01*
X170457298Y-85586903D01*
X170213329Y-85658486D01*
X170092429Y-85913996D01*
X170023700Y-86188184D01*
X170009783Y-86470512D01*
X169355644Y-86470512D01*
X168775000Y-85889869D01*
X168775000Y-85407298D01*
X170636903Y-85407298D01*
X171450000Y-86220395D01*
X172263097Y-85407298D01*
X172191514Y-85163329D01*
X171936004Y-85042429D01*
X171661816Y-84973700D01*
X171379488Y-84959783D01*
X171099870Y-85001213D01*
X170833708Y-85096397D01*
X170708486Y-85163329D01*
X170636903Y-85407298D01*
X168775000Y-85407298D01*
X168775000Y-78501596D01*
X168978899Y-78668932D01*
X169228192Y-78802182D01*
X169498691Y-78884236D01*
X169709508Y-78905000D01*
X170650492Y-78905000D01*
X170861309Y-78884236D01*
X171131808Y-78802182D01*
X171381101Y-78668932D01*
X171466721Y-78598665D01*
X173825000Y-78598665D01*
X173825000Y-78881335D01*
X173880147Y-79158574D01*
X173988320Y-79419727D01*
X174145363Y-79654759D01*
X174345241Y-79854637D01*
X174580273Y-80011680D01*
X174841426Y-80119853D01*
X175118665Y-80175000D01*
X175401335Y-80175000D01*
X175678574Y-80119853D01*
X175939727Y-80011680D01*
X176174759Y-79854637D01*
X176374637Y-79654759D01*
X176531680Y-79419727D01*
X176639853Y-79158574D01*
X176695000Y-78881335D01*
X176695000Y-78740000D01*
X180168057Y-78740000D01*
X180195764Y-79021309D01*
X180277818Y-79291808D01*
X180411068Y-79541101D01*
X180590392Y-79759608D01*
X180808899Y-79938932D01*
X181058192Y-80072182D01*
X181328691Y-80154236D01*
X181539508Y-80175000D01*
X181680492Y-80175000D01*
X181891309Y-80154236D01*
X182161808Y-80072182D01*
X182411101Y-79938932D01*
X182629608Y-79759608D01*
X182808932Y-79541101D01*
X182942182Y-79291808D01*
X183024236Y-79021309D01*
X183051943Y-78740000D01*
X183038023Y-78598665D01*
X192875000Y-78598665D01*
X192875000Y-78881335D01*
X192930147Y-79158574D01*
X193038320Y-79419727D01*
X193195363Y-79654759D01*
X193395241Y-79854637D01*
X193630273Y-80011680D01*
X193891426Y-80119853D01*
X194168665Y-80175000D01*
X194451335Y-80175000D01*
X194728574Y-80119853D01*
X194989727Y-80011680D01*
X195224759Y-79854637D01*
X195424637Y-79654759D01*
X195581680Y-79419727D01*
X195689853Y-79158574D01*
X195745000Y-78881335D01*
X195745000Y-78740000D01*
X199218057Y-78740000D01*
X199245764Y-79021309D01*
X199327818Y-79291808D01*
X199461068Y-79541101D01*
X199640392Y-79759608D01*
X199858899Y-79938932D01*
X200108192Y-80072182D01*
X200378691Y-80154236D01*
X200589508Y-80175000D01*
X200730492Y-80175000D01*
X200941309Y-80154236D01*
X201211808Y-80072182D01*
X201461101Y-79938932D01*
X201679608Y-79759608D01*
X201858932Y-79541101D01*
X201992182Y-79291808D01*
X202074236Y-79021309D01*
X202101943Y-78740000D01*
X202074236Y-78458691D01*
X201992182Y-78188192D01*
X201858932Y-77938899D01*
X201679608Y-77720392D01*
X201461101Y-77541068D01*
X201211808Y-77407818D01*
X200941309Y-77325764D01*
X200730492Y-77305000D01*
X200589508Y-77305000D01*
X200378691Y-77325764D01*
X200108192Y-77407818D01*
X199858899Y-77541068D01*
X199640392Y-77720392D01*
X199461068Y-77938899D01*
X199327818Y-78188192D01*
X199245764Y-78458691D01*
X199218057Y-78740000D01*
X195745000Y-78740000D01*
X195745000Y-78598665D01*
X195689853Y-78321426D01*
X195581680Y-78060273D01*
X195424637Y-77825241D01*
X195224759Y-77625363D01*
X194989727Y-77468320D01*
X194728574Y-77360147D01*
X194451335Y-77305000D01*
X194168665Y-77305000D01*
X193891426Y-77360147D01*
X193630273Y-77468320D01*
X193395241Y-77625363D01*
X193195363Y-77825241D01*
X193038320Y-78060273D01*
X192930147Y-78321426D01*
X192875000Y-78598665D01*
X183038023Y-78598665D01*
X183024236Y-78458691D01*
X182942182Y-78188192D01*
X182808932Y-77938899D01*
X182629608Y-77720392D01*
X182411101Y-77541068D01*
X182161808Y-77407818D01*
X181891309Y-77325764D01*
X181680492Y-77305000D01*
X181539508Y-77305000D01*
X181328691Y-77325764D01*
X181058192Y-77407818D01*
X180808899Y-77541068D01*
X180590392Y-77720392D01*
X180411068Y-77938899D01*
X180277818Y-78188192D01*
X180195764Y-78458691D01*
X180168057Y-78740000D01*
X176695000Y-78740000D01*
X176695000Y-78598665D01*
X176639853Y-78321426D01*
X176531680Y-78060273D01*
X176374637Y-77825241D01*
X176174759Y-77625363D01*
X175939727Y-77468320D01*
X175678574Y-77360147D01*
X175401335Y-77305000D01*
X175118665Y-77305000D01*
X174841426Y-77360147D01*
X174580273Y-77468320D01*
X174345241Y-77625363D01*
X174145363Y-77825241D01*
X173988320Y-78060273D01*
X173880147Y-78321426D01*
X173825000Y-78598665D01*
X171466721Y-78598665D01*
X171599608Y-78489608D01*
X171778932Y-78271101D01*
X171912182Y-78021808D01*
X171994236Y-77751309D01*
X172021943Y-77470000D01*
X171994236Y-77188691D01*
X171912182Y-76918192D01*
X171778932Y-76668899D01*
X171599608Y-76450392D01*
X171381101Y-76271068D01*
X171248142Y-76200000D01*
X171381101Y-76128932D01*
X171599608Y-75949608D01*
X171778932Y-75731101D01*
X171912182Y-75481808D01*
X171994236Y-75211309D01*
X172021943Y-74930000D01*
X172008023Y-74788665D01*
X186525000Y-74788665D01*
X186525000Y-75071335D01*
X186580147Y-75348574D01*
X186688320Y-75609727D01*
X186845363Y-75844759D01*
X187045241Y-76044637D01*
X187280273Y-76201680D01*
X187541426Y-76309853D01*
X187818665Y-76365000D01*
X188101335Y-76365000D01*
X188378574Y-76309853D01*
X188639727Y-76201680D01*
X188874759Y-76044637D01*
X189074637Y-75844759D01*
X189231680Y-75609727D01*
X189339853Y-75348574D01*
X189395000Y-75071335D01*
X189395000Y-74788665D01*
X189339853Y-74511426D01*
X189231680Y-74250273D01*
X189117908Y-74080000D01*
X209331928Y-74080000D01*
X209331928Y-75780000D01*
X209344188Y-75904482D01*
X209380498Y-76024180D01*
X209439463Y-76134494D01*
X209518815Y-76231185D01*
X209615506Y-76310537D01*
X209725820Y-76369502D01*
X209845518Y-76405812D01*
X209970000Y-76418072D01*
X211670000Y-76418072D01*
X211794482Y-76405812D01*
X211914180Y-76369502D01*
X212024494Y-76310537D01*
X212121185Y-76231185D01*
X212200537Y-76134494D01*
X212259502Y-76024180D01*
X212295812Y-75904482D01*
X212308072Y-75780000D01*
X212308072Y-74080000D01*
X212295812Y-73955518D01*
X212259502Y-73835820D01*
X212200537Y-73725506D01*
X212121185Y-73628815D01*
X212024494Y-73549463D01*
X211914180Y-73490498D01*
X211833534Y-73466034D01*
X211917588Y-73390269D01*
X212091641Y-73156920D01*
X212216825Y-72894099D01*
X212261476Y-72746890D01*
X212140155Y-72517000D01*
X210947000Y-72517000D01*
X210947000Y-72537000D01*
X210693000Y-72537000D01*
X210693000Y-72517000D01*
X209499845Y-72517000D01*
X209378524Y-72746890D01*
X209423175Y-72894099D01*
X209548359Y-73156920D01*
X209722412Y-73390269D01*
X209806466Y-73466034D01*
X209725820Y-73490498D01*
X209615506Y-73549463D01*
X209518815Y-73628815D01*
X209439463Y-73725506D01*
X209380498Y-73835820D01*
X209344188Y-73955518D01*
X209331928Y-74080000D01*
X189117908Y-74080000D01*
X189074637Y-74015241D01*
X188874759Y-73815363D01*
X188674131Y-73681308D01*
X188701514Y-73666671D01*
X188773097Y-73422702D01*
X187960000Y-72609605D01*
X187146903Y-73422702D01*
X187218486Y-73666671D01*
X187247341Y-73680324D01*
X187045241Y-73815363D01*
X186845363Y-74015241D01*
X186688320Y-74250273D01*
X186580147Y-74511426D01*
X186525000Y-74788665D01*
X172008023Y-74788665D01*
X171994236Y-74648691D01*
X171912182Y-74378192D01*
X171778932Y-74128899D01*
X171599608Y-73910392D01*
X171381101Y-73731068D01*
X171248142Y-73660000D01*
X171381101Y-73588932D01*
X171599608Y-73409608D01*
X171778932Y-73191101D01*
X171912182Y-72941808D01*
X171994236Y-72671309D01*
X172011058Y-72500512D01*
X186519783Y-72500512D01*
X186561213Y-72780130D01*
X186656397Y-73046292D01*
X186723329Y-73171514D01*
X186967298Y-73243097D01*
X187780395Y-72430000D01*
X188139605Y-72430000D01*
X188952702Y-73243097D01*
X189196671Y-73171514D01*
X189317571Y-72916004D01*
X189386300Y-72641816D01*
X189400217Y-72359488D01*
X189358787Y-72079870D01*
X189342065Y-72033110D01*
X209378524Y-72033110D01*
X209499845Y-72263000D01*
X210693000Y-72263000D01*
X210693000Y-71069186D01*
X210947000Y-71069186D01*
X210947000Y-72263000D01*
X212140155Y-72263000D01*
X212261476Y-72033110D01*
X212216825Y-71885901D01*
X212091641Y-71623080D01*
X211917588Y-71389731D01*
X211701355Y-71194822D01*
X211451252Y-71045843D01*
X211176891Y-70948519D01*
X210947000Y-71069186D01*
X210693000Y-71069186D01*
X210463109Y-70948519D01*
X210188748Y-71045843D01*
X209938645Y-71194822D01*
X209722412Y-71389731D01*
X209548359Y-71623080D01*
X209423175Y-71885901D01*
X209378524Y-72033110D01*
X189342065Y-72033110D01*
X189263603Y-71813708D01*
X189196671Y-71688486D01*
X188952702Y-71616903D01*
X188139605Y-72430000D01*
X187780395Y-72430000D01*
X186967298Y-71616903D01*
X186723329Y-71688486D01*
X186602429Y-71943996D01*
X186533700Y-72218184D01*
X186519783Y-72500512D01*
X172011058Y-72500512D01*
X172021943Y-72390000D01*
X171994236Y-72108691D01*
X171912182Y-71838192D01*
X171778932Y-71588899D01*
X171654517Y-71437298D01*
X187146903Y-71437298D01*
X187960000Y-72250395D01*
X188773097Y-71437298D01*
X188701514Y-71193329D01*
X188446004Y-71072429D01*
X188171816Y-71003700D01*
X187889488Y-70989783D01*
X187609870Y-71031213D01*
X187343708Y-71126397D01*
X187218486Y-71193329D01*
X187146903Y-71437298D01*
X171654517Y-71437298D01*
X171599608Y-71370392D01*
X171381101Y-71191068D01*
X171248142Y-71120000D01*
X171381101Y-71048932D01*
X171599608Y-70869608D01*
X171778932Y-70651101D01*
X171912182Y-70401808D01*
X171994236Y-70131309D01*
X172021943Y-69850000D01*
X171994236Y-69568691D01*
X171912182Y-69298192D01*
X171778932Y-69048899D01*
X171599608Y-68830392D01*
X171381101Y-68651068D01*
X171248143Y-68580000D01*
X173818057Y-68580000D01*
X173845764Y-68861309D01*
X173927818Y-69131808D01*
X174061068Y-69381101D01*
X174240392Y-69599608D01*
X174458899Y-69778932D01*
X174708192Y-69912182D01*
X174978691Y-69994236D01*
X175189508Y-70015000D01*
X175330492Y-70015000D01*
X175541309Y-69994236D01*
X175811808Y-69912182D01*
X176061101Y-69778932D01*
X176279608Y-69599608D01*
X176301689Y-69572702D01*
X180796903Y-69572702D01*
X180868486Y-69816671D01*
X181123996Y-69937571D01*
X181398184Y-70006300D01*
X181680512Y-70020217D01*
X181960130Y-69978787D01*
X182226292Y-69883603D01*
X182351514Y-69816671D01*
X182423097Y-69572702D01*
X181610000Y-68759605D01*
X180796903Y-69572702D01*
X176301689Y-69572702D01*
X176458932Y-69381101D01*
X176592182Y-69131808D01*
X176674236Y-68861309D01*
X176694998Y-68650512D01*
X180169783Y-68650512D01*
X180211213Y-68930130D01*
X180306397Y-69196292D01*
X180373329Y-69321514D01*
X180617298Y-69393097D01*
X181430395Y-68580000D01*
X181789605Y-68580000D01*
X182602702Y-69393097D01*
X182846671Y-69321514D01*
X182967571Y-69066004D01*
X183001902Y-68929040D01*
X192918091Y-68929040D01*
X193012930Y-69193881D01*
X193157615Y-69435131D01*
X193346586Y-69643519D01*
X193572580Y-69811037D01*
X193826913Y-69931246D01*
X193960961Y-69971904D01*
X194183000Y-69849915D01*
X194183000Y-68707000D01*
X194437000Y-68707000D01*
X194437000Y-69849915D01*
X194659039Y-69971904D01*
X194793087Y-69931246D01*
X195047420Y-69811037D01*
X195273414Y-69643519D01*
X195462385Y-69435131D01*
X195607070Y-69193881D01*
X195701909Y-68929040D01*
X195580624Y-68707000D01*
X194437000Y-68707000D01*
X194183000Y-68707000D01*
X193039376Y-68707000D01*
X192918091Y-68929040D01*
X183001902Y-68929040D01*
X183036300Y-68791816D01*
X183050217Y-68509488D01*
X183008949Y-68230960D01*
X192918091Y-68230960D01*
X193039376Y-68453000D01*
X194183000Y-68453000D01*
X194183000Y-67310085D01*
X194437000Y-67310085D01*
X194437000Y-68453000D01*
X195580624Y-68453000D01*
X195588454Y-68438665D01*
X199225000Y-68438665D01*
X199225000Y-68721335D01*
X199280147Y-68998574D01*
X199388320Y-69259727D01*
X199545363Y-69494759D01*
X199745241Y-69694637D01*
X199980273Y-69851680D01*
X200241426Y-69959853D01*
X200518665Y-70015000D01*
X200801335Y-70015000D01*
X201078574Y-69959853D01*
X201339727Y-69851680D01*
X201574759Y-69694637D01*
X201774637Y-69494759D01*
X201931680Y-69259727D01*
X202039853Y-68998574D01*
X202095000Y-68721335D01*
X202095000Y-68438665D01*
X202039853Y-68161426D01*
X201931680Y-67900273D01*
X201774637Y-67665241D01*
X201574759Y-67465363D01*
X201339727Y-67308320D01*
X201078574Y-67200147D01*
X200801335Y-67145000D01*
X200518665Y-67145000D01*
X200241426Y-67200147D01*
X199980273Y-67308320D01*
X199745241Y-67465363D01*
X199545363Y-67665241D01*
X199388320Y-67900273D01*
X199280147Y-68161426D01*
X199225000Y-68438665D01*
X195588454Y-68438665D01*
X195701909Y-68230960D01*
X195607070Y-67966119D01*
X195462385Y-67724869D01*
X195273414Y-67516481D01*
X195047420Y-67348963D01*
X194793087Y-67228754D01*
X194659039Y-67188096D01*
X194437000Y-67310085D01*
X194183000Y-67310085D01*
X193960961Y-67188096D01*
X193826913Y-67228754D01*
X193572580Y-67348963D01*
X193346586Y-67516481D01*
X193157615Y-67724869D01*
X193012930Y-67966119D01*
X192918091Y-68230960D01*
X183008949Y-68230960D01*
X183008787Y-68229870D01*
X182913603Y-67963708D01*
X182846671Y-67838486D01*
X182602702Y-67766903D01*
X181789605Y-68580000D01*
X181430395Y-68580000D01*
X180617298Y-67766903D01*
X180373329Y-67838486D01*
X180252429Y-68093996D01*
X180183700Y-68368184D01*
X180169783Y-68650512D01*
X176694998Y-68650512D01*
X176701943Y-68580000D01*
X176674236Y-68298691D01*
X176592182Y-68028192D01*
X176458932Y-67778899D01*
X176301690Y-67587298D01*
X180796903Y-67587298D01*
X181610000Y-68400395D01*
X182423097Y-67587298D01*
X182351514Y-67343329D01*
X182096004Y-67222429D01*
X181821816Y-67153700D01*
X181539488Y-67139783D01*
X181259870Y-67181213D01*
X180993708Y-67276397D01*
X180868486Y-67343329D01*
X180796903Y-67587298D01*
X176301690Y-67587298D01*
X176279608Y-67560392D01*
X176061101Y-67381068D01*
X175811808Y-67247818D01*
X175541309Y-67165764D01*
X175330492Y-67145000D01*
X175189508Y-67145000D01*
X174978691Y-67165764D01*
X174708192Y-67247818D01*
X174458899Y-67381068D01*
X174240392Y-67560392D01*
X174061068Y-67778899D01*
X173927818Y-68028192D01*
X173845764Y-68298691D01*
X173818057Y-68580000D01*
X171248143Y-68580000D01*
X171131808Y-68517818D01*
X170861309Y-68435764D01*
X170650492Y-68415000D01*
X169709508Y-68415000D01*
X169498691Y-68435764D01*
X169228192Y-68517818D01*
X168978899Y-68651068D01*
X168760392Y-68830392D01*
X168581068Y-69048899D01*
X168447818Y-69298192D01*
X168365764Y-69568691D01*
X168355886Y-69668982D01*
X166876860Y-71148009D01*
X166833552Y-71183551D01*
X166691717Y-71356377D01*
X166684226Y-71370392D01*
X166586324Y-71553554D01*
X166521423Y-71767502D01*
X166499509Y-71990000D01*
X166505001Y-72045761D01*
X166505000Y-86304249D01*
X166499509Y-86360000D01*
X166505000Y-86415751D01*
X166521423Y-86582498D01*
X166586324Y-86796446D01*
X166691716Y-86993623D01*
X166833551Y-87166449D01*
X166876865Y-87201996D01*
X169209868Y-89535000D01*
X165606860Y-93138009D01*
X165563552Y-93173551D01*
X165421717Y-93346377D01*
X165365384Y-93451770D01*
X165316324Y-93543554D01*
X165251423Y-93757502D01*
X165229509Y-93980000D01*
X165235001Y-94035761D01*
X165235000Y-103329868D01*
X164289869Y-104275000D01*
X163839002Y-104275000D01*
X163761101Y-104211068D01*
X163628142Y-104140000D01*
X163761101Y-104068932D01*
X163979608Y-103889608D01*
X164158932Y-103671101D01*
X164292182Y-103421808D01*
X164374236Y-103151309D01*
X164401943Y-102870000D01*
X164374236Y-102588691D01*
X164292182Y-102318192D01*
X164158932Y-102068899D01*
X163979608Y-101850392D01*
X163761101Y-101671068D01*
X163628142Y-101600000D01*
X163761101Y-101528932D01*
X163979608Y-101349608D01*
X164158932Y-101131101D01*
X164292182Y-100881808D01*
X164374236Y-100611309D01*
X164401943Y-100330000D01*
X164374236Y-100048691D01*
X164292182Y-99778192D01*
X164158932Y-99528899D01*
X163979608Y-99310392D01*
X163761101Y-99131068D01*
X163628142Y-99060000D01*
X163761101Y-98988932D01*
X163979608Y-98809608D01*
X164158932Y-98591101D01*
X164292182Y-98341808D01*
X164374236Y-98071309D01*
X164401943Y-97790000D01*
X164374236Y-97508691D01*
X164292182Y-97238192D01*
X164158932Y-96988899D01*
X163979608Y-96770392D01*
X163761101Y-96591068D01*
X163511808Y-96457818D01*
X163241309Y-96375764D01*
X163030492Y-96355000D01*
X162089508Y-96355000D01*
X161878691Y-96375764D01*
X161608192Y-96457818D01*
X161358899Y-96591068D01*
X161140392Y-96770392D01*
X160961068Y-96988899D01*
X160827818Y-97238192D01*
X160745764Y-97508691D01*
X160718057Y-97790000D01*
X158162241Y-97790000D01*
X158394759Y-97634637D01*
X158594637Y-97434759D01*
X158751680Y-97199727D01*
X158859853Y-96938574D01*
X158915000Y-96661335D01*
X158915000Y-96378665D01*
X158859853Y-96101426D01*
X158751680Y-95840273D01*
X158594637Y-95605241D01*
X158394759Y-95405363D01*
X158159727Y-95248320D01*
X157898574Y-95140147D01*
X157621335Y-95085000D01*
X157338665Y-95085000D01*
X157061426Y-95140147D01*
X156800273Y-95248320D01*
X156565241Y-95405363D01*
X156365363Y-95605241D01*
X156208320Y-95840273D01*
X156100147Y-96101426D01*
X156045000Y-96378665D01*
X152558023Y-96378665D01*
X152544236Y-96238691D01*
X152462182Y-95968192D01*
X152328932Y-95718899D01*
X152149608Y-95500392D01*
X151931101Y-95321068D01*
X151681808Y-95187818D01*
X151411309Y-95105764D01*
X151200492Y-95085000D01*
X151059508Y-95085000D01*
X150848691Y-95105764D01*
X150578192Y-95187818D01*
X150328899Y-95321068D01*
X150110392Y-95500392D01*
X149931068Y-95718899D01*
X149797818Y-95968192D01*
X149715764Y-96238691D01*
X149688057Y-96520000D01*
X122138072Y-96520000D01*
X122138072Y-95670000D01*
X122125812Y-95545518D01*
X122089502Y-95425820D01*
X122030537Y-95315506D01*
X121951185Y-95218815D01*
X121854494Y-95139463D01*
X121744180Y-95080498D01*
X121624482Y-95044188D01*
X121500000Y-95031928D01*
X119800000Y-95031928D01*
X119675518Y-95044188D01*
X119555820Y-95080498D01*
X119445506Y-95139463D01*
X119348815Y-95218815D01*
X119269463Y-95315506D01*
X119210498Y-95425820D01*
X119174188Y-95545518D01*
X119161928Y-95670000D01*
X115697000Y-95670000D01*
X115697000Y-89170000D01*
X159651928Y-89170000D01*
X159651928Y-91170000D01*
X159664188Y-91294482D01*
X159700498Y-91414180D01*
X159759463Y-91524494D01*
X159838815Y-91621185D01*
X159935506Y-91700537D01*
X160045820Y-91759502D01*
X160165518Y-91795812D01*
X160290000Y-91808072D01*
X162290000Y-91808072D01*
X162414482Y-91795812D01*
X162534180Y-91759502D01*
X162644494Y-91700537D01*
X162741185Y-91621185D01*
X162820537Y-91524494D01*
X162879502Y-91414180D01*
X162915812Y-91294482D01*
X162928072Y-91170000D01*
X162928072Y-89170000D01*
X162915812Y-89045518D01*
X162879502Y-88925820D01*
X162820537Y-88815506D01*
X162741185Y-88718815D01*
X162644494Y-88639463D01*
X162534180Y-88580498D01*
X162414482Y-88544188D01*
X162290000Y-88531928D01*
X160290000Y-88531928D01*
X160165518Y-88544188D01*
X160045820Y-88580498D01*
X159935506Y-88639463D01*
X159838815Y-88718815D01*
X159759463Y-88815506D01*
X159700498Y-88925820D01*
X159664188Y-89045518D01*
X159651928Y-89170000D01*
X115697000Y-89170000D01*
X115697000Y-86305413D01*
X160334192Y-86305413D01*
X160429956Y-86569814D01*
X160719571Y-86710704D01*
X161031108Y-86792384D01*
X161352595Y-86811718D01*
X161671675Y-86767961D01*
X161976088Y-86662795D01*
X162150044Y-86569814D01*
X162245808Y-86305413D01*
X161290000Y-85349605D01*
X160334192Y-86305413D01*
X115697000Y-86305413D01*
X115697000Y-85232595D01*
X159648282Y-85232595D01*
X159692039Y-85551675D01*
X159797205Y-85856088D01*
X159890186Y-86030044D01*
X160154587Y-86125808D01*
X161110395Y-85170000D01*
X161469605Y-85170000D01*
X162425413Y-86125808D01*
X162689814Y-86030044D01*
X162830704Y-85740429D01*
X162912384Y-85428892D01*
X162931718Y-85107405D01*
X162887961Y-84788325D01*
X162782795Y-84483912D01*
X162689814Y-84309956D01*
X162425413Y-84214192D01*
X161469605Y-85170000D01*
X161110395Y-85170000D01*
X160154587Y-84214192D01*
X159890186Y-84309956D01*
X159749296Y-84599571D01*
X159667616Y-84911108D01*
X159648282Y-85232595D01*
X115697000Y-85232595D01*
X115697000Y-84034587D01*
X160334192Y-84034587D01*
X161290000Y-84990395D01*
X162245808Y-84034587D01*
X162150044Y-83770186D01*
X161860429Y-83629296D01*
X161548892Y-83547616D01*
X161227405Y-83528282D01*
X160908325Y-83572039D01*
X160603912Y-83677205D01*
X160429956Y-83770186D01*
X160334192Y-84034587D01*
X115697000Y-84034587D01*
X115697000Y-81636890D01*
X119208524Y-81636890D01*
X119253175Y-81784099D01*
X119378359Y-82046920D01*
X119552412Y-82280269D01*
X119768645Y-82475178D01*
X120018748Y-82624157D01*
X120293109Y-82721481D01*
X120523000Y-82600814D01*
X120523000Y-81407000D01*
X120777000Y-81407000D01*
X120777000Y-82600814D01*
X121006891Y-82721481D01*
X121281252Y-82624157D01*
X121531355Y-82475178D01*
X121747588Y-82280269D01*
X121921641Y-82046920D01*
X122046825Y-81784099D01*
X122091476Y-81636890D01*
X121970155Y-81407000D01*
X120777000Y-81407000D01*
X120523000Y-81407000D01*
X119329845Y-81407000D01*
X119208524Y-81636890D01*
X115697000Y-81636890D01*
X115697000Y-77890000D01*
X119161928Y-77890000D01*
X119161928Y-79590000D01*
X119174188Y-79714482D01*
X119210498Y-79834180D01*
X119269463Y-79944494D01*
X119348815Y-80041185D01*
X119445506Y-80120537D01*
X119555820Y-80179502D01*
X119636466Y-80203966D01*
X119552412Y-80279731D01*
X119378359Y-80513080D01*
X119253175Y-80775901D01*
X119208524Y-80923110D01*
X119329845Y-81153000D01*
X120523000Y-81153000D01*
X120523000Y-81133000D01*
X120777000Y-81133000D01*
X120777000Y-81153000D01*
X121970155Y-81153000D01*
X121977720Y-81138665D01*
X140805000Y-81138665D01*
X140805000Y-81421335D01*
X140860147Y-81698574D01*
X140968320Y-81959727D01*
X141125363Y-82194759D01*
X141325241Y-82394637D01*
X141560273Y-82551680D01*
X141821426Y-82659853D01*
X142098665Y-82715000D01*
X142381335Y-82715000D01*
X142658574Y-82659853D01*
X142919727Y-82551680D01*
X143154759Y-82394637D01*
X143354637Y-82194759D01*
X143511680Y-81959727D01*
X143619853Y-81698574D01*
X143633684Y-81629039D01*
X151008096Y-81629039D01*
X151048754Y-81763087D01*
X151168963Y-82017420D01*
X151336481Y-82243414D01*
X151544869Y-82432385D01*
X151786119Y-82577070D01*
X152050960Y-82671909D01*
X152273000Y-82550624D01*
X152273000Y-81407000D01*
X152527000Y-81407000D01*
X152527000Y-82550624D01*
X152749040Y-82671909D01*
X153013881Y-82577070D01*
X153255131Y-82432385D01*
X153463519Y-82243414D01*
X153631037Y-82017420D01*
X153751246Y-81763087D01*
X153791904Y-81629039D01*
X153669915Y-81407000D01*
X152527000Y-81407000D01*
X152273000Y-81407000D01*
X151130085Y-81407000D01*
X151008096Y-81629039D01*
X143633684Y-81629039D01*
X143675000Y-81421335D01*
X143675000Y-81138665D01*
X143633685Y-80930961D01*
X151008096Y-80930961D01*
X151130085Y-81153000D01*
X152273000Y-81153000D01*
X152273000Y-80009376D01*
X152527000Y-80009376D01*
X152527000Y-81153000D01*
X153669915Y-81153000D01*
X153791904Y-80930961D01*
X153751246Y-80796913D01*
X153631037Y-80542580D01*
X153463519Y-80316586D01*
X153255131Y-80127615D01*
X153013881Y-79982930D01*
X152749040Y-79888091D01*
X152527000Y-80009376D01*
X152273000Y-80009376D01*
X152050960Y-79888091D01*
X151786119Y-79982930D01*
X151544869Y-80127615D01*
X151336481Y-80316586D01*
X151168963Y-80542580D01*
X151048754Y-80796913D01*
X151008096Y-80930961D01*
X143633685Y-80930961D01*
X143619853Y-80861426D01*
X143511680Y-80600273D01*
X143354637Y-80365241D01*
X143154759Y-80165363D01*
X142919727Y-80008320D01*
X142658574Y-79900147D01*
X142381335Y-79845000D01*
X142098665Y-79845000D01*
X141821426Y-79900147D01*
X141560273Y-80008320D01*
X141325241Y-80165363D01*
X141125363Y-80365241D01*
X140968320Y-80600273D01*
X140860147Y-80861426D01*
X140805000Y-81138665D01*
X121977720Y-81138665D01*
X122091476Y-80923110D01*
X122046825Y-80775901D01*
X121921641Y-80513080D01*
X121747588Y-80279731D01*
X121663534Y-80203966D01*
X121744180Y-80179502D01*
X121854494Y-80120537D01*
X121951185Y-80041185D01*
X122030537Y-79944494D01*
X122089502Y-79834180D01*
X122125812Y-79714482D01*
X122138072Y-79590000D01*
X122138072Y-78422702D01*
X156666903Y-78422702D01*
X156738486Y-78666671D01*
X156993996Y-78787571D01*
X157268184Y-78856300D01*
X157550512Y-78870217D01*
X157830130Y-78828787D01*
X158096292Y-78733603D01*
X158221514Y-78666671D01*
X158293097Y-78422702D01*
X157480000Y-77609605D01*
X156666903Y-78422702D01*
X122138072Y-78422702D01*
X122138072Y-77890000D01*
X122125812Y-77765518D01*
X122089502Y-77645820D01*
X122030537Y-77535506D01*
X122001819Y-77500512D01*
X156039783Y-77500512D01*
X156081213Y-77780130D01*
X156176397Y-78046292D01*
X156243329Y-78171514D01*
X156487298Y-78243097D01*
X157300395Y-77430000D01*
X157659605Y-77430000D01*
X158472702Y-78243097D01*
X158716671Y-78171514D01*
X158837571Y-77916004D01*
X158861876Y-77819039D01*
X160768096Y-77819039D01*
X160785633Y-77901818D01*
X160896285Y-78161646D01*
X161055500Y-78394895D01*
X161257161Y-78592601D01*
X161493517Y-78747166D01*
X161755486Y-78852650D01*
X162033000Y-78905000D01*
X162433000Y-78905000D01*
X162433000Y-77597000D01*
X162687000Y-77597000D01*
X162687000Y-78905000D01*
X163087000Y-78905000D01*
X163364514Y-78852650D01*
X163626483Y-78747166D01*
X163862839Y-78592601D01*
X164064500Y-78394895D01*
X164223715Y-78161646D01*
X164334367Y-77901818D01*
X164351904Y-77819039D01*
X164229915Y-77597000D01*
X162687000Y-77597000D01*
X162433000Y-77597000D01*
X160890085Y-77597000D01*
X160768096Y-77819039D01*
X158861876Y-77819039D01*
X158906300Y-77641816D01*
X158920217Y-77359488D01*
X158878787Y-77079870D01*
X158783603Y-76813708D01*
X158716671Y-76688486D01*
X158472702Y-76616903D01*
X157659605Y-77430000D01*
X157300395Y-77430000D01*
X156487298Y-76616903D01*
X156243329Y-76688486D01*
X156122429Y-76943996D01*
X156053700Y-77218184D01*
X156039783Y-77500512D01*
X122001819Y-77500512D01*
X121951185Y-77438815D01*
X121854494Y-77359463D01*
X121744180Y-77300498D01*
X121624482Y-77264188D01*
X121500000Y-77251928D01*
X119800000Y-77251928D01*
X119675518Y-77264188D01*
X119555820Y-77300498D01*
X119445506Y-77359463D01*
X119348815Y-77438815D01*
X119269463Y-77535506D01*
X119210498Y-77645820D01*
X119174188Y-77765518D01*
X119161928Y-77890000D01*
X115697000Y-77890000D01*
X115697000Y-74930000D01*
X140798057Y-74930000D01*
X140825764Y-75211309D01*
X140907818Y-75481808D01*
X141041068Y-75731101D01*
X141220392Y-75949608D01*
X141438899Y-76128932D01*
X141688192Y-76262182D01*
X141958691Y-76344236D01*
X142169508Y-76365000D01*
X142310492Y-76365000D01*
X142521309Y-76344236D01*
X142791808Y-76262182D01*
X143041101Y-76128932D01*
X143259608Y-75949608D01*
X143438932Y-75731101D01*
X143572182Y-75481808D01*
X143654236Y-75211309D01*
X143681943Y-74930000D01*
X143668023Y-74788665D01*
X150965000Y-74788665D01*
X150965000Y-75071335D01*
X151020147Y-75348574D01*
X151128320Y-75609727D01*
X151285363Y-75844759D01*
X151485241Y-76044637D01*
X151720273Y-76201680D01*
X151981426Y-76309853D01*
X152258665Y-76365000D01*
X152541335Y-76365000D01*
X152818574Y-76309853D01*
X153079727Y-76201680D01*
X153314759Y-76044637D01*
X153514637Y-75844759D01*
X153671680Y-75609727D01*
X153779853Y-75348574D01*
X153835000Y-75071335D01*
X153835000Y-74788665D01*
X153779853Y-74511426D01*
X153671680Y-74250273D01*
X153514637Y-74015241D01*
X153314759Y-73815363D01*
X153079727Y-73658320D01*
X152818574Y-73550147D01*
X152541335Y-73495000D01*
X152258665Y-73495000D01*
X151981426Y-73550147D01*
X151720273Y-73658320D01*
X151485241Y-73815363D01*
X151285363Y-74015241D01*
X151128320Y-74250273D01*
X151020147Y-74511426D01*
X150965000Y-74788665D01*
X143668023Y-74788665D01*
X143654236Y-74648691D01*
X143572182Y-74378192D01*
X143438932Y-74128899D01*
X143259608Y-73910392D01*
X143041101Y-73731068D01*
X142791808Y-73597818D01*
X142521309Y-73515764D01*
X142310492Y-73495000D01*
X142169508Y-73495000D01*
X141958691Y-73515764D01*
X141688192Y-73597818D01*
X141438899Y-73731068D01*
X141220392Y-73910392D01*
X141041068Y-74128899D01*
X140907818Y-74378192D01*
X140825764Y-74648691D01*
X140798057Y-74930000D01*
X115697000Y-74930000D01*
X115697000Y-68438665D01*
X140805000Y-68438665D01*
X140805000Y-68721335D01*
X140860147Y-68998574D01*
X140968320Y-69259727D01*
X141125363Y-69494759D01*
X141325241Y-69694637D01*
X141560273Y-69851680D01*
X141821426Y-69959853D01*
X142098665Y-70015000D01*
X142381335Y-70015000D01*
X142658574Y-69959853D01*
X142919727Y-69851680D01*
X143154759Y-69694637D01*
X143354637Y-69494759D01*
X143511680Y-69259727D01*
X143619853Y-68998574D01*
X143675000Y-68721335D01*
X143675000Y-68580000D01*
X150958057Y-68580000D01*
X150985764Y-68861309D01*
X151067818Y-69131808D01*
X151201068Y-69381101D01*
X151380392Y-69599608D01*
X151598899Y-69778932D01*
X151848192Y-69912182D01*
X152118691Y-69994236D01*
X152329508Y-70015000D01*
X152470492Y-70015000D01*
X152681309Y-69994236D01*
X152951808Y-69912182D01*
X153201101Y-69778932D01*
X153237981Y-69748665D01*
X156045000Y-69748665D01*
X156045000Y-70031335D01*
X156100147Y-70308574D01*
X156208320Y-70569727D01*
X156365363Y-70804759D01*
X156565241Y-71004637D01*
X156767827Y-71140000D01*
X156565241Y-71275363D01*
X156365363Y-71475241D01*
X156208320Y-71710273D01*
X156100147Y-71971426D01*
X156045000Y-72248665D01*
X156045000Y-72531335D01*
X156100147Y-72808574D01*
X156208320Y-73069727D01*
X156365363Y-73304759D01*
X156565241Y-73504637D01*
X156797759Y-73660000D01*
X156565241Y-73815363D01*
X156365363Y-74015241D01*
X156208320Y-74250273D01*
X156100147Y-74511426D01*
X156045000Y-74788665D01*
X156045000Y-75071335D01*
X156100147Y-75348574D01*
X156208320Y-75609727D01*
X156365363Y-75844759D01*
X156565241Y-76044637D01*
X156765869Y-76178692D01*
X156738486Y-76193329D01*
X156666903Y-76437298D01*
X157480000Y-77250395D01*
X158293097Y-76437298D01*
X158221514Y-76193329D01*
X158192659Y-76179676D01*
X158394759Y-76044637D01*
X158594637Y-75844759D01*
X158751680Y-75609727D01*
X158859853Y-75348574D01*
X158915000Y-75071335D01*
X158915000Y-74788665D01*
X158859853Y-74511426D01*
X158751680Y-74250273D01*
X158594637Y-74015241D01*
X158394759Y-73815363D01*
X158162241Y-73660000D01*
X158394759Y-73504637D01*
X158594637Y-73304759D01*
X158751680Y-73069727D01*
X158859853Y-72808574D01*
X158915000Y-72531335D01*
X158915000Y-72390000D01*
X160718057Y-72390000D01*
X160745764Y-72671309D01*
X160827818Y-72941808D01*
X160961068Y-73191101D01*
X161140392Y-73409608D01*
X161358899Y-73588932D01*
X161491858Y-73660000D01*
X161358899Y-73731068D01*
X161140392Y-73910392D01*
X160961068Y-74128899D01*
X160827818Y-74378192D01*
X160745764Y-74648691D01*
X160718057Y-74930000D01*
X160745764Y-75211309D01*
X160827818Y-75481808D01*
X160961068Y-75731101D01*
X161140392Y-75949608D01*
X161358899Y-76128932D01*
X161486741Y-76197265D01*
X161257161Y-76347399D01*
X161055500Y-76545105D01*
X160896285Y-76778354D01*
X160785633Y-77038182D01*
X160768096Y-77120961D01*
X160890085Y-77343000D01*
X162433000Y-77343000D01*
X162433000Y-77323000D01*
X162687000Y-77323000D01*
X162687000Y-77343000D01*
X164229915Y-77343000D01*
X164351904Y-77120961D01*
X164334367Y-77038182D01*
X164223715Y-76778354D01*
X164064500Y-76545105D01*
X163862839Y-76347399D01*
X163633259Y-76197265D01*
X163761101Y-76128932D01*
X163979608Y-75949608D01*
X164158932Y-75731101D01*
X164292182Y-75481808D01*
X164374236Y-75211309D01*
X164401943Y-74930000D01*
X164374236Y-74648691D01*
X164292182Y-74378192D01*
X164158932Y-74128899D01*
X163979608Y-73910392D01*
X163761101Y-73731068D01*
X163628142Y-73660000D01*
X163761101Y-73588932D01*
X163979608Y-73409608D01*
X164158932Y-73191101D01*
X164292182Y-72941808D01*
X164374236Y-72671309D01*
X164401943Y-72390000D01*
X164374236Y-72108691D01*
X164292182Y-71838192D01*
X164158932Y-71588899D01*
X163979608Y-71370392D01*
X163866518Y-71277581D01*
X163884482Y-71275812D01*
X164004180Y-71239502D01*
X164114494Y-71180537D01*
X164211185Y-71101185D01*
X164290537Y-71004494D01*
X164349502Y-70894180D01*
X164385812Y-70774482D01*
X164398072Y-70650000D01*
X164398072Y-69050000D01*
X164385812Y-68925518D01*
X164349502Y-68805820D01*
X164290537Y-68695506D01*
X164211185Y-68598815D01*
X164114494Y-68519463D01*
X164004180Y-68460498D01*
X163884482Y-68424188D01*
X163760000Y-68411928D01*
X161360000Y-68411928D01*
X161235518Y-68424188D01*
X161115820Y-68460498D01*
X161005506Y-68519463D01*
X160908815Y-68598815D01*
X160829463Y-68695506D01*
X160770498Y-68805820D01*
X160734188Y-68925518D01*
X160721928Y-69050000D01*
X160721928Y-70650000D01*
X160734188Y-70774482D01*
X160770498Y-70894180D01*
X160829463Y-71004494D01*
X160908815Y-71101185D01*
X161005506Y-71180537D01*
X161115820Y-71239502D01*
X161235518Y-71275812D01*
X161253482Y-71277581D01*
X161140392Y-71370392D01*
X160961068Y-71588899D01*
X160827818Y-71838192D01*
X160745764Y-72108691D01*
X160718057Y-72390000D01*
X158915000Y-72390000D01*
X158915000Y-72248665D01*
X158859853Y-71971426D01*
X158751680Y-71710273D01*
X158594637Y-71475241D01*
X158394759Y-71275363D01*
X158192173Y-71140000D01*
X158394759Y-71004637D01*
X158594637Y-70804759D01*
X158751680Y-70569727D01*
X158859853Y-70308574D01*
X158915000Y-70031335D01*
X158915000Y-69748665D01*
X158859853Y-69471426D01*
X158751680Y-69210273D01*
X158594637Y-68975241D01*
X158394759Y-68775363D01*
X158159727Y-68618320D01*
X157898574Y-68510147D01*
X157621335Y-68455000D01*
X157338665Y-68455000D01*
X157061426Y-68510147D01*
X156800273Y-68618320D01*
X156565241Y-68775363D01*
X156365363Y-68975241D01*
X156208320Y-69210273D01*
X156100147Y-69471426D01*
X156045000Y-69748665D01*
X153237981Y-69748665D01*
X153419608Y-69599608D01*
X153598932Y-69381101D01*
X153732182Y-69131808D01*
X153814236Y-68861309D01*
X153841943Y-68580000D01*
X153814236Y-68298691D01*
X153732182Y-68028192D01*
X153598932Y-67778899D01*
X153419608Y-67560392D01*
X153201101Y-67381068D01*
X152951808Y-67247818D01*
X152681309Y-67165764D01*
X152470492Y-67145000D01*
X152329508Y-67145000D01*
X152118691Y-67165764D01*
X151848192Y-67247818D01*
X151598899Y-67381068D01*
X151380392Y-67560392D01*
X151201068Y-67778899D01*
X151067818Y-68028192D01*
X150985764Y-68298691D01*
X150958057Y-68580000D01*
X143675000Y-68580000D01*
X143675000Y-68438665D01*
X143619853Y-68161426D01*
X143511680Y-67900273D01*
X143354637Y-67665241D01*
X143154759Y-67465363D01*
X142919727Y-67308320D01*
X142658574Y-67200147D01*
X142381335Y-67145000D01*
X142098665Y-67145000D01*
X141821426Y-67200147D01*
X141560273Y-67308320D01*
X141325241Y-67465363D01*
X141125363Y-67665241D01*
X140968320Y-67900273D01*
X140860147Y-68161426D01*
X140805000Y-68438665D01*
X115697000Y-68438665D01*
X115697000Y-66396890D01*
X119208524Y-66396890D01*
X119253175Y-66544099D01*
X119378359Y-66806920D01*
X119552412Y-67040269D01*
X119768645Y-67235178D01*
X120018748Y-67384157D01*
X120293109Y-67481481D01*
X120523000Y-67360814D01*
X120523000Y-66167000D01*
X120777000Y-66167000D01*
X120777000Y-67360814D01*
X121006891Y-67481481D01*
X121281252Y-67384157D01*
X121531355Y-67235178D01*
X121747588Y-67040269D01*
X121921641Y-66806920D01*
X122046825Y-66544099D01*
X122091476Y-66396890D01*
X121970155Y-66167000D01*
X120777000Y-66167000D01*
X120523000Y-66167000D01*
X119329845Y-66167000D01*
X119208524Y-66396890D01*
X115697000Y-66396890D01*
X115697000Y-62650000D01*
X119161928Y-62650000D01*
X119161928Y-64350000D01*
X119174188Y-64474482D01*
X119210498Y-64594180D01*
X119269463Y-64704494D01*
X119348815Y-64801185D01*
X119445506Y-64880537D01*
X119555820Y-64939502D01*
X119636466Y-64963966D01*
X119552412Y-65039731D01*
X119378359Y-65273080D01*
X119253175Y-65535901D01*
X119208524Y-65683110D01*
X119329845Y-65913000D01*
X120523000Y-65913000D01*
X120523000Y-65893000D01*
X120777000Y-65893000D01*
X120777000Y-65913000D01*
X121970155Y-65913000D01*
X122091476Y-65683110D01*
X122046825Y-65535901D01*
X121921641Y-65273080D01*
X121747588Y-65039731D01*
X121663534Y-64963966D01*
X121744180Y-64939502D01*
X121854494Y-64880537D01*
X121951185Y-64801185D01*
X122030537Y-64704494D01*
X122089502Y-64594180D01*
X122125812Y-64474482D01*
X122138072Y-64350000D01*
X122138072Y-62650000D01*
X122125812Y-62525518D01*
X122089502Y-62405820D01*
X122030537Y-62295506D01*
X121951185Y-62198815D01*
X121854494Y-62119463D01*
X121744180Y-62060498D01*
X121624482Y-62024188D01*
X121500000Y-62011928D01*
X119800000Y-62011928D01*
X119675518Y-62024188D01*
X119555820Y-62060498D01*
X119445506Y-62119463D01*
X119348815Y-62198815D01*
X119269463Y-62295506D01*
X119210498Y-62405820D01*
X119174188Y-62525518D01*
X119161928Y-62650000D01*
X115697000Y-62650000D01*
X115697000Y-57561805D01*
X136641805Y-57561805D01*
X136714379Y-57801066D01*
X136874361Y-58123257D01*
X137094125Y-58408046D01*
X137365226Y-58644489D01*
X137677246Y-58823500D01*
X138018194Y-58938199D01*
X138303000Y-58821854D01*
X138303000Y-57277000D01*
X138557000Y-57277000D01*
X138557000Y-58821854D01*
X138841806Y-58938199D01*
X139182754Y-58823500D01*
X139494774Y-58644489D01*
X139765875Y-58408046D01*
X139985639Y-58123257D01*
X140145621Y-57801066D01*
X140218195Y-57561805D01*
X140101432Y-57277000D01*
X138557000Y-57277000D01*
X138303000Y-57277000D01*
X136758568Y-57277000D01*
X136641805Y-57561805D01*
X115697000Y-57561805D01*
X115697000Y-56738195D01*
X136641805Y-56738195D01*
X136758568Y-57023000D01*
X138303000Y-57023000D01*
X138303000Y-55478146D01*
X138557000Y-55478146D01*
X138557000Y-57023000D01*
X140101432Y-57023000D01*
X140218195Y-56738195D01*
X140145621Y-56498934D01*
X139985639Y-56176743D01*
X139765875Y-55891954D01*
X139494774Y-55655511D01*
X139182754Y-55476500D01*
X138841806Y-55361801D01*
X138557000Y-55478146D01*
X138303000Y-55478146D01*
X138018194Y-55361801D01*
X137677246Y-55476500D01*
X137365226Y-55655511D01*
X137094125Y-55891954D01*
X136874361Y-56176743D01*
X136714379Y-56498934D01*
X136641805Y-56738195D01*
X115697000Y-56738195D01*
X115697000Y-52490000D01*
X119161928Y-52490000D01*
X119161928Y-54190000D01*
X119174188Y-54314482D01*
X119210498Y-54434180D01*
X119269463Y-54544494D01*
X119348815Y-54641185D01*
X119445506Y-54720537D01*
X119555820Y-54779502D01*
X119675518Y-54815812D01*
X119800000Y-54828072D01*
X121500000Y-54828072D01*
X121624482Y-54815812D01*
X121744180Y-54779502D01*
X121854494Y-54720537D01*
X121951185Y-54641185D01*
X122030537Y-54544494D01*
X122089502Y-54434180D01*
X122125812Y-54314482D01*
X122138072Y-54190000D01*
X122138072Y-52490000D01*
X122125812Y-52365518D01*
X122089502Y-52245820D01*
X122030537Y-52135506D01*
X121951185Y-52038815D01*
X121854494Y-51959463D01*
X121744180Y-51900498D01*
X121663534Y-51876034D01*
X121747588Y-51800269D01*
X121921641Y-51566920D01*
X122046825Y-51304099D01*
X122091476Y-51156890D01*
X121970155Y-50927000D01*
X120777000Y-50927000D01*
X120777000Y-50947000D01*
X120523000Y-50947000D01*
X120523000Y-50927000D01*
X119329845Y-50927000D01*
X119208524Y-51156890D01*
X119253175Y-51304099D01*
X119378359Y-51566920D01*
X119552412Y-51800269D01*
X119636466Y-51876034D01*
X119555820Y-51900498D01*
X119445506Y-51959463D01*
X119348815Y-52038815D01*
X119269463Y-52135506D01*
X119210498Y-52245820D01*
X119174188Y-52365518D01*
X119161928Y-52490000D01*
X115697000Y-52490000D01*
X115697000Y-50443110D01*
X119208524Y-50443110D01*
X119329845Y-50673000D01*
X120523000Y-50673000D01*
X120523000Y-49479186D01*
X120777000Y-49479186D01*
X120777000Y-50673000D01*
X121970155Y-50673000D01*
X122091476Y-50443110D01*
X122046825Y-50295901D01*
X121921641Y-50033080D01*
X121747588Y-49799731D01*
X121531355Y-49604822D01*
X121281252Y-49455843D01*
X121006891Y-49358519D01*
X120777000Y-49479186D01*
X120523000Y-49479186D01*
X120293109Y-49358519D01*
X120018748Y-49455843D01*
X119768645Y-49604822D01*
X119552412Y-49799731D01*
X119378359Y-50033080D01*
X119253175Y-50295901D01*
X119208524Y-50443110D01*
X115697000Y-50443110D01*
X115697000Y-47500000D01*
X148461928Y-47500000D01*
X148461928Y-49020000D01*
X148474188Y-49144482D01*
X148510498Y-49264180D01*
X148569463Y-49374494D01*
X148648815Y-49471185D01*
X148745506Y-49550537D01*
X148855820Y-49609502D01*
X148975518Y-49645812D01*
X149100000Y-49658072D01*
X150620000Y-49658072D01*
X150744482Y-49645812D01*
X150864180Y-49609502D01*
X150974494Y-49550537D01*
X151071185Y-49471185D01*
X151150537Y-49374494D01*
X151209502Y-49264180D01*
X151245812Y-49144482D01*
X151258072Y-49020000D01*
X151258072Y-47500000D01*
X151245812Y-47375518D01*
X151209502Y-47255820D01*
X151150537Y-47145506D01*
X151071185Y-47048815D01*
X150974494Y-46969463D01*
X150864180Y-46910498D01*
X150744482Y-46874188D01*
X150656533Y-46865526D01*
X150749261Y-46803567D01*
X150943567Y-46609261D01*
X151096233Y-46380780D01*
X151201391Y-46126907D01*
X151255000Y-45857396D01*
X151255000Y-45582604D01*
X151201391Y-45313093D01*
X151096233Y-45059220D01*
X150943567Y-44830739D01*
X150749261Y-44636433D01*
X150520780Y-44483767D01*
X150439260Y-44450000D01*
X150520780Y-44416233D01*
X150749261Y-44263567D01*
X150943567Y-44069261D01*
X151096233Y-43840780D01*
X151201391Y-43586907D01*
X151255000Y-43317396D01*
X151255000Y-43042604D01*
X151201391Y-42773093D01*
X151171115Y-42700000D01*
X156491928Y-42700000D01*
X156491928Y-46200000D01*
X156504188Y-46324482D01*
X156540498Y-46444180D01*
X156599463Y-46554494D01*
X156678815Y-46651185D01*
X156775506Y-46730537D01*
X156885820Y-46789502D01*
X157005518Y-46825812D01*
X157130000Y-46838072D01*
X159630000Y-46838072D01*
X159754482Y-46825812D01*
X159874180Y-46789502D01*
X159984494Y-46730537D01*
X160081185Y-46651185D01*
X160160537Y-46554494D01*
X160219502Y-46444180D01*
X160255812Y-46324482D01*
X160268072Y-46200000D01*
X160268072Y-44950000D01*
X161935881Y-44950000D01*
X161945000Y-45042589D01*
X161945000Y-45042597D01*
X161972275Y-45319524D01*
X162080061Y-45674848D01*
X162141031Y-45788914D01*
X162255097Y-46002317D01*
X162490655Y-46289345D01*
X162562582Y-46348374D01*
X170821630Y-54607423D01*
X170880655Y-54679345D01*
X170952577Y-54738370D01*
X170952579Y-54738372D01*
X171046940Y-54815812D01*
X171167683Y-54914903D01*
X171495152Y-55089939D01*
X171850476Y-55197725D01*
X172220000Y-55234120D01*
X172312597Y-55225000D01*
X184639208Y-55225000D01*
X190531639Y-61117432D01*
X190590664Y-61189354D01*
X190662586Y-61248379D01*
X190662588Y-61248381D01*
X190816058Y-61374330D01*
X190877692Y-61424912D01*
X191205161Y-61599948D01*
X191452698Y-61675037D01*
X191560484Y-61707734D01*
X191595741Y-61711206D01*
X191837412Y-61735009D01*
X191837419Y-61735009D01*
X191930008Y-61744128D01*
X192022597Y-61735009D01*
X198327402Y-61735009D01*
X198419991Y-61744128D01*
X198512580Y-61735009D01*
X198512588Y-61735009D01*
X198789515Y-61707734D01*
X199144839Y-61599948D01*
X199472308Y-61424912D01*
X199759336Y-61189354D01*
X199818365Y-61117427D01*
X205968902Y-54966890D01*
X208108524Y-54966890D01*
X208153175Y-55114099D01*
X208278359Y-55376920D01*
X208452412Y-55610269D01*
X208668645Y-55805178D01*
X208918748Y-55954157D01*
X209193109Y-56051481D01*
X209423000Y-55930814D01*
X209423000Y-54737000D01*
X209677000Y-54737000D01*
X209677000Y-55930814D01*
X209906891Y-56051481D01*
X210181252Y-55954157D01*
X210431355Y-55805178D01*
X210647588Y-55610269D01*
X210821641Y-55376920D01*
X210946825Y-55114099D01*
X210991476Y-54966890D01*
X210870155Y-54737000D01*
X209677000Y-54737000D01*
X209423000Y-54737000D01*
X208229845Y-54737000D01*
X208108524Y-54966890D01*
X205968902Y-54966890D01*
X206980793Y-53955000D01*
X208225050Y-53955000D01*
X208153175Y-54105901D01*
X208108524Y-54253110D01*
X208229845Y-54483000D01*
X209423000Y-54483000D01*
X209423000Y-54463000D01*
X209677000Y-54463000D01*
X209677000Y-54483000D01*
X210870155Y-54483000D01*
X210991476Y-54253110D01*
X210946825Y-54105901D01*
X210821641Y-53843080D01*
X210647588Y-53609731D01*
X210646438Y-53608694D01*
X210889345Y-53409345D01*
X211124903Y-53122317D01*
X211299939Y-52794848D01*
X211407725Y-52439524D01*
X211444120Y-52070000D01*
X211407725Y-51700476D01*
X211299939Y-51345152D01*
X211124903Y-51017683D01*
X210889345Y-50730655D01*
X210602317Y-50495097D01*
X210274848Y-50320061D01*
X209919524Y-50212275D01*
X209642597Y-50185000D01*
X206292586Y-50185000D01*
X206199999Y-50175881D01*
X206107412Y-50185000D01*
X206107403Y-50185000D01*
X205830476Y-50212275D01*
X205475152Y-50320061D01*
X205147683Y-50495097D01*
X205147681Y-50495098D01*
X205147682Y-50495098D01*
X204932579Y-50671628D01*
X204932577Y-50671630D01*
X204860655Y-50730655D01*
X204801630Y-50802577D01*
X197639199Y-57965009D01*
X196011747Y-57965009D01*
X196059939Y-57874848D01*
X196167725Y-57519524D01*
X196195000Y-57242597D01*
X196195000Y-49622589D01*
X196204119Y-49530000D01*
X196195000Y-49437411D01*
X196195000Y-49437403D01*
X196167725Y-49160476D01*
X196162874Y-49144482D01*
X196059939Y-48805153D01*
X196059939Y-48805152D01*
X195884903Y-48477683D01*
X195649345Y-48190655D01*
X195577423Y-48131630D01*
X190628374Y-43182582D01*
X190569345Y-43110655D01*
X190337611Y-42920475D01*
X206915000Y-42920475D01*
X206915000Y-43439525D01*
X207016261Y-43948601D01*
X207214893Y-44428141D01*
X207503262Y-44859715D01*
X207870285Y-45226738D01*
X208301859Y-45515107D01*
X208781399Y-45713739D01*
X209290475Y-45815000D01*
X209809525Y-45815000D01*
X210318601Y-45713739D01*
X210798141Y-45515107D01*
X211229715Y-45226738D01*
X211596738Y-44859715D01*
X211885107Y-44428141D01*
X212083739Y-43948601D01*
X212185000Y-43439525D01*
X212185000Y-42920475D01*
X212083739Y-42411399D01*
X211885107Y-41931859D01*
X211596738Y-41500285D01*
X211229715Y-41133262D01*
X210798141Y-40844893D01*
X210318601Y-40646261D01*
X209809525Y-40545000D01*
X209290475Y-40545000D01*
X208781399Y-40646261D01*
X208301859Y-40844893D01*
X207870285Y-41133262D01*
X207503262Y-41500285D01*
X207214893Y-41931859D01*
X207016261Y-42411399D01*
X206915000Y-42920475D01*
X190337611Y-42920475D01*
X190282317Y-42875097D01*
X189954848Y-42700061D01*
X189599524Y-42592275D01*
X189322597Y-42565000D01*
X189322589Y-42565000D01*
X189230000Y-42555881D01*
X189137411Y-42565000D01*
X170563714Y-42565000D01*
X170332317Y-42375097D01*
X170004847Y-42200061D01*
X169649523Y-42092275D01*
X169280000Y-42055880D01*
X168910476Y-42092275D01*
X168555152Y-42200061D01*
X168227683Y-42375097D01*
X167940655Y-42610655D01*
X167705097Y-42897683D01*
X167530061Y-43225153D01*
X167422275Y-43580477D01*
X167395000Y-43857404D01*
X167395000Y-44357403D01*
X167385880Y-44450000D01*
X167395000Y-44542597D01*
X167395000Y-45042597D01*
X167422275Y-45319524D01*
X167530061Y-45674848D01*
X167705098Y-46002317D01*
X167940656Y-46289345D01*
X168227684Y-46524903D01*
X168555153Y-46699939D01*
X168910477Y-46807725D01*
X169280000Y-46844120D01*
X169649524Y-46807725D01*
X170004848Y-46699939D01*
X170332317Y-46524903D01*
X170563714Y-46335000D01*
X188449208Y-46335000D01*
X192425000Y-50310793D01*
X192425001Y-55360338D01*
X192425000Y-55360348D01*
X192425000Y-57242597D01*
X192452276Y-57519524D01*
X192533684Y-57787891D01*
X186818374Y-52072582D01*
X186759345Y-52000655D01*
X186472317Y-51765097D01*
X186144848Y-51590061D01*
X185789524Y-51482275D01*
X185512597Y-51455000D01*
X185512589Y-51455000D01*
X185420000Y-51445881D01*
X185327411Y-51455000D01*
X173000793Y-51455000D01*
X165715000Y-44169208D01*
X165715000Y-43857403D01*
X165687725Y-43580476D01*
X165579939Y-43225152D01*
X165404903Y-42897683D01*
X165169345Y-42610655D01*
X164882317Y-42375097D01*
X164554847Y-42200061D01*
X164199523Y-42092275D01*
X163830000Y-42055880D01*
X163460476Y-42092275D01*
X163105152Y-42200061D01*
X162777683Y-42375097D01*
X162490655Y-42610655D01*
X162255097Y-42897683D01*
X162080061Y-43225153D01*
X161972275Y-43580477D01*
X161945000Y-43857404D01*
X161945000Y-44857411D01*
X161935881Y-44950000D01*
X160268072Y-44950000D01*
X160268072Y-42700000D01*
X160255812Y-42575518D01*
X160219502Y-42455820D01*
X160160537Y-42345506D01*
X160081185Y-42248815D01*
X159984494Y-42169463D01*
X159874180Y-42110498D01*
X159754482Y-42074188D01*
X159630000Y-42061928D01*
X157130000Y-42061928D01*
X157005518Y-42074188D01*
X156885820Y-42110498D01*
X156775506Y-42169463D01*
X156678815Y-42248815D01*
X156599463Y-42345506D01*
X156540498Y-42455820D01*
X156504188Y-42575518D01*
X156491928Y-42700000D01*
X151171115Y-42700000D01*
X151096233Y-42519220D01*
X150943567Y-42290739D01*
X150749261Y-42096433D01*
X150520780Y-41943767D01*
X150266907Y-41838609D01*
X149997396Y-41785000D01*
X149722604Y-41785000D01*
X149453093Y-41838609D01*
X149199220Y-41943767D01*
X148970739Y-42096433D01*
X148776433Y-42290739D01*
X148623767Y-42519220D01*
X148518609Y-42773093D01*
X148465000Y-43042604D01*
X148465000Y-43317396D01*
X148518609Y-43586907D01*
X148623767Y-43840780D01*
X148776433Y-44069261D01*
X148970739Y-44263567D01*
X149199220Y-44416233D01*
X149280740Y-44450000D01*
X149199220Y-44483767D01*
X148970739Y-44636433D01*
X148776433Y-44830739D01*
X148623767Y-45059220D01*
X148518609Y-45313093D01*
X148465000Y-45582604D01*
X148465000Y-45857396D01*
X148518609Y-46126907D01*
X148623767Y-46380780D01*
X148776433Y-46609261D01*
X148970739Y-46803567D01*
X149063467Y-46865526D01*
X148975518Y-46874188D01*
X148855820Y-46910498D01*
X148745506Y-46969463D01*
X148648815Y-47048815D01*
X148569463Y-47145506D01*
X148510498Y-47255820D01*
X148474188Y-47375518D01*
X148461928Y-47500000D01*
X115697000Y-47500000D01*
X115697000Y-42920475D01*
X116745000Y-42920475D01*
X116745000Y-43439525D01*
X116846261Y-43948601D01*
X117044893Y-44428141D01*
X117333262Y-44859715D01*
X117700285Y-45226738D01*
X118131859Y-45515107D01*
X118611399Y-45713739D01*
X119120475Y-45815000D01*
X119639525Y-45815000D01*
X120117124Y-45720000D01*
X130638057Y-45720000D01*
X130665764Y-46001309D01*
X130747818Y-46271808D01*
X130881068Y-46521101D01*
X131060392Y-46739608D01*
X131278899Y-46918932D01*
X131528192Y-47052182D01*
X131798691Y-47134236D01*
X132009508Y-47155000D01*
X132150492Y-47155000D01*
X132361309Y-47134236D01*
X132631808Y-47052182D01*
X132881101Y-46918932D01*
X133099608Y-46739608D01*
X133278932Y-46521101D01*
X133412182Y-46271808D01*
X133494236Y-46001309D01*
X133521943Y-45720000D01*
X133508023Y-45578665D01*
X140805000Y-45578665D01*
X140805000Y-45861335D01*
X140860147Y-46138574D01*
X140968320Y-46399727D01*
X141125363Y-46634759D01*
X141325241Y-46834637D01*
X141560273Y-46991680D01*
X141821426Y-47099853D01*
X142098665Y-47155000D01*
X142381335Y-47155000D01*
X142658574Y-47099853D01*
X142919727Y-46991680D01*
X143154759Y-46834637D01*
X143354637Y-46634759D01*
X143511680Y-46399727D01*
X143619853Y-46138574D01*
X143675000Y-45861335D01*
X143675000Y-45578665D01*
X143619853Y-45301426D01*
X143511680Y-45040273D01*
X143354637Y-44805241D01*
X143154759Y-44605363D01*
X142919727Y-44448320D01*
X142658574Y-44340147D01*
X142381335Y-44285000D01*
X142098665Y-44285000D01*
X141821426Y-44340147D01*
X141560273Y-44448320D01*
X141325241Y-44605363D01*
X141125363Y-44805241D01*
X140968320Y-45040273D01*
X140860147Y-45301426D01*
X140805000Y-45578665D01*
X133508023Y-45578665D01*
X133494236Y-45438691D01*
X133412182Y-45168192D01*
X133278932Y-44918899D01*
X133099608Y-44700392D01*
X132881101Y-44521068D01*
X132631808Y-44387818D01*
X132361309Y-44305764D01*
X132150492Y-44285000D01*
X132009508Y-44285000D01*
X131798691Y-44305764D01*
X131528192Y-44387818D01*
X131278899Y-44521068D01*
X131060392Y-44700392D01*
X130881068Y-44918899D01*
X130747818Y-45168192D01*
X130665764Y-45438691D01*
X130638057Y-45720000D01*
X120117124Y-45720000D01*
X120148601Y-45713739D01*
X120628141Y-45515107D01*
X121059715Y-45226738D01*
X121426738Y-44859715D01*
X121715107Y-44428141D01*
X121913739Y-43948601D01*
X122015000Y-43439525D01*
X122015000Y-42920475D01*
X121913739Y-42411399D01*
X121715107Y-41931859D01*
X121426738Y-41500285D01*
X121059715Y-41133262D01*
X120628141Y-40844893D01*
X120148601Y-40646261D01*
X119639525Y-40545000D01*
X119120475Y-40545000D01*
X118611399Y-40646261D01*
X118131859Y-40844893D01*
X117700285Y-41133262D01*
X117333262Y-41500285D01*
X117044893Y-41931859D01*
X116846261Y-42411399D01*
X116745000Y-42920475D01*
X115697000Y-42920475D01*
X115697000Y-39497000D01*
X213233000Y-39497000D01*
X213233000Y-137033000D01*
M02*
