G04 #@! TF.GenerationSoftware,KiCad,Pcbnew,5.1.4-5.1.4*
G04 #@! TF.CreationDate,2019-11-01T16:10:20+01:00*
G04 #@! TF.ProjectId,Strom-Senke,5374726f-6d2d-4536-956e-6b652e6b6963,rev?*
G04 #@! TF.SameCoordinates,Original*
G04 #@! TF.FileFunction,Legend,Top*
G04 #@! TF.FilePolarity,Positive*
%FSLAX46Y46*%
G04 Gerber Fmt 4.6, Leading zero omitted, Abs format (unit mm)*
G04 Created by KiCad (PCBNEW 5.1.4-5.1.4) date 2019-11-01 16:10:20*
%MOMM*%
%LPD*%
G04 APERTURE LIST*
%ADD10C,0.150000*%
%ADD11C,0.120000*%
G04 APERTURE END LIST*
D10*
X128509523Y-132984761D02*
X128509523Y-130984761D01*
X128985714Y-130984761D01*
X129271428Y-131080000D01*
X129461904Y-131270476D01*
X129557142Y-131460952D01*
X129652380Y-131841904D01*
X129652380Y-132127619D01*
X129557142Y-132508571D01*
X129461904Y-132699047D01*
X129271428Y-132889523D01*
X128985714Y-132984761D01*
X128509523Y-132984761D01*
X131557142Y-131080000D02*
X131366666Y-130984761D01*
X131080952Y-130984761D01*
X130795238Y-131080000D01*
X130604761Y-131270476D01*
X130509523Y-131460952D01*
X130414285Y-131841904D01*
X130414285Y-132127619D01*
X130509523Y-132508571D01*
X130604761Y-132699047D01*
X130795238Y-132889523D01*
X131080952Y-132984761D01*
X131271428Y-132984761D01*
X131557142Y-132889523D01*
X131652380Y-132794285D01*
X131652380Y-132127619D01*
X131271428Y-132127619D01*
X132414285Y-132889523D02*
X132700000Y-132984761D01*
X133176190Y-132984761D01*
X133366666Y-132889523D01*
X133461904Y-132794285D01*
X133557142Y-132603809D01*
X133557142Y-132413333D01*
X133461904Y-132222857D01*
X133366666Y-132127619D01*
X133176190Y-132032380D01*
X132795238Y-131937142D01*
X132604761Y-131841904D01*
X132509523Y-131746666D01*
X132414285Y-131556190D01*
X132414285Y-131365714D01*
X132509523Y-131175238D01*
X132604761Y-131080000D01*
X132795238Y-130984761D01*
X133271428Y-130984761D01*
X133557142Y-131080000D01*
X134414285Y-132222857D02*
X135938095Y-132222857D01*
X136890476Y-131937142D02*
X137557142Y-131937142D01*
X137842857Y-132984761D02*
X136890476Y-132984761D01*
X136890476Y-130984761D01*
X137842857Y-130984761D01*
X138985714Y-132984761D02*
X138795238Y-132889523D01*
X138700000Y-132699047D01*
X138700000Y-130984761D01*
X140509523Y-132889523D02*
X140319047Y-132984761D01*
X139938095Y-132984761D01*
X139747619Y-132889523D01*
X139652380Y-132699047D01*
X139652380Y-131937142D01*
X139747619Y-131746666D01*
X139938095Y-131651428D01*
X140319047Y-131651428D01*
X140509523Y-131746666D01*
X140604761Y-131937142D01*
X140604761Y-132127619D01*
X139652380Y-132318095D01*
X142319047Y-132889523D02*
X142128571Y-132984761D01*
X141747619Y-132984761D01*
X141557142Y-132889523D01*
X141461904Y-132794285D01*
X141366666Y-132603809D01*
X141366666Y-132032380D01*
X141461904Y-131841904D01*
X141557142Y-131746666D01*
X141747619Y-131651428D01*
X142128571Y-131651428D01*
X142319047Y-131746666D01*
X142890476Y-131651428D02*
X143652380Y-131651428D01*
X143176190Y-130984761D02*
X143176190Y-132699047D01*
X143271428Y-132889523D01*
X143461904Y-132984761D01*
X143652380Y-132984761D01*
X144319047Y-132984761D02*
X144319047Y-131651428D01*
X144319047Y-132032380D02*
X144414285Y-131841904D01*
X144509523Y-131746666D01*
X144700000Y-131651428D01*
X144890476Y-131651428D01*
X145842857Y-132984761D02*
X145652380Y-132889523D01*
X145557142Y-132794285D01*
X145461904Y-132603809D01*
X145461904Y-132032380D01*
X145557142Y-131841904D01*
X145652380Y-131746666D01*
X145842857Y-131651428D01*
X146128571Y-131651428D01*
X146319047Y-131746666D01*
X146414285Y-131841904D01*
X146509523Y-132032380D01*
X146509523Y-132603809D01*
X146414285Y-132794285D01*
X146319047Y-132889523D01*
X146128571Y-132984761D01*
X145842857Y-132984761D01*
X147366666Y-131651428D02*
X147366666Y-132984761D01*
X147366666Y-131841904D02*
X147461904Y-131746666D01*
X147652380Y-131651428D01*
X147938095Y-131651428D01*
X148128571Y-131746666D01*
X148223809Y-131937142D01*
X148223809Y-132984761D01*
X149176190Y-132984761D02*
X149176190Y-131651428D01*
X149176190Y-130984761D02*
X149080952Y-131080000D01*
X149176190Y-131175238D01*
X149271428Y-131080000D01*
X149176190Y-130984761D01*
X149176190Y-131175238D01*
X150985714Y-132889523D02*
X150795238Y-132984761D01*
X150414285Y-132984761D01*
X150223809Y-132889523D01*
X150128571Y-132794285D01*
X150033333Y-132603809D01*
X150033333Y-132032380D01*
X150128571Y-131841904D01*
X150223809Y-131746666D01*
X150414285Y-131651428D01*
X150795238Y-131651428D01*
X150985714Y-131746666D01*
X206629047Y-49601428D02*
X207390952Y-49601428D01*
X207010000Y-49982380D02*
X207010000Y-49220476D01*
X207899047Y-123261428D02*
X208660952Y-123261428D01*
X208280000Y-123642380D02*
X208280000Y-122880476D01*
X200136666Y-113482380D02*
X200136666Y-112815714D01*
X200136666Y-112910952D02*
X200184285Y-112863333D01*
X200279523Y-112815714D01*
X200422380Y-112815714D01*
X200517619Y-112863333D01*
X200565238Y-112958571D01*
X200565238Y-113482380D01*
X200565238Y-112958571D02*
X200612857Y-112863333D01*
X200708095Y-112815714D01*
X200850952Y-112815714D01*
X200946190Y-112863333D01*
X200993809Y-112958571D01*
X200993809Y-113482380D01*
X201898571Y-113482380D02*
X201898571Y-112958571D01*
X201850952Y-112863333D01*
X201755714Y-112815714D01*
X201565238Y-112815714D01*
X201470000Y-112863333D01*
X201898571Y-113434761D02*
X201803333Y-113482380D01*
X201565238Y-113482380D01*
X201470000Y-113434761D01*
X201422380Y-113339523D01*
X201422380Y-113244285D01*
X201470000Y-113149047D01*
X201565238Y-113101428D01*
X201803333Y-113101428D01*
X201898571Y-113053809D01*
X202279523Y-113482380D02*
X202803333Y-112815714D01*
X202279523Y-112815714D02*
X202803333Y-113482380D01*
X204470000Y-113482380D02*
X203898571Y-113482380D01*
X204184285Y-113482380D02*
X204184285Y-112482380D01*
X204089047Y-112625238D01*
X203993809Y-112720476D01*
X203898571Y-112768095D01*
X205089047Y-112482380D02*
X205184285Y-112482380D01*
X205279523Y-112530000D01*
X205327142Y-112577619D01*
X205374761Y-112672857D01*
X205422380Y-112863333D01*
X205422380Y-113101428D01*
X205374761Y-113291904D01*
X205327142Y-113387142D01*
X205279523Y-113434761D01*
X205184285Y-113482380D01*
X205089047Y-113482380D01*
X204993809Y-113434761D01*
X204946190Y-113387142D01*
X204898571Y-113291904D01*
X204850952Y-113101428D01*
X204850952Y-112863333D01*
X204898571Y-112672857D01*
X204946190Y-112577619D01*
X204993809Y-112530000D01*
X205089047Y-112482380D01*
X205708095Y-112482380D02*
X206041428Y-113482380D01*
X206374761Y-112482380D01*
X207374761Y-112482380D02*
X207993809Y-112482380D01*
X207660476Y-112863333D01*
X207803333Y-112863333D01*
X207898571Y-112910952D01*
X207946190Y-112958571D01*
X207993809Y-113053809D01*
X207993809Y-113291904D01*
X207946190Y-113387142D01*
X207898571Y-113434761D01*
X207803333Y-113482380D01*
X207517619Y-113482380D01*
X207422380Y-113434761D01*
X207374761Y-113387142D01*
X208374761Y-113196666D02*
X208850952Y-113196666D01*
X208279523Y-113482380D02*
X208612857Y-112482380D01*
X208946190Y-113482380D01*
X196088571Y-52522380D02*
X196088571Y-51855714D01*
X196088571Y-51950952D02*
X196136190Y-51903333D01*
X196231428Y-51855714D01*
X196374285Y-51855714D01*
X196469523Y-51903333D01*
X196517142Y-51998571D01*
X196517142Y-52522380D01*
X196517142Y-51998571D02*
X196564761Y-51903333D01*
X196660000Y-51855714D01*
X196802857Y-51855714D01*
X196898095Y-51903333D01*
X196945714Y-51998571D01*
X196945714Y-52522380D01*
X197850476Y-52522380D02*
X197850476Y-51998571D01*
X197802857Y-51903333D01*
X197707619Y-51855714D01*
X197517142Y-51855714D01*
X197421904Y-51903333D01*
X197850476Y-52474761D02*
X197755238Y-52522380D01*
X197517142Y-52522380D01*
X197421904Y-52474761D01*
X197374285Y-52379523D01*
X197374285Y-52284285D01*
X197421904Y-52189047D01*
X197517142Y-52141428D01*
X197755238Y-52141428D01*
X197850476Y-52093809D01*
X198231428Y-52522380D02*
X198755238Y-51855714D01*
X198231428Y-51855714D02*
X198755238Y-52522380D01*
X199136190Y-52427142D02*
X199183809Y-52474761D01*
X199136190Y-52522380D01*
X199088571Y-52474761D01*
X199136190Y-52427142D01*
X199136190Y-52522380D01*
X200898095Y-52522380D02*
X200326666Y-52522380D01*
X200612380Y-52522380D02*
X200612380Y-51522380D01*
X200517142Y-51665238D01*
X200421904Y-51760476D01*
X200326666Y-51808095D01*
X201517142Y-51522380D02*
X201612380Y-51522380D01*
X201707619Y-51570000D01*
X201755238Y-51617619D01*
X201802857Y-51712857D01*
X201850476Y-51903333D01*
X201850476Y-52141428D01*
X201802857Y-52331904D01*
X201755238Y-52427142D01*
X201707619Y-52474761D01*
X201612380Y-52522380D01*
X201517142Y-52522380D01*
X201421904Y-52474761D01*
X201374285Y-52427142D01*
X201326666Y-52331904D01*
X201279047Y-52141428D01*
X201279047Y-51903333D01*
X201326666Y-51712857D01*
X201374285Y-51617619D01*
X201421904Y-51570000D01*
X201517142Y-51522380D01*
X202136190Y-51522380D02*
X202469523Y-52522380D01*
X202802857Y-51522380D01*
X203802857Y-51522380D02*
X204421904Y-51522380D01*
X204088571Y-51903333D01*
X204231428Y-51903333D01*
X204326666Y-51950952D01*
X204374285Y-51998571D01*
X204421904Y-52093809D01*
X204421904Y-52331904D01*
X204374285Y-52427142D01*
X204326666Y-52474761D01*
X204231428Y-52522380D01*
X203945714Y-52522380D01*
X203850476Y-52474761D01*
X203802857Y-52427142D01*
X204802857Y-52236666D02*
X205279047Y-52236666D01*
X204707619Y-52522380D02*
X205040952Y-51522380D01*
X205374285Y-52522380D01*
X206692857Y-83272380D02*
X206692857Y-84081904D01*
X206740476Y-84177142D01*
X206788095Y-84224761D01*
X206883333Y-84272380D01*
X207073809Y-84272380D01*
X207169047Y-84224761D01*
X207216666Y-84177142D01*
X207264285Y-84081904D01*
X207264285Y-83272380D01*
X207502380Y-84367619D02*
X208264285Y-84367619D01*
X208454761Y-84224761D02*
X208597619Y-84272380D01*
X208835714Y-84272380D01*
X208930952Y-84224761D01*
X208978571Y-84177142D01*
X209026190Y-84081904D01*
X209026190Y-83986666D01*
X208978571Y-83891428D01*
X208930952Y-83843809D01*
X208835714Y-83796190D01*
X208645238Y-83748571D01*
X208550000Y-83700952D01*
X208502380Y-83653333D01*
X208454761Y-83558095D01*
X208454761Y-83462857D01*
X208502380Y-83367619D01*
X208550000Y-83320000D01*
X208645238Y-83272380D01*
X208883333Y-83272380D01*
X209026190Y-83320000D01*
X209835714Y-84224761D02*
X209740476Y-84272380D01*
X209550000Y-84272380D01*
X209454761Y-84224761D01*
X209407142Y-84129523D01*
X209407142Y-83748571D01*
X209454761Y-83653333D01*
X209550000Y-83605714D01*
X209740476Y-83605714D01*
X209835714Y-83653333D01*
X209883333Y-83748571D01*
X209883333Y-83843809D01*
X209407142Y-83939047D01*
X210311904Y-83605714D02*
X210311904Y-84272380D01*
X210311904Y-83700952D02*
X210359523Y-83653333D01*
X210454761Y-83605714D01*
X210597619Y-83605714D01*
X210692857Y-83653333D01*
X210740476Y-83748571D01*
X210740476Y-84272380D01*
X211169047Y-84224761D02*
X211264285Y-84272380D01*
X211454761Y-84272380D01*
X211550000Y-84224761D01*
X211597619Y-84129523D01*
X211597619Y-84081904D01*
X211550000Y-83986666D01*
X211454761Y-83939047D01*
X211311904Y-83939047D01*
X211216666Y-83891428D01*
X211169047Y-83796190D01*
X211169047Y-83748571D01*
X211216666Y-83653333D01*
X211311904Y-83605714D01*
X211454761Y-83605714D01*
X211550000Y-83653333D01*
X212407142Y-84224761D02*
X212311904Y-84272380D01*
X212121428Y-84272380D01*
X212026190Y-84224761D01*
X211978571Y-84129523D01*
X211978571Y-83748571D01*
X212026190Y-83653333D01*
X212121428Y-83605714D01*
X212311904Y-83605714D01*
X212407142Y-83653333D01*
X212454761Y-83748571D01*
X212454761Y-83843809D01*
X211978571Y-83939047D01*
X206692857Y-68032380D02*
X206692857Y-68841904D01*
X206740476Y-68937142D01*
X206788095Y-68984761D01*
X206883333Y-69032380D01*
X207073809Y-69032380D01*
X207169047Y-68984761D01*
X207216666Y-68937142D01*
X207264285Y-68841904D01*
X207264285Y-68032380D01*
X207502380Y-69127619D02*
X208264285Y-69127619D01*
X208454761Y-68984761D02*
X208597619Y-69032380D01*
X208835714Y-69032380D01*
X208930952Y-68984761D01*
X208978571Y-68937142D01*
X209026190Y-68841904D01*
X209026190Y-68746666D01*
X208978571Y-68651428D01*
X208930952Y-68603809D01*
X208835714Y-68556190D01*
X208645238Y-68508571D01*
X208550000Y-68460952D01*
X208502380Y-68413333D01*
X208454761Y-68318095D01*
X208454761Y-68222857D01*
X208502380Y-68127619D01*
X208550000Y-68080000D01*
X208645238Y-68032380D01*
X208883333Y-68032380D01*
X209026190Y-68080000D01*
X209835714Y-68984761D02*
X209740476Y-69032380D01*
X209550000Y-69032380D01*
X209454761Y-68984761D01*
X209407142Y-68889523D01*
X209407142Y-68508571D01*
X209454761Y-68413333D01*
X209550000Y-68365714D01*
X209740476Y-68365714D01*
X209835714Y-68413333D01*
X209883333Y-68508571D01*
X209883333Y-68603809D01*
X209407142Y-68699047D01*
X210311904Y-68365714D02*
X210311904Y-69032380D01*
X210311904Y-68460952D02*
X210359523Y-68413333D01*
X210454761Y-68365714D01*
X210597619Y-68365714D01*
X210692857Y-68413333D01*
X210740476Y-68508571D01*
X210740476Y-69032380D01*
X211169047Y-68984761D02*
X211264285Y-69032380D01*
X211454761Y-69032380D01*
X211550000Y-68984761D01*
X211597619Y-68889523D01*
X211597619Y-68841904D01*
X211550000Y-68746666D01*
X211454761Y-68699047D01*
X211311904Y-68699047D01*
X211216666Y-68651428D01*
X211169047Y-68556190D01*
X211169047Y-68508571D01*
X211216666Y-68413333D01*
X211311904Y-68365714D01*
X211454761Y-68365714D01*
X211550000Y-68413333D01*
X212407142Y-68984761D02*
X212311904Y-69032380D01*
X212121428Y-69032380D01*
X212026190Y-68984761D01*
X211978571Y-68889523D01*
X211978571Y-68508571D01*
X212026190Y-68413333D01*
X212121428Y-68365714D01*
X212311904Y-68365714D01*
X212407142Y-68413333D01*
X212454761Y-68508571D01*
X212454761Y-68603809D01*
X211978571Y-68699047D01*
X123158571Y-114752380D02*
X123158571Y-113752380D01*
X123396666Y-114847619D02*
X124158571Y-114847619D01*
X124349047Y-114704761D02*
X124491904Y-114752380D01*
X124730000Y-114752380D01*
X124825238Y-114704761D01*
X124872857Y-114657142D01*
X124920476Y-114561904D01*
X124920476Y-114466666D01*
X124872857Y-114371428D01*
X124825238Y-114323809D01*
X124730000Y-114276190D01*
X124539523Y-114228571D01*
X124444285Y-114180952D01*
X124396666Y-114133333D01*
X124349047Y-114038095D01*
X124349047Y-113942857D01*
X124396666Y-113847619D01*
X124444285Y-113800000D01*
X124539523Y-113752380D01*
X124777619Y-113752380D01*
X124920476Y-113800000D01*
X125730000Y-114704761D02*
X125634761Y-114752380D01*
X125444285Y-114752380D01*
X125349047Y-114704761D01*
X125301428Y-114609523D01*
X125301428Y-114228571D01*
X125349047Y-114133333D01*
X125444285Y-114085714D01*
X125634761Y-114085714D01*
X125730000Y-114133333D01*
X125777619Y-114228571D01*
X125777619Y-114323809D01*
X125301428Y-114419047D01*
X126206190Y-114085714D02*
X126206190Y-114752380D01*
X126206190Y-114180952D02*
X126253809Y-114133333D01*
X126349047Y-114085714D01*
X126491904Y-114085714D01*
X126587142Y-114133333D01*
X126634761Y-114228571D01*
X126634761Y-114752380D01*
X127063333Y-114704761D02*
X127158571Y-114752380D01*
X127349047Y-114752380D01*
X127444285Y-114704761D01*
X127491904Y-114609523D01*
X127491904Y-114561904D01*
X127444285Y-114466666D01*
X127349047Y-114419047D01*
X127206190Y-114419047D01*
X127110952Y-114371428D01*
X127063333Y-114276190D01*
X127063333Y-114228571D01*
X127110952Y-114133333D01*
X127206190Y-114085714D01*
X127349047Y-114085714D01*
X127444285Y-114133333D01*
X128301428Y-114704761D02*
X128206190Y-114752380D01*
X128015714Y-114752380D01*
X127920476Y-114704761D01*
X127872857Y-114609523D01*
X127872857Y-114228571D01*
X127920476Y-114133333D01*
X128015714Y-114085714D01*
X128206190Y-114085714D01*
X128301428Y-114133333D01*
X128349047Y-114228571D01*
X128349047Y-114323809D01*
X127872857Y-114419047D01*
X122761904Y-98194761D02*
X122904761Y-98242380D01*
X123142857Y-98242380D01*
X123238095Y-98194761D01*
X123285714Y-98147142D01*
X123333333Y-98051904D01*
X123333333Y-97956666D01*
X123285714Y-97861428D01*
X123238095Y-97813809D01*
X123142857Y-97766190D01*
X122952380Y-97718571D01*
X122857142Y-97670952D01*
X122809523Y-97623333D01*
X122761904Y-97528095D01*
X122761904Y-97432857D01*
X122809523Y-97337619D01*
X122857142Y-97290000D01*
X122952380Y-97242380D01*
X123190476Y-97242380D01*
X123333333Y-97290000D01*
X123619047Y-97575714D02*
X124000000Y-97575714D01*
X123761904Y-97242380D02*
X123761904Y-98099523D01*
X123809523Y-98194761D01*
X123904761Y-98242380D01*
X124000000Y-98242380D01*
X124333333Y-98242380D02*
X124333333Y-97575714D01*
X124333333Y-97766190D02*
X124380952Y-97670952D01*
X124428571Y-97623333D01*
X124523809Y-97575714D01*
X124619047Y-97575714D01*
X125095238Y-98242380D02*
X125000000Y-98194761D01*
X124952380Y-98147142D01*
X124904761Y-98051904D01*
X124904761Y-97766190D01*
X124952380Y-97670952D01*
X125000000Y-97623333D01*
X125095238Y-97575714D01*
X125238095Y-97575714D01*
X125333333Y-97623333D01*
X125380952Y-97670952D01*
X125428571Y-97766190D01*
X125428571Y-98051904D01*
X125380952Y-98147142D01*
X125333333Y-98194761D01*
X125238095Y-98242380D01*
X125095238Y-98242380D01*
X125857142Y-98242380D02*
X125857142Y-97575714D01*
X125857142Y-97670952D02*
X125904761Y-97623333D01*
X126000000Y-97575714D01*
X126142857Y-97575714D01*
X126238095Y-97623333D01*
X126285714Y-97718571D01*
X126285714Y-98242380D01*
X126285714Y-97718571D02*
X126333333Y-97623333D01*
X126428571Y-97575714D01*
X126571428Y-97575714D01*
X126666666Y-97623333D01*
X126714285Y-97718571D01*
X126714285Y-98242380D01*
X128476190Y-98242380D02*
X127904761Y-98242380D01*
X128190476Y-98242380D02*
X128190476Y-97242380D01*
X128095238Y-97385238D01*
X128000000Y-97480476D01*
X127904761Y-97528095D01*
X128857142Y-97956666D02*
X129333333Y-97956666D01*
X128761904Y-98242380D02*
X129095238Y-97242380D01*
X129428571Y-98242380D01*
X130476190Y-97194761D02*
X129619047Y-98480476D01*
X130666666Y-97242380D02*
X131000000Y-98242380D01*
X131333333Y-97242380D01*
X123158571Y-80462380D02*
X123158571Y-79462380D01*
X123396666Y-80557619D02*
X124158571Y-80557619D01*
X124349047Y-80414761D02*
X124491904Y-80462380D01*
X124730000Y-80462380D01*
X124825238Y-80414761D01*
X124872857Y-80367142D01*
X124920476Y-80271904D01*
X124920476Y-80176666D01*
X124872857Y-80081428D01*
X124825238Y-80033809D01*
X124730000Y-79986190D01*
X124539523Y-79938571D01*
X124444285Y-79890952D01*
X124396666Y-79843333D01*
X124349047Y-79748095D01*
X124349047Y-79652857D01*
X124396666Y-79557619D01*
X124444285Y-79510000D01*
X124539523Y-79462380D01*
X124777619Y-79462380D01*
X124920476Y-79510000D01*
X125730000Y-80414761D02*
X125634761Y-80462380D01*
X125444285Y-80462380D01*
X125349047Y-80414761D01*
X125301428Y-80319523D01*
X125301428Y-79938571D01*
X125349047Y-79843333D01*
X125444285Y-79795714D01*
X125634761Y-79795714D01*
X125730000Y-79843333D01*
X125777619Y-79938571D01*
X125777619Y-80033809D01*
X125301428Y-80129047D01*
X126206190Y-79795714D02*
X126206190Y-80462380D01*
X126206190Y-79890952D02*
X126253809Y-79843333D01*
X126349047Y-79795714D01*
X126491904Y-79795714D01*
X126587142Y-79843333D01*
X126634761Y-79938571D01*
X126634761Y-80462380D01*
X127063333Y-80414761D02*
X127158571Y-80462380D01*
X127349047Y-80462380D01*
X127444285Y-80414761D01*
X127491904Y-80319523D01*
X127491904Y-80271904D01*
X127444285Y-80176666D01*
X127349047Y-80129047D01*
X127206190Y-80129047D01*
X127110952Y-80081428D01*
X127063333Y-79986190D01*
X127063333Y-79938571D01*
X127110952Y-79843333D01*
X127206190Y-79795714D01*
X127349047Y-79795714D01*
X127444285Y-79843333D01*
X128301428Y-80414761D02*
X128206190Y-80462380D01*
X128015714Y-80462380D01*
X127920476Y-80414761D01*
X127872857Y-80319523D01*
X127872857Y-79938571D01*
X127920476Y-79843333D01*
X128015714Y-79795714D01*
X128206190Y-79795714D01*
X128301428Y-79843333D01*
X128349047Y-79938571D01*
X128349047Y-80033809D01*
X127872857Y-80129047D01*
X122761904Y-66444761D02*
X122904761Y-66492380D01*
X123142857Y-66492380D01*
X123238095Y-66444761D01*
X123285714Y-66397142D01*
X123333333Y-66301904D01*
X123333333Y-66206666D01*
X123285714Y-66111428D01*
X123238095Y-66063809D01*
X123142857Y-66016190D01*
X122952380Y-65968571D01*
X122857142Y-65920952D01*
X122809523Y-65873333D01*
X122761904Y-65778095D01*
X122761904Y-65682857D01*
X122809523Y-65587619D01*
X122857142Y-65540000D01*
X122952380Y-65492380D01*
X123190476Y-65492380D01*
X123333333Y-65540000D01*
X123619047Y-65825714D02*
X124000000Y-65825714D01*
X123761904Y-65492380D02*
X123761904Y-66349523D01*
X123809523Y-66444761D01*
X123904761Y-66492380D01*
X124000000Y-66492380D01*
X124333333Y-66492380D02*
X124333333Y-65825714D01*
X124333333Y-66016190D02*
X124380952Y-65920952D01*
X124428571Y-65873333D01*
X124523809Y-65825714D01*
X124619047Y-65825714D01*
X125095238Y-66492380D02*
X125000000Y-66444761D01*
X124952380Y-66397142D01*
X124904761Y-66301904D01*
X124904761Y-66016190D01*
X124952380Y-65920952D01*
X125000000Y-65873333D01*
X125095238Y-65825714D01*
X125238095Y-65825714D01*
X125333333Y-65873333D01*
X125380952Y-65920952D01*
X125428571Y-66016190D01*
X125428571Y-66301904D01*
X125380952Y-66397142D01*
X125333333Y-66444761D01*
X125238095Y-66492380D01*
X125095238Y-66492380D01*
X125857142Y-66492380D02*
X125857142Y-65825714D01*
X125857142Y-65920952D02*
X125904761Y-65873333D01*
X126000000Y-65825714D01*
X126142857Y-65825714D01*
X126238095Y-65873333D01*
X126285714Y-65968571D01*
X126285714Y-66492380D01*
X126285714Y-65968571D02*
X126333333Y-65873333D01*
X126428571Y-65825714D01*
X126571428Y-65825714D01*
X126666666Y-65873333D01*
X126714285Y-65968571D01*
X126714285Y-66492380D01*
X128476190Y-66492380D02*
X127904761Y-66492380D01*
X128190476Y-66492380D02*
X128190476Y-65492380D01*
X128095238Y-65635238D01*
X128000000Y-65730476D01*
X127904761Y-65778095D01*
X128857142Y-66206666D02*
X129333333Y-66206666D01*
X128761904Y-66492380D02*
X129095238Y-65492380D01*
X129428571Y-66492380D01*
X130476190Y-65444761D02*
X129619047Y-66730476D01*
X130666666Y-65492380D02*
X131000000Y-66492380D01*
X131333333Y-65492380D01*
X123698095Y-50745000D02*
X123602857Y-50697380D01*
X123460000Y-50697380D01*
X123317142Y-50745000D01*
X123221904Y-50840238D01*
X123174285Y-50935476D01*
X123126666Y-51125952D01*
X123126666Y-51268809D01*
X123174285Y-51459285D01*
X123221904Y-51554523D01*
X123317142Y-51649761D01*
X123460000Y-51697380D01*
X123555238Y-51697380D01*
X123698095Y-51649761D01*
X123745714Y-51602142D01*
X123745714Y-51268809D01*
X123555238Y-51268809D01*
X124174285Y-51697380D02*
X124174285Y-50697380D01*
X124745714Y-51697380D01*
X124745714Y-50697380D01*
X125221904Y-51697380D02*
X125221904Y-50697380D01*
X125460000Y-50697380D01*
X125602857Y-50745000D01*
X125698095Y-50840238D01*
X125745714Y-50935476D01*
X125793333Y-51125952D01*
X125793333Y-51268809D01*
X125745714Y-51459285D01*
X125698095Y-51554523D01*
X125602857Y-51649761D01*
X125460000Y-51697380D01*
X125221904Y-51697380D01*
X123126666Y-52966428D02*
X123888571Y-52966428D01*
X123507619Y-53347380D02*
X123507619Y-52585476D01*
X124888571Y-53347380D02*
X124317142Y-53347380D01*
X124602857Y-53347380D02*
X124602857Y-52347380D01*
X124507619Y-52490238D01*
X124412380Y-52585476D01*
X124317142Y-52633095D01*
X125793333Y-52347380D02*
X125317142Y-52347380D01*
X125269523Y-52823571D01*
X125317142Y-52775952D01*
X125412380Y-52728333D01*
X125650476Y-52728333D01*
X125745714Y-52775952D01*
X125793333Y-52823571D01*
X125840952Y-52918809D01*
X125840952Y-53156904D01*
X125793333Y-53252142D01*
X125745714Y-53299761D01*
X125650476Y-53347380D01*
X125412380Y-53347380D01*
X125317142Y-53299761D01*
X125269523Y-53252142D01*
D11*
X210880000Y-115510000D02*
X208220000Y-115510000D01*
X210880000Y-118110000D02*
X210880000Y-115510000D01*
X208220000Y-118110000D02*
X208220000Y-115510000D01*
X210880000Y-118110000D02*
X208220000Y-118110000D01*
X210880000Y-119380000D02*
X210880000Y-120710000D01*
X210880000Y-120710000D02*
X209550000Y-120710000D01*
X208220000Y-55940000D02*
X210880000Y-55940000D01*
X208220000Y-53340000D02*
X208220000Y-55940000D01*
X210880000Y-53340000D02*
X210880000Y-55940000D01*
X208220000Y-53340000D02*
X210880000Y-53340000D01*
X208220000Y-52070000D02*
X208220000Y-50740000D01*
X208220000Y-50740000D02*
X209550000Y-50740000D01*
X121980000Y-49470000D02*
X119320000Y-49470000D01*
X121980000Y-52070000D02*
X121980000Y-49470000D01*
X119320000Y-52070000D02*
X119320000Y-49470000D01*
X121980000Y-52070000D02*
X119320000Y-52070000D01*
X121980000Y-53340000D02*
X121980000Y-54670000D01*
X121980000Y-54670000D02*
X120650000Y-54670000D01*
X192930000Y-118110000D02*
X190430000Y-118110000D01*
X139810000Y-118110000D02*
X142310000Y-118110000D01*
X190430000Y-111800000D02*
X142310000Y-111800000D01*
X190430000Y-124420000D02*
X190430000Y-111800000D01*
X142310000Y-124420000D02*
X190430000Y-124420000D01*
X142310000Y-111800000D02*
X142310000Y-124420000D01*
X212150000Y-85030000D02*
X209490000Y-85030000D01*
X212150000Y-87630000D02*
X212150000Y-85030000D01*
X209490000Y-87630000D02*
X209490000Y-85030000D01*
X212150000Y-87630000D02*
X209490000Y-87630000D01*
X212150000Y-88900000D02*
X212150000Y-90230000D01*
X212150000Y-90230000D02*
X210820000Y-90230000D01*
X212150000Y-71060000D02*
X209490000Y-71060000D01*
X212150000Y-73660000D02*
X212150000Y-71060000D01*
X209490000Y-73660000D02*
X209490000Y-71060000D01*
X212150000Y-73660000D02*
X209490000Y-73660000D01*
X212150000Y-74930000D02*
X212150000Y-76260000D01*
X212150000Y-76260000D02*
X210820000Y-76260000D01*
X119320000Y-116900000D02*
X121980000Y-116900000D01*
X119320000Y-114300000D02*
X119320000Y-116900000D01*
X121980000Y-114300000D02*
X121980000Y-116900000D01*
X119320000Y-114300000D02*
X121980000Y-114300000D01*
X119320000Y-113030000D02*
X119320000Y-111700000D01*
X119320000Y-111700000D02*
X120650000Y-111700000D01*
X119320000Y-82610000D02*
X121980000Y-82610000D01*
X119320000Y-80010000D02*
X119320000Y-82610000D01*
X121980000Y-80010000D02*
X121980000Y-82610000D01*
X119320000Y-80010000D02*
X121980000Y-80010000D01*
X119320000Y-78740000D02*
X119320000Y-77410000D01*
X119320000Y-77410000D02*
X120650000Y-77410000D01*
X119320000Y-100390000D02*
X121980000Y-100390000D01*
X119320000Y-97790000D02*
X119320000Y-100390000D01*
X121980000Y-97790000D02*
X121980000Y-100390000D01*
X119320000Y-97790000D02*
X121980000Y-97790000D01*
X119320000Y-96520000D02*
X119320000Y-95190000D01*
X119320000Y-95190000D02*
X120650000Y-95190000D01*
X119320000Y-67370000D02*
X121980000Y-67370000D01*
X119320000Y-64770000D02*
X119320000Y-67370000D01*
X121980000Y-64770000D02*
X121980000Y-67370000D01*
X119320000Y-64770000D02*
X121980000Y-64770000D01*
X119320000Y-63500000D02*
X119320000Y-62170000D01*
X119320000Y-62170000D02*
X120650000Y-62170000D01*
X160540000Y-92120000D02*
X162040000Y-92120000D01*
X161290000Y-92870000D02*
X161290000Y-91370000D01*
X161011000Y-82589000D02*
X161569000Y-82589000D01*
X160618000Y-82629000D02*
X161962000Y-82629000D01*
X160377000Y-82669000D02*
X162203000Y-82669000D01*
X160186000Y-82709000D02*
X162394000Y-82709000D01*
X160025000Y-82749000D02*
X162555000Y-82749000D01*
X159883000Y-82789000D02*
X162697000Y-82789000D01*
X159754000Y-82829000D02*
X162826000Y-82829000D01*
X159636000Y-82869000D02*
X162944000Y-82869000D01*
X159527000Y-82909000D02*
X163053000Y-82909000D01*
X159424000Y-82949000D02*
X163156000Y-82949000D01*
X159328000Y-82989000D02*
X163252000Y-82989000D01*
X159237000Y-83029000D02*
X163343000Y-83029000D01*
X159150000Y-83069000D02*
X163430000Y-83069000D01*
X159068000Y-83109000D02*
X163512000Y-83109000D01*
X158989000Y-83149000D02*
X163591000Y-83149000D01*
X158913000Y-83189000D02*
X163667000Y-83189000D01*
X158841000Y-83229000D02*
X163739000Y-83229000D01*
X158771000Y-83269000D02*
X163809000Y-83269000D01*
X158703000Y-83309000D02*
X163877000Y-83309000D01*
X158638000Y-83349000D02*
X163942000Y-83349000D01*
X158575000Y-83389000D02*
X164005000Y-83389000D01*
X158513000Y-83429000D02*
X164067000Y-83429000D01*
X158454000Y-83469000D02*
X164126000Y-83469000D01*
X158396000Y-83509000D02*
X164184000Y-83509000D01*
X158341000Y-83549000D02*
X164239000Y-83549000D01*
X158286000Y-83589000D02*
X164294000Y-83589000D01*
X158233000Y-83629000D02*
X164347000Y-83629000D01*
X158182000Y-83669000D02*
X164398000Y-83669000D01*
X158132000Y-83709000D02*
X164448000Y-83709000D01*
X158083000Y-83749000D02*
X164497000Y-83749000D01*
X158035000Y-83789000D02*
X164545000Y-83789000D01*
X157988000Y-83829000D02*
X164592000Y-83829000D01*
X157943000Y-83869000D02*
X164637000Y-83869000D01*
X157899000Y-83909000D02*
X164681000Y-83909000D01*
X157855000Y-83949000D02*
X164725000Y-83949000D01*
X157813000Y-83989000D02*
X164767000Y-83989000D01*
X162471000Y-84029000D02*
X164808000Y-84029000D01*
X157772000Y-84029000D02*
X160109000Y-84029000D01*
X162471000Y-84069000D02*
X164849000Y-84069000D01*
X157731000Y-84069000D02*
X160109000Y-84069000D01*
X162471000Y-84109000D02*
X164888000Y-84109000D01*
X157692000Y-84109000D02*
X160109000Y-84109000D01*
X162471000Y-84149000D02*
X164927000Y-84149000D01*
X157653000Y-84149000D02*
X160109000Y-84149000D01*
X162471000Y-84189000D02*
X164965000Y-84189000D01*
X157615000Y-84189000D02*
X160109000Y-84189000D01*
X162471000Y-84229000D02*
X165002000Y-84229000D01*
X157578000Y-84229000D02*
X160109000Y-84229000D01*
X162471000Y-84269000D02*
X165038000Y-84269000D01*
X157542000Y-84269000D02*
X160109000Y-84269000D01*
X162471000Y-84309000D02*
X165074000Y-84309000D01*
X157506000Y-84309000D02*
X160109000Y-84309000D01*
X162471000Y-84349000D02*
X165109000Y-84349000D01*
X157471000Y-84349000D02*
X160109000Y-84349000D01*
X162471000Y-84389000D02*
X165143000Y-84389000D01*
X157437000Y-84389000D02*
X160109000Y-84389000D01*
X162471000Y-84429000D02*
X165176000Y-84429000D01*
X157404000Y-84429000D02*
X160109000Y-84429000D01*
X162471000Y-84469000D02*
X165209000Y-84469000D01*
X157371000Y-84469000D02*
X160109000Y-84469000D01*
X162471000Y-84509000D02*
X165241000Y-84509000D01*
X157339000Y-84509000D02*
X160109000Y-84509000D01*
X162471000Y-84549000D02*
X165272000Y-84549000D01*
X157308000Y-84549000D02*
X160109000Y-84549000D01*
X162471000Y-84589000D02*
X165303000Y-84589000D01*
X157277000Y-84589000D02*
X160109000Y-84589000D01*
X162471000Y-84629000D02*
X165333000Y-84629000D01*
X157247000Y-84629000D02*
X160109000Y-84629000D01*
X162471000Y-84669000D02*
X165362000Y-84669000D01*
X157218000Y-84669000D02*
X160109000Y-84669000D01*
X162471000Y-84709000D02*
X165391000Y-84709000D01*
X157189000Y-84709000D02*
X160109000Y-84709000D01*
X162471000Y-84749000D02*
X165420000Y-84749000D01*
X157160000Y-84749000D02*
X160109000Y-84749000D01*
X162471000Y-84789000D02*
X165447000Y-84789000D01*
X157133000Y-84789000D02*
X160109000Y-84789000D01*
X162471000Y-84829000D02*
X165475000Y-84829000D01*
X157105000Y-84829000D02*
X160109000Y-84829000D01*
X162471000Y-84869000D02*
X165501000Y-84869000D01*
X157079000Y-84869000D02*
X160109000Y-84869000D01*
X162471000Y-84909000D02*
X165527000Y-84909000D01*
X157053000Y-84909000D02*
X160109000Y-84909000D01*
X162471000Y-84949000D02*
X165553000Y-84949000D01*
X157027000Y-84949000D02*
X160109000Y-84949000D01*
X162471000Y-84989000D02*
X165578000Y-84989000D01*
X157002000Y-84989000D02*
X160109000Y-84989000D01*
X162471000Y-85029000D02*
X165602000Y-85029000D01*
X156978000Y-85029000D02*
X160109000Y-85029000D01*
X162471000Y-85069000D02*
X165626000Y-85069000D01*
X156954000Y-85069000D02*
X160109000Y-85069000D01*
X162471000Y-85109000D02*
X165650000Y-85109000D01*
X156930000Y-85109000D02*
X160109000Y-85109000D01*
X162471000Y-85149000D02*
X165673000Y-85149000D01*
X156907000Y-85149000D02*
X160109000Y-85149000D01*
X162471000Y-85189000D02*
X165695000Y-85189000D01*
X156885000Y-85189000D02*
X160109000Y-85189000D01*
X162471000Y-85229000D02*
X165718000Y-85229000D01*
X156862000Y-85229000D02*
X160109000Y-85229000D01*
X162471000Y-85269000D02*
X165739000Y-85269000D01*
X156841000Y-85269000D02*
X160109000Y-85269000D01*
X162471000Y-85309000D02*
X165760000Y-85309000D01*
X156820000Y-85309000D02*
X160109000Y-85309000D01*
X162471000Y-85349000D02*
X165781000Y-85349000D01*
X156799000Y-85349000D02*
X160109000Y-85349000D01*
X162471000Y-85389000D02*
X165801000Y-85389000D01*
X156779000Y-85389000D02*
X160109000Y-85389000D01*
X162471000Y-85429000D02*
X165821000Y-85429000D01*
X156759000Y-85429000D02*
X160109000Y-85429000D01*
X162471000Y-85469000D02*
X165840000Y-85469000D01*
X156740000Y-85469000D02*
X160109000Y-85469000D01*
X162471000Y-85509000D02*
X165859000Y-85509000D01*
X156721000Y-85509000D02*
X160109000Y-85509000D01*
X162471000Y-85549000D02*
X165878000Y-85549000D01*
X156702000Y-85549000D02*
X160109000Y-85549000D01*
X162471000Y-85589000D02*
X165896000Y-85589000D01*
X156684000Y-85589000D02*
X160109000Y-85589000D01*
X162471000Y-85629000D02*
X165914000Y-85629000D01*
X156666000Y-85629000D02*
X160109000Y-85629000D01*
X162471000Y-85669000D02*
X165931000Y-85669000D01*
X156649000Y-85669000D02*
X160109000Y-85669000D01*
X162471000Y-85709000D02*
X165948000Y-85709000D01*
X156632000Y-85709000D02*
X160109000Y-85709000D01*
X162471000Y-85749000D02*
X165964000Y-85749000D01*
X156616000Y-85749000D02*
X160109000Y-85749000D01*
X162471000Y-85789000D02*
X165981000Y-85789000D01*
X156599000Y-85789000D02*
X160109000Y-85789000D01*
X162471000Y-85829000D02*
X165996000Y-85829000D01*
X156584000Y-85829000D02*
X160109000Y-85829000D01*
X162471000Y-85869000D02*
X166012000Y-85869000D01*
X156568000Y-85869000D02*
X160109000Y-85869000D01*
X162471000Y-85909000D02*
X166027000Y-85909000D01*
X156553000Y-85909000D02*
X160109000Y-85909000D01*
X162471000Y-85949000D02*
X166041000Y-85949000D01*
X156539000Y-85949000D02*
X160109000Y-85949000D01*
X162471000Y-85989000D02*
X166055000Y-85989000D01*
X156525000Y-85989000D02*
X160109000Y-85989000D01*
X162471000Y-86029000D02*
X166069000Y-86029000D01*
X156511000Y-86029000D02*
X160109000Y-86029000D01*
X162471000Y-86069000D02*
X166082000Y-86069000D01*
X156498000Y-86069000D02*
X160109000Y-86069000D01*
X162471000Y-86109000D02*
X166096000Y-86109000D01*
X156484000Y-86109000D02*
X160109000Y-86109000D01*
X162471000Y-86149000D02*
X166108000Y-86149000D01*
X156472000Y-86149000D02*
X160109000Y-86149000D01*
X162471000Y-86189000D02*
X166121000Y-86189000D01*
X156459000Y-86189000D02*
X160109000Y-86189000D01*
X162471000Y-86229000D02*
X166133000Y-86229000D01*
X156447000Y-86229000D02*
X160109000Y-86229000D01*
X162471000Y-86269000D02*
X166144000Y-86269000D01*
X156436000Y-86269000D02*
X160109000Y-86269000D01*
X162471000Y-86309000D02*
X166155000Y-86309000D01*
X156425000Y-86309000D02*
X160109000Y-86309000D01*
X162471000Y-86349000D02*
X166166000Y-86349000D01*
X156414000Y-86349000D02*
X160109000Y-86349000D01*
X156403000Y-86389000D02*
X166177000Y-86389000D01*
X156393000Y-86429000D02*
X166187000Y-86429000D01*
X156383000Y-86469000D02*
X166197000Y-86469000D01*
X156373000Y-86509000D02*
X166207000Y-86509000D01*
X156364000Y-86549000D02*
X166216000Y-86549000D01*
X156355000Y-86589000D02*
X166225000Y-86589000D01*
X156347000Y-86629000D02*
X166233000Y-86629000D01*
X156339000Y-86669000D02*
X166241000Y-86669000D01*
X156331000Y-86709000D02*
X166249000Y-86709000D01*
X156323000Y-86749000D02*
X166257000Y-86749000D01*
X156316000Y-86789000D02*
X166264000Y-86789000D01*
X156309000Y-86829000D02*
X166271000Y-86829000D01*
X156303000Y-86869000D02*
X166277000Y-86869000D01*
X156297000Y-86909000D02*
X166283000Y-86909000D01*
X156291000Y-86949000D02*
X166289000Y-86949000D01*
X156285000Y-86990000D02*
X166295000Y-86990000D01*
X156280000Y-87030000D02*
X166300000Y-87030000D01*
X156275000Y-87070000D02*
X166305000Y-87070000D01*
X156270000Y-87110000D02*
X166310000Y-87110000D01*
X156266000Y-87150000D02*
X166314000Y-87150000D01*
X156262000Y-87190000D02*
X166318000Y-87190000D01*
X156259000Y-87230000D02*
X166321000Y-87230000D01*
X156255000Y-87270000D02*
X166325000Y-87270000D01*
X156252000Y-87310000D02*
X166328000Y-87310000D01*
X156250000Y-87350000D02*
X166330000Y-87350000D01*
X156247000Y-87390000D02*
X166333000Y-87390000D01*
X156245000Y-87430000D02*
X166335000Y-87430000D01*
X156243000Y-87470000D02*
X166337000Y-87470000D01*
X156242000Y-87510000D02*
X166338000Y-87510000D01*
X156241000Y-87550000D02*
X166339000Y-87550000D01*
X156240000Y-87590000D02*
X166340000Y-87590000D01*
X156240000Y-87630000D02*
X166340000Y-87630000D01*
X156240000Y-87670000D02*
X166340000Y-87670000D01*
X162673264Y-82771563D02*
G75*
G03X159910000Y-82770643I-1383264J-4898437D01*
G01*
X162673264Y-82771563D02*
G75*
G02X162670000Y-92569357I-1383264J-4898437D01*
G01*
X159906736Y-82771563D02*
G75*
G03X159910000Y-92569357I1383264J-4898437D01*
G01*
X172446000Y-85890000D02*
X172560000Y-85890000D01*
X170340000Y-85890000D02*
X170454000Y-85890000D01*
X172446000Y-89410000D02*
X172560000Y-89410000D01*
X170340000Y-89410000D02*
X170454000Y-89410000D01*
X172560000Y-89410000D02*
X172560000Y-85890000D01*
X170340000Y-89410000D02*
X170340000Y-85890000D01*
X158590000Y-74420000D02*
X158590000Y-77940000D01*
X156370000Y-74420000D02*
X156370000Y-77940000D01*
X158590000Y-74420000D02*
X158476000Y-74420000D01*
X156484000Y-74420000D02*
X156370000Y-74420000D01*
X158590000Y-77940000D02*
X158476000Y-77940000D01*
X156484000Y-77940000D02*
X156370000Y-77940000D01*
X176256000Y-97320000D02*
X176370000Y-97320000D01*
X174150000Y-97320000D02*
X174264000Y-97320000D01*
X176256000Y-100840000D02*
X176370000Y-100840000D01*
X174150000Y-100840000D02*
X174264000Y-100840000D01*
X176370000Y-100840000D02*
X176370000Y-97320000D01*
X174150000Y-100840000D02*
X174150000Y-97320000D01*
X158590000Y-69380000D02*
X158590000Y-72900000D01*
X156370000Y-69380000D02*
X156370000Y-72900000D01*
X158590000Y-69380000D02*
X158476000Y-69380000D01*
X156484000Y-69380000D02*
X156370000Y-69380000D01*
X158590000Y-72900000D02*
X158476000Y-72900000D01*
X156484000Y-72900000D02*
X156370000Y-72900000D01*
X176256000Y-102400000D02*
X176370000Y-102400000D01*
X174150000Y-102400000D02*
X174264000Y-102400000D01*
X176256000Y-105920000D02*
X176370000Y-105920000D01*
X174150000Y-105920000D02*
X174264000Y-105920000D01*
X176370000Y-105920000D02*
X176370000Y-102400000D01*
X174150000Y-105920000D02*
X174150000Y-102400000D01*
X186850000Y-75440000D02*
X186850000Y-71920000D01*
X189070000Y-75440000D02*
X189070000Y-71920000D01*
X186850000Y-75440000D02*
X186964000Y-75440000D01*
X188956000Y-75440000D02*
X189070000Y-75440000D01*
X186850000Y-71920000D02*
X186964000Y-71920000D01*
X188956000Y-71920000D02*
X189070000Y-71920000D01*
X197124000Y-102070000D02*
X197010000Y-102070000D01*
X199230000Y-102070000D02*
X199116000Y-102070000D01*
X197124000Y-98550000D02*
X197010000Y-98550000D01*
X199230000Y-98550000D02*
X199116000Y-98550000D01*
X197010000Y-98550000D02*
X197010000Y-102070000D01*
X199230000Y-98550000D02*
X199230000Y-102070000D01*
X151710000Y-47520000D02*
X151710000Y-43920000D01*
X150982795Y-48044184D02*
G75*
G03X151710000Y-47520000I-1122795J2324184D01*
G01*
X148761193Y-48076400D02*
G75*
G02X147260000Y-45720000I1098807J2356400D01*
G01*
X148761193Y-43363600D02*
G75*
G03X147260000Y-45720000I1098807J-2356400D01*
G01*
X150982795Y-43395816D02*
G75*
G02X151710000Y-43920000I-1122795J-2324184D01*
G01*
X177947205Y-134404184D02*
G75*
G02X177220000Y-133880000I1122795J2324184D01*
G01*
X180168807Y-134436400D02*
G75*
G03X181670000Y-132080000I-1098807J2356400D01*
G01*
X180168807Y-129723600D02*
G75*
G02X181670000Y-132080000I-1098807J-2356400D01*
G01*
X177947205Y-129755816D02*
G75*
G03X177220000Y-130280000I1122795J-2324184D01*
G01*
X177220000Y-130280000D02*
X177220000Y-133880000D01*
X165431000Y-42930000D02*
X165431000Y-45171000D01*
X162230000Y-42930000D02*
X162230000Y-45171000D01*
X170680000Y-45171000D02*
X171750000Y-45171000D01*
X165230000Y-45171000D02*
X167880000Y-45171000D01*
X159780000Y-45171000D02*
X162431000Y-45171000D01*
X155910000Y-45171000D02*
X156980000Y-45171000D01*
X171750000Y-42930000D02*
X171750000Y-47970000D01*
X155910000Y-42930000D02*
X155910000Y-47970000D01*
X155910000Y-47970000D02*
X171750000Y-47970000D01*
X170680000Y-42930000D02*
X171750000Y-42930000D01*
X165230000Y-42930000D02*
X167880000Y-42930000D01*
X159780000Y-42930000D02*
X162431000Y-42930000D01*
X155910000Y-42930000D02*
X156980000Y-42930000D01*
X171750000Y-134870000D02*
X170680000Y-134870000D01*
X167880000Y-134870000D02*
X165229000Y-134870000D01*
X162430000Y-134870000D02*
X159780000Y-134870000D01*
X156980000Y-134870000D02*
X155910000Y-134870000D01*
X171750000Y-129830000D02*
X155910000Y-129830000D01*
X171750000Y-134870000D02*
X171750000Y-129830000D01*
X155910000Y-134870000D02*
X155910000Y-129830000D01*
X171750000Y-132629000D02*
X170680000Y-132629000D01*
X167880000Y-132629000D02*
X165229000Y-132629000D01*
X162430000Y-132629000D02*
X159780000Y-132629000D01*
X156980000Y-132629000D02*
X155910000Y-132629000D01*
X165430000Y-134870000D02*
X165430000Y-132629000D01*
X162229000Y-134870000D02*
X162229000Y-132629000D01*
X151420000Y-81280000D02*
X150530000Y-81280000D01*
X143220000Y-81280000D02*
X144110000Y-81280000D01*
X150530000Y-79970000D02*
X144110000Y-79970000D01*
X150530000Y-82590000D02*
X150530000Y-79970000D01*
X144110000Y-82590000D02*
X150530000Y-82590000D01*
X144110000Y-79970000D02*
X144110000Y-82590000D01*
X191170000Y-96560000D02*
X191170000Y-93940000D01*
X191170000Y-93940000D02*
X184750000Y-93940000D01*
X184750000Y-93940000D02*
X184750000Y-96560000D01*
X184750000Y-96560000D02*
X191170000Y-96560000D01*
X192060000Y-95250000D02*
X191170000Y-95250000D01*
X183860000Y-95250000D02*
X184750000Y-95250000D01*
X150530000Y-76240000D02*
X150530000Y-73620000D01*
X150530000Y-73620000D02*
X144110000Y-73620000D01*
X144110000Y-73620000D02*
X144110000Y-76240000D01*
X144110000Y-76240000D02*
X150530000Y-76240000D01*
X151420000Y-74930000D02*
X150530000Y-74930000D01*
X143220000Y-74930000D02*
X144110000Y-74930000D01*
X192060000Y-101600000D02*
X191170000Y-101600000D01*
X183860000Y-101600000D02*
X184750000Y-101600000D01*
X191170000Y-100290000D02*
X184750000Y-100290000D01*
X191170000Y-102910000D02*
X191170000Y-100290000D01*
X184750000Y-102910000D02*
X191170000Y-102910000D01*
X184750000Y-100290000D02*
X184750000Y-102910000D01*
X140370000Y-47030000D02*
X140370000Y-44410000D01*
X140370000Y-44410000D02*
X133950000Y-44410000D01*
X133950000Y-44410000D02*
X133950000Y-47030000D01*
X133950000Y-47030000D02*
X140370000Y-47030000D01*
X141260000Y-45720000D02*
X140370000Y-45720000D01*
X133060000Y-45720000D02*
X133950000Y-45720000D01*
X151420000Y-68580000D02*
X150530000Y-68580000D01*
X143220000Y-68580000D02*
X144110000Y-68580000D01*
X150530000Y-67270000D02*
X144110000Y-67270000D01*
X150530000Y-69890000D02*
X150530000Y-67270000D01*
X144110000Y-69890000D02*
X150530000Y-69890000D01*
X144110000Y-67270000D02*
X144110000Y-69890000D01*
X188560000Y-130770000D02*
X188560000Y-133390000D01*
X188560000Y-133390000D02*
X194980000Y-133390000D01*
X194980000Y-133390000D02*
X194980000Y-130770000D01*
X194980000Y-130770000D02*
X188560000Y-130770000D01*
X187670000Y-132080000D02*
X188560000Y-132080000D01*
X195870000Y-132080000D02*
X194980000Y-132080000D01*
X183860000Y-107950000D02*
X184750000Y-107950000D01*
X192060000Y-107950000D02*
X191170000Y-107950000D01*
X184750000Y-109260000D02*
X191170000Y-109260000D01*
X184750000Y-106640000D02*
X184750000Y-109260000D01*
X191170000Y-106640000D02*
X184750000Y-106640000D01*
X191170000Y-109260000D02*
X191170000Y-106640000D01*
X175260000Y-69560000D02*
X175260000Y-70450000D01*
X175260000Y-77760000D02*
X175260000Y-76870000D01*
X173950000Y-70450000D02*
X173950000Y-76870000D01*
X176570000Y-70450000D02*
X173950000Y-70450000D01*
X176570000Y-76870000D02*
X176570000Y-70450000D01*
X173950000Y-76870000D02*
X176570000Y-76870000D01*
X157480000Y-105700000D02*
X157480000Y-104810000D01*
X157480000Y-97500000D02*
X157480000Y-98390000D01*
X158790000Y-104810000D02*
X158790000Y-98390000D01*
X156170000Y-104810000D02*
X158790000Y-104810000D01*
X156170000Y-98390000D02*
X156170000Y-104810000D01*
X158790000Y-98390000D02*
X156170000Y-98390000D01*
X182920000Y-70450000D02*
X180300000Y-70450000D01*
X180300000Y-70450000D02*
X180300000Y-76870000D01*
X180300000Y-76870000D02*
X182920000Y-76870000D01*
X182920000Y-76870000D02*
X182920000Y-70450000D01*
X181610000Y-69560000D02*
X181610000Y-70450000D01*
X181610000Y-77760000D02*
X181610000Y-76870000D01*
X149820000Y-104810000D02*
X152440000Y-104810000D01*
X152440000Y-104810000D02*
X152440000Y-98390000D01*
X152440000Y-98390000D02*
X149820000Y-98390000D01*
X149820000Y-98390000D02*
X149820000Y-104810000D01*
X151130000Y-105700000D02*
X151130000Y-104810000D01*
X151130000Y-97500000D02*
X151130000Y-98390000D01*
X200660000Y-77760000D02*
X200660000Y-76870000D01*
X200660000Y-69560000D02*
X200660000Y-70450000D01*
X201970000Y-76870000D02*
X201970000Y-70450000D01*
X199350000Y-76870000D02*
X201970000Y-76870000D01*
X199350000Y-70450000D02*
X199350000Y-76870000D01*
X201970000Y-70450000D02*
X199350000Y-70450000D01*
X193000000Y-76870000D02*
X195620000Y-76870000D01*
X195620000Y-76870000D02*
X195620000Y-70450000D01*
X195620000Y-70450000D02*
X193000000Y-70450000D01*
X193000000Y-70450000D02*
X193000000Y-76870000D01*
X194310000Y-77760000D02*
X194310000Y-76870000D01*
X194310000Y-69560000D02*
X194310000Y-70450000D01*
X210820000Y-96230000D02*
X210820000Y-97120000D01*
X210820000Y-104430000D02*
X210820000Y-103540000D01*
X209510000Y-97120000D02*
X209510000Y-103540000D01*
X212130000Y-97120000D02*
X209510000Y-97120000D01*
X212130000Y-103540000D02*
X212130000Y-97120000D01*
X209510000Y-103540000D02*
X212130000Y-103540000D01*
X205780000Y-97120000D02*
X203160000Y-97120000D01*
X203160000Y-97120000D02*
X203160000Y-103540000D01*
X203160000Y-103540000D02*
X205780000Y-103540000D01*
X205780000Y-103540000D02*
X205780000Y-97120000D01*
X204470000Y-96230000D02*
X204470000Y-97120000D01*
X204470000Y-104430000D02*
X204470000Y-103540000D01*
X190430000Y-63460000D02*
X190430000Y-50840000D01*
X190430000Y-50840000D02*
X142310000Y-50840000D01*
X142310000Y-50840000D02*
X142310000Y-63460000D01*
X142310000Y-63460000D02*
X190430000Y-63460000D01*
X192930000Y-57150000D02*
X190430000Y-57150000D01*
X139810000Y-57150000D02*
X142310000Y-57150000D01*
X168620000Y-68520000D02*
X167370000Y-68520000D01*
X168620000Y-78800000D02*
X168620000Y-68520000D01*
X164120000Y-78800000D02*
X168620000Y-78800000D01*
X164120000Y-68520000D02*
X164120000Y-78800000D01*
X165370000Y-68520000D02*
X164120000Y-68520000D01*
X167370000Y-68520000D02*
G75*
G02X165370000Y-68520000I-1000000J0D01*
G01*
X165370000Y-106740000D02*
G75*
G02X167370000Y-106740000I1000000J0D01*
G01*
X167370000Y-106740000D02*
X168620000Y-106740000D01*
X168620000Y-106740000D02*
X168620000Y-96460000D01*
X168620000Y-96460000D02*
X164120000Y-96460000D01*
X164120000Y-96460000D02*
X164120000Y-106740000D01*
X164120000Y-106740000D02*
X165370000Y-106740000D01*
D10*
X209216666Y-121162380D02*
X209216666Y-121876666D01*
X209169047Y-122019523D01*
X209073809Y-122114761D01*
X208930952Y-122162380D01*
X208835714Y-122162380D01*
X209740476Y-122162380D02*
X209930952Y-122162380D01*
X210026190Y-122114761D01*
X210073809Y-122067142D01*
X210169047Y-121924285D01*
X210216666Y-121733809D01*
X210216666Y-121352857D01*
X210169047Y-121257619D01*
X210121428Y-121210000D01*
X210026190Y-121162380D01*
X209835714Y-121162380D01*
X209740476Y-121210000D01*
X209692857Y-121257619D01*
X209645238Y-121352857D01*
X209645238Y-121590952D01*
X209692857Y-121686190D01*
X209740476Y-121733809D01*
X209835714Y-121781428D01*
X210026190Y-121781428D01*
X210121428Y-121733809D01*
X210169047Y-121686190D01*
X210216666Y-121590952D01*
X209216666Y-49192380D02*
X209216666Y-49906666D01*
X209169047Y-50049523D01*
X209073809Y-50144761D01*
X208930952Y-50192380D01*
X208835714Y-50192380D01*
X209835714Y-49620952D02*
X209740476Y-49573333D01*
X209692857Y-49525714D01*
X209645238Y-49430476D01*
X209645238Y-49382857D01*
X209692857Y-49287619D01*
X209740476Y-49240000D01*
X209835714Y-49192380D01*
X210026190Y-49192380D01*
X210121428Y-49240000D01*
X210169047Y-49287619D01*
X210216666Y-49382857D01*
X210216666Y-49430476D01*
X210169047Y-49525714D01*
X210121428Y-49573333D01*
X210026190Y-49620952D01*
X209835714Y-49620952D01*
X209740476Y-49668571D01*
X209692857Y-49716190D01*
X209645238Y-49811428D01*
X209645238Y-50001904D01*
X209692857Y-50097142D01*
X209740476Y-50144761D01*
X209835714Y-50192380D01*
X210026190Y-50192380D01*
X210121428Y-50144761D01*
X210169047Y-50097142D01*
X210216666Y-50001904D01*
X210216666Y-49811428D01*
X210169047Y-49716190D01*
X210121428Y-49668571D01*
X210026190Y-49620952D01*
X120316666Y-55122380D02*
X120316666Y-55836666D01*
X120269047Y-55979523D01*
X120173809Y-56074761D01*
X120030952Y-56122380D01*
X119935714Y-56122380D01*
X121316666Y-56122380D02*
X120745238Y-56122380D01*
X121030952Y-56122380D02*
X121030952Y-55122380D01*
X120935714Y-55265238D01*
X120840476Y-55360476D01*
X120745238Y-55408095D01*
X164155714Y-118562380D02*
X163822380Y-118086190D01*
X163584285Y-118562380D02*
X163584285Y-117562380D01*
X163965238Y-117562380D01*
X164060476Y-117610000D01*
X164108095Y-117657619D01*
X164155714Y-117752857D01*
X164155714Y-117895714D01*
X164108095Y-117990952D01*
X164060476Y-118038571D01*
X163965238Y-118086190D01*
X163584285Y-118086190D01*
X164536666Y-118514761D02*
X164631904Y-118562380D01*
X164822380Y-118562380D01*
X164917619Y-118514761D01*
X164965238Y-118419523D01*
X164965238Y-118371904D01*
X164917619Y-118276666D01*
X164822380Y-118229047D01*
X164679523Y-118229047D01*
X164584285Y-118181428D01*
X164536666Y-118086190D01*
X164536666Y-118038571D01*
X164584285Y-117943333D01*
X164679523Y-117895714D01*
X164822380Y-117895714D01*
X164917619Y-117943333D01*
X165393809Y-118562380D02*
X165393809Y-117562380D01*
X165822380Y-118562380D02*
X165822380Y-118038571D01*
X165774761Y-117943333D01*
X165679523Y-117895714D01*
X165536666Y-117895714D01*
X165441428Y-117943333D01*
X165393809Y-117990952D01*
X166727142Y-117895714D02*
X166727142Y-118562380D01*
X166298571Y-117895714D02*
X166298571Y-118419523D01*
X166346190Y-118514761D01*
X166441428Y-118562380D01*
X166584285Y-118562380D01*
X166679523Y-118514761D01*
X166727142Y-118467142D01*
X167203333Y-117895714D02*
X167203333Y-118562380D01*
X167203333Y-117990952D02*
X167250952Y-117943333D01*
X167346190Y-117895714D01*
X167489047Y-117895714D01*
X167584285Y-117943333D01*
X167631904Y-118038571D01*
X167631904Y-118562380D01*
X167965238Y-117895714D02*
X168346190Y-117895714D01*
X168108095Y-117562380D02*
X168108095Y-118419523D01*
X168155714Y-118514761D01*
X168250952Y-118562380D01*
X168346190Y-118562380D01*
X168631904Y-117657619D02*
X168679523Y-117610000D01*
X168774761Y-117562380D01*
X169012857Y-117562380D01*
X169108095Y-117610000D01*
X169155714Y-117657619D01*
X169203333Y-117752857D01*
X169203333Y-117848095D01*
X169155714Y-117990952D01*
X168584285Y-118562380D01*
X169203333Y-118562380D01*
X210486666Y-90682380D02*
X210486666Y-91396666D01*
X210439047Y-91539523D01*
X210343809Y-91634761D01*
X210200952Y-91682380D01*
X210105714Y-91682380D01*
X210867619Y-90682380D02*
X211534285Y-90682380D01*
X211105714Y-91682380D01*
X210486666Y-76712380D02*
X210486666Y-77426666D01*
X210439047Y-77569523D01*
X210343809Y-77664761D01*
X210200952Y-77712380D01*
X210105714Y-77712380D01*
X211391428Y-76712380D02*
X211200952Y-76712380D01*
X211105714Y-76760000D01*
X211058095Y-76807619D01*
X210962857Y-76950476D01*
X210915238Y-77140952D01*
X210915238Y-77521904D01*
X210962857Y-77617142D01*
X211010476Y-77664761D01*
X211105714Y-77712380D01*
X211296190Y-77712380D01*
X211391428Y-77664761D01*
X211439047Y-77617142D01*
X211486666Y-77521904D01*
X211486666Y-77283809D01*
X211439047Y-77188571D01*
X211391428Y-77140952D01*
X211296190Y-77093333D01*
X211105714Y-77093333D01*
X211010476Y-77140952D01*
X210962857Y-77188571D01*
X210915238Y-77283809D01*
X120316666Y-110152380D02*
X120316666Y-110866666D01*
X120269047Y-111009523D01*
X120173809Y-111104761D01*
X120030952Y-111152380D01*
X119935714Y-111152380D01*
X121269047Y-110152380D02*
X120792857Y-110152380D01*
X120745238Y-110628571D01*
X120792857Y-110580952D01*
X120888095Y-110533333D01*
X121126190Y-110533333D01*
X121221428Y-110580952D01*
X121269047Y-110628571D01*
X121316666Y-110723809D01*
X121316666Y-110961904D01*
X121269047Y-111057142D01*
X121221428Y-111104761D01*
X121126190Y-111152380D01*
X120888095Y-111152380D01*
X120792857Y-111104761D01*
X120745238Y-111057142D01*
X120316666Y-75862380D02*
X120316666Y-76576666D01*
X120269047Y-76719523D01*
X120173809Y-76814761D01*
X120030952Y-76862380D01*
X119935714Y-76862380D01*
X121221428Y-76195714D02*
X121221428Y-76862380D01*
X120983333Y-75814761D02*
X120745238Y-76529047D01*
X121364285Y-76529047D01*
X120316666Y-93642380D02*
X120316666Y-94356666D01*
X120269047Y-94499523D01*
X120173809Y-94594761D01*
X120030952Y-94642380D01*
X119935714Y-94642380D01*
X120697619Y-93642380D02*
X121316666Y-93642380D01*
X120983333Y-94023333D01*
X121126190Y-94023333D01*
X121221428Y-94070952D01*
X121269047Y-94118571D01*
X121316666Y-94213809D01*
X121316666Y-94451904D01*
X121269047Y-94547142D01*
X121221428Y-94594761D01*
X121126190Y-94642380D01*
X120840476Y-94642380D01*
X120745238Y-94594761D01*
X120697619Y-94547142D01*
X120316666Y-60622380D02*
X120316666Y-61336666D01*
X120269047Y-61479523D01*
X120173809Y-61574761D01*
X120030952Y-61622380D01*
X119935714Y-61622380D01*
X120745238Y-60717619D02*
X120792857Y-60670000D01*
X120888095Y-60622380D01*
X121126190Y-60622380D01*
X121221428Y-60670000D01*
X121269047Y-60717619D01*
X121316666Y-60812857D01*
X121316666Y-60908095D01*
X121269047Y-61050952D01*
X120697619Y-61622380D01*
X121316666Y-61622380D01*
X155337142Y-87836666D02*
X155384761Y-87884285D01*
X155432380Y-88027142D01*
X155432380Y-88122380D01*
X155384761Y-88265238D01*
X155289523Y-88360476D01*
X155194285Y-88408095D01*
X155003809Y-88455714D01*
X154860952Y-88455714D01*
X154670476Y-88408095D01*
X154575238Y-88360476D01*
X154480000Y-88265238D01*
X154432380Y-88122380D01*
X154432380Y-88027142D01*
X154480000Y-87884285D01*
X154527619Y-87836666D01*
X155432380Y-86884285D02*
X155432380Y-87455714D01*
X155432380Y-87170000D02*
X154432380Y-87170000D01*
X154575238Y-87265238D01*
X154670476Y-87360476D01*
X154718095Y-87455714D01*
X169447142Y-87816666D02*
X169494761Y-87864285D01*
X169542380Y-88007142D01*
X169542380Y-88102380D01*
X169494761Y-88245238D01*
X169399523Y-88340476D01*
X169304285Y-88388095D01*
X169113809Y-88435714D01*
X168970952Y-88435714D01*
X168780476Y-88388095D01*
X168685238Y-88340476D01*
X168590000Y-88245238D01*
X168542380Y-88102380D01*
X168542380Y-88007142D01*
X168590000Y-87864285D01*
X168637619Y-87816666D01*
X168637619Y-87435714D02*
X168590000Y-87388095D01*
X168542380Y-87292857D01*
X168542380Y-87054761D01*
X168590000Y-86959523D01*
X168637619Y-86911904D01*
X168732857Y-86864285D01*
X168828095Y-86864285D01*
X168970952Y-86911904D01*
X169542380Y-87483333D01*
X169542380Y-86864285D01*
X160197142Y-76346666D02*
X160244761Y-76394285D01*
X160292380Y-76537142D01*
X160292380Y-76632380D01*
X160244761Y-76775238D01*
X160149523Y-76870476D01*
X160054285Y-76918095D01*
X159863809Y-76965714D01*
X159720952Y-76965714D01*
X159530476Y-76918095D01*
X159435238Y-76870476D01*
X159340000Y-76775238D01*
X159292380Y-76632380D01*
X159292380Y-76537142D01*
X159340000Y-76394285D01*
X159387619Y-76346666D01*
X159292380Y-76013333D02*
X159292380Y-75394285D01*
X159673333Y-75727619D01*
X159673333Y-75584761D01*
X159720952Y-75489523D01*
X159768571Y-75441904D01*
X159863809Y-75394285D01*
X160101904Y-75394285D01*
X160197142Y-75441904D01*
X160244761Y-75489523D01*
X160292380Y-75584761D01*
X160292380Y-75870476D01*
X160244761Y-75965714D01*
X160197142Y-76013333D01*
X173257142Y-99246666D02*
X173304761Y-99294285D01*
X173352380Y-99437142D01*
X173352380Y-99532380D01*
X173304761Y-99675238D01*
X173209523Y-99770476D01*
X173114285Y-99818095D01*
X172923809Y-99865714D01*
X172780952Y-99865714D01*
X172590476Y-99818095D01*
X172495238Y-99770476D01*
X172400000Y-99675238D01*
X172352380Y-99532380D01*
X172352380Y-99437142D01*
X172400000Y-99294285D01*
X172447619Y-99246666D01*
X172685714Y-98389523D02*
X173352380Y-98389523D01*
X172304761Y-98627619D02*
X173019047Y-98865714D01*
X173019047Y-98246666D01*
X160197142Y-71306666D02*
X160244761Y-71354285D01*
X160292380Y-71497142D01*
X160292380Y-71592380D01*
X160244761Y-71735238D01*
X160149523Y-71830476D01*
X160054285Y-71878095D01*
X159863809Y-71925714D01*
X159720952Y-71925714D01*
X159530476Y-71878095D01*
X159435238Y-71830476D01*
X159340000Y-71735238D01*
X159292380Y-71592380D01*
X159292380Y-71497142D01*
X159340000Y-71354285D01*
X159387619Y-71306666D01*
X159292380Y-70401904D02*
X159292380Y-70878095D01*
X159768571Y-70925714D01*
X159720952Y-70878095D01*
X159673333Y-70782857D01*
X159673333Y-70544761D01*
X159720952Y-70449523D01*
X159768571Y-70401904D01*
X159863809Y-70354285D01*
X160101904Y-70354285D01*
X160197142Y-70401904D01*
X160244761Y-70449523D01*
X160292380Y-70544761D01*
X160292380Y-70782857D01*
X160244761Y-70878095D01*
X160197142Y-70925714D01*
X173257142Y-104326666D02*
X173304761Y-104374285D01*
X173352380Y-104517142D01*
X173352380Y-104612380D01*
X173304761Y-104755238D01*
X173209523Y-104850476D01*
X173114285Y-104898095D01*
X172923809Y-104945714D01*
X172780952Y-104945714D01*
X172590476Y-104898095D01*
X172495238Y-104850476D01*
X172400000Y-104755238D01*
X172352380Y-104612380D01*
X172352380Y-104517142D01*
X172400000Y-104374285D01*
X172447619Y-104326666D01*
X172352380Y-103469523D02*
X172352380Y-103660000D01*
X172400000Y-103755238D01*
X172447619Y-103802857D01*
X172590476Y-103898095D01*
X172780952Y-103945714D01*
X173161904Y-103945714D01*
X173257142Y-103898095D01*
X173304761Y-103850476D01*
X173352380Y-103755238D01*
X173352380Y-103564761D01*
X173304761Y-103469523D01*
X173257142Y-103421904D01*
X173161904Y-103374285D01*
X172923809Y-103374285D01*
X172828571Y-103421904D01*
X172780952Y-103469523D01*
X172733333Y-103564761D01*
X172733333Y-103755238D01*
X172780952Y-103850476D01*
X172828571Y-103898095D01*
X172923809Y-103945714D01*
X185957142Y-73846666D02*
X186004761Y-73894285D01*
X186052380Y-74037142D01*
X186052380Y-74132380D01*
X186004761Y-74275238D01*
X185909523Y-74370476D01*
X185814285Y-74418095D01*
X185623809Y-74465714D01*
X185480952Y-74465714D01*
X185290476Y-74418095D01*
X185195238Y-74370476D01*
X185100000Y-74275238D01*
X185052380Y-74132380D01*
X185052380Y-74037142D01*
X185100000Y-73894285D01*
X185147619Y-73846666D01*
X185052380Y-73513333D02*
X185052380Y-72846666D01*
X186052380Y-73275238D01*
X200837142Y-100476666D02*
X200884761Y-100524285D01*
X200932380Y-100667142D01*
X200932380Y-100762380D01*
X200884761Y-100905238D01*
X200789523Y-101000476D01*
X200694285Y-101048095D01*
X200503809Y-101095714D01*
X200360952Y-101095714D01*
X200170476Y-101048095D01*
X200075238Y-101000476D01*
X199980000Y-100905238D01*
X199932380Y-100762380D01*
X199932380Y-100667142D01*
X199980000Y-100524285D01*
X200027619Y-100476666D01*
X200360952Y-99905238D02*
X200313333Y-100000476D01*
X200265714Y-100048095D01*
X200170476Y-100095714D01*
X200122857Y-100095714D01*
X200027619Y-100048095D01*
X199980000Y-100000476D01*
X199932380Y-99905238D01*
X199932380Y-99714761D01*
X199980000Y-99619523D01*
X200027619Y-99571904D01*
X200122857Y-99524285D01*
X200170476Y-99524285D01*
X200265714Y-99571904D01*
X200313333Y-99619523D01*
X200360952Y-99714761D01*
X200360952Y-99905238D01*
X200408571Y-100000476D01*
X200456190Y-100048095D01*
X200551428Y-100095714D01*
X200741904Y-100095714D01*
X200837142Y-100048095D01*
X200884761Y-100000476D01*
X200932380Y-99905238D01*
X200932380Y-99714761D01*
X200884761Y-99619523D01*
X200837142Y-99571904D01*
X200741904Y-99524285D01*
X200551428Y-99524285D01*
X200456190Y-99571904D01*
X200408571Y-99619523D01*
X200360952Y-99714761D01*
X146847619Y-45815238D02*
X146800000Y-45910476D01*
X146704761Y-46005714D01*
X146561904Y-46148571D01*
X146514285Y-46243809D01*
X146514285Y-46339047D01*
X146752380Y-46291428D02*
X146704761Y-46386666D01*
X146609523Y-46481904D01*
X146419047Y-46529523D01*
X146085714Y-46529523D01*
X145895238Y-46481904D01*
X145800000Y-46386666D01*
X145752380Y-46291428D01*
X145752380Y-46100952D01*
X145800000Y-46005714D01*
X145895238Y-45910476D01*
X146085714Y-45862857D01*
X146419047Y-45862857D01*
X146609523Y-45910476D01*
X146704761Y-46005714D01*
X146752380Y-46100952D01*
X146752380Y-46291428D01*
X146752380Y-44910476D02*
X146752380Y-45481904D01*
X146752380Y-45196190D02*
X145752380Y-45196190D01*
X145895238Y-45291428D01*
X145990476Y-45386666D01*
X146038095Y-45481904D01*
X183177619Y-132175238D02*
X183130000Y-132270476D01*
X183034761Y-132365714D01*
X182891904Y-132508571D01*
X182844285Y-132603809D01*
X182844285Y-132699047D01*
X183082380Y-132651428D02*
X183034761Y-132746666D01*
X182939523Y-132841904D01*
X182749047Y-132889523D01*
X182415714Y-132889523D01*
X182225238Y-132841904D01*
X182130000Y-132746666D01*
X182082380Y-132651428D01*
X182082380Y-132460952D01*
X182130000Y-132365714D01*
X182225238Y-132270476D01*
X182415714Y-132222857D01*
X182749047Y-132222857D01*
X182939523Y-132270476D01*
X183034761Y-132365714D01*
X183082380Y-132460952D01*
X183082380Y-132651428D01*
X182177619Y-131841904D02*
X182130000Y-131794285D01*
X182082380Y-131699047D01*
X182082380Y-131460952D01*
X182130000Y-131365714D01*
X182177619Y-131318095D01*
X182272857Y-131270476D01*
X182368095Y-131270476D01*
X182510952Y-131318095D01*
X183082380Y-131889523D01*
X183082380Y-131270476D01*
X163734761Y-41187619D02*
X163639523Y-41140000D01*
X163544285Y-41044761D01*
X163401428Y-40901904D01*
X163306190Y-40854285D01*
X163210952Y-40854285D01*
X163258571Y-41092380D02*
X163163333Y-41044761D01*
X163068095Y-40949523D01*
X163020476Y-40759047D01*
X163020476Y-40425714D01*
X163068095Y-40235238D01*
X163163333Y-40140000D01*
X163258571Y-40092380D01*
X163449047Y-40092380D01*
X163544285Y-40140000D01*
X163639523Y-40235238D01*
X163687142Y-40425714D01*
X163687142Y-40759047D01*
X163639523Y-40949523D01*
X163544285Y-41044761D01*
X163449047Y-41092380D01*
X163258571Y-41092380D01*
X164020476Y-40092380D02*
X164639523Y-40092380D01*
X164306190Y-40473333D01*
X164449047Y-40473333D01*
X164544285Y-40520952D01*
X164591904Y-40568571D01*
X164639523Y-40663809D01*
X164639523Y-40901904D01*
X164591904Y-40997142D01*
X164544285Y-41044761D01*
X164449047Y-41092380D01*
X164163333Y-41092380D01*
X164068095Y-41044761D01*
X164020476Y-40997142D01*
X163734761Y-128817619D02*
X163639523Y-128770000D01*
X163544285Y-128674761D01*
X163401428Y-128531904D01*
X163306190Y-128484285D01*
X163210952Y-128484285D01*
X163258571Y-128722380D02*
X163163333Y-128674761D01*
X163068095Y-128579523D01*
X163020476Y-128389047D01*
X163020476Y-128055714D01*
X163068095Y-127865238D01*
X163163333Y-127770000D01*
X163258571Y-127722380D01*
X163449047Y-127722380D01*
X163544285Y-127770000D01*
X163639523Y-127865238D01*
X163687142Y-128055714D01*
X163687142Y-128389047D01*
X163639523Y-128579523D01*
X163544285Y-128674761D01*
X163449047Y-128722380D01*
X163258571Y-128722380D01*
X164544285Y-128055714D02*
X164544285Y-128722380D01*
X164306190Y-127674761D02*
X164068095Y-128389047D01*
X164687142Y-128389047D01*
X147153333Y-81732380D02*
X146820000Y-81256190D01*
X146581904Y-81732380D02*
X146581904Y-80732380D01*
X146962857Y-80732380D01*
X147058095Y-80780000D01*
X147105714Y-80827619D01*
X147153333Y-80922857D01*
X147153333Y-81065714D01*
X147105714Y-81160952D01*
X147058095Y-81208571D01*
X146962857Y-81256190D01*
X146581904Y-81256190D01*
X148105714Y-81732380D02*
X147534285Y-81732380D01*
X147820000Y-81732380D02*
X147820000Y-80732380D01*
X147724761Y-80875238D01*
X147629523Y-80970476D01*
X147534285Y-81018095D01*
X187793333Y-95702380D02*
X187460000Y-95226190D01*
X187221904Y-95702380D02*
X187221904Y-94702380D01*
X187602857Y-94702380D01*
X187698095Y-94750000D01*
X187745714Y-94797619D01*
X187793333Y-94892857D01*
X187793333Y-95035714D01*
X187745714Y-95130952D01*
X187698095Y-95178571D01*
X187602857Y-95226190D01*
X187221904Y-95226190D01*
X188174285Y-94797619D02*
X188221904Y-94750000D01*
X188317142Y-94702380D01*
X188555238Y-94702380D01*
X188650476Y-94750000D01*
X188698095Y-94797619D01*
X188745714Y-94892857D01*
X188745714Y-94988095D01*
X188698095Y-95130952D01*
X188126666Y-95702380D01*
X188745714Y-95702380D01*
X147153333Y-75382380D02*
X146820000Y-74906190D01*
X146581904Y-75382380D02*
X146581904Y-74382380D01*
X146962857Y-74382380D01*
X147058095Y-74430000D01*
X147105714Y-74477619D01*
X147153333Y-74572857D01*
X147153333Y-74715714D01*
X147105714Y-74810952D01*
X147058095Y-74858571D01*
X146962857Y-74906190D01*
X146581904Y-74906190D01*
X147486666Y-74382380D02*
X148105714Y-74382380D01*
X147772380Y-74763333D01*
X147915238Y-74763333D01*
X148010476Y-74810952D01*
X148058095Y-74858571D01*
X148105714Y-74953809D01*
X148105714Y-75191904D01*
X148058095Y-75287142D01*
X148010476Y-75334761D01*
X147915238Y-75382380D01*
X147629523Y-75382380D01*
X147534285Y-75334761D01*
X147486666Y-75287142D01*
X187793333Y-102052380D02*
X187460000Y-101576190D01*
X187221904Y-102052380D02*
X187221904Y-101052380D01*
X187602857Y-101052380D01*
X187698095Y-101100000D01*
X187745714Y-101147619D01*
X187793333Y-101242857D01*
X187793333Y-101385714D01*
X187745714Y-101480952D01*
X187698095Y-101528571D01*
X187602857Y-101576190D01*
X187221904Y-101576190D01*
X188650476Y-101385714D02*
X188650476Y-102052380D01*
X188412380Y-101004761D02*
X188174285Y-101719047D01*
X188793333Y-101719047D01*
X136993333Y-46172380D02*
X136660000Y-45696190D01*
X136421904Y-46172380D02*
X136421904Y-45172380D01*
X136802857Y-45172380D01*
X136898095Y-45220000D01*
X136945714Y-45267619D01*
X136993333Y-45362857D01*
X136993333Y-45505714D01*
X136945714Y-45600952D01*
X136898095Y-45648571D01*
X136802857Y-45696190D01*
X136421904Y-45696190D01*
X137898095Y-45172380D02*
X137421904Y-45172380D01*
X137374285Y-45648571D01*
X137421904Y-45600952D01*
X137517142Y-45553333D01*
X137755238Y-45553333D01*
X137850476Y-45600952D01*
X137898095Y-45648571D01*
X137945714Y-45743809D01*
X137945714Y-45981904D01*
X137898095Y-46077142D01*
X137850476Y-46124761D01*
X137755238Y-46172380D01*
X137517142Y-46172380D01*
X137421904Y-46124761D01*
X137374285Y-46077142D01*
X147153333Y-69032380D02*
X146820000Y-68556190D01*
X146581904Y-69032380D02*
X146581904Y-68032380D01*
X146962857Y-68032380D01*
X147058095Y-68080000D01*
X147105714Y-68127619D01*
X147153333Y-68222857D01*
X147153333Y-68365714D01*
X147105714Y-68460952D01*
X147058095Y-68508571D01*
X146962857Y-68556190D01*
X146581904Y-68556190D01*
X148010476Y-68032380D02*
X147820000Y-68032380D01*
X147724761Y-68080000D01*
X147677142Y-68127619D01*
X147581904Y-68270476D01*
X147534285Y-68460952D01*
X147534285Y-68841904D01*
X147581904Y-68937142D01*
X147629523Y-68984761D01*
X147724761Y-69032380D01*
X147915238Y-69032380D01*
X148010476Y-68984761D01*
X148058095Y-68937142D01*
X148105714Y-68841904D01*
X148105714Y-68603809D01*
X148058095Y-68508571D01*
X148010476Y-68460952D01*
X147915238Y-68413333D01*
X147724761Y-68413333D01*
X147629523Y-68460952D01*
X147581904Y-68508571D01*
X147534285Y-68603809D01*
X191603333Y-132532380D02*
X191270000Y-132056190D01*
X191031904Y-132532380D02*
X191031904Y-131532380D01*
X191412857Y-131532380D01*
X191508095Y-131580000D01*
X191555714Y-131627619D01*
X191603333Y-131722857D01*
X191603333Y-131865714D01*
X191555714Y-131960952D01*
X191508095Y-132008571D01*
X191412857Y-132056190D01*
X191031904Y-132056190D01*
X191936666Y-131532380D02*
X192603333Y-131532380D01*
X192174761Y-132532380D01*
X187793333Y-108402380D02*
X187460000Y-107926190D01*
X187221904Y-108402380D02*
X187221904Y-107402380D01*
X187602857Y-107402380D01*
X187698095Y-107450000D01*
X187745714Y-107497619D01*
X187793333Y-107592857D01*
X187793333Y-107735714D01*
X187745714Y-107830952D01*
X187698095Y-107878571D01*
X187602857Y-107926190D01*
X187221904Y-107926190D01*
X188364761Y-107830952D02*
X188269523Y-107783333D01*
X188221904Y-107735714D01*
X188174285Y-107640476D01*
X188174285Y-107592857D01*
X188221904Y-107497619D01*
X188269523Y-107450000D01*
X188364761Y-107402380D01*
X188555238Y-107402380D01*
X188650476Y-107450000D01*
X188698095Y-107497619D01*
X188745714Y-107592857D01*
X188745714Y-107640476D01*
X188698095Y-107735714D01*
X188650476Y-107783333D01*
X188555238Y-107830952D01*
X188364761Y-107830952D01*
X188269523Y-107878571D01*
X188221904Y-107926190D01*
X188174285Y-108021428D01*
X188174285Y-108211904D01*
X188221904Y-108307142D01*
X188269523Y-108354761D01*
X188364761Y-108402380D01*
X188555238Y-108402380D01*
X188650476Y-108354761D01*
X188698095Y-108307142D01*
X188745714Y-108211904D01*
X188745714Y-108021428D01*
X188698095Y-107926190D01*
X188650476Y-107878571D01*
X188555238Y-107830952D01*
X175712380Y-73826666D02*
X175236190Y-74160000D01*
X175712380Y-74398095D02*
X174712380Y-74398095D01*
X174712380Y-74017142D01*
X174760000Y-73921904D01*
X174807619Y-73874285D01*
X174902857Y-73826666D01*
X175045714Y-73826666D01*
X175140952Y-73874285D01*
X175188571Y-73921904D01*
X175236190Y-74017142D01*
X175236190Y-74398095D01*
X175712380Y-73350476D02*
X175712380Y-73160000D01*
X175664761Y-73064761D01*
X175617142Y-73017142D01*
X175474285Y-72921904D01*
X175283809Y-72874285D01*
X174902857Y-72874285D01*
X174807619Y-72921904D01*
X174760000Y-72969523D01*
X174712380Y-73064761D01*
X174712380Y-73255238D01*
X174760000Y-73350476D01*
X174807619Y-73398095D01*
X174902857Y-73445714D01*
X175140952Y-73445714D01*
X175236190Y-73398095D01*
X175283809Y-73350476D01*
X175331428Y-73255238D01*
X175331428Y-73064761D01*
X175283809Y-72969523D01*
X175236190Y-72921904D01*
X175140952Y-72874285D01*
X157932380Y-102242857D02*
X157456190Y-102576190D01*
X157932380Y-102814285D02*
X156932380Y-102814285D01*
X156932380Y-102433333D01*
X156980000Y-102338095D01*
X157027619Y-102290476D01*
X157122857Y-102242857D01*
X157265714Y-102242857D01*
X157360952Y-102290476D01*
X157408571Y-102338095D01*
X157456190Y-102433333D01*
X157456190Y-102814285D01*
X157932380Y-101290476D02*
X157932380Y-101861904D01*
X157932380Y-101576190D02*
X156932380Y-101576190D01*
X157075238Y-101671428D01*
X157170476Y-101766666D01*
X157218095Y-101861904D01*
X156932380Y-100671428D02*
X156932380Y-100576190D01*
X156980000Y-100480952D01*
X157027619Y-100433333D01*
X157122857Y-100385714D01*
X157313333Y-100338095D01*
X157551428Y-100338095D01*
X157741904Y-100385714D01*
X157837142Y-100433333D01*
X157884761Y-100480952D01*
X157932380Y-100576190D01*
X157932380Y-100671428D01*
X157884761Y-100766666D01*
X157837142Y-100814285D01*
X157741904Y-100861904D01*
X157551428Y-100909523D01*
X157313333Y-100909523D01*
X157122857Y-100861904D01*
X157027619Y-100814285D01*
X156980000Y-100766666D01*
X156932380Y-100671428D01*
X182062380Y-74302857D02*
X181586190Y-74636190D01*
X182062380Y-74874285D02*
X181062380Y-74874285D01*
X181062380Y-74493333D01*
X181110000Y-74398095D01*
X181157619Y-74350476D01*
X181252857Y-74302857D01*
X181395714Y-74302857D01*
X181490952Y-74350476D01*
X181538571Y-74398095D01*
X181586190Y-74493333D01*
X181586190Y-74874285D01*
X182062380Y-73350476D02*
X182062380Y-73921904D01*
X182062380Y-73636190D02*
X181062380Y-73636190D01*
X181205238Y-73731428D01*
X181300476Y-73826666D01*
X181348095Y-73921904D01*
X182062380Y-72398095D02*
X182062380Y-72969523D01*
X182062380Y-72683809D02*
X181062380Y-72683809D01*
X181205238Y-72779047D01*
X181300476Y-72874285D01*
X181348095Y-72969523D01*
X151582380Y-102242857D02*
X151106190Y-102576190D01*
X151582380Y-102814285D02*
X150582380Y-102814285D01*
X150582380Y-102433333D01*
X150630000Y-102338095D01*
X150677619Y-102290476D01*
X150772857Y-102242857D01*
X150915714Y-102242857D01*
X151010952Y-102290476D01*
X151058571Y-102338095D01*
X151106190Y-102433333D01*
X151106190Y-102814285D01*
X151582380Y-101290476D02*
X151582380Y-101861904D01*
X151582380Y-101576190D02*
X150582380Y-101576190D01*
X150725238Y-101671428D01*
X150820476Y-101766666D01*
X150868095Y-101861904D01*
X150677619Y-100909523D02*
X150630000Y-100861904D01*
X150582380Y-100766666D01*
X150582380Y-100528571D01*
X150630000Y-100433333D01*
X150677619Y-100385714D01*
X150772857Y-100338095D01*
X150868095Y-100338095D01*
X151010952Y-100385714D01*
X151582380Y-100957142D01*
X151582380Y-100338095D01*
X201112380Y-74302857D02*
X200636190Y-74636190D01*
X201112380Y-74874285D02*
X200112380Y-74874285D01*
X200112380Y-74493333D01*
X200160000Y-74398095D01*
X200207619Y-74350476D01*
X200302857Y-74302857D01*
X200445714Y-74302857D01*
X200540952Y-74350476D01*
X200588571Y-74398095D01*
X200636190Y-74493333D01*
X200636190Y-74874285D01*
X201112380Y-73350476D02*
X201112380Y-73921904D01*
X201112380Y-73636190D02*
X200112380Y-73636190D01*
X200255238Y-73731428D01*
X200350476Y-73826666D01*
X200398095Y-73921904D01*
X200112380Y-73017142D02*
X200112380Y-72398095D01*
X200493333Y-72731428D01*
X200493333Y-72588571D01*
X200540952Y-72493333D01*
X200588571Y-72445714D01*
X200683809Y-72398095D01*
X200921904Y-72398095D01*
X201017142Y-72445714D01*
X201064761Y-72493333D01*
X201112380Y-72588571D01*
X201112380Y-72874285D01*
X201064761Y-72969523D01*
X201017142Y-73017142D01*
X194762380Y-74302857D02*
X194286190Y-74636190D01*
X194762380Y-74874285D02*
X193762380Y-74874285D01*
X193762380Y-74493333D01*
X193810000Y-74398095D01*
X193857619Y-74350476D01*
X193952857Y-74302857D01*
X194095714Y-74302857D01*
X194190952Y-74350476D01*
X194238571Y-74398095D01*
X194286190Y-74493333D01*
X194286190Y-74874285D01*
X194762380Y-73350476D02*
X194762380Y-73921904D01*
X194762380Y-73636190D02*
X193762380Y-73636190D01*
X193905238Y-73731428D01*
X194000476Y-73826666D01*
X194048095Y-73921904D01*
X194095714Y-72493333D02*
X194762380Y-72493333D01*
X193714761Y-72731428D02*
X194429047Y-72969523D01*
X194429047Y-72350476D01*
X211272380Y-100972857D02*
X210796190Y-101306190D01*
X211272380Y-101544285D02*
X210272380Y-101544285D01*
X210272380Y-101163333D01*
X210320000Y-101068095D01*
X210367619Y-101020476D01*
X210462857Y-100972857D01*
X210605714Y-100972857D01*
X210700952Y-101020476D01*
X210748571Y-101068095D01*
X210796190Y-101163333D01*
X210796190Y-101544285D01*
X211272380Y-100020476D02*
X211272380Y-100591904D01*
X211272380Y-100306190D02*
X210272380Y-100306190D01*
X210415238Y-100401428D01*
X210510476Y-100496666D01*
X210558095Y-100591904D01*
X210272380Y-99115714D02*
X210272380Y-99591904D01*
X210748571Y-99639523D01*
X210700952Y-99591904D01*
X210653333Y-99496666D01*
X210653333Y-99258571D01*
X210700952Y-99163333D01*
X210748571Y-99115714D01*
X210843809Y-99068095D01*
X211081904Y-99068095D01*
X211177142Y-99115714D01*
X211224761Y-99163333D01*
X211272380Y-99258571D01*
X211272380Y-99496666D01*
X211224761Y-99591904D01*
X211177142Y-99639523D01*
X204922380Y-100972857D02*
X204446190Y-101306190D01*
X204922380Y-101544285D02*
X203922380Y-101544285D01*
X203922380Y-101163333D01*
X203970000Y-101068095D01*
X204017619Y-101020476D01*
X204112857Y-100972857D01*
X204255714Y-100972857D01*
X204350952Y-101020476D01*
X204398571Y-101068095D01*
X204446190Y-101163333D01*
X204446190Y-101544285D01*
X204922380Y-100020476D02*
X204922380Y-100591904D01*
X204922380Y-100306190D02*
X203922380Y-100306190D01*
X204065238Y-100401428D01*
X204160476Y-100496666D01*
X204208095Y-100591904D01*
X203922380Y-99163333D02*
X203922380Y-99353809D01*
X203970000Y-99449047D01*
X204017619Y-99496666D01*
X204160476Y-99591904D01*
X204350952Y-99639523D01*
X204731904Y-99639523D01*
X204827142Y-99591904D01*
X204874761Y-99544285D01*
X204922380Y-99449047D01*
X204922380Y-99258571D01*
X204874761Y-99163333D01*
X204827142Y-99115714D01*
X204731904Y-99068095D01*
X204493809Y-99068095D01*
X204398571Y-99115714D01*
X204350952Y-99163333D01*
X204303333Y-99258571D01*
X204303333Y-99449047D01*
X204350952Y-99544285D01*
X204398571Y-99591904D01*
X204493809Y-99639523D01*
X164155714Y-57602380D02*
X163822380Y-57126190D01*
X163584285Y-57602380D02*
X163584285Y-56602380D01*
X163965238Y-56602380D01*
X164060476Y-56650000D01*
X164108095Y-56697619D01*
X164155714Y-56792857D01*
X164155714Y-56935714D01*
X164108095Y-57030952D01*
X164060476Y-57078571D01*
X163965238Y-57126190D01*
X163584285Y-57126190D01*
X164536666Y-57554761D02*
X164631904Y-57602380D01*
X164822380Y-57602380D01*
X164917619Y-57554761D01*
X164965238Y-57459523D01*
X164965238Y-57411904D01*
X164917619Y-57316666D01*
X164822380Y-57269047D01*
X164679523Y-57269047D01*
X164584285Y-57221428D01*
X164536666Y-57126190D01*
X164536666Y-57078571D01*
X164584285Y-56983333D01*
X164679523Y-56935714D01*
X164822380Y-56935714D01*
X164917619Y-56983333D01*
X165393809Y-57602380D02*
X165393809Y-56602380D01*
X165822380Y-57602380D02*
X165822380Y-57078571D01*
X165774761Y-56983333D01*
X165679523Y-56935714D01*
X165536666Y-56935714D01*
X165441428Y-56983333D01*
X165393809Y-57030952D01*
X166727142Y-56935714D02*
X166727142Y-57602380D01*
X166298571Y-56935714D02*
X166298571Y-57459523D01*
X166346190Y-57554761D01*
X166441428Y-57602380D01*
X166584285Y-57602380D01*
X166679523Y-57554761D01*
X166727142Y-57507142D01*
X167203333Y-56935714D02*
X167203333Y-57602380D01*
X167203333Y-57030952D02*
X167250952Y-56983333D01*
X167346190Y-56935714D01*
X167489047Y-56935714D01*
X167584285Y-56983333D01*
X167631904Y-57078571D01*
X167631904Y-57602380D01*
X167965238Y-56935714D02*
X168346190Y-56935714D01*
X168108095Y-56602380D02*
X168108095Y-57459523D01*
X168155714Y-57554761D01*
X168250952Y-57602380D01*
X168346190Y-57602380D01*
X169203333Y-57602380D02*
X168631904Y-57602380D01*
X168917619Y-57602380D02*
X168917619Y-56602380D01*
X168822380Y-56745238D01*
X168727142Y-56840476D01*
X168631904Y-56888095D01*
X165608095Y-73112380D02*
X165608095Y-73921904D01*
X165655714Y-74017142D01*
X165703333Y-74064761D01*
X165798571Y-74112380D01*
X165989047Y-74112380D01*
X166084285Y-74064761D01*
X166131904Y-74017142D01*
X166179523Y-73921904D01*
X166179523Y-73112380D01*
X167179523Y-74112380D02*
X166608095Y-74112380D01*
X166893809Y-74112380D02*
X166893809Y-73112380D01*
X166798571Y-73255238D01*
X166703333Y-73350476D01*
X166608095Y-73398095D01*
X165608095Y-101052380D02*
X165608095Y-101861904D01*
X165655714Y-101957142D01*
X165703333Y-102004761D01*
X165798571Y-102052380D01*
X165989047Y-102052380D01*
X166084285Y-102004761D01*
X166131904Y-101957142D01*
X166179523Y-101861904D01*
X166179523Y-101052380D01*
X166608095Y-101147619D02*
X166655714Y-101100000D01*
X166750952Y-101052380D01*
X166989047Y-101052380D01*
X167084285Y-101100000D01*
X167131904Y-101147619D01*
X167179523Y-101242857D01*
X167179523Y-101338095D01*
X167131904Y-101480952D01*
X166560476Y-102052380D01*
X167179523Y-102052380D01*
M02*
